<svg width="10" height="17" viewBox="0 0 10 17" fill="none" xmlns="http://www.w3.org/2000/svg">
<path d="M0.896138 8.63837C0.896138 8.98906 1.02444 9.27988 1.29815 9.55359L7.88428 15.9943C8.10667 16.2167 8.37182 16.3193 8.6883 16.3193C9.3298 16.3193 9.85156 15.8147 9.85156 15.1732C9.85156 14.8567 9.71471 14.5659 9.48377 14.3349L3.63323 8.64692L9.48377 2.9418C9.71471 2.71086 9.85156 2.42859 9.85156 2.10356C9.85156 1.46206 9.3298 0.948853 8.6883 0.948853C8.37182 0.948853 8.10667 1.06005 7.88428 1.28244L1.29815 7.72316C1.01589 7.99687 0.896138 8.28768 0.896138 8.63837Z" fill="#EDEDED"/>
</svg>
