<svg width="10" height="17" viewBox="0 0 10 17" fill="none" xmlns="http://www.w3.org/2000/svg">
<path d="M9.10386 8.36163C9.10386 8.01094 8.97556 7.72012 8.70185 7.44641L2.11572 1.00569C1.89333 0.783305 1.62818 0.680664 1.3117 0.680664C0.670196 0.680664 0.148438 1.18532 0.148438 1.82682C0.148438 2.1433 0.285292 2.43411 0.516234 2.66506L6.36677 8.35308L0.516234 14.0582C0.285292 14.2891 0.148438 14.5714 0.148438 14.8964C0.148438 15.5379 0.670196 16.0511 1.3117 16.0511C1.62818 16.0511 1.89333 15.94 2.11572 15.7176L8.70185 9.27684C8.98411 9.00313 9.10386 8.71232 9.10386 8.36163Z" fill="#EDEDED"/>
</svg>
