<?xml version="1.0" standalone="no"?>
<!DOCTYPE svg PUBLIC "-//W3C//DTD SVG 1.1//EN" "http://www.w3.org/Graphics/SVG/1.1/DTD/svg11.dtd" >
<svg xmlns="http://www.w3.org/2000/svg" xmlns:xlink="http://www.w3.org/1999/xlink" version="1.1">
<metadata>
Created by FontForge 20201107 at Sun Nov  5 02:50:21 2017
 By
Copyright 1990-1993 Bitstream Inc.  All rights reserved. Rus. Morin Max. 2001
</metadata>
<defs>
<font id="1ShelleyVolanteBold" horiz-adv-x="1024" >
  <font-face
    font-family="1 Shelley Volante"
    font-weight="700"
    font-style="italic"
    font-stretch="normal"
    units-per-em="2048"
    panose-1="3 3 6 2 4 6 7 15 11 5"
    ascent="1638"
    descent="-410"
    x-height="568"
    cap-height="1483"
    bbox="-583 -647 3299 2724"
    underline-thickness="70"
    underline-position="-305"
    slope="-28"
    unicode-range="U+0020-F002"
  />
<missing-glyph
d="M128 0v1938h768v-1938h-768zM256 128h512v1682h-512v-1682z" />
    <glyph glyph-name=".notdef"
d="M128 0v1938h768v-1938h-768zM256 128h512v1682h-512v-1682z" />
    <glyph glyph-name=".null" horiz-adv-x="0"
 />
    <glyph glyph-name="nonmarkingreturn" horiz-adv-x="420"
 />
    <glyph glyph-name="space" unicode=" " horiz-adv-x="420"
 />
    <glyph glyph-name="exclam" unicode="!" horiz-adv-x="541"
d="M232 258q-38 -55 -60 -55q-28 0 -28 25q0 19 23 62l386 705l202 19zM78 -10q-70 0 -70 68q0 38 27.5 70t66.5 32q68 0 68 -68q0 -37 -26 -68q-28 -34 -66 -34z" />
    <glyph glyph-name="quotedbl" unicode="&#x22;" horiz-adv-x="666"
d="M577 1317l-60 -447h-47l-58 447q-4 31 -4 44q0 101 86 101q87 0 87 -101q0 -14 -4 -44zM254 1318l-59 -448h-46l-61 447q-4 29 -4 44q0 101 88 101q86 0 86 -101q0 -12 -4 -43z" />
    <glyph glyph-name="numbersign" unicode="#" horiz-adv-x="1575"
d="M1426 865h-323l-100 -280h348l-35 -98h-348l-175 -487h-117l174 487h-280l-174 -487h-115l174 487h-341l39 98h338l99 280h-368l35 98h369l176 491h115l-174 -491h278l176 491h117l-176 -491h322zM707 865l-101 -280h280l99 280h-278z" />
    <glyph glyph-name="dollar" unicode="$" horiz-adv-x="721"
d="M772 917q49 -50 49 -117q0 -70 -42 -123q-46 -58 -117 -58q-16 0 -45 10l-88 -164q28 -71 28 -136q0 -113 -78.5 -201t-190.5 -111l-81 -148l-44 26l65 119q-52 3 -100 22l-93 -169l-44 26l88 167q-77 67 -77 152t51 144q54 63 140 63q37 0 70 -21l80 151q-25 79 -25 132
q0 110 70.5 192.5t180.5 95.5l86 153l42 -24l-66 -130q49 -5 97 -25l94 174l48 -20zM747 870l-67 -124q5 -39 29 -39q27 0 44 34q15 30 15 65q0 37 -21 64zM627 917q-7 0 -29 -3l-143 -264l49 -121l72 129q-23 25 -23 50q0 69 68 69q8 0 19 -2l65 124q-45 18 -78 18z
M439 723l93 174q-96 -42 -96 -149q0 -10 3 -25zM436 297l-114 -217q114 50 114 206v11zM372 490l-72 -130q15 -26 15 -46q0 -73 -78 -70l-88 -162q49 -18 78 -18q14 0 29 1l165 309q-25 67 -49 116zM159 306l-8 13q-11 18 -14 18q-35 0 -60 -43q-22 -37 -22 -79
q0 -69 51 -111l86 158q-13 11 -33 44z" />
    <glyph glyph-name="percent" unicode="%" horiz-adv-x="1147"
d="M780 -12q-66 0 -105 49q-36 45 -36 109q0 126 100 239q103 118 230 118q118 0 118 -131q0 -117 -91 -245q-99 -139 -216 -139zM1109 981l-26 12q64 3 64 -16q0 -20 -59 -79q-325 -319 -964 -967q-48 -50 -87 -50q-37 0 -37 23q0 18 69 84l867 837q-86 -36 -156 -36
q-98 0 -155 41q-21 -123 -97 -227q-91 -125 -202 -125q-65 0 -105 50q-36 45 -36 109q0 125 99 237q102 117 228 117q65 0 108 -60q19 -30 66 -76q31 -14 92 -14q85 0 282 113q20 10 49 27zM516 935q-55 0 -129 -91q-119 -145 -119 -249q0 -65 56 -65q89 0 172 123
q78 114 78 209q0 73 -58 73zM973 447q-51 0 -129 -94q-119 -141 -119 -247q0 -66 55 -66q89 0 172 123q78 115 78 211q0 73 -57 73z" />
    <glyph glyph-name="ampersand" unicode="&#x26;" horiz-adv-x="1460"
d="M1544 714q-24 0 -65.5 32.5t-42.5 32.5q-83 0 -496 -547q49 -113 49 -256q0 -258 -166 -434q-170 -179 -430 -179q-145 0 -244 69q-114 79 -114 219q0 89 71 166.5t162 77.5q27 0 27 -16q0 -9 -88 -51q-119 -58 -119 -173q0 -94 81 -147q70 -46 173 -46q224 0 408 177.5
t184 397.5q0 68 -32 153q-181 -207 -396 -207q-129 0 -211 73.5t-82 201.5q0 282 489 440q-12 82 -12 105q0 126 68 230q79 120 203 120q80 0 129.5 -46.5t49.5 -125.5q0 -120 -132 -211q-81 -56 -242 -115q26 -103 149 -372q200 262 286 357q225 252 339 252q40 0 65 -28
t25 -67q0 -83 -86 -83zM965 1105q-100 0 -167 -104q-59 -91 -59 -200q0 -17 5 -44q5 -32 6 -44q149 48 219 93q121 76 121 185q0 52 -35 83t-90 31zM717 636q-371 -151 -371 -415q0 -79 44 -133q48 -57 124 -57q197 0 365 209q-110 241 -162 396z" />
    <glyph glyph-name="quotesingle" unicode="'" horiz-adv-x="342"
d="M254 1318l-61 -448h-46l-61 448q-2 15 -2 43q0 101 86 101q88 0 88 -101q0 -14 -4 -43z" />
    <glyph glyph-name="parenleft" unicode="(" horiz-adv-x="664"
d="M1206 1411l-183 -114q-307 -194 -551 -549q-269 -389 -269 -722q0 -165 92 -309q20 -31 20 -39q0 -24 -22 -24q-21 0 -68 64q-137 188 -137 424q0 664 942 1239q184 112 223 112q27 0 27 -22q0 -12 -74 -60z" />
    <glyph glyph-name="parenright" unicode=")" horiz-adv-x="664"
d="M-41 -95q-81 -57 -217 -140q-182 -111 -223 -111q-29 0 -29 20q0 11 260 175q308 194 552 548q268 388 268 721q0 166 -93 312q-20 31 -20 39q0 22 22 22q21 0 68 -64q137 -188 137 -424q0 -316 -230 -628q-186 -252 -495 -470z" />
    <glyph glyph-name="asterisk" unicode="*" horiz-adv-x="711"
d="M905 1207l-154 -26l132 -86q63 -42 63 -71q0 -56 -53 -56q-32 0 -80 55l-100 115l-13 -152q-8 -95 -59 -95q-55 0 -55 55q0 30 70 204l-142 -65q-49 -24 -76 -24q-49 0 -49 57q0 44 94 59l155 26l-132 85q-61 40 -61 72q0 56 51 56q31 0 80 -56l100 -114l12 150
q8 97 57 97q60 0 60 -53q0 -20 -72 -205l142 64q51 24 75 24q49 0 49 -56q0 -44 -94 -60z" />
    <glyph glyph-name="plus" unicode="+" horiz-adv-x="1706"
d="M903 560v-560h-100v560h-559v100h559v561h100v-561h559v-100h-559z" />
    <glyph glyph-name="comma" unicode="," horiz-adv-x="418"
d="M-84 -211q-24 0 -24 23q0 18 41 33l58 18q122 43 122 161.5t92 118.5q71 0 71 -67q0 -97 -132 -194q-125 -93 -228 -93z" />
    <glyph glyph-name="hyphen" unicode="-" horiz-adv-x="729"
d="M598 252h-499l53 90h499z" />
    <glyph glyph-name="hyphen" unicode="&#x2010;" horiz-adv-x="729"
d="M598 252h-499l53 90h499z" />
    <glyph glyph-name="period" unicode="." horiz-adv-x="418"
d="M162 -10q-70 0 -70 61q0 34 27.5 63t66.5 29q68 0 68 -61q0 -33 -27 -62.5t-65 -29.5z" />
    <glyph glyph-name="slash" unicode="/" horiz-adv-x="606"
d="M4 -193l-33 16l650 1307h131z" />
    <glyph glyph-name="zero" unicode="0" horiz-adv-x="834"
d="M670 285q-215 -295 -385 -295q-93 0 -139 91q-35 70 -35 166q0 300 277 565q188 179 333 179q147 0 147 -196q0 -238 -198 -510zM719 942q-114 0 -249 -194q-99 -140 -165 -305q-70 -175 -70 -295q0 -104 62 -104q129 0 305 278q189 299 189 517q0 103 -72 103z" />
    <glyph glyph-name="one" unicode="1" horiz-adv-x="639"
d="M742 896l-457 -876l-194 -22l502 788q-423 -384 -484 -384q-21 0 -21 23q0 61 62 112q37 30 132 78q91 47 119 72q84 79 254 236q75 68 84 68q27 0 27 -22q0 -26 -24 -73z" />
    <glyph glyph-name="two" unicode="2" horiz-adv-x="834"
d="M540 426q-93 -45 -187 -90q-110 -56 -174 -113q61 36 116 36q83 0 110 -48l36 -110q8 -22 26 -22q48 0 139.5 105.5t100.5 105.5q18 0 18 -25q0 -35 -119 -155q-113 -114 -209 -114q-107 0 -122 98q-2 21 -9 61q-6 21 -26 21q-69 0 -152.5 -93t-85.5 -93q-24 0 -24 25
q0 75 117 194q82 83 182 154q114 78 227 156q128 98 182 202q35 67 35 112q0 109 -123 109q-115 0 -208 -76q-99 -79 -99 -188q0 -68 53 -68q62 0 125 55q54 48 85 114q12 28 39 82q15 24 28 24q24 0 24 -38q0 -114 -82 -208q-86 -99 -201 -99q-128 0 -128 130
q0 137 131 234q120 89 262 89q100 0 162.5 -54t62.5 -152q0 -122 -95 -217q-69 -69 -217 -144z" />
    <glyph glyph-name="three" unicode="3" horiz-adv-x="834"
d="M548 521q146 -18 146 -168q0 -147 -146 -259q-136 -104 -288 -104q-92 0 -153 47q-68 52 -68 141q0 127 100 127q76 0 76 -81q0 -32 -34 -62q-4 -4 -62 -44q4 -27 42 -45q34 -15 70 -15q126 0 246 151q93 117 93 190q0 72 -72 72q-28 0 -81.5 -24t-64.5 -24q-28 0 -28 27
q0 19 71 57q165 90 224 136q127 100 127 208q0 82 -113 82q-84 0 -169 -57q-92 -61 -92 -136q0 -54 54 -54q55 0 107 44q46 39 70 92q30 69 44 69q20 0 20 -26q0 -95 -68 -170q-71 -79 -167 -79q-112 0 -112 108q0 115 122 195q108 72 228 72q83 0 137 -40q61 -45 61 -127
q0 -181 -320 -303z" />
    <glyph glyph-name="four" unicode="4" horiz-adv-x="815"
d="M711 315l-1 11q25 2 25 -23q0 -32 -83 -83q-59 -37 -132 -38q-29 -51 -79 -174l-211 -20l136 203q-102 16 -155 16q-26 0 -75 -19.5t-73 -19.5q-30 0 -30 24q0 11 48 77q237 327 416 687l207 19q-238 -356 -543 -711l8 1q22 5 40 5q64 0 198 -23q323 475 359 475
q26 0 24 -27q-104 -196 -233 -447q47 12 132 63q6 4 11 7l3 2q5 0 8 -5z" />
    <glyph glyph-name="five" unicode="5" horiz-adv-x="797"
d="M643 813q-68 0 -135 19l-161 -249q77 37 138 37q96 0 153.5 -58t57.5 -152q0 -170 -154 -297q-146 -121 -321 -121q-200 0 -200 173q0 144 112 144q76 0 76 -81q0 -65 -58 -81q-43 -12 -43 -30q0 -67 105 -67q125 0 241 146q111 138 111 268q0 98 -92 98q-94 0 -242 -142
q-30 -2 -30 25q0 23 15 47l321 510q135 -57 229 -57q68 0 137 36q16 8 21 8q20 0 20 -23q0 -63 -125 -112q-104 -41 -176 -41z" />
    <glyph glyph-name="six" unicode="6" horiz-adv-x="840"
d="M909 730q-71 0 -71 67q0 39 53 101q-2 37 -64 37q-119 0 -256 -130q-107 -101 -201 -255q89 82 171 82q83 0 128 -61q39 -54 39 -136q0 -125 -80 -240q-77 -109 -194 -168q-76 -37 -141 -37q-97 0 -145 86q-37 68 -37 167q0 239 226 480q249 266 494 266q67 0 119 -37
q59 -42 59 -107q0 -44 -26 -77q-29 -38 -74 -38zM530 576q-106 0 -209 -172q-94 -157 -94 -276q0 -84 62 -84q115 0 214 168q89 152 89 280q0 84 -62 84z" />
    <glyph glyph-name="seven" unicode="7" horiz-adv-x="778"
d="M889 889q-6 -7 -29 -36q-313 -390 -569 -853l-194 -11q98 199 276 414q101 122 338 370q-53 -20 -95 -20q-36 0 -100 29l-98 48q-29 13 -39 13q-30 0 -79 -89q-54 -99 -95 -99q-37 0 -37 35q0 20 53 88q58 73 108 156q42 70 68 70q27 0 27 -30q0 -13 -20 -49l-6 -12
q62 34 106 34q29 0 107 -45t100 -45q34 0 90 43q39 34 78 67q36 3 36 -36q0 -8 -26 -42z" />
    <glyph glyph-name="eight" unicode="8" horiz-adv-x="834"
d="M584 537q83 -128 83 -215q0 -140 -119 -239q-112 -93 -257 -93q-95 0 -157 51q-66 55 -66 147q0 176 340 330q-72 115 -72 195q0 122 104 203q96 75 222 75q198 0 198 -178q0 -174 -276 -276zM662 944q-72 0 -124.5 -49.5t-52.5 -120.5q0 -74 70 -194q215 79 215 244
q0 120 -108 120zM434 475q-274 -118 -274 -289q0 -66 39 -106.5t106 -40.5q91 0 154 59.5t63 148.5q0 102 -88 228z" />
    <glyph glyph-name="nine" unicode="9" horiz-adv-x="840"
d="M438 76q-140 -84 -264 -84q-82 0 -143 42q-70 47 -70 127q0 42 23 75q26 38 71 38q80 0 80 -86q0 -42 -55 -109q2 -35 76 -35q138 0 274 143q109 115 183 282q-96 -101 -187 -101q-85 0 -129 65q-37 55 -37 140q0 151 127.5 286.5t280.5 135.5q94 0 143 -85
q39 -68 39 -163q0 -195 -121 -385q-114 -181 -291 -286zM672 944q-115 0 -212 -162q-88 -146 -88 -272q0 -87 54 -87q102 0 207 159q98 149 98 277q0 85 -59 85z" />
    <glyph glyph-name="colon" unicode=":" horiz-adv-x="465"
d="M332 379q-68 0 -68 68q0 37 27.5 68.5t66.5 31.5q68 0 68 -68q0 -36 -28 -68t-66 -32zM96 -10q-69 0 -69 67q0 37 27.5 68.5t66.5 31.5q67 0 67 -67q0 -36 -27 -68t-65 -32z" />
    <glyph glyph-name="semicolon" unicode=";" horiz-adv-x="465"
d="M332 377q-68 0 -68 69q0 37 27.5 69t66.5 32q68 0 68 -68q0 -37 -27 -68q-29 -34 -67 -34zM-166 -211q-26 0 -26 23q0 19 41 35l58 18q122 45 122 165.5t92 120.5q73 0 73 -67q0 -97 -133 -199q-126 -96 -227 -96z" />
    <glyph glyph-name="less" unicode="&#x3c;" horiz-adv-x="1706"
d="M254 574v73l1198 482v-110l-1028 -409l1028 -409v-108z" />
    <glyph glyph-name="equal" unicode="=" horiz-adv-x="1706"
d="M244 736v95h1218v-95h-1218zM244 387v98h1218v-98h-1218z" />
    <glyph glyph-name="greater" unicode="&#x3e;" horiz-adv-x="1706"
d="M254 93v108l1028 409l-1028 409v110l1198 -482v-73z" />
    <glyph glyph-name="question" unicode="?" horiz-adv-x="668"
d="M446 464q-86 -52 -126 -91q-10 -11 -32 -38q-45 -60 -111 -134q-25 -2 -25 25q0 66 171 245l202 194q122 132 122 238q0 67 -88 67q-49 0 -119 -37q-75 -40 -80 -79q76 -57 76 -95q0 -78 -78 -78q-39 0 -62 31q-21 28 -21 65q0 103 95 176q89 67 195 67q93 0 147 -57
t54 -148q0 -117 -110 -213q-39 -33 -210 -138zM96 -10q-69 0 -69 68q0 38 27.5 70t66.5 32q67 0 67 -68q0 -37 -26 -68q-28 -34 -66 -34z" />
    <glyph glyph-name="at" unicode="@" horiz-adv-x="2019"
d="M1658 233q-127 -113 -259 -113q-188 0 -212 195q-119 -193 -310 -193q-134 0 -208 109q-63 94 -63 229q0 228 188 410q144 139 300 139q164 0 220 -173l49 156h141l-173 -615q-18 -63 -18 -99q0 -99 94 -99q101 0 214 104q202 185 202 483q0 299 -202 467
q-190 159 -499 159q-352 0 -591 -220q-273 -251 -273 -667q0 -332 241 -533q227 -191 570 -191q345 0 624 211l40 -45q-307 -226 -664 -226q-377 0 -620 185q-309 235 -309 632q0 413 339 691q268 221 635 221q339 0 546 -172q222 -184 222 -514q0 -332 -224 -531zM1090 957
q-102 0 -191 -128q-158 -227 -158 -446q0 -202 154 -202q130 0 246 173q125 188 125 387q0 85 -46 147q-50 69 -130 69z" />
    <glyph glyph-name="A" unicode="A" horiz-adv-x="2499"
d="M2360 1015q-101 -171 -216 -363h4q123 0 199 -68q78 -71 78 -192q0 -145 -108 -268q-112 -128 -257 -128q-109 0 -167 73q-52 65 -52 174q0 133 85 322q-82 -36 -135 -86q-88 -246 -169 -246q-55 0 -55 60q0 83 186 232q21 50 21 89q0 41 -20 82q-268 -277 -326 -331
q-192 -178 -367 -266q-217 -109 -457 -109q-238 0 -393 127q-166 136 -166 367q0 238 176 393q169 149 412 149q171 0 314 -98q161 -110 161 -274q0 -95 -80 -95q-77 0 -77 95q0 19 9 56t9 56q0 95 -96 148q-79 44 -189 44q-212 0 -361 -155.5t-149 -366.5q0 -190 130 -295
q121 -99 319 -99q299 0 614 235q184 138 485 464q-57 65 -125 65q-88 0 -152 -108q-20 -33 -32 -33q-20 0 -20 20q0 80 81 136q72 51 154 51q92 0 154 -67l288 293q367 375 463 375q53 0 53 -50q0 -25 -226 -408zM2505 1415q-50 0 -393 -349l-298 -304q23 -51 23 -112
q0 -42 -18 -88q61 42 142 69q24 38 185 266l360 512q2 6 -1 6zM2112 594q-140 -276 -140 -430q0 -118 96 -118q109 0 178 112q60 97 60 216q0 213 -194 220z" />
    <glyph glyph-name="B" unicode="B" horiz-adv-x="2030"
d="M1991 1416q-30 -14 -79 -35q144 -93 144 -256q0 -140 -109 -238q-90 -81 -238 -122q277 -81 277 -323q0 -190 -144 -323q-141 -129 -335 -129q-124 0 -204 64q-88 70 -88 191q0 120 94 211q82 78 206 112q22 5 35 5q25 0 25 -27q0 -12 -63 -41l-43 -21
q-195 -92 -195 -268q0 -134 178 -134q104 0 210 93q161 140 161 326q0 210 -192 234q-89 -22 -130 -22q-53 0 -53 49q0 52 76 52q8 0 68 -12q10 -2 15 -2q127 0 205 109q70 97 70 231q0 95 -74 174q-170 -111 -475 -575q-243 -372 -346 -484q-244 -265 -504 -265
q-191 0 -304 113.5t-113 301.5q0 219 138 432q122 187 320 330q448 324 936 324q231 0 402 -76q157 82 192 82q20 0 20 -24q0 -19 -83 -57zM1430 1437q-457 0 -795 -276q-180 -148 -283 -334q-113 -203 -113 -417q0 -154 67 -251q77 -111 224 -111q226 0 470 337
q39 55 209 311q311 472 550 655q-131 86 -329 86z" />
    <glyph glyph-name="C" unicode="C" horiz-adv-x="1821"
d="M1804 1039q55 -50 55 -73q0 -18 -18 -18t-83 64q-402 -244 -951 -245q-101 -164 -101 -334q0 -61 14 -127q294 76 535 76q185 0 323 -57q189 -79 189 -240q0 -139 -149 -215q-118 -60 -268 -60q-225 0 -416 108.5t-309 299.5q-6 -2 -95 -40q-72 -31 -198 -85
q-27 -1 -27 19q0 51 290 156q-42 105 -42 213q0 157 83 311q-376 65 -376 348q0 192 193 301q160 91 366 91q264 0 573 -173q278 92 445 92q201 0 201 -124q0 -113 -234 -288zM1804 1401q-126 0 -339 -87q133 -88 288 -223q183 146 183 238q0 72 -132 72zM1401 1280
q-360 -205 -527 -432q115 -15 162 -15q332 0 672 223q-193 165 -307 224zM760 1449q-158 0 -268 -48q-146 -63 -146 -193q0 -123 117 -216q96 -76 237 -111q160 250 601 443q-272 125 -541 125zM1178 309q-213 0 -445 -57q55 -182 209 -278q144 -90 346 -90q138 0 265 56
q157 69 157 181q0 106 -221 155q-145 33 -311 33z" />
    <glyph glyph-name="D" unicode="D" horiz-adv-x="1817"
d="M1615 240q-249 -250 -636 -250q-133 0 -489 84q-157 -84 -297 -84q-73 0 -127 25q-72 33 -72 102q0 123 209 123q129 0 377 -50q134 95 229 238q-188 53 -303 187q-121 141 -121 330q0 252 173 404q166 146 423 146q242 0 472 -145q124 101 149 101q28 0 28 -24
q0 -16 -123 -114q322 -261 322 -578q0 -281 -214 -495zM866 1388q-178 0 -281 -91q-108 -96 -108 -269q0 -175 112 -317q108 -136 281 -194q56 90 154 252q113 186 152 245q89 136 171 232q-224 142 -481 142zM1401 1215q-102 -119 -233 -355q-148 -268 -218 -364
q50 -6 88 -6q122 0 222 52q109 57 156 159q11 30 23 60q18 43 38 43q24 0 24 -30q0 -91 -97 -192q-169 -176 -421 -176q-9 0 -98 5q-89 -119 -232 -231q342 -58 492 -58q252 0 423 142q181 151 181 394q0 310 -348 557zM121 156q-64 0 -64 -46q0 -71 146 -71q87 0 199 56
q-191 61 -281 61z" />
    <glyph glyph-name="E" unicode="E" horiz-adv-x="1688"
d="M1180 -127q-372 0 -599 238q-126 132 -157 304q-18 -8 -170 -111q-104 -70 -184 -70q-23 0 -23 21q0 59 369 214v15q0 402 543 468l-11 46q-120 -12 -162 -12q-171 0 -291 52q-165 72 -165 224q0 141 129 230q115 79 262 79q210 0 454 -176q144 81 265 81q161 0 161 -119
q0 -221 -500 -334q3 -26 13 -61q334 -11 334 -162q0 -112 -148 -112q-112 0 -201 58q-92 59 -131 161q-421 -47 -421 -330q0 -24 4 -60q202 56 399 56q228 0 413 -74q251 -99 251 -294q0 -172 -138 -259q-115 -73 -296 -73zM1413 1426q-144 0 -228 -103q-77 -94 -83 -242
q412 77 412 253q0 92 -101 92zM1130 911q89 -166 213 -166q52 0 52 47q0 109 -265 119zM711 1503q-118 0 -204 -41q-108 -51 -108 -150q0 -122 181 -193q141 -56 297 -56q33 0 72 3q24 179 179 302q-208 135 -417 135zM866 501q-140 0 -301 -38q67 -230 254 -376
q192 -150 430 -150q108 0 188 44q95 53 95 147q0 182 -248 288q-197 85 -418 85z" />
    <glyph glyph-name="F" unicode="F" horiz-adv-x="1962"
d="M2052 1267q-27 0 -74 -23q-166 -79 -325 -371q59 -12 106 -28q120 34 241 117q32 22 40 22q20 0 20 -22q0 -57 -233 -150q159 -94 159 -268q0 -153 -126 -261q-120 -104 -275 -104q-137 0 -330 119q-310 -321 -645 -321q-220 0 -358 149q-133 144 -133 362q0 103 32 190
q44 124 134 124q83 0 83 -85q0 -37 -22 -69q-26 -35 -65 -35q-9 0 -27 2t-27 2q-53 0 -53 -98q0 -186 178 -314q163 -116 361 -116q276 0 498 243q-373 327 -373 744q0 190 95 300q102 117 292 117q101 0 368 -80.5t419 -81.5q131 95 218 95q72 0 72 -58q0 -103 -250 -101z
M1802 1249q-111 0 -328.5 43.5t-328.5 43.5q-258 0 -258 -260q0 -181 122 -366q107 -163 275 -286q119 156 188 296q-147 9 -147 80q0 91 180 91q11 0 30.5 -2.5t27.5 -3.5q164 276 330 367q-54 -3 -91 -3zM1747 773q-33 0 -91 -20q-65 -23 -91 -27q-111 -199 -229 -336
q163 -91 300 -91q128 0 209 61q89 67 89 187q0 82 -53 152q-56 74 -134 74z" />
    <glyph glyph-name="G" unicode="G" horiz-adv-x="1669"
d="M1511 829q-294 0 -441 199q-95 -158 -95 -319q0 -126 72 -202t198 -76q78 0 153 34q70 131 153 225q120 136 223 136q69 0 69 -83q0 -78 -97 -162q-71 -61 -166 -107q-388 -730 -962 -730q-241 0 -387 124q-155 132 -155 368q0 196 111 361q126 186 317 186
q143 0 143 -112q0 -41 -26 -70t-68 -29q-37 0 -95.5 54.5t-64.5 54.5q-101 0 -161 -120q-50 -98 -50 -215q0 -229 144 -381q147 -157 376 -157q412 0 657 586q-101 -29 -173 -29q-169 0 -270 103.5t-101 270.5q0 212 178 414q-32 101 -32 168q0 167 113.5 283t281.5 116
q124 0 208 -66q89 -71 93 -191q352 -4 352 -251q0 -176 -167 -287q-147 -96 -331 -96zM1372 1660q-128 0 -206 -90q-73 -86 -73 -216q0 -39 12 -97q237 175 498 203q-4 92 -68.5 146t-162.5 54zM1692 1398q2 0 -31 -1q-40 -212 -88 -212q-24 0 -24 20t23 90q30 93 31 96
q-282 -32 -466 -260q45 -112 166 -174q108 -56 241 -56q148 0 273 79q141 88 141 223q0 100 -84 151q-71 44 -182 44zM1772 766q-45 0 -152 -213q168 102 168 184q0 29 -16 29z" />
    <glyph glyph-name="H" unicode="H" horiz-adv-x="2503"
d="M1926 819q-147 -284 -147 -502q0 -224 121 -256q-3 53 -3 97q0 193 76 335q96 179 278 179q103 0 164 -72q57 -67 57 -169q0 -184 -159 -310q-144 -115 -335 -128q2 -29 17 -123q4 -26 -25 -26q-31 0 -57 151q-140 16 -218 122q-71 97 -71 241q0 197 110 412l-316 -79
q-151 -291 -365 -475q-258 -222 -547 -222q-183 0 -305 112q-125 114 -125 294q0 210 176 356q166 138 381 138q131 0 223 -62q97 -66 127 -189l364 88q198 357 386 546q-114 -57 -234 -57q-64 0 -160 33q-79 27 -157 54q-54 16 -90 16q-91 0 -91 -135q0 -111 89 -282
q26 -51 26 -60q0 -24 -18 -24q-49 0 -105 159q-49 141 -49 211q0 110 60 184q65 80 176 80q61 0 168 -48l166 -76q57 -23 92 -23q92 0 209 67q24 26 56 61q53 58 89 58q47 0 47 -46q0 -70 -136 -102q-229 -227 -414 -590l311 79q153 223 367 410q275 239 476 239
q149 0 149 -143q0 -302 -834 -523zM2578 1427q-147 0 -343 -198q-150 -151 -266 -343q242 72 424 177q259 149 259 301q0 63 -74 63zM1974 52q161 1 267 102t106 259q0 79 -31 134q-37 67 -106 67q-130 0 -192 -219q-41 -147 -44 -343zM987 587v-4q0 -143 -103 -259
q-107 -121 -251 -121q-143 0 -143 139q0 175 367 272q-74 214 -284 214q-151 0 -255.5 -102t-104.5 -251q0 -171 109.5 -276.5t283.5 -105.5q232 0 425 184q137 131 280 390zM874 560q-284 -65 -284 -191q0 -90 104 -90q92 0 141 80q40 67 40 169q0 22 -1 32z" />
    <glyph glyph-name="I" unicode="I" horiz-adv-x="1612"
d="M1542 601q115 -120 115 -129q0 -23 -23 -23q-37 0 -127 104q-134 -176 -285 -302q25 -65 25 -133q0 -160 -102 -276q-107 -121 -268 -121q-41 0 -41 27q0 14 99 40q224 58 224 320q0 41 -9 91q-312 -212 -562 -212q-209 0 -342 119q-139 123 -139 328q0 204 143 339
q141 132 348 132q135 0 230 -72q104 -79 104 -210q0 -83 -50 -163q221 -5 315 -160q135 121 235 341q-182 231 -182 498q0 119 42 208q56 117 168 117q124 0 195 -129q57 -105 57 -235q0 -203 -170 -499zM1448 1419q-113 0 -113 -242q0 -245 125 -469q103 259 103 502
q0 209 -115 209zM842 410q-109 -114 -176 -114q-62 0 -62 49q0 80 217 113q15 44 15 88q0 123 -92 210t-218 87q-138 0 -222.5 -94.5t-84.5 -233.5q0 -195 135 -318q131 -120 330 -120q226 0 447 172q-70 160 -289 161z" />
    <glyph glyph-name="J" unicode="J" horiz-adv-x="1565"
d="M2165 1342q-57 -16 -134 -39q-7 -2 -37 -26q-99 -81 -222 -275q-54 -86 -181 -315q-299 -538 -505 -706l114 -78q72 -53 72 -105q0 -21 -21 -21q-50 0 -203 172q-266 -207 -536 -207q-212 0 -331 128q-115 123 -115 334q0 286 139 286q77 0 77 -85q0 -53 -38 -81
q-16 -12 -82 -37q-46 -18 -46 -47q0 -179 160 -294q145 -103 336 -103q214 0 399 142q-273 297 -273 673q0 527 531 628q116 22 400 32q265 9 339 48q54 31 107 61q82 46 103 46q55 0 55 -46q0 -47 -108 -85zM1277 1155q-456 -165 -456 -591q0 -303 229 -543
q139 123 277 355q109 200 218 399q215 383 381 514q-74 -17 -302 -54t-347 -80z" />
    <glyph glyph-name="K" unicode="K" horiz-adv-x="2503"
d="M2765 1198q-76 0 -76 78q0 16 14.5 46t14.5 39q0 37 -76 37q-86 0 -230 -134q-56 -52 -199 -210q-240 -268 -518 -376q150 -123 150 -292q0 -30 -4 -88.5t-4 -87.5q0 -171 129 -171q154 0 260.5 107t106.5 259q0 73 -32 128q-38 63 -103 63q-78 0 -200 -118q-26 4 -26 21
q0 53 104 112q96 55 152 55q102 0 164 -67q59 -64 59 -165q0 -185 -166 -319q-156 -127 -346 -127q-127 0 -200 83q-68 79 -68 205q0 34 4.5 102t4.5 102q0 119 -50 168q-94 -40 -197 -55q-154 -264 -356 -418q-239 -183 -514 -183q-211 0 -338 117q-131 120 -131 327
q0 80 26 141q36 85 111 85q80 0 80 -76q0 -57 -38 -82q-17 -10 -86 -29q-46 -13 -46 -45q0 -88 142 -213q153 -135 391 -135q224 0 400 152q134 116 263 348q-227 7 -227 120q0 59 65 88q50 22 117 22q85 0 159 -19q94 152 125 198q72 110 139 188q-144 -78 -269 -78
q-111 0 -160 131q-10 30 -31 84q-16 33 -38 33q-57 0 -151 -109q-75 -88 -117 -170q-23 -60 -72 -179q-21 -51 -33 -51q-23 0 -23 20q0 54 52 167q66 144 164 258q132 155 253 155q65 0 112 -69q3 -5 65 -129q34 -69 71 -69q59 0 171 57q92 46 157 97q48 39 97 78
q70 53 105 53q41 0 41 -40q0 -37 -86 -80q-61 -26 -121 -52q-3 -1 -24 -18q-138 -111 -353 -502q44 -18 124 -57q138 59 330 259q271 281 320 322q189 158 361 158q75 0 134 -27q77 -37 77 -108q0 -45 -30 -80t-76 -35zM1502 724l-42 -77q66 9 132 34q-46 32 -90 43z
M1348 754q-119 0 -119 -62q0 -60 117 -60h22l57 113q-43 9 -77 9z" />
    <glyph glyph-name="L" unicode="L" horiz-adv-x="1839"
d="M1384 602q-155 0 -315 76q-135 -234 -232 -351q-159 -190 -337 -247q300 -90 381 -111q228 -57 389 -57q172 0 285 69q135 81 135 237q0 19 -5 57.5t-5 57.5q0 26 22 26q39 0 39 -123q0 -208 -161 -339q-150 -122 -363 -122q-187 0 -816 272q-141 -50 -268 -50
q-155 0 -155 93q0 72 98 72q71 0 234 -36l89 -20q41 0 97 21q257 95 496 598q-185 144 -185 345q0 190 135 303q127 106 322 106q92 0 92 -31q0 -20 -40 -22q17 1 -40 1q-163 0 -256 -110q-88 -103 -88 -267q0 -141 94 -259q321 644 735 644q135 0 220 -73q89 -76 89 -209
q0 -247 -226 -407q-203 -144 -460 -144zM1739 1382q-326 0 -636 -645q129 -86 283 -86q232 0 387 131q163 138 163 363q0 237 -197 237z" />
    <glyph glyph-name="M" unicode="M" horiz-adv-x="2535"
d="M3141 862q-194 -161 -446 -161q-190 0 -409 127q-203 -253 -203 -552q0 -214 119 -214q78 0 185 91q38 32 154 153q27 2 27 -19q0 -35 -105 -127q-197 -172 -343 -172q-101 0 -153 94q-42 75 -42 178q0 295 301 609q-38 29 -69 58q-284 -273 -499 -643q-22 -38 -31 -62
q-25 -74 -49 -149q-43 -98 -105 -98q-58 0 -58 57q0 91 144 228q13 13 19.5 21.5t36.5 81.5q104 255 123 573q-165 -493 -652 -787q-267 -161 -515 -161q-226 0 -367 122q-148 129 -148 350q0 229 160 385t392 156q151 0 249.5 -90t98.5 -238q0 -107 -78 -220
q-86 -124 -192 -124q-28 0 -28 22q0 11 76 51q100 52 100 196q0 139 -91 226t-233 87q-155 0 -256 -96t-101 -248q0 -218 155 -353q149 -129 374 -129q376 0 674 376q270 340 270 672q0 278 -211 278q-145 0 -243.5 -99.5t-98.5 -243.5q0 -86 32 -144q40 -70 116 -70
q109 0 201 140q21 32 30 32q24 0 24 -22q0 -85 -108 -157q-98 -65 -186 -65q-109 0 -173.5 66t-64.5 174q0 174 165 310q156 128 335 128q183 0 272 -134q74 -112 74 -298q0 -270 -97 -573q194 330 389 557q-148 203 -148 398q0 54 46 52q18 -77 61 -207q49 -149 79 -201
q365 371 741 371q158 0 282 -62q156 -78 156 -224t-158 -277zM2957 1336q-332 0 -765 -371q37 -36 74 -60q255 240 415 240q84 0 84 -77q0 -40 -27.5 -67t-68.5 -27q-25 0 -75 25t-73 25q-90 0 -203 -153q153 -90 299 -90q286 0 492 154q139 104 139 206q0 103 -96 154
q-77 41 -195 41z" />
    <glyph glyph-name="N" unicode="N" horiz-adv-x="2286"
d="M2862 1246q-66 -22 -171 -39q-434 -303 -678 -826q-18 -38 -40 -122q-20 -275 -118 -275q-46 0 -46 54q0 78 118 286q15 91 15 179q0 310 -153 576q-481 -1079 -1171 -1079q-237 0 -368 118q-137 123 -137 354q0 101 28 185q40 118 121 118q76 0 76 -85q0 -56 -89 -91
t-89 -113q0 -173 191 -293q170 -106 360 -106q353 0 655 368q233 283 376 694q-203 243 -470 243q-199 0 -320 -123.5t-121 -321.5q0 -138 78 -237q84 -108 217 -108q139 0 239 167q20 41 58 99q27 1 27 -20q0 -44 -72 -139q-140 -184 -344 -184q-149 0 -240 101
q-87 96 -87 244q0 255 211 432q200 168 462 168q236 0 412 -156q26 154 61 154q41 0 41 -37q0 -38 -48 -173q165 -232 165 -545q0 -138 -21 -276q200 455 557 754q-85 -9 -120 -9q-141 0 -178 12q-18 6 -18 18q0 22 28 22q2 0 19 -2q67 -8 124 -8q83 0 219 23
q187 177 295 177q78 0 78 -68q0 -66 -132 -110z" />
    <glyph glyph-name="O" unicode="O" horiz-adv-x="1253"
d="M1405 863q-16 -22 -44 -67q-7 -20 -23 -58q-165 -403 -447 -603q23 -2 35 -2q163 0 308 155q13 15 43 42q23 2 23 -17q0 -85 -164 -165q-144 -71 -239 -71q2 0 -88 8q-182 -95 -330 -95q-201 0 -312 133q-103 124 -103 325q0 243 155 489q149 239 383 391
q246 159 492 159q173 0 279.5 -101t106.5 -271q0 -123 -75 -252zM1079 1243q-135 0 -278 -167q-185 -215 -185 -515q0 -132 43 -240q54 -132 157 -169q278 166 400 538q-123 -58 -288 -58q-36 0 -58 2q-57 5 -57 26q0 26 48 27q12 1 30.5 -0.5t19.5 -1.5q237 0 327 87
q30 143 30 216q0 255 -189 255zM1079 1439q-164 0 -328 -100q-144 -88 -258 -232q-256 -324 -256 -693q0 -364 273 -364q89 0 220 60q-115 51 -179 160q-61 104 -61 233q0 357 261 617q171 171 339 171q149 0 225 -115q64 -97 62 -247q30 72 30 140q0 161 -82 261
q-88 109 -246 109z" />
    <glyph glyph-name="P" unicode="P" horiz-adv-x="2038"
d="M1952 659q-100 0 -175 38q-97 48 -97 142q0 110 92 110q89 0 89 -74q0 -18 -13 -50t-13 -48q0 -69 117 -69q120 0 187 82q63 77 63 200q0 191 -113 304.5t-307 113.5q-281 0 -485 -215q-145 -153 -172 -425q174 -34 302 -108q83 182 216 387q179 278 268 278q22 0 22 -22
q0 -50 -68 -100q-93 -69 -102 -81q-35 -46 -166 -298l-107 -205q251 -181 251 -374q0 -120 -66 -189q-68 -72 -188 -72q-213 0 -359 197q-239 -197 -497 -197q-244 0 -381 150q-131 144 -131 387q0 101 31 181q43 114 133 114q89 0 89 -105q0 -52 -39 -75q-21 -13 -79 -23
q-52 -9 -68 -24t-16 -62q0 -193 189 -320q170 -114 378 -114q186 0 364 126q-114 194 -114 407q0 47 5 97h-21q-135 0 -224 -58q-102 -67 -102 -191q0 -136 116 -166q29 -6 86 -20q27 -7 27 -18q0 -25 -40 -25q-128 0 -212 57q-97 67 -97 190q0 178 166 244q108 43 313 43
q72 302 299 498q237 204 546 204q199 0 346 -100q168 -114 168 -305q0 -176 -115 -296q-118 -121 -296 -121zM1465 578q-124 -195 -229 -301q59 -85 136 -143q93 -70 176 -70q144 0 144 150q0 202 -227 364zM1121 716q-1 -17 -1 -41q0 -172 89 -353q80 87 196 293
q-164 85 -284 101z" />
    <glyph glyph-name="Q" unicode="Q" horiz-adv-x="1536"
d="M2179 -323q-15 -15 -47 -41q-178 -146 -434 -146q-229 0 -455 203q-115 104 -335 389q-256 -97 -476 -97q-148 0 -248 67q-116 77 -116 220q0 134 93 211q87 71 224 71q165 0 337 -124q94 -69 269 -249q268 123 425 312q178 215 178 481q0 180 -86 290q-94 121 -269 121
q-73 0 -167 -28q170 -30 270 -137q106 -113 106 -287q0 -198 -136 -347q-140 -154 -339 -154q-164 0 -268 110q-101 107 -101 269q0 146 82 284q76 127 203 218q-223 -14 -357 -138q-141 -132 -141 -352q0 -10 2 -30t2 -30q0 -26 -20 -26q-33 0 -33 84q0 261 173 407
q162 137 429 137h29q139 67 270 67q203 0 326 -127q120 -124 120 -325q0 -269 -206 -505q-169 -193 -447 -336q227 -244 368 -359q254 -207 441 -207q93 0 178 46q57 30 116 85q50 45 54 45q21 0 21 -16q0 -22 -35 -56zM968 1310q-223 -150 -223 -410q0 -156 70 -267
q82 -129 227 -129q140 0 218 114q69 100 69 248q0 174 -93 298q-101 135 -268 146zM362 502q-87 0 -143 -40q-62 -45 -62 -125q0 -131 140 -205q115 -61 266 -61q154 0 306 56q-266 375 -507 375z" />
    <glyph glyph-name="R" unicode="R" horiz-adv-x="2148"
d="M1597 -8q-161 0 -265.5 99.5t-104.5 257.5q0 222 351 437q110 67 153 123q57 73 57 182q0 135 -81 208q-113 -65 -231 -217q-80 -102 -209 -311q-149 -243 -199 -315q-127 -183 -242 -279q129 -77 423 -134q0 -51 -170 -51q-315 0 -538 46q-176 -42 -271 -42
q-83 0 -152 22q-97 30 -97 92q0 73 108 73q48 0 161 -26q2 0 247 -62q70 16 169 69q-313 174 -313 509q0 333 336 573q313 224 696 224q195 0 342 -73q127 61 160 61q22 0 22 -24q0 -19 -123 -75q128 -96 128 -229q0 -153 -153 -264q-142 -89 -284 -177q-153 -112 -153 -267
q0 -145 92 -245q95 -103 240 -103q113 0 180.5 65t67.5 176q0 87 -45 147q-49 66 -132 66q-67 0 -125.5 -56t-60.5 -56q-24 0 -24 20q0 64 102 119q88 47 156 47q106 0 175.5 -67.5t69.5 -171.5q0 -161 -155 -271q-141 -100 -308 -100zM1358 1415q-314 0 -541 -190
q-275 -232 -275 -552q0 -295 232 -459q100 82 280 382q162 269 264 404q176 232 348 330q-108 85 -308 85zM765 134q-66 -41 -126 -64q112 -22 264 -22q37 0 83 4q-118 30 -221 82z" />
    <glyph glyph-name="S" unicode="S" horiz-adv-x="1759"
d="M1982 867q-146 0 -213 121l-77 -76q118 -153 118 -195q0 -23 -27 -21q-22 27 -126 181q-163 -120 -271 -161q-216 -726 -782 -726q-222 0 -359 126q-142 129 -142 347q0 105 45 215q57 142 151 142q35 0 59.5 -25t24.5 -60q0 -93 -104 -93q-14 0 -40 8.5t-40 8.5
q-27 0 -27 -96q0 -209 161 -356q158 -143 372 -143q230 0 370 192q111 153 156 408q-153 -36 -262 -36q-220 0 -373 107q-172 122 -172 333q0 175 118 283q114 105 292 105q260 0 578 -262q211 262 546 262q140 0 233 -68q105 -76 105 -212q0 -135 -88.5 -222t-225.5 -87z
M1894 1406q-259 0 -375 -299q53 -49 140 -153q45 35 96 92q-8 61 -8 71q0 44 22 90q27 58 72 58q53 0 53 -60q0 -24 -93 -176q52 -113 165 -113q91 0 147 67q54 64 54 156q0 119 -76 193t-197 74zM1498 1054l-87 -260q108 43 215 127q-68 85 -128 133zM788 1367
q-135 0 -216 -59q-91 -66 -91 -191q0 -180 203 -292q172 -94 375 -94q72 0 189 18q54 283 132 402q-288 216 -592 216z" />
    <glyph glyph-name="T" unicode="T" horiz-adv-x="1597"
d="M2176 1284q-56 -14 -143 -21q-134 -89 -298 -319q-80 -112 -239 -374q-354 -580 -787 -580q-245 0 -385.5 140.5t-140.5 382.5q0 106 29 181q40 106 126 106q80 0 80 -79q0 -51 -29 -75q-20 -16 -73 -28q-45 -10 -61 -23q-26 -20 -26 -66q0 -174 170 -311
q162 -131 373 -131q218 0 408 170q136 122 294 377q231 370 241 383q107 147 216 235q-117 -20 -209 -20q-145 0 -428 56t-428 56q-216 0 -270 -168q135 26 238 26q194 0 344 -84q182 -102 182 -283q0 -157 -122.5 -268.5t-281.5 -111.5q-202 0 -328 161q-116 147 -116 350
q0 67 15 143q-97 -25 -225 -96q-15 -9 -21 -9q-25 0 -25 24q0 26 121 76q90 38 164 59q46 144 175 233q126 87 281 87q100 0 334 -61q421 -109 615 -109q50 0 241 83q38 16 51 16q53 0 53 -44q0 -56 -115 -84zM715 1136q-62 0 -137 -15q-9 -63 -9 -91q0 -197 139 -333
t339 -136q103 0 166 49q69 52 69 150q0 175 -200 284q-168 92 -367 92z" />
    <glyph glyph-name="U" unicode="U" horiz-adv-x="1841"
d="M1428 390q-27 -124 -27 -190q0 -148 82 -148q97 0 201 91q80 80 161 160q25 1 25 -21q0 -20 -81 -103q-182 -189 -337 -189q-195 0 -200 280q-408 -280 -566 -280q-188 0 -188 197q0 153 114 325q-360 27 -360 336q0 264 281 471q212 156 421 156q112 0 185 -68.5
t73 -178.5q0 -159 -117 -353q-75 -123 -231 -304q131 27 293 119q11 6 17 6q24 0 24 -25q0 -40 -161 -98q-124 -44 -217 -63q-206 -235 -206 -389q0 -84 86 -84q137 0 557 298q33 279 318 655q119 156 246 280q193 186 303 186q69 0 69 -89q0 -176 -305 -522
q-197 -223 -460 -455zM2120 1415q-84 0 -283 -251q-264 -332 -382 -676q129 113 236 227q123 132 265 328q184 254 184 343q0 29 -20 29zM948 1429q-151 0 -311 -118q-252 -184 -252 -483q0 -257 270 -265q486 555 486 706q0 78 -57 121q-52 39 -136 39z" />
    <glyph glyph-name="V" unicode="V" horiz-adv-x="2105"
d="M914 60q928 5 1216 956q-57 163 -57 247q0 65 20 119q28 74 82 74q90 0 90 -181q0 -104 -43 -299q23 -103 144 -165q4 -2 24 -10q104 -35 104 -51q0 -29 -34 -29q-67 0 -147 55q-71 48 -118 112q-372 -898 -1452 -898q-466 0 -466 139q0 66 81 66q59 0 205 -51
q142 -49 213 -49q296 0 488 218q184 209 184 507q0 228 -100 381q-116 179 -332 179q-185 0 -320.5 -113.5t-161.5 -292.5q123 52 259 52q178 0 292 -84q129 -94 129 -265q0 -168 -115 -267q-109 -95 -280 -95q-191 0 -308 126q-113 122 -113 311q0 39 6 80
q-10 -9 -160 -157q-27 -2 -27 21q0 36 86 116q69 65 122 99q49 235 238 394t431 159q246 0 380 -158q125 -148 125 -394q0 -313 -192 -549q-189 -232 -493 -303zM741 954q-93 0 -211 -44q-2 -23 -2 -73q0 -170 115 -298q119 -134 287 -134q94 0 156.5 58.5t62.5 150.5
q0 144 -132 245q-123 95 -276 95z" />
    <glyph glyph-name="W" unicode="W" horiz-adv-x="2195"
d="M2672 871q-133 -160 -327 -160q-38 0 -94 9q-131 -270 -323 -470q-249 -260 -486 -260q-144 0 -214 135q-54 104 -54 256q0 293 231 646q-390 -388 -695 -706q-32 -28 -82 -96q-122 -264 -239 -264q-41 0 -41 54q0 42 170 194q136 122 191 342q10 41 36 170
q62 307 196 454q132 144 222 199q-343 -25 -569 -193q-260 -193 -260 -512q0 -93 42 -212q4 -11 5 -20q-6 -17 -21 -17q-32 0 -76 163q-40 149 -40 207q0 346 341 510q258 124 644 124h31q44 0 53 -23q-123 -63 -188 -120q-59 -51 -198 -416q-50 -132 -157 -394
q339 399 695 699q36 26 103 91q165 209 263 209q53 0 53 -41q0 -49 -122 -133l-168 -108q-62 -47 -100 -116q-19 -34 -60 -138q-101 -261 -101 -474q0 -146 37 -245q52 -141 166 -141q188 0 385 247q155 195 242 430q-236 117 -236 392q0 119 58 214q68 113 184 113
q200 0 200 -298q0 -148 -95 -394q49 -15 91 -15q103 0 182 54q60 41 132 134q31 40 31 52q30 1 30 -18q0 -33 -68 -114zM2118 1402q-58 0 -91 -70q-26 -57 -26 -128q0 -110 48 -215q50 -110 135 -173q59 165 59 349q0 79 -28 149q-36 88 -97 88z" />
    <glyph glyph-name="X" unicode="X" horiz-adv-x="1962"
d="M1445 706q-135 -261 -260 -370q36 -119 128 -193q95 -77 217 -77q119 0 215 94q88 86 117 209q13 68 43 212q30 -1 30 -40q0 -222 -102 -356q-161 -210 -395 -210q-132 0 -230.5 67t-143.5 187q-291 -247 -579 -247q-148 0 -247 71q-113 80 -113 223q0 141 118 243
q96 82 249 125v25q0 313 174 538q191 247 501 247q125 0 220 -56q104 -62 139 -174q313 230 604 230q202 0 202 -191q0 -237 -339 -399q-239 -114 -548 -158zM2120 1404q-259 0 -575 -238q5 -47 5 -79q0 -155 -79 -325q271 43 492 175q276 166 276 384q0 83 -119 83z
M1423 1066q-156 -159 -220 -339l191 21q40 129 40 214q0 37 -11 104zM1075 1359q-252 0 -403 -228q-132 -199 -132 -464v-13q195 44 565 65q91 212 307 403q-26 111 -123 176q-92 61 -214 61zM1186 673q-21 -91 -21 -170q0 -42 7 -104q135 139 203 296q-66 -10 -189 -22z
M543 600q3 -38 18 -169q3 -29 -20 -29q-21 0 -36 101q-5 37 -10 86q-274 -70 -274 -242q0 -123 115 -193q98 -60 235 -60q262 0 473 185q-16 73 -16 120q0 119 57 267q-358 -23 -542 -66z" />
    <glyph glyph-name="Y" unicode="Y" horiz-adv-x="1892"
d="M1552 309q-176 -315 -389 -504q-274 -245 -575 -245q-230 0 -359 121q-133 125 -133 351q0 108 32 205q44 135 128 135q78 0 78 -81q0 -52 -42 -87q-21 -16 -88 -47q-59 -28 -59 -76q0 -108 112 -229q171 -185 441 -185q239 0 423 161q138 120 279 369
q-290 -200 -425 -200q-205 0 -205 276q0 147 138 364q27 43 255 354q138 188 138 261q0 148 -146 148q-184 0 -379 -164q-258 -218 -258 -575q0 -153 68 -333q4 -11 4 -17q0 -20 -23 -20q-34 0 -68 177q-30 151 -30 224q0 341 199 579q180 214 422 214q257 0 257 -251
q0 -155 -234 -553q-210 -355 -210 -499q0 -128 92 -128q139 0 463 250q180 362 390 676q327 490 511 490q82 0 82 -93q0 -223 -346 -589q-245 -259 -543 -479zM2365 1421q-139 0 -408 -406q-167 -250 -351 -604q234 181 545 579q241 308 241 394q0 37 -27 37z" />
    <glyph glyph-name="Z" unicode="Z" horiz-adv-x="1569"
d="M2308 -252q-15 -17 -44 -44q-233 -218 -513 -218q-193 0 -603 250q-210 127 -327 187q-223 112 -348 116l-5 1h-3q-275 -53 -328 -53q-88 0 -88 60q0 69 154 69q38 0 156 -12q58 -6 57 -6q25 0 74 15q212 68 577 415q52 49 216 222q127 135 325 347q-58 20 -291 143
q-204 107 -293 107q-142 0 -221 -160q-64 -129 -64 -292q0 -18 5 -62q4 -39 3 -61q86 -133 86 -246q0 -71 -55 -71q-47 0 -68 139q-10 63 -14 155q-17 15 -168 61q-118 37 -118 99q0 23 24 23q119 0 263 -115q-2 103 -2 88q0 205 118 383q133 203 332 203q93 0 279 -135
l261 -189q320 297 523 297q114 0 114 -109q0 -146 -188 -225q-143 -61 -309 -61q-113 0 -146 8q-339 -391 -519 -564q-351 -339 -615 -431q115 -17 257 -73q33 -13 245 -107q613 -272 847 -272q243 0 369 138l20 23q30 33 39 33q19 0 19 -18q0 -21 -33 -58zM2195 1425
q-158 0 -447 -282q72 -19 112 -19q138 0 261 60q148 72 148 189q0 52 -74 52z" />
    <glyph glyph-name="bracketleft" unicode="[" horiz-adv-x="664"
d="M1167 1417h-215l-936 -1494h211q47 0 47 -28q0 -32 -49 -32h-270q-59 0 -59 34q0 16 38 78l888 1438q40 64 124 64h221q49 0 49 -31q0 -29 -49 -29z" />
    <glyph glyph-name="backslash" unicode="\" horiz-adv-x="606"
d="M470 -194l-149 1324h114l75 -1309z" />
    <glyph glyph-name="bracketright" unicode="]" horiz-adv-x="664"
d="M941 1364l-889 -1438q-39 -63 -124 -63h-221q-49 0 -49 30t49 30h215l937 1494h-212q-47 0 -47 27q0 33 47 33h273q59 0 59 -35q0 -16 -38 -78z" />
    <glyph glyph-name="asciicircum" unicode="^" horiz-adv-x="2048"
d="M1544 897l-522 446l-526 -446h-107l553 565h160l553 -565h-111z" />
    <glyph glyph-name="underscore" unicode="_"
d="M-10 -483v80h1044v-80h-1044z" />
    <glyph glyph-name="grave" unicode="`"
d="M727 602q-58 0 -138 109q-77 104 -77 161q0 89 76 89q69 0 69 -78v-57q0 -60 47 -131t47 -70q0 -23 -24 -23z" />
    <glyph glyph-name="a" unicode="a" horiz-adv-x="807"
d="M791 219q-19 -21 -53 -54q-177 -175 -263 -175q-94 0 -94 108q0 18 3 41q-130 -149 -241 -149q-128 0 -128 212q0 26 5 55q-14 -12 -24 -12q-22 0 -22 18q0 22 99 118q203 197 376 197q118 0 118 -102l61 85l159 9l-236 -358q-74 -113 -74 -149q0 -18 21 -18
q49 0 243 193q47 47 68 62q26 2 26 -17q0 -16 -44 -64zM457 529q-109 0 -226 -163q-110 -154 -110 -270q0 -51 39 -51q68 0 183 122q171 182 171 309q0 53 -57 53z" />
    <glyph glyph-name="b" unicode="b" horiz-adv-x="692"
d="M50 296q-43 -46 -54 -46q-20 0 -20 18q0 10 43 61q186 217 328 457l265 447l167 20l-520 -869q-165 -275 -165 -316q0 -29 51 -29q120 0 207 108q77 94 99 224q3 19 10 86q13 132 82 132t69 -93q0 -131 -121 -296q12 -3 17 -3q61 0 133 62.5t76 62.5q18 0 18 -22
q0 -11 -27 -43q-94 -108 -216 -108q-18 0 -44 3q-156 -162 -319 -162q-129 0 -129 139q0 58 50 167z" />
    <glyph glyph-name="c" unicode="c" horiz-adv-x="575"
d="M557 213q-211 -223 -356 -223q-90 0 -140 73q-42 62 -42 150q0 22 4 48q-16 -14 -27 -14q-22 0 -22 18q0 17 85 104q202 209 377 209q143 0 143 -113q0 -38 -21 -67q-24 -34 -64 -34q-72 0 -72 61q0 23 35 53l12 10q17 14 17 18q0 25 -33 25q-108 0 -215 -153
q-99 -142 -99 -257q0 -85 74 -85q96 0 307 204q52 50 58 60q28 2 28 -19q0 -15 -49 -68z" />
    <glyph glyph-name="d" unicode="d" horiz-adv-x="807"
d="M567 492l431 753l157 7l-568 -971q-100 -170 -100 -215q0 -18 23 -18q37 0 167 129t136 129q22 0 22 -18q0 -23 -97 -120q-178 -178 -263 -178q-94 0 -94 110q0 18 3 42q-130 -152 -241 -152q-128 0 -128 216q0 27 5 56q-14 -12 -24 -12q-22 0 -22 18q0 22 99 120
q203 200 376 200q114 0 118 -96zM457 538q-109 0 -226 -166q-110 -156 -110 -274q0 -52 39 -52q68 0 183 124q171 185 171 315q0 53 -57 53z" />
    <glyph glyph-name="e" unicode="e" horiz-adv-x="575"
d="M23 262q-16 -15 -27 -15q-20 0 -20 18q0 17 83 104q199 209 381 209q123 0 123 -102q0 -106 -158 -191q-111 -61 -255 -93q-9 -51 -9 -71q0 -83 72 -83q70 0 160 68q53 41 135 126q65 68 76 68q22 0 22 -19q0 -21 -107 -126q-169 -165 -296 -165q-90 0 -141 73
q-43 62 -43 150q0 24 4 49zM449 534q-77 0 -166 -104q-71 -83 -115 -185q110 28 200 95q107 80 107 164q0 30 -26 30z" />
    <glyph glyph-name="f" unicode="f" horiz-adv-x="451"
d="M118 42q70 4 180 102q9 8 157 157q26 2 26 -19q0 -33 -152 -174q-145 -134 -245 -134h-2l-282 -560l-170 -18l330 605q-29 28 -29 59q0 77 73 77q12 0 29 -7l174 323q-15 -16 -145 -149q-40 -42 -64 -59q-22 -1 -22 18q0 50 261 294l33 31q15 11 40 46q21 45 76 140
q292 508 488 508q45 0 75 -31.5t30 -75.5q0 -214 -629 -667zM868 1233q-160 0 -465 -622q175 124 319 269q192 194 192 305q0 48 -46 48z" />
    <glyph glyph-name="g" unicode="g" horiz-adv-x="756"
d="M411 -58q-315 -589 -540 -589q-114 0 -114 110q0 191 548 505l75 159q-140 -147 -237 -147q-128 0 -128 215q0 27 5 56q-14 -11 -24 -11q-22 0 -22 17q0 22 99 120q202 201 376 201q118 0 118 -103l61 86l149 9q-181 -289 -318 -545q113 79 300 270q25 2 25 -19
q0 -49 -159 -178q-121 -98 -214 -156zM457 528q-109 0 -226 -166q-110 -157 -110 -274q0 -52 39 -52q68 0 183 124q171 185 171 315q0 53 -57 53zM-168 -541q0 -58 49 -58q137 0 386 493q-435 -252 -435 -435z" />
    <glyph glyph-name="h" unicode="h" horiz-adv-x="772"
d="M465 -10q-108 0 -108 153q0 80 110.5 223.5t110.5 157.5t-13 14q-103 0 -521 -526l-149 -16l246 387l-31 -32q-95 -101 -112 -101q-23 0 -22 21l173 212q60 74 121 148q67 86 108 155l265 447l158 21l-542 -913q237 249 319 249q87 0 87 -109q0 -75 -110.5 -227.5
t-110.5 -187.5q0 -27 23 -27q46 0 311 267q25 1 25 -20q0 -33 -140 -162q-144 -134 -198 -134z" />
    <glyph glyph-name="i" unicode="i" horiz-adv-x="451"
d="M492 814q-68 0 -68 69q0 37 28 68.5t66 31.5q65 0 65 -68q0 -36 -26 -67q-28 -34 -65 -34zM436 221q-212 -231 -309 -231q-121 0 -121 136q0 69 108 237l-23 -25q-84 -87 -97 -87q-18 0 -18 15q0 33 265 301l171 11l-214 -329q-98 -151 -98 -184q0 -28 25 -28
q62 0 194.5 134t139.5 134q22 0 22 -20q0 -15 -45 -64z" />
    <glyph glyph-name="j" unicode="j" horiz-adv-x="412"
d="M424 813q-65 0 -65 69q0 37 27 69t65 32q65 0 65 -68q0 -37 -27 -69.5t-65 -32.5zM71 -55q-315 -592 -540 -592q-114 0 -114 111q0 191 548 506l219 463q-177 -190 -188 -190q-20 0 -20 18t252 303l167 11q-148 -307 -276 -545q113 82 297 269q26 2 26 -17
q0 -46 -157 -176q-117 -97 -214 -161zM-510 -540q0 -59 49 -59q137 0 386 495q-435 -253 -435 -436z" />
    <glyph glyph-name="k" unicode="k" horiz-adv-x="793"
d="M43 12l-148 -16l246 387l-29 -31q-96 -102 -114 -102q-23 0 -22 21l173 212q60 74 121 148q67 86 108 155l265 447l156 21zM775 219q-208 -229 -298 -229q-60 0 -98 56q-33 48 -33 106q0 25 15.5 70t15.5 68q0 5 -1 11q-54 -25 -89 -25q-53 0 -53 44q0 52 77 52
q33 0 66 -17q38 9 140 126q94 109 173 109q90 0 90 -80q0 -77 -69 -77q-30 0 -78 74q-1 4 -4 9q-34 0 -72 -46q-26 -37 -53 -75q-36 -52 -67 -68q71 -51 71 -119q0 -28 -18.5 -77t-18.5 -75q0 -17 18 -17q47 0 263 226q33 34 44 41q25 1 25 -20q0 -16 -46 -67z" />
    <glyph glyph-name="l" unicode="l" horiz-adv-x="451"
d="M190 251q-98 -154 -98 -185q0 -29 27 -29q63 0 336 269q26 1 26 -20q0 -20 -97 -118q-177 -178 -257 -178q-121 0 -121 137q0 57 108 238l-23 -26q-82 -89 -95 -89q-20 0 -20 18q0 21 132 163l97 106q112 123 266 367q102 165 203 329l159 21z" />
    <glyph glyph-name="m" unicode="m" horiz-adv-x="1247"
d="M938 -10q-108 0 -108 150q0 79 110.5 220t110.5 154q0 15 -13 15q-91 0 -505 -517l-168 -16l278 403q62 90 62 115q0 15 -19 15q-76 0 -509 -517l-170 -16l288 415q55 80 55 101q0 17 -18 17q-50 0 -190 -142t-146 -142q-20 0 -20 18q0 20 115 141q167 176 249 176
q90 0 90 -103q0 -57 -33 -130q204 233 297 233q92 0 92 -93q0 -67 -37 -142q223 235 302 235q87 0 87 -107q0 -74 -110.5 -224t-110.5 -185q0 -26 23 -26q46 0 311 262q27 2 27 -19q0 -32 -143 -160q-147 -131 -197 -131z" />
    <glyph glyph-name="n" unicode="n" horiz-adv-x="907"
d="M598 -10q-108 0 -108 150q0 79 110.5 220t110.5 154t-13 13q-100 0 -521 -515l-168 -16l278 403q63 92 63 113q0 15 -18 15q-52 0 -191 -141t-145 -141q-20 0 -20 18q0 19 50 72q106 113 144 147q107 96 170 96q90 0 90 -102q0 -62 -40 -143q233 245 321 245
q87 0 87 -105q0 -74 -110.5 -225t-110.5 -184q0 -26 23 -26q46 0 311 262q27 2 27 -19q0 -33 -144 -160q-147 -131 -196 -131z" />
    <glyph glyph-name="o" unicode="o" horiz-adv-x="680"
d="M22 261q-16 -14 -26 -14q-20 0 -20 18q0 16 87 108q198 209 367 209q151 0 151 -153q0 -98 -105 -233q11 -3 16 -3q57 0 101 30q24 16 76 71q22 22 36 22q18 0 18 -21q0 -11 -27 -42q-94 -106 -217 -106q-20 0 -42 2q-153 -159 -275 -159q-147 0 -147 216q0 24 7 55z
M438 529q-99 0 -209 -165q-104 -154 -104 -262q0 -61 53 -61q74 0 186 115q142 147 142 283q0 90 -68 90z" />
    <glyph glyph-name="p" unicode="p" horiz-adv-x="772"
d="M465 -17q-108 0 -108 153q0 81 110.5 224.5t110.5 157.5q0 15 -13 15q-83 0 -290 -253q-161 -197 -252 -349l-273 -457l-158 -17l558 930q-133 -143 -152 -143q-23 0 -22 21q52 70 212 253q136 157 203 260l121 189l148 12l-395 -637q233 243 313 243q87 0 87 -109
q0 -76 -110.5 -228.5t-110.5 -188.5q0 -27 23 -27q46 0 311 268q25 1 25 -20q0 -33 -140 -163q-144 -134 -198 -134z" />
    <glyph glyph-name="q" unicode="q" horiz-adv-x="750"
d="M524 -19q-177 -196 -269 -330q-50 -77 -148 -224l-150 -10l387 673q-107 -108 -201 -108q-128 0 -128 216q0 26 6 56q-15 -12 -25 -12q-22 0 -22 16q0 19 89 110q209 212 386 212q118 0 116 -105v-9l62 97l131 7l-433 -760q406 486 431 486q7 0 16.5 -13t4.5 -18
q-60 -69 -253 -284zM457 528q-109 0 -226 -166q-110 -156 -110 -274q0 -52 39 -52q68 0 182 124q172 185 172 315q0 53 -57 53z" />
    <glyph glyph-name="r" unicode="r" horiz-adv-x="676"
d="M670 465q-23 -19 -68 -51q-113 -82 -113 -163q0 -43 41 -43q62 0 152 95q26 -3 26 -20q0 -39 -69 -81q-63 -40 -104 -40q-96 0 -96 87q0 23 14 64q-106 -91 -276 -299l-168 -16l286 413q55 80 55 101q0 17 -18 17q-50 0 -190 -141.5t-146 -141.5q-20 0 -20 17
q0 20 115 141q167 176 249 176q90 0 90 -95q0 -72 -65 -191q60 56 125 109q33 84 59 118q46 59 117 59q57 0 57 -45q0 -24 -53 -70z" />
    <glyph glyph-name="s" unicode="s" horiz-adv-x="446"
d="M439 226q-213 -236 -363 -236q-149 0 -149 113q0 29 21.5 51t51.5 22q53 0 53 -47q0 -13 -12.5 -39t-12.5 -37q0 -12 21 -12q88 0 148 161q49 130 49 245q0 19 -2 52q-239 -253 -250 -253q-20 0 -20 18q0 27 267 301q39 88 93 88q51 0 51 -48q0 -35 -47 -55.5t-47 -65.5
q0 -40 19 -118t19 -118q0 -38 -10 -76q123 130 136 130q22 0 22 -20q0 -13 -38 -56z" />
    <glyph glyph-name="t" unicode="t" horiz-adv-x="451"
d="M735 724h-237l-304 -475q-94 -148 -94 -184q0 -28 25 -28q62 0 233 173q30 34 98 94q25 2 25 -19t-97 -118q-177 -177 -257 -177q-121 0 -121 136q0 69 108 237l-23 -25q-84 -87 -97 -87q-18 0 -18 15q0 18 133 163l97 107q49 55 140 188h-97l28 48h100l125 195l158 11
l-132 -206h234z" />
    <glyph glyph-name="u" unicode="u" horiz-adv-x="795"
d="M379 159q-156 -169 -252 -169q-123 0 -123 134q0 71 100 225l-8 -9q-91 -93 -102 -93q-20 0 -20 16q0 28 266 296l170 9l-227 -343q-85 -129 -85 -161q0 -26 23 -26q171 0 491 521l163 9l-260 -397q-52 -80 -52 -107q0 -26 22 -26q44 0 177.5 131t138.5 131q22 0 22 -17
q0 -35 -140 -162q-145 -131 -200 -131q-106 0 -106 144q0 11 2 25z" />
    <glyph glyph-name="v" unicode="v" horiz-adv-x="829"
d="M629 196q11 -3 16 -3q83 0 185 114q9 9 26 9q16 0 16 -21q0 -11 -26 -42q-90 -106 -217 -106q-18 0 -45 2q-175 -157 -310 -157q-118 0 -118 144q0 80 96 212t96 168q0 13 -16 13q-52 0 -190.5 -142t-145.5 -142q-20 0 -20 18q0 20 115 141q168 178 253 178
q100 0 100 -115q0 -63 -56 -152q-140 -223 -140 -236q0 -41 41 -41q107 0 213 105q95 94 131 206q11 33 20 114q13 119 76 119q65 0 65 -77q0 -115 -165 -309z" />
    <glyph glyph-name="w" unicode="w" horiz-adv-x="1053"
d="M850 196q13 -3 18 -3q83 0 185 114q9 9 24 9q18 0 18 -23v-8q-3 -5 -26 -32q-90 -106 -217 -106q-18 0 -45 2q-175 -157 -309 -157q-119 0 -119 144q0 12 1 24q-157 -170 -253 -170q-123 0 -123 134q0 73 93 215l-1 -1q-91 -93 -100 -93q-20 0 -20 18q0 40 270 296l164 9
l-227 -342q-85 -130 -85 -162q0 -26 23 -26q171 0 491 521l163 10l-241 -365q-63 -96 -63 -125q0 -41 41 -41q107 0 212 105q95 94 130 206q13 38 21 112q14 119 77 119q66 0 66 -75q0 -111 -168 -309z" />
    <glyph glyph-name="x" unicode="x" horiz-adv-x="684"
d="M719 438q-30 0 -59 37t-27 37q-64 0 -191 -196q-88 -138 -88 -248q0 -30 25 -30q51 0 311 262q27 1 27 -19q0 -33 -140 -160q-145 -131 -202 -131q-109 0 -122 167q-156 -167 -257 -167q-104 0 -104 80q0 74 71 74q38 0 77 -83q1 -4 3 -8q37 0 111 68q194 177 194 380
q0 28 -20 28q-44 0 -185.5 -142t-146.5 -142q-20 0 -20 18q0 20 115 141q167 176 247 176q108 0 108 -178q138 178 240 178q98 0 98 -81q0 -61 -65 -61z" />
    <glyph glyph-name="y" unicode="y" horiz-adv-x="877"
d="M886 243q-5 -6 -19 -23q-118 -145 -340 -278q-315 -589 -540 -589q-115 0 -115 110q0 126 214 291q108 83 335 214l125 235q-196 -207 -299 -207q-49 0 -75 45q-21 36 -21 83q0 83 96 219.5t96 167.5q0 17 -20 17q-44 0 -185.5 -144t-146.5 -144q-20 0 -20 17q0 20 50 74
q232 251 318 251q98 0 98 -117q0 -69 -98 -219t-98 -172q0 -30 22 -30q84 0 260 211q130 156 220 306l150 9q-181 -288 -318 -544q106 73 301 269q24 2 24 -19q0 -12 -14 -33zM-52 -541q0 -58 49 -58q135 0 386 493q-435 -253 -435 -435z" />
    <glyph glyph-name="z" unicode="z" horiz-adv-x="676"
d="M362 -10q-93 0 -93 120q0 15 8 43t8 43l-4 -2q-85 0 -191 -79q-5 -4 -68 -70q-49 -51 -71 -51q-37 0 -37 33q0 32 37 61q31 21 63 42q41 34 123 101q126 102 239 185q-51 -12 -87 -12q-67 0 -112 36q-166 -198 -181 -198q-20 0 -20 17v6q0 10 4 14q59 67 168 205
q-8 23 -8 32q0 72 77 72q65 0 65 -53q0 -12 -8 -31t-8 -27q0 -24 56 -24q86 0 173 59.5l87 59.5q38 0 38 -31q0 -39 -78 -79q-32 -16 -130.5 -87.5t-185.5 -141.5q69 28 104 28q90 0 90 -83q0 -20 -37 -108q-6 -14 -6 -19q0 -13 4 -13q32 0 165 131.5t138 131.5q22 0 22 -20
q0 -33 -142 -160q-147 -131 -202 -131z" />
    <glyph glyph-name="braceleft" unicode="{"
d="M834 -244q-209 0 -292 71q-64 55 -83 170q-11 64 -8 197q3 160 -6 219q-14 82 -57 121q-57 52 -222 65v74q169 14 223 64q51 47 61 165q-2 105 3 315q11 160 89 227q84 72 312 72v-66q-158 -2 -210 -54q-55 -55 -53 -290q2 -258 -53 -344q-57 -90 -209 -127
q152 -36 209 -126q53 -83 53 -297v-43.5v-41.5q0 -200 52.5 -252.5t210.5 -54.5v-64h-20z" />
    <glyph glyph-name="bar" unicode="|"
d="M457 -483v2048h110v-2048h-110z" />
    <glyph glyph-name="braceright" unicode="}"
d="M636 534q-52 -48 -62 -163q3 -106 -3 -317q-11 -158 -91 -226q-85 -72 -312 -72v64q158 2 212.5 55.5t52.5 289.5q-2 258 53.5 345.5t209.5 124.5q-153 36 -210 127q-53 83 -53 295v43.5v42.5q0 200 -53.5 252.5t-211.5 54.5v66h20q209 0 293 -71q65 -55 84 -170
q11 -65 8 -198q-3 -163 7 -221q13 -81 55 -119q55 -50 223 -64v-74q-165 -13 -222 -65z" />
    <glyph glyph-name="asciitilde" unicode="~" horiz-adv-x="1706"
d="M1143 499q-102 0 -290 65t-288 65q-158 0 -397 -157v108q214 140 397 140q103 0 291.5 -64.5t286.5 -64.5q157 0 397 157v-109q-218 -140 -397 -140z" />
    <glyph glyph-name="nonbreakingspace" unicode="&#xa0;" horiz-adv-x="840"
 />
    <glyph glyph-name="exclamdown" unicode="&#xa1;" horiz-adv-x="541"
d="M653 845q-67 0 -67 69q0 37 27 68.5t65 31.5q69 0 69 -69q0 -38 -27 -69t-67 -31zM588 715l-385 -707l-203 -16l524 759q36 52 60 52q28 0 28 -28q0 -15 -24 -60z" />
    <glyph glyph-name="cent" unicode="&#xa2;" horiz-adv-x="834"
d="M567 377q-53 0 -53 50q0 6 37 93q-1 5 -6 11l-297 -480q17 -6 33 -6q67 0 161 70.5t97 70.5q16 0 16 -15q0 -57 -120 -119q-108 -55 -171 -55q-21 0 -44 6l-82 -134l-42 28l77 130q-87 66 -87 190q0 146 144 261q136 108 288 111l77 124l43 -30l-66 -107q73 -29 73 -107
q0 -34 -20 -61q-23 -31 -58 -31zM207 123q0 -20 5 -35l271 444q-115 -45 -195.5 -166t-80.5 -243z" />
    <glyph glyph-name="sterling" unicode="&#xa3;" horiz-adv-x="1100"
d="M1168 788q-10 -51 -42 -51q-20 0 -20 24q0 3 11 36q10 29 10 48q0 99 -91 99q-99 0 -201 -170q-46 -76 -122 -255h231v-50h-254q-131 -247 -293 -357q136 -47 234 -47q84 0 189 80.5t104 80.5q16 0 16 -15q0 -21 -61 -76q-161 -145 -285 -145q-77 0 -276 71
q-111 -67 -244 -67q-172 0 -172 98q0 92 139 92q102 0 276 -47q109 88 223 332h-208v50h235q224 474 463 474q65 0 104 -40t39 -104q0 -38 -5 -61zM35 134q-80 0 -80 -40q0 -55 123 -55q89 0 170 50q-133 45 -213 45z" />
    <glyph glyph-name="currency" unicode="&#xa4;" horiz-adv-x="1241"
d="M1090 354l-206 204q-119 -87 -263 -87t-262 87l-207 -204l-72 73l208 202q-89 115 -89 256q0 139 89 256l-208 202l72 72l207 -204q117 89 262 89q143 0 263 -89l206 204l73 -72l-208 -202q89 -117 89 -256q0 -142 -89 -256l208 -202zM623 1201q-137 0 -229.5 -90
t-92.5 -224q0 -135 92 -225.5t230 -90.5q137 0 229 91t92 225t-92 224t-229 90z" />
    <glyph glyph-name="yen" unicode="&#xa5;" horiz-adv-x="834"
d="M762 661h182l-49 -77h-226l-132 -103h288l-50 -75h-297l-264 -406h-111l262 406h-328l50 75h321l-21 103h-234l53 77h162l-74 300h111l101 -414l502 414h117z" />
    <glyph glyph-name="brokenbar" unicode="&#xa6;"
d="M457 663v769h110v-769h-110zM457 -350v769h110v-769h-110z" />
    <glyph glyph-name="section" unicode="&#xa7;"
d="M1182 1336q-15 0 -115 38q-96 37 -143 37q-218 0 -218 -175q0 -55 51 -164l102 -216q62 -131 62 -230q0 -137 -87 -224q-80 -81 -218 -103q33 -80 33 -133q0 -144 -133 -238q-119 -84 -268 -84q-70 0 -146 24q-100 33 -100 86q0 57 59 56l130 -52q85 -31 133 -31
q88 0 151 42q70 48 70 128q0 56 -54 170l-103 216q-62 130 -62 231q0 138 87 224q81 80 220 102q-33 79 -33 134q0 139 125 233q114 86 258 86q67 0 146 -24q104 -30 104 -79q0 -54 -51 -54zM800 686l-144 307q-245 -31 -245 -214q0 -47 36 -124l145 -308q244 31 244 211
q0 50 -36 128z" />
    <glyph glyph-name="dieresis" unicode="&#xa8;" horiz-adv-x="1688"
d="M1555 1584q-63 0 -63 68q0 36 24.5 65.5t61.5 29.5q62 0 62 -69q0 -36 -23 -64q-26 -30 -62 -30zM1330 1584q-63 0 -63 68q0 36 24.5 65.5t61.5 29.5q62 0 62 -69q0 -36 -23 -64q-26 -30 -62 -30zM1158 -127q-372 0 -599 239q-126 131 -157 304q-18 -9 -170 -111
q-104 -71 -184 -71q-23 0 -23 22q0 59 369 213v15q0 403 543 469l-11 46q-120 -12 -162 -12q-171 0 -291 52q-165 72 -165 224q0 142 129 231q115 79 262 79q210 0 454 -176q144 81 265 81q161 0 161 -120q0 -221 -500 -334q3 -26 13 -61q334 -10 334 -162q0 -112 -148 -112
q-112 0 -201 58q-92 59 -131 161q-421 -47 -421 -331q0 -23 4 -59q203 56 399 56q228 0 413 -74q251 -100 251 -295q0 -172 -138 -259q-115 -73 -296 -73zM1391 1427q-144 0 -228 -103q-77 -94 -83 -242q412 78 412 253q0 92 -101 92zM1108 912q89 -166 213 -166q52 0 52 47
q0 109 -265 119zM689 1505q-118 0 -204 -41q-108 -52 -108 -150q0 -123 181 -194q141 -56 297 -56q33 0 72 3q24 179 179 302q-208 136 -417 136zM844 501q-140 0 -301 -38q67 -229 254 -376q192 -150 430 -150q108 0 188 44q95 53 95 147q0 183 -248 289q-197 84 -418 84z
" />
    <glyph glyph-name="copyright" unicode="&#xa9;" horiz-adv-x="1683"
d="M842 -12q-296 0 -498 199t-202 491q0 293 202.5 492.5t499.5 199.5q296 0 497 -200t201 -492q0 -285 -205.5 -487.5t-494.5 -202.5zM844 1279q-255 0 -430 -174.5t-175 -426.5q0 -251 174.5 -425.5t428.5 -174.5t429 174.5t175 425.5q0 255 -172 428t-430 173zM827 242
q-177 0 -293 125q-112 121 -112 297q0 180 107 306q114 134 294 134q36 0 193 -57q27 -10 37 -10q50 0 56 60l50 1v-323h-55q-65 271 -277 271q-248 0 -248 -362q0 -368 267 -368q173 0 284 174l46 -31q-119 -217 -349 -217z" />
    <glyph glyph-name="ordfeminine" unicode="&#xaa;" horiz-adv-x="606"
d="M428 1428l42 55l125 7l-179 -252q-56 -80 -56 -103q0 -9 13 -9q36 0 194 143q29 27 40 32h18q3 -11 3 -13q0 -33 -111 -119t-161 -86q-73 0 -73 78q0 9 1 19q-96 -97 -175 -97q-101 0 -101 149q0 15 3 31q-8 -4 -15 -4q-18 0 -18 16q0 17 74 83q153 135 284 135
q86 0 92 -65zM342 1455q-80 0 -166 -109q-82 -105 -82 -187q0 -33 27 -33q49 0 134 83q128 126 128 212q0 34 -41 34z" />
    <glyph glyph-name="guillemotleft" unicode="&#xab;" horiz-adv-x="631"
d="M632 470l-217 -177q26 -72 72 -212q2 -9 2 -15q0 -31 -28 -31q-22 0 -40 35l-121 241l292 208q23 16 37 16q28 0 28 -28q0 -17 -25 -37zM439 471l-216 -178q24 -71 69 -213q3 -9 3 -14q0 -31 -27 -31q-24 0 -41 34l-121 242l291 208q23 16 37 16q31 0 31 -28
q0 -15 -26 -36z" />
    <glyph glyph-name="logicalnot" unicode="&#xac;" horiz-adv-x="1706"
d="M1364 354v404h-1120v98h1218v-502h-98z" />
    <glyph glyph-name="sfthyphen" unicode="&#xad;" horiz-adv-x="729"
d="M598 252h-499l53 90h499z" />
    <glyph glyph-name="registered" unicode="&#xae;" horiz-adv-x="1683"
d="M842 -12q-296 0 -498 199t-202 491q0 293 202.5 492.5t499.5 199.5q296 0 497 -200t201 -492q0 -285 -205.5 -487.5t-494.5 -202.5zM844 1279q-255 0 -430 -174.5t-175 -426.5q0 -251 174.5 -425.5t428.5 -174.5t429 174.5t175 425.5q0 255 -172 428t-430 173zM1130 270
q-97 0 -127 61q-17 34 -21 138q-2 57 -12 87q-41 118 -214 118q-1 0 -29 -2v-235q0 -55 36 -74q27 -15 101 -18v-56h-405v56q74 3 101 18q36 19 36 74v505q0 56 -36 76q-29 16 -101 18v55h401q124 0 209 -38q117 -53 117 -165q0 -141 -265 -199q106 -43 154 -133
q23 -43 45 -144q15 -67 43 -67q68 0 70 126l57 1v-18q0 -184 -160 -184zM829 1042q-102 0 -102 -65v-251q21 -2 57 -2q253 0 253 164q0 78 -65 119q-56 35 -143 35z" />
    <glyph glyph-name="macron" unicode="&#xaf;"
d="M883 723h-426q-40 0 -40 24q0 5 1 9l14 40q12 21 41 21h426q40 0 40 -25q0 -4 -1 -7q-14 -41 -15 -42q-12 -20 -40 -20z" />
    <glyph glyph-name="macron" unicode="&#x2c9;"
d="M883 723h-426q-40 0 -40 24q0 5 1 9l14 40q12 21 41 21h426q40 0 40 -25q0 -4 -1 -7q-14 -41 -15 -42q-12 -20 -40 -20z" />
    <glyph glyph-name="degree" unicode="&#xb0;" horiz-adv-x="674"
d="M336 903q-123 0 -203 77.5t-80 195.5t81.5 196t203.5 78q120 0 201 -79t81 -195q0 -118 -81 -195.5t-203 -77.5zM338 1372q-88 0 -145.5 -55.5t-57.5 -140.5q0 -84 58 -140t145 -56t145 56t58 140t-58 140t-145 56z" />
    <glyph glyph-name="plusminus" unicode="&#xb1;" horiz-adv-x="1706"
d="M903 715v-346h-100v346h-559v98h559v348h100v-348h559v-98h-559zM244 59v100h1218v-100h-1218z" />
    <glyph glyph-name="twosuperior" unicode="&#xb2;" horiz-adv-x="551"
d="M357 647q-72 -29 -210 -99q24 7 48 7q55 0 74 -27l26 -68q4 -10 12 -10q32 0 127 101q21 22 37 24q10 -10 10 -20q0 -17 -44 -60q-105 -102 -175 -102q-74 0 -84 62q-1 12 -6 35q-3 10 -14 10q-47 0 -98 -55.5t-58 -55.5q-20 0 -20 19q0 64 111 148q41 32 173 112
q207 126 207 224q0 60 -78 60q-72 0 -134 -41q-67 -46 -67 -110q0 -37 33 -37q44 0 87 38q37 32 57 75q23 51 39 51q20 0 20 -28q0 -71 -58 -128.5t-132 -57.5q-88 0 -88 81q0 87 91 145q80 51 171 51q151 0 151 -127q0 -123 -208 -217z" />
    <glyph glyph-name="threesuperior" unicode="&#xb3;" horiz-adv-x="551"
d="M378 710q83 -15 83 -101q0 -91 -102 -159q-91 -61 -187 -61q-149 0 -149 115q0 79 69 79q53 0 53 -52q0 -27 -50 -56l-13 -8q5 -31 72 -31q77 0 157 90q62 69 62 109q0 39 -45 39q-17 0 -50.5 -14t-44.5 -14q-22 0 -22 19q0 14 49 38q109 53 144 77q86 59 86 122
q0 46 -72 46q-55 0 -108 -31q-60 -35 -60 -80q0 -28 31 -28q63 0 106 66q35 55 41 55q16 0 16 -17q0 -62 -47.5 -107.5t-111.5 -45.5q-78 0 -78 69q0 72 86 120q72 40 149 40q135 0 135 -101q0 -107 -199 -178z" />
    <glyph glyph-name="acute" unicode="&#xb4;"
d="M732 673q-121 -67 -154 -67q-25 0 -27 28q63 46 170 148q13 16 38 75q41 97 95 97q71 0 71 -67q0 -106 -193 -214z" />
    <glyph glyph-name="mu" unicode="&#xb5;" horiz-adv-x="1051"
d="M639 144q-88 -170 -258 -170q-171 0 -217 160q-15 -98 -33 -269q-30 -281 -111 -281q-79 0 -79 71q0 93 65 348q33 121 93 362l110 520h139l-113 -522q-8 -36 -8 -85q0 -82 38 -136q43 -62 120 -62q195 0 269 323l112 482h139l-119 -531q-26 -114 -26 -173q0 -83 65 -83
q66 0 106 64q15 25 50 120q24 64 49 64q37 0 37 -40q0 -82 -54 -178q-84 -148 -220 -148q-146 0 -154 164z" />
    <glyph glyph-name="mu" unicode="&#x3bc;" horiz-adv-x="1051"
d="M639 144q-88 -170 -258 -170q-171 0 -217 160q-15 -98 -33 -269q-30 -281 -111 -281q-79 0 -79 71q0 93 65 348q33 121 93 362l110 520h139l-113 -522q-8 -36 -8 -85q0 -82 38 -136q43 -62 120 -62q195 0 269 323l112 482h139l-119 -531q-26 -114 -26 -173q0 -83 65 -83
q66 0 106 64q15 25 50 120q24 64 49 64q37 0 37 -40q0 -82 -54 -178q-84 -148 -220 -148q-146 0 -154 164z" />
    <glyph glyph-name="paragraph" unicode="&#xb6;"
d="M813 1396v-1396h-90v1396h-172v-1396h-90v772q-165 10 -268 97q-113 95 -113 256q0 169 120 265q111 89 285 89h457v-83h-129z" />
    <glyph glyph-name="ch270" unicode="&#xb7;" horiz-adv-x="418"
d="M272 416q-85 0 -85 73q0 76 85 76q35 0 59.5 -22.5t24.5 -53.5q0 -73 -84 -73z" />
    <glyph glyph-name="cedilla" unicode="&#xb8;" horiz-adv-x="575"
d="M567 637q-63 0 -63 67q0 36 24.5 65t61.5 29q62 0 62 -68q0 -35 -23 -63q-26 -30 -62 -30zM342 637q-63 0 -63 67q0 36 24.5 65t61.5 29q62 0 62 -68q0 -35 -23 -63q-26 -30 -62 -30zM23 265q-16 -15 -27 -15q-20 0 -20 17q0 18 83 105q199 211 381 211q123 0 123 -102
q0 -107 -158 -194q-111 -61 -255 -93q-9 -51 -9 -72q0 -83 72 -83q70 0 160 68q53 41 135 128q65 68 76 68q22 0 22 -19q0 -22 -107 -127q-169 -167 -296 -167q-90 0 -141 73q-43 63 -43 152q0 24 4 50zM449 539q-77 0 -166 -105q-71 -84 -115 -187q110 29 200 97
q107 80 107 165q0 30 -26 30z" />
    <glyph glyph-name="onesuperior" unicode="&#xb9;" horiz-adv-x="3016"
d="M2660 545q-66 0 -105 50q-36 44 -36 109q0 126 100 240q103 118 230 118q118 0 118 -131q0 -118 -91 -246q-99 -140 -216 -140zM2810 364h-500l34 59h500zM2776 271h-500l34 59h500zM2862 1246q-66 -22 -171 -39q-434 -303 -678 -826q-18 -38 -40 -122
q-20 -275 -118 -275q-46 0 -46 54q0 78 118 286q15 91 15 179q0 310 -153 576q-481 -1079 -1171 -1079q-237 0 -368 118q-137 123 -137 354q0 101 28 185q40 118 121 118q76 0 76 -85q0 -56 -89 -91t-89 -113q0 -173 191 -293q170 -106 360 -106q353 0 655 368
q233 283 376 694q-203 243 -470 243q-199 0 -320 -123.5t-121 -321.5q0 -138 78 -237q84 -108 217 -108q139 0 239 167q20 41 58 99q27 1 27 -20q0 -44 -72 -139q-140 -184 -344 -184q-149 0 -240 101q-87 96 -87 244q0 255 211 432q200 168 462 168q236 0 412 -156
q26 154 61 154q41 0 41 -37q0 -38 -48 -173q165 -232 165 -545q0 -138 -21 -276q200 455 557 754q-85 -9 -120 -9q-141 0 -178 12q-18 6 -18 18q0 22 28 22q2 0 19 -2q67 -8 124 -8q83 0 219 23q187 177 295 177q78 0 78 -68q0 -66 -132 -110zM2853 1006q-51 0 -129 -94
q-119 -142 -119 -248q0 -66 55 -66q89 0 172 124q78 115 78 211q0 73 -57 73z" />
    <glyph glyph-name="ordmasculine" unicode="&#xba;" horiz-adv-x="510"
d="M535 1276q-77 -86 -177 -86q-15 0 -30 2q-110 -109 -207 -109q-113 0 -113 151q0 15 4 33q-9 -6 -16 -6q-11 0 -16 12q1 17 66 79q151 145 278 145q114 0 114 -109q0 -67 -74 -158h5q54 -2 104.5 41t54.5 43q17 0 17 -18q0 -9 -10 -20zM330 1455q-72 0 -155 -111
q-79 -105 -79 -181q0 -39 37 -39q56 0 139 79q105 100 105 193q0 59 -47 59z" />
    <glyph glyph-name="guillemotright" unicode="&#xbb;" horiz-adv-x="631"
d="M229 50q-22 -15 -36 -15q-31 0 -31 27q0 16 19 31l8 6l215 177l-70 213q-2 7 -2 14q0 32 26 32q24 0 42 -35l121 -242zM35 50q-22 -15 -37 -15q-31 0 -31 27q0 15 19 31l8 6l215 177q-22 70 -69 212q-3 9 -3 15q0 32 27 32q25 0 42 -35l120 -242z" />
    <glyph glyph-name="onequarter" unicode="&#xbc;" horiz-adv-x="1257"
d="M1105 150q35 8 86 41q21 2 21 -17q0 -21 -58 -53q-35 -19 -79 -19q-19 -31 -48 -98l-145 -12l87 115q-71 9 -90 9q-26 0 -78 -18q-10 -4 -15 -4q-25 0 -24 20q6 12 30 42q149 183 265 389l140 10q-178 -238 -337 -397q9 1 17 1q41 0 125 -13q199 266 227 266q19 0 18 -20
q-23 -43 -142 -242zM113 -27h-84l1007 1018h82zM472 930l-290 -492l-133 -15l303 424q-244 -196 -284 -196q-17 0 -17 17q0 52 79 91q60 30 120 59q29 23 108 86q95 75 102 85q25 1 25 -16q0 -20 -13 -43z" />
    <glyph glyph-name="onehalf" unicode="&#xbd;" horiz-adv-x="1270"
d="M1086 239q-67 -27 -195 -92q21 6 41 6q73 0 91 -75q6 -25 17 -25q34 0 147 120q19 -5 19 -22q0 -15 -44 -58q-95 -95 -167 -95q-69 0 -83 76q-4 24 -15 24q-37 0 -80 -38l-64 -66q-26 -2 -26 19q0 72 153 171q19 13 86 54q230 143 230 233q0 57 -74 57q-66 0 -126 -41
q-64 -44 -64 -104q0 -32 31 -32q76 0 128 91q36 62 46 62q18 0 18 -25q0 -69 -54.5 -122.5t-125.5 -53.5q-86 0 -86 76q0 82 89 138q77 48 163 48q145 0 145 -120q0 -116 -200 -206zM113 -27h-84l1007 1018h82zM472 930l-290 -492l-133 -15l303 424q-244 -196 -284 -196
q-17 0 -17 17q0 52 79 91q60 30 120 59q29 23 108 86q95 75 102 85q25 1 25 -16q0 -20 -13 -43z" />
    <glyph glyph-name="threequarters" unicode="&#xbe;" horiz-adv-x="1380"
d="M1307 254q-27 -34 -79 -103q29 9 84 41q21 1 21 -18q0 -21 -58 -53q-35 -19 -79 -19q-19 -31 -48 -98l-145 -12l86 116q-83 8 -90 8q-25 0 -77 -18q-10 -4 -15 -4q-25 0 -24 20q6 12 30 42q149 183 265 389l139 10q-180 -240 -336 -397q9 1 16 1q42 0 125 -13
q200 266 228 266q18 0 18 -17q0 -60 -61 -141zM233 -27h-83l1007 1018h81zM364 724q76 -15 76 -96q0 -89 -97 -152q-87 -57 -179 -57q-56 0 -95 25q-48 30 -48 85q0 77 67 77q51 0 51 -50q0 -25 -61 -63q5 -26 67 -26q78 0 153 83q57 64 57 104q0 37 -42 37
q-16 0 -49.5 -14.5t-42.5 -14.5q-20 0 -20 20q0 14 47 37q104 50 136 72q81 55 81 116q0 41 -66 41q-49 0 -102 -30q-58 -33 -58 -73q0 -27 29 -27q72 0 107 72q22 43 33 43q16 0 16 -18q0 -58 -46 -101.5t-106 -43.5q-75 0 -75 65q0 70 83 116q69 38 142 38q129 0 129 -98
q0 -101 -187 -167z" />
    <glyph glyph-name="questiondown" unicode="&#xbf;" horiz-adv-x="668"
d="M676 853q-68 0 -68 67q0 37 27 69.5t65 32.5q68 0 68 -68q0 -37 -27 -69t-65 -32zM474 543q-101 -97 -203 -195q-122 -132 -122 -238q0 -68 89 -68q47 0 117 38q75 40 81 78q-75 52 -75 95q0 79 75 79q86 0 86 -96q0 -103 -97 -176q-89 -68 -196 -68q-93 0 -145.5 58
t-52.5 149q0 115 101 206q43 38 200 131q90 53 144 106q17 16 71 88q51 68 73 83q25 2 25 -25q0 -68 -171 -245z" />
    <glyph glyph-name="Agrave" unicode="&#xc0;" horiz-adv-x="2499"
d="M2360 1015q-101 -171 -216 -363h4q123 0 199 -68q78 -71 78 -192q0 -145 -108 -268q-112 -128 -257 -128q-109 0 -167 73q-52 65 -52 174q0 133 85 322q-82 -36 -135 -86q-88 -246 -169 -246q-55 0 -55 60q0 83 186 232q21 50 21 89q0 41 -20 82q-268 -277 -326 -331
q-192 -178 -367 -266q-217 -109 -457 -109q-238 0 -393 127q-166 136 -166 367q0 238 176 393q169 149 412 149q171 0 314 -98q161 -110 161 -274q0 -95 -80 -95q-77 0 -77 95q0 19 9 56t9 56q0 95 -96 148q-79 44 -189 44q-212 0 -361 -155.5t-149 -366.5q0 -190 130 -295
q121 -99 319 -99q299 0 614 235q184 138 485 464q-57 65 -125 65q-88 0 -152 -108q-20 -33 -32 -33q-20 0 -20 20q0 80 81 136q72 51 154 51q92 0 154 -67l288 293q367 375 463 375q53 0 53 -50q0 -25 -226 -408zM2505 1415q-50 0 -393 -349l-298 -304q23 -51 23 -112
q0 -42 -18 -88q61 42 142 69q24 38 185 266l360 512q2 6 -1 6zM2112 594q-140 -276 -140 -430q0 -118 96 -118q109 0 178 112q60 97 60 216q0 213 -194 220z" />
    <glyph glyph-name="Aacute" unicode="&#xc1;" horiz-adv-x="2136"
d="M2119 1284q-55 -14 -143 -21q-199 -131 -489 -614q149 85 296 85q146 0 232 -72q92 -78 92 -220q0 -188 -145 -322q-142 -130 -334 -130q-124 0 -204 64q-88 70 -88 191t94 211q81 79 206 112q21 5 35 5q25 0 25 -27q0 -11 -63 -41l-43 -21q-195 -93 -195 -268
q0 -134 178 -134q104 0 210 93q161 140 161 326q0 182 -188 182q-147 0 -297 -117q-42 -33 -47 -39q-15 -23 -45 -66q-329 -471 -715 -471q-245 0 -385.5 140.5t-140.5 382.5q0 106 29 181q40 106 126 106q80 0 80 -79q0 -51 -29 -75q-20 -16 -73 -28q-45 -10 -61 -23
q-26 -20 -26 -66q0 -174 170 -311q162 -131 373 -131q218 0 408 170q136 122 294 377q231 370 241 383q107 147 217 235q-118 -20 -210 -20q-145 0 -428 56t-428 56q-216 0 -270 -168q135 26 238 26q194 0 344 -84q182 -102 182 -283q0 -157 -122.5 -268.5t-281.5 -111.5
q-202 0 -328 161q-116 147 -116 350q0 67 15 143q-97 -25 -225 -96q-15 -9 -21 -9q-25 0 -25 24q0 26 120 76q91 38 165 59q46 144 175 233q126 87 281 87q100 0 334 -61q421 -109 615 -109q50 0 241 83q38 16 51 16q53 0 53 -44q0 -56 -115 -84zM658 1136q-62 0 -137 -15
q-9 -63 -9 -91q0 -197 139 -333t339 -136q103 0 166 49q69 52 69 150q0 175 -200 284q-168 92 -367 92z" />
    <glyph glyph-name="Acircumflex" unicode="&#xc2;" horiz-adv-x="2030"
d="M1991 1416q-30 -14 -79 -35q144 -93 144 -256q0 -140 -109 -238q-90 -81 -238 -122q277 -81 277 -323q0 -190 -144 -323q-141 -129 -335 -129q-124 0 -204 64q-88 70 -88 191q0 120 94 211q82 78 206 112q22 5 35 5q25 0 25 -27q0 -12 -63 -41l-43 -21
q-195 -92 -195 -268q0 -134 178 -134q104 0 210 93q161 140 161 326q0 210 -192 234q-89 -22 -130 -22q-53 0 -53 49q0 52 76 52q8 0 68 -12q10 -2 15 -2q127 0 205 109q70 97 70 231q0 95 -74 174q-170 -111 -475 -575q-243 -372 -346 -484q-244 -265 -504 -265
q-191 0 -304 113.5t-113 301.5q0 219 138 432q122 187 320 330q448 324 936 324q231 0 402 -76q157 82 192 82q20 0 20 -24q0 -19 -83 -57zM1430 1437q-457 0 -795 -276q-180 -148 -283 -334q-113 -203 -113 -417q0 -154 67 -251q77 -111 224 -111q226 0 470 337
q39 55 209 311q311 472 550 655q-131 86 -329 86z" />
    <glyph glyph-name="Atilde" unicode="&#xc3;" horiz-adv-x="1512"
d="M2091 1284q-56 -14 -143 -21q-134 -89 -298 -319q-80 -112 -239 -374q-354 -580 -787 -580q-245 0 -385.5 140.5t-140.5 382.5q0 106 29 181q40 106 126 106q80 0 80 -79q0 -51 -29 -75q-20 -16 -73 -28q-45 -10 -61 -23q-26 -20 -26 -66q0 -174 170 -311
q162 -131 373 -131q218 0 408 170q136 122 294 377q231 370 241 383q107 147 216 235q-117 -20 -209 -20q-145 0 -428 56t-428 56q-216 0 -270 -168q135 26 238 26q194 0 344 -84q182 -102 182 -283q0 -157 -122.5 -268.5t-281.5 -111.5q-202 0 -328 161q-116 147 -116 350
q0 67 15 143q-97 -25 -225 -96q-15 -9 -21 -9q-25 0 -25 24q0 26 121 76q90 38 164 59q46 144 175 233q126 87 281 87q100 0 334 -61q421 -109 615 -109q50 0 241 83q38 16 51 16q53 0 53 -44q0 -56 -115 -84zM630 1136q-62 0 -137 -15q-9 -63 -9 -91q0 -197 139 -333
t339 -136q103 0 166 49q69 52 69 150q0 175 -200 284q-168 92 -367 92z" />
    <glyph glyph-name="Adieresis" unicode="&#xc4;" horiz-adv-x="1817"
d="M1615 240q-249 -250 -636 -250q-133 0 -489 84q-157 -84 -297 -84q-73 0 -127 25q-72 33 -72 102q0 123 209 123q129 0 377 -50q134 95 229 238q-188 53 -303 187q-121 141 -121 330q0 252 173 404q166 146 423 146q242 0 472 -145q124 101 149 101q28 0 28 -24
q0 -16 -123 -114q322 -261 322 -578q0 -281 -214 -495zM866 1388q-178 0 -281 -91q-108 -96 -108 -269q0 -175 112 -317q108 -136 281 -194q52 83 154 252q112 184 152 245q89 136 171 232q-224 142 -481 142zM1401 1215q-102 -119 -233 -355q-148 -268 -218 -364
q50 -6 88 -6q122 0 222 52q109 57 156 159q11 30 23 60q18 43 38 43q24 0 24 -30q0 -91 -97 -192q-169 -176 -421 -176q-9 0 -98 5q-89 -119 -232 -231q342 -58 492 -58q252 0 423 142q181 151 181 394q0 310 -348 557zM121 156q-64 0 -64 -46q0 -71 146 -71q87 0 199 56
q-191 61 -281 61z" />
    <glyph glyph-name="Aring" unicode="&#xc5;" horiz-adv-x="1658"
d="M1150 -127q-372 0 -599 238q-126 132 -157 304q-18 -8 -170 -111q-104 -70 -184 -70q-23 0 -23 21q0 59 369 214v15q0 402 543 468l-11 46q-120 -12 -162 -12q-171 0 -291 52q-165 72 -165 224q0 141 129 230q115 79 262 79q210 0 454 -176q144 81 265 81q161 0 161 -119
q0 -221 -500 -334q3 -26 13 -61q334 -11 334 -162q0 -112 -148 -112q-112 0 -201 58q-92 59 -131 161q-421 -47 -421 -330q0 -24 4 -60q203 56 399 56q228 0 413 -74q251 -99 251 -294q0 -172 -138 -259q-115 -73 -296 -73zM1383 1426q-144 0 -228 -103q-77 -94 -83 -242
q412 77 412 253q0 92 -101 92zM1100 911q89 -166 213 -166q52 0 52 47q0 109 -265 119zM681 1503q-118 0 -204 -41q-108 -51 -108 -150q0 -122 181 -193q141 -56 297 -56q33 0 72 3q24 179 179 302q-208 135 -417 135zM836 501q-140 0 -301 -38q67 -230 254 -376
q192 -150 430 -150q108 0 188 44q95 53 95 147q0 182 -248 288q-197 85 -418 85z" />
    <glyph glyph-name="AE" unicode="&#xc6;" horiz-adv-x="2585"
d="M2010 1455q7 11 33 25.5t36 14.5q23 0 41 -19.5t18 -41.5q0 -52 -136 -93q-137 -149 -170 -237q-43 -120 -130 -359l105 3q101 232 400 470t615 238q202 0 202 -191q0 -238 -339 -397q-233 -109 -545 -154q-65 -9 -253 -19q-30 -108 -30 -191q0 -62 19 -163
q20 -108 126 -195q97 -80 220 -80q121 0 215 94q85 84 117 210q10 61 33 181q7 31 18 31q22 0 22 -40q0 -223 -102 -357q-161 -210 -395 -210q-149 0 -257 87t-133 232q-10 61 -10 140q0 125 50 256h-99q-177 -448 -362 -594q-118 -94 -153 -94q-31 0 -31 25q0 14 29 28
q120 58 181 155q23 37 80 169q52 120 127 308h-112q-71 -121 -131 -210q-42 -64 -128 -145q-376 -350 -696 -350q-148 0 -247 71q-113 80 -113 223q0 142 119 244q95 82 248 125q6 329 168 554q186 257 507 257q172 0 277.5 -99t105.5 -268q0 -166 -85 -350l109 3
q49 121 79 194q14 35 45 101q88 156 215 282q-111 -33 -166 -33q-177 0 -177 133q0 95 89 206q35 43 57 43q20 0 20 -22q0 -11 -44 -55.5t-44 -109.5q0 -52 58 -88q52 -32 112 -32q68 0 110 25q21 12 82 72v-3zM2812 1406q-216 0 -464 -159q-232 -149 -357 -343
q-47 -75 -79 -149q287 16 417 46q209 48 379 176q223 168 223 346q0 83 -119 83zM1075 1362q-223 0 -378 -197q-123 -156 -123 -383q0 -54 7 -115q79 16 346 39q36 152 36 236q0 33 -57.5 81t-57.5 112q0 83 80 83q99 0 99 -203q0 -135 -47 -305q175 14 412 24
q42 139 42 229q0 180 -88 285q-94 114 -271 114zM587 612q6 -54 39 -117q38 -70 74 -70q114 0 208 228q-180 -16 -321 -41zM962 658q-36 -105 -106 -192q-89 -111 -181 -111q-142 0 -179 235q-275 -69 -275 -242q0 -124 115 -194q98 -59 235 -59q308 0 587 290
q152 158 213 297q-63 -4 -409 -24z" />
    <glyph glyph-name="Ccedilla" unicode="&#xc7;" horiz-adv-x="1709"
d="M1370 793q126 -27 204.5 -120t78.5 -224q0 -141 -103 -258q-91 -102 -234 -157q-26 -129 -128 -220q-106 -93 -238 -93q-41 0 -41 27q0 5 27.5 14.5t36.5 9.5q75 5 143 62q74 61 101 152q-134 -56 -314 -56q-160 0 -292 44q-152 51 -245 163q-98 119 -98 274
q0 192 156 330q151 134 348 134q146 0 246.5 -105.5t100.5 -259.5q0 -115 -61 -228q21 2 42 2q220 0 220 -186q79 48 133 157q50 103 50 196q0 103 -70 195q-76 98 -176 98q-16 0 -46 -7.5t-46 -7.5q-69 0 -69 44q0 56 60 56q45 0 126 -18q142 45 233 143q101 109 101 246
q0 108 -66.5 176.5t-175.5 68.5q-103 0 -196 -77q-97 -81 -97 -179q0 -56 47 -116t100 -60q35 0 62.5 30t30.5 74q2 35 -40 119q-13 27 -13 52q0 69 54 69q37 0 60 -53q22 -49 22 -105q0 -101 -61 -173q-67 -79 -174 -79q-70 0 -116 68q-39 59 -39 129q0 150 122 251
q115 96 268 96q139 0 241 -70q115 -80 115 -216q0 -147 -125 -264q-106 -99 -265 -148zM1019 230q-110 -114 -177 -114q-62 0 -62 48q0 81 217 113q44 89 44 177q0 148 -109 254q-104 100 -234 100q-137 0 -222.5 -87.5t-85.5 -222.5q0 -214 151.5 -367t365.5 -153
q177 0 321 66q12 189 -166 189q-23 0 -43 -3z" />
    <glyph glyph-name="Egrave" unicode="&#xc8;" horiz-adv-x="1841"
d="M1427 390q-27 -124 -27 -190q0 -148 82 -148q94 0 200 90q81 80 162 161q25 1 25 -21q0 -20 -81 -103q-183 -189 -337 -189q-195 0 -200 280q-407 -280 -566 -280q-188 0 -188 197q0 81 32 167q41 110 121 206q277 328 295 350q195 253 195 359q0 78 -57 121
q-52 39 -136 39q-203 0 -380 -177t-177 -377q0 -104 84 -104q85 0 159 79t74 164q0 38 -25 80.5t-25 66.5q0 34 21 61q23 31 58 31q43 0 68 -44q20 -35 20 -76q0 -153 -151 -309t-305 -156q-70 0 -109 46q-37 43 -37 112q0 121 116 286q94 134 194 207q212 156 421 156
q112 0 185 -68t73 -179q0 -162 -105 -337q-58 -96 -227 -300q-155 -187 -211 -296q-55 -105 -55 -174q0 -84 86 -84q138 0 557 298q33 278 318 655q115 152 247 279q193 187 302 187q69 0 69 -89q0 -176 -305 -522q-196 -223 -460 -455zM2119 1415q-84 0 -283 -251
q-263 -331 -382 -676q129 113 236 227q123 132 265 328q184 254 184 343q0 29 -20 29z" />
    <glyph glyph-name="Eacute" unicode="&#xc9;" horiz-adv-x="1841"
d="M1709 1427q-91 0 -174 54q-48 31 -138 118q-87 83 -141 115q-180 -64 -313 -64t-133 85q0 91 190 91q173 0 277 -43q37 4 67.5 45.5t30.5 80.5q0 86 -138 86q-9 0 -27 -2t-27 -2q-30 0 -30 21q0 53 139 53q169 0 169 -116q0 -48 -33 -106q-35 -62 -81 -86
q28 -13 210 -142q139 -98 211 -98q101 0 170 95q63 87 63 194q0 20 -5 58.5t-5 57.5q0 26 22 26q39 0 39 -124q0 -162 -87 -274q-95 -123 -256 -123zM1428 392q-27 -125 -27 -191q0 -149 82 -149q94 0 200 91q81 80 162 161q25 1 25 -21q0 -20 -81 -104q-183 -189 -337 -189
q-195 0 -200 281q-408 -281 -566 -281q-188 0 -188 198q0 79 32 167q38 108 121 207q286 341 295 352q195 253 195 360q0 78 -57 121q-52 39 -136 39q-72 0 -156 -31l-73 28q132 50 235 50q112 0 185 -69t73 -179q0 -179 -136 -386q-21 -31 -259 -332q-203 -256 -203 -393
q0 -84 86 -84q137 0 557 298q33 280 318 657q118 157 246 282q193 187 303 187q69 0 69 -89q0 -178 -305 -525q-196 -223 -460 -456zM368 670q-70 0 -109 46q-37 43 -37 113q0 121 117 287q166 236 408 326l73 -29q-180 -67 -303 -215q-127 -153 -127 -320q0 -104 85 -104
q84 0 158 80t74 164q0 38 -25 80.5t-25 67.5q0 34 21 61q23 31 58 31q43 0 68 -44q20 -36 20 -77q0 -153 -151 -310t-305 -157zM1054 1784q-34 0 -82 -12q-62 -16 -62 -40t121 -24q82 0 172 44q-86 32 -149 32zM2120 1420q-84 0 -283 -252q-264 -333 -382 -678
q129 113 236 228q123 132 265 329q184 255 184 344q0 29 -20 29z" />
    <glyph glyph-name="Ecircumflex" unicode="&#xca;" horiz-adv-x="2391"
d="M2653 1198q-76 0 -76 78q0 16 14.5 46t14.5 39q0 37 -76 37q-86 0 -230 -134q-56 -52 -199 -210q-240 -268 -518 -376q150 -123 150 -292q0 -30 -4 -88.5t-4 -87.5q0 -171 129 -171q154 0 260.5 107t106.5 259q0 73 -32 128q-38 63 -103 63q-78 0 -200 -118q-26 4 -26 21
q0 53 104 112q96 55 152 55q102 0 164 -67q59 -64 59 -165q0 -185 -166 -319q-156 -127 -346 -127q-127 0 -200 83q-68 79 -68 205q0 34 4.5 102t4.5 102q0 119 -50 168q-94 -40 -197 -55q-154 -264 -356 -418q-239 -183 -514 -183q-211 0 -338 117q-131 120 -131 327
q0 80 26 141q36 85 111 85q80 0 80 -76q0 -57 -38 -82q-17 -10 -86 -29q-46 -13 -46 -45q0 -88 142 -213q153 -135 391 -135q224 0 400 152q134 116 263 348q-227 7 -227 120q0 59 65 88q50 22 117 22q85 0 159 -19q94 152 125 198q72 110 139 188q-144 -78 -269 -78
q-177 0 -259 131q-16 30 -53 86q-29 35 -70 35q-130 0 -224.5 -92t-94.5 -220q0 -89 47 -151q51 -69 135 -69q71 0 144 52q44 32 105 97q49 53 59 53q26 0 26 -25q0 -15 -49 -62q-211 -203 -373 -203q-92 0 -142 67q-45 59 -45 151q0 126 77 243q71 110 185 180
q76 47 184 47q86 0 147 -32q24 -13 115 -130q69 -89 147 -89q72 0 187 54q100 47 172 103q48 39 97 78q70 53 105 53q41 0 41 -40q0 -37 -87 -80l-120 -52q-3 -1 -23 -17q-139 -111 -354 -503q44 -18 124 -57q138 59 330 259q271 281 320 322q189 158 361 158q75 0 134 -27
q77 -37 77 -108q0 -45 -30 -80t-76 -35zM1390 724l-42 -77q66 9 132 34q-46 32 -90 43zM1236 754q-119 0 -119 -62q0 -60 117 -60h22l57 113q-43 9 -77 9z" />
    <glyph glyph-name="Edieresis" unicode="&#xcb;" horiz-adv-x="2454"
d="M2401 1016q-112 -188 -226 -379q-163 -273 -163 -473q0 -118 96 -118q97 0 261 175q25 31 83 86q26 1 26 -20q0 -18 -141 -163q-125 -128 -237 -128q-109 0 -167 73q-52 65 -52 174q0 163 96 346q95 179 378 553q190 250 190 262q2 11 0 11q-54 0 -393 -349l-601 -620
q-442 -456 -907 -456q-238 0 -393 127q-166 136 -166 367q0 239 176 393q169 149 412 149q171 0 314 -98q161 -110 161 -274q0 -95 -80 -95q-77 0 -77 95q0 19 9 56t9 56q0 95 -96 148q-79 44 -189 44q-212 0 -361 -155.5t-149 -366.5q0 -190 130 -295q121 -99 319 -99
q247 0 488 149q95 58 256 205q151 137 361 352l342 350q86 88 151 150q-102 -50 -209 -50q-142 0 -220 75q-156 149 -257 149q-92 0 -178 -84q-101 -99 -101 -242q0 -214 148 -214q109 0 201 140q21 32 30 32q24 0 24 -22q0 -84 -108 -156q-99 -66 -186 -66
q-109 0 -173.5 66t-64.5 174q0 174 165 310q156 128 335 128q134 0 250 -108q60 -55 95 -74q51 -28 120 -28q96 0 193 53l168 110q50 32 80 32q53 0 53 -50q0 -26 -225 -407z" />
    <glyph glyph-name="Igrave" unicode="&#xcc;" horiz-adv-x="2535"
d="M3141 862q-194 -161 -446 -161q-190 0 -409 127q-203 -253 -203 -552q0 -214 119 -214q78 0 185 91q38 32 154 153q27 2 27 -19q0 -35 -105 -127q-197 -172 -343 -172q-101 0 -153 94q-42 75 -42 178q0 295 301 609q-38 29 -69 58q-284 -273 -499 -643q-22 -38 -31 -62
q-25 -74 -49 -149q-43 -98 -105 -98q-58 0 -58 57q0 91 144 228q13 13 19.5 21.5t36.5 81.5q104 255 123 573q-165 -493 -652 -787q-267 -161 -515 -161q-226 0 -367 122q-148 129 -148 350q0 229 160 385t392 156q151 0 249.5 -90t98.5 -238q0 -107 -78 -220
q-86 -124 -192 -124q-28 0 -28 22q0 11 76 51q100 52 100 196q0 139 -91 226t-233 87q-155 0 -256 -96t-101 -248q0 -218 155 -353q149 -129 374 -129q376 0 674 376q270 340 270 672q0 278 -211 278q-145 0 -243.5 -99.5t-98.5 -243.5q0 -86 32 -144q40 -70 116 -70
q109 0 201 140q21 32 30 32q24 0 24 -22q0 -85 -108 -157q-98 -65 -186 -65q-109 0 -173.5 66t-64.5 174q0 174 165 310q156 128 335 128q183 0 272 -134q74 -112 74 -298q0 -270 -97 -573q194 330 389 557q-148 203 -148 398q0 54 46 52q18 -77 61 -207q49 -149 79 -201
q365 371 741 371q158 0 282 -62q156 -78 156 -224t-158 -277zM2957 1336q-332 0 -765 -371q37 -36 74 -60q255 240 415 240q84 0 84 -77q0 -40 -27.5 -67t-68.5 -27q-25 0 -75 25t-73 25q-90 0 -203 -153q153 -90 299 -90q286 0 492 154q139 104 139 206q0 103 -96 154
q-77 41 -195 41z" />
    <glyph glyph-name="Iacute" unicode="&#xcd;" horiz-adv-x="2601"
d="M2024 819q-147 -284 -147 -502q0 -224 121 -256q-3 53 -3 97q0 193 76 335q96 179 278 179q103 0 164 -72q57 -67 57 -169q0 -184 -159 -310q-144 -115 -335 -128q2 -28 17 -123q4 -26 -25 -26q-31 0 -57 151q-140 16 -218 122q-71 97 -71 241q0 234 119 430
q-60 -8 -124 -8q-77 0 -145 10q-4 -7 -27 -52q-161 -312 -374 -503q-267 -241 -567 -241q-183 0 -305 112q-125 114 -125 294q0 210 176 356q166 138 381 138q225 0 318 -172q36 -66 36 -139q0 -143 -103 -259q-107 -121 -251 -121q-65 0 -104 37q-56 53 -56 104
q0 55 27 102q32 58 88 58q78 0 78 -66q0 -52 -36 -98q-31 -40 -31 -43q0 -33 65 -33q79 0 138 58q57 55 68 134q5 32 5 72q0 50 -41 130q-88 170 -261 170q-151 0 -255.5 -102t-104.5 -251q0 -171 109.5 -276.5t283.5 -105.5q237 0 433 192q135 133 283 402q45 80 68 120
q-97 25 -170 74q-98 65 -98 144q0 85 97 85q47 0 72 -38q2 -3 34 -75q22 -49 124 -93q148 238 284 373q-114 -57 -234 -57q-82 0 -235 51t-234 51q-119 0 -119 -134q0 -112 89 -282q26 -50 26 -60q0 -24 -18 -24q-50 0 -105 159q-49 141 -49 211q0 263 261 263q86 0 198 -40
q95 -38 189 -77q78 -29 104 -29q96 0 209 67l8 10l10 12q84 97 127 97q47 0 47 -46q0 -70 -136 -102q-188 -187 -349 -470q91 -26 174 -26q36 0 96 8q210 291 413 442q247 184 406 184q149 0 149 -143q0 -302 -834 -523zM2676 1427q-147 0 -343 -198q-150 -151 -266 -343
q242 72 424 177q259 149 259 301q0 63 -74 63zM2072 52q161 1 267 102t106 259q0 79 -31 134q-37 67 -106 67q-130 0 -192 -219q-41 -147 -44 -343z" />
    <glyph glyph-name="Icircumflex" unicode="&#xce;" horiz-adv-x="1412"
d="M1564 863q-16 -22 -44 -67q-7 -20 -23 -58q-165 -403 -447 -603q23 -2 35 -2q163 0 308 155q13 15 43 42q23 2 23 -17q0 -85 -164 -165q-144 -71 -239 -71q2 0 -88 8q-182 -95 -330 -95q-201 0 -312 133q-103 124 -103 325q0 243 155 489q149 239 383 391
q246 159 492 159q173 0 279.5 -101t106.5 -271q0 -123 -75 -252zM1238 1243q-135 0 -278 -167q-185 -215 -185 -515q0 -132 43 -240q54 -132 157 -169q278 166 400 538q-123 -58 -288 -58q-36 0 -58 2q-57 5 -57 26q0 26 48 27q12 1 30.5 -0.5t19.5 -1.5q237 0 327 87
q30 143 30 216q0 255 -189 255zM1238 1439q-164 0 -328 -100q-144 -88 -258 -232q-256 -324 -256 -693q0 -364 273 -364q89 0 220 60q-115 51 -179 160q-61 104 -61 233q0 357 261 617q171 171 339 171q149 0 225 -115q64 -97 62 -247q30 72 30 140q0 161 -82 261
q-88 109 -246 109z" />
    <glyph glyph-name="Idieresis" unicode="&#xcf;" horiz-adv-x="2146"
d="M2212 1239q-22 -25 -61 -75q-322 -412 -412 -805q-24 -103 -24 -159q0 -148 82 -148q115 0 249 136q36 40 113 115q25 1 25 -21q0 -20 -81 -103q-183 -189 -337 -189q-200 0 -200 282q0 67 35 187q115 389 496 773h-69q-173 -114 -445 -558q-420 -684 -874 -684
q-245 0 -385.5 140.5t-140.5 382.5q0 106 29 181q40 106 126 106q80 0 80 -79q0 -51 -29 -75q-20 -16 -73 -28q-45 -10 -61 -23q-26 -20 -26 -66q0 -174 170 -311q162 -131 373 -131q205 0 365 129q63 51 141 187q58 104 175 309q84 147 200 290q45 55 144 139q70 59 113 86
q-33 -3 -71 -3q-195 0 -529 65q-286 55 -444 55q-216 0 -270 -168q135 26 238 26q194 0 344 -84q182 -102 182 -283q0 -157 -122.5 -268.5t-281.5 -111.5q-202 0 -328 161q-116 147 -116 350q0 67 15 143q-97 -25 -225 -96q-15 -9 -21 -9q-25 0 -25 24q0 26 120 76
q91 38 165 59q46 144 175 233q126 87 281 87q93 0 234 -34l232 -60q390 -92 694 -98q187 171 322 171q85 0 85 -59q0 -70 -142 -120q-100 -34 -210 -44zM2444 1413q-70 0 -181 -119q97 15 173 91q18 17 18 26q0 2 -10 2zM715 1136q-62 0 -137 -15q-9 -63 -9 -91
q0 -197 139 -333t339 -136q103 0 166 49q69 52 69 150q0 175 -200 284q-168 92 -367 92z" />
    <glyph glyph-name="Eth" unicode="&#xd0;" horiz-adv-x="1926"
d="M1952 659q-100 0 -175 38q-97 48 -97 142q0 110 92 110q89 0 89 -74q0 -18 -13 -50t-13 -48q0 -69 117 -69q120 0 187 82q63 77 63 200q0 191 -113 304.5t-307 113.5q-281 0 -485 -215q-145 -153 -172 -425q174 -34 302 -108q98 218 206 391q170 274 278 274q24 0 22 -27
q-32 -21 -76 -58q-70 -60 -197 -292q-85 -165 -170 -329q251 -181 251 -374q0 -120 -66 -189q-68 -72 -188 -72q-213 0 -359 197q-239 -197 -497 -197q-244 0 -381 150q-131 144 -131 387q0 101 31 181q43 114 133 114q89 0 89 -105q0 -52 -39 -75q-21 -13 -79 -23
q-52 -9 -68 -24t-16 -62q0 -193 189 -320q170 -114 378 -114q186 0 364 126q-114 194 -114 407q0 47 5 97h-21q-135 0 -224 -58q-102 -67 -102 -191q0 -136 116 -166q29 -6 86 -20q27 -7 27 -18q0 -25 -40 -25q-128 0 -212 57q-97 67 -97 190q0 178 166 244q108 43 313 43
q72 302 299 498q237 204 546 204q199 0 346 -100q168 -114 168 -305q0 -176 -115 -296q-118 -121 -296 -121zM1465 578q-124 -195 -229 -301q59 -85 136 -143q93 -70 176 -70q144 0 144 150q0 202 -227 364zM1121 716q-1 -17 -1 -41q0 -172 89 -353q80 87 196 293
q-164 85 -284 101z" />
    <glyph glyph-name="Ntilde" unicode="&#xd1;" horiz-adv-x="1449"
d="M1260 667q-114 0 -186 55q-81 61 -81 173q0 79 45 135q-177 5 -259 98q-262 -333 -262 -634q0 -203 97 -321q104 -129 303 -129q241 0 538 296q25 1 25 -18q0 -51 -129 -146q-263 -194 -466 -194q-243 0 -390 126q-155 134 -155 371q0 217 113 407q84 141 273 327
q-13 40 -13 90q0 163 82 282q87 128 243 164q6 1 12 1q27 0 27 -28q0 -13 -56 -30l-37 -12q-186 -60 -186 -321q0 -41 7 -90q107 82 236 138q146 63 260 63q175 0 278.5 -103t103.5 -276q0 -183 -118.5 -303.5t-304.5 -120.5zM1218 1379q-238 0 -382 -183q20 -48 91 -91
q52 -31 150 -31q86 89 140 89q52 0 52 -40q0 -64 -173 -91q-12 -34 -12 -68q0 -96 73.5 -163.5t171.5 -67.5q108 0 175 74t67 183q0 389 -353 389z" />
    <glyph glyph-name="Ograve" unicode="&#xd2;" horiz-adv-x="2419"
d="M2488 1239q-375 -451 -473 -880q-24 -104 -24 -159q0 -148 82 -148q98 0 201 91q80 80 161 160q25 1 25 -21q0 -20 -81 -103q-183 -189 -337 -189q-200 0 -200 282q0 68 35 187q116 388 490 765q-47 -5 -172 -11q-66 -45 -293 -464q-77 -141 -179 -301q-78 -124 -88 -139
q-52 -77 -102 -128q-174 -181 -219 -181q-44 0 -44 38q0 18 27 25q104 24 237 259q20 35 154 315q207 432 421 576q-47 0 -96 2q-167 -111 -430 -541q-419 -684 -874 -684q-245 0 -385.5 140.5t-140.5 382.5q0 106 29 181q40 106 126 106q80 0 80 -79q0 -51 -29 -75
q-20 -16 -73 -28q-45 -10 -61 -23q-26 -20 -26 -66q0 -174 170 -311q162 -131 373 -131q205 0 365 129q65 52 141 187l175 309q82 144 200 290q44 54 141 130q74 60 120 84q-73 4 -213 20q-224 32 -671 92q-127 16 -164 16q-216 0 -270 -168q135 26 238 26q194 0 344 -84
q182 -102 182 -283q0 -157 -122.5 -268.5t-281.5 -111.5q-202 0 -328 161q-116 147 -116 350q0 67 15 143q-97 -25 -225 -96q-15 -9 -21 -9q-25 0 -25 24q0 26 120 76q91 38 165 59q46 144 175 233q126 87 281 87q220 0 647 -105t647 -105q109 0 148 30q178 140 297 140
q88 0 88 -57q0 -63 -137 -107q-95 -31 -199 -40zM2709 1395q-76 0 -171 -102q48 5 73 18q120 62 120 81q0 3 -22 3zM715 1136q-62 0 -137 -15q-9 -63 -9 -91q0 -197 139 -333t339 -136q103 0 166 49q69 52 69 150q0 175 -200 284q-168 92 -367 92z" />
    <glyph glyph-name="Oacute" unicode="&#xd3;" horiz-adv-x="1576"
d="M1949 1019q-107 -91 -380 -284q-176 -313 -389 -502q-274 -244 -575 -244q-230 0 -359 121q-133 124 -133 350q0 107 32 204q44 134 128 134q78 0 78 -80q0 -57 -44 -89q-2 -2 -91 -47q-54 -28 -54 -74q0 -107 112 -228q171 -184 441 -184q221 0 387 129q109 85 259 366
q-242 -168 -411 -168q-89 0 -128 49q-54 69 -54 162q0 103 79 238q15 26 145 215q79 114 79 166q0 147 -146 147q-79 0 -221 -59q-135 -57 -203 -113q-91 -77 -146 -210q-15 -36 -42 -36q-23 0 -23 21q0 43 59 142q206 340 511 340q257 0 257 -251q0 -94 -64 -240
q-51 -117 -103 -234q-30 -85 -30 -151q0 -128 92 -128q134 0 397 204q40 81 81 163q48 92 93 155q121 169 158 214q97 117 196 181q112 72 192 72q82 0 82 -93q0 -134 -262 -358zM2095 1412q-8 0 -21 -5q-154 -63 -286 -260q-14 -22 -70 -127q-41 -77 -96 -184
q154 111 214 166q98 89 177 213q90 142 90 186q0 11 -8 11z" />
    <glyph glyph-name="Ocircumflex" unicode="&#xd4;" horiz-adv-x="2194"
d="M2071 1216q-55 -21 -153 -44l-129 -8q-31 -31 -59 -85q-23 -47 -46 -93q25 -2 75 -9q169 -28 283 -128q127 -113 127 -275q0 -172 -121 -292t-295 -120q-119 0 -191 73.5t-72 190.5q0 99 54 163q49 58 126 101q84 46 155 46q29 0 29 -19q0 -20 -29 -29l-9 -2
q-96 -27 -149 -108.5t-53 -180.5q0 -130 89 -171q29 -13 40 -13q128 0 197 78q65 75 65 204q0 168 -90 280q-93 115 -258 145q-86 -157 -147 -263q-33 -56 -103 -166q-356 -503 -776 -503q-244 0 -381 148q-131 142 -131 385q0 100 31 181q43 114 133 114q89 0 89 -99
q0 -54 -31 -76q-22 -16 -78 -25q-48 -8 -66 -21q-27 -19 -27 -68q0 -187 185 -317q168 -117 368 -117q366 0 618 413q16 26 173 325l53 100q-64 9 -141 9q-238 0 -402 -82q-208 -104 -208 -311q0 -187 98 -187q74 0 151.5 63t77.5 132q0 19 -17 54.5t-17 58.5q0 34 24 60.5
t60 26.5q66 0 66 -76q0 -145 -141 -275t-288 -130q-83 0 -135 60q-48 57 -48 139q0 91 54 184q51 87 129 143q273 196 669 196q48 0 100 -2q12 23 37 68q18 29 74 100q-210 14 -430 133q-123 67 -206 67q-88 0 -175 -70t-127 -204q-16 -53 -38 -53q-24 0 -24 37q0 55 79 168
q148 211 388 211q144 0 262 -66q189 -107 323 -135q111 108 138 129q91 71 168 71q122 0 122 -93q0 -96 -119 -141zM2008 1361q-86 0 -168 -128q14 -2 35 -2q129 0 190 41q35 23 35 43q0 46 -92 46z" />
    <glyph glyph-name="Otilde" unicode="&#xd5;" horiz-adv-x="1962"
d="M1445 706q-135 -261 -260 -370q36 -119 128 -193q95 -77 217 -77q119 0 215 94q88 86 117 209q13 68 43 212q30 -1 30 -40q0 -222 -102 -356q-161 -210 -395 -210q-132 0 -230.5 67t-143.5 187q-291 -247 -579 -247q-148 0 -247 71q-113 80 -113 223q0 141 118 243
q96 82 249 125q2 326 167 553q187 257 508 257q125 0 220 -56q104 -62 139 -174q313 230 604 230q202 0 202 -191q0 -237 -339 -399q-239 -114 -548 -158zM2120 1404q-259 0 -575 -238q5 -47 5 -79q0 -155 -79 -325q271 43 492 175q276 166 276 384q0 83 -119 83zM1423 1066
q-156 -159 -220 -339l191 21q40 129 40 214q0 37 -11 104zM1075 1359q-222 0 -378 -196q-123 -155 -123 -382q0 -54 7 -115q103 23 347 41q37 113 37 207q0 34 -4 52q-2 9 -60 57q-53 45 -53 110q0 83 81 83q96 0 96 -203q0 -143 -45 -302q59 4 125 8q91 212 307 403
q-26 112 -123 176q-92 61 -214 61zM1186 673q-21 -91 -21 -170q0 -42 7 -104q135 139 203 296q-66 -10 -189 -22zM587 611q6 -54 39 -117q38 -70 74 -70q114 0 208 228q-180 -17 -321 -41zM962 657q-48 -143 -154 -241q-70 -63 -133 -63q-77 0 -128 85q-38 63 -51 151
q-275 -69 -275 -242q0 -123 115 -193q98 -60 235 -60q262 0 473 185q-16 73 -16 120q0 119 57 267q-64 -5 -123 -9z" />
    <glyph glyph-name="Odieresis" unicode="&#xd6;" horiz-adv-x="2054"
d="M1696 177q-2 -8 -33 -34q-13 -12 -42 -38q-67 -64 -111 -88q-61 -33 -140 -33q-195 0 -200 281q-408 -281 -566 -281q-188 0 -188 198q0 139 92 285q46 71 190 238q361 418 361 563q0 78 -57 121q-52 39 -136 39q-202 0 -380 -177.5t-178 -377.5q0 -105 85 -105
q84 0 158 80t74 164q0 38 -25 81t-25 67q0 34 21 61q23 31 58 31q43 0 68 -44q20 -35 20 -77q0 -153 -151 -309.5t-305 -156.5q-70 0 -109 46q-37 43 -37 112q0 120 117 287q94 135 194 208q212 157 421 157q112 0 185 -68.5t73 -179.5q0 -178 -136 -385q-21 -32 -259 -332
q-203 -257 -203 -394q0 -84 86 -84q137 0 557 298q33 280 318 658q118 156 247 281q192 187 302 187q69 0 69 -89q0 -177 -305 -525q-196 -223 -460 -456q-27 -125 -27 -191q0 -149 82 -149q98 0 201 92q81 80 161 160q101 0 123 -14q-66 -132 -131 -252q113 82 297 270
q26 1 26 -18q0 -45 -157 -176q-117 -98 -214 -162q-315 -593 -540 -593q-114 0 -114 111q0 181 465 459q32 22 99 56q13 30 43 101q32 77 36 97zM2038 1415q-84 0 -283 -252q-264 -334 -382 -679q129 113 236 228q123 132 265 330q184 254 184 344q0 29 -20 29zM1126 -540
q0 -58 49 -58q137 0 386 495q-435 -253 -435 -437z" />
    <glyph glyph-name="multiply" unicode="&#xd7;" horiz-adv-x="1710"
d="M1390 651q-120 -265 -120 -451q0 -148 82 -148q98 0 201 91q80 80 161 160q25 1 25 -21q0 -20 -81 -103q-183 -189 -337 -189q-100 0 -154 80q-46 68 -46 170q0 112 42 246q-203 -130 -329 -130q-188 0 -188 197q0 78 32 167q13 36 55 107.5t67 98.5l157 170
q53 58 53 173q0 78 -57 121q-52 39 -136 39q-72 0 -156 -32l-72 29q131 49 234 49q112 0 185 -68.5t73 -178.5q0 -64 -23 -151q-25 -90 -59 -140q-49 -72 -148 -216q-89 -131 -89 -234q0 -84 86 -84q122 0 341 157q137 345 494 700q200 199 290 199q71 0 71 -70
q0 -122 -272 -396q-180 -182 -382 -342zM237 668q-70 0 -109 46q-37 43 -37 112q0 120 117 286q166 234 408 324l73 -28q-180 -68 -303 -214q-127 -153 -127 -319q0 -104 85 -104q84 0 158 79.5t74 163.5q0 38 -25 80.5t-25 66.5q0 34 21 61q23 31 58 31q43 0 68 -44
q20 -35 20 -76q0 -153 -150.5 -309t-305.5 -156zM1977 1418q-35 0 -143 -109q-221 -223 -391 -549q177 158 335 330q211 233 211 314q0 14 -12 14z" />
    <glyph glyph-name="Oslash" unicode="&#xd8;" horiz-adv-x="2403"
d="M1903 336q-24 -107 -24 -136q0 -148 82 -148q95 0 200 90q81 80 162 161q25 1 25 -21q0 -20 -81 -103q-182 -189 -337 -189q-116 0 -164 66q-37 52 -39 160l-206 -154q-115 -72 -247 -72q-116 0 -164 66q-37 52 -39 160l-198 -144q-129 -82 -225 -82q-188 0 -188 197
q0 79 32 166q39 108 122 207q280 332 294 350q195 253 195 359q0 78 -57 121q-52 39 -136 39q-202 0 -379.5 -177.5t-177.5 -376.5q0 -104 85 -104q84 0 159 80q72 78 72 163q0 37 -24.5 79t-24.5 68q0 33 22 62.5t56 29.5q43 0 68 -44q20 -35 20 -76q0 -154 -149.5 -309.5
t-305.5 -155.5q-69 0 -107.5 43t-38.5 112q0 123 116 289q112 159 264 255q171 108 351 108q112 0 185 -68.5t73 -178.5q0 -178 -136 -384q-21 -31 -259 -330q-203 -256 -203 -393q0 -82 100 -80q69 1 207 96q96 72 193 144q19 164 119 373q87 184 202 336q119 156 247 280
q192 186 302 186q69 0 69 -89q0 -178 -306 -549q-229 -276 -462 -482q-24 -107 -24 -136q0 -156 103 -156q84 0 214 91l192 146q19 164 119 373q87 184 202 336q119 156 247 280q192 186 302 186q69 0 69 -89q0 -178 -306 -549q-229 -276 -462 -482zM2598 1415
q-84 0 -283 -251q-241 -303 -392 -749q196 181 429 488q266 351 266 483q0 29 -20 29zM1942 1415q-84 0 -283 -251q-236 -298 -387 -742q196 181 426 484q264 348 264 480q0 29 -20 29z" />
    <glyph glyph-name="Ugrave" unicode="&#xd9;" horiz-adv-x="2630"
d="M1903 331q-24 -107 -24 -136q0 -149 82 -149q95 0 200 91q81 81 162 161h6q95 0 119 -14q-66 -132 -131 -252q113 83 297 270q26 1 26 -18q0 -45 -157 -176q-117 -98 -214 -162q-315 -593 -540 -593q-114 0 -114 111q0 127 218 301q143 114 331 215l67 157
q-162 -153 -301 -153q-116 0 -164 67q-37 51 -39 160q-103 -78 -206 -155q-115 -72 -247 -72q-116 0 -164 67q-37 51 -39 160q-99 -73 -198 -145q-129 -82 -225 -82q-188 0 -188 198q0 79 32 167q39 108 122 207q280 334 294 352q195 253 195 360q0 78 -57 121
q-52 39 -136 39q-202 0 -379.5 -177.5t-177.5 -377.5q0 -105 85 -105q84 0 159 80q72 79 72 164q0 37 -24.5 79.5t-24.5 68.5q0 33 22 62.5t56 29.5q43 0 68 -44q20 -35 20 -76q0 -155 -149.5 -311t-305.5 -156q-69 0 -107.5 43t-38.5 112q0 124 116 290q112 160 264 257
q171 108 351 108q112 0 185 -68.5t73 -179.5q0 -178 -136 -385q-21 -32 -259 -332q-203 -257 -203 -394q0 -83 100 -81q69 1 207 97q96 72 193 144q19 165 119 375q87 185 202 337q119 156 247 281q192 187 302 187q69 0 69 -89q0 -179 -306 -551q-229 -278 -462 -485
q-24 -107 -24 -136q0 -156 103 -156q84 0 214 90q96 74 192 147q19 165 119 375q87 185 202 337q119 156 247 281q192 187 302 187q69 0 69 -89q0 -179 -306 -551q-229 -278 -462 -485zM2598 1415q-84 0 -283 -252q-241 -305 -392 -752q196 182 429 490q266 352 266 485
q0 29 -20 29zM1942 1415q-84 0 -283 -252q-236 -299 -387 -745q196 181 426 486q264 349 264 482q0 29 -20 29zM1688 -540q0 -58 49 -58q137 0 386 495q-435 -253 -435 -437z" />
    <glyph glyph-name="Uacute" unicode="&#xda;" horiz-adv-x="2138"
d="M2121 1284q-55 -14 -143 -21q-199 -131 -489 -614q149 85 296 85q146 0 232 -72q92 -78 92 -220q0 -188 -145 -322q-142 -130 -334 -130q-124 0 -204 64q-88 70 -88 191t94 211q81 79 206 112q21 5 35 5q25 0 25 -27q0 -11 -63 -41l-43 -21q-195 -93 -195 -268
q0 -134 178 -134q104 0 210 93q161 140 161 326q0 182 -188 182q-147 0 -297 -117q-42 -33 -47 -39q-15 -23 -45 -66q-329 -471 -715 -471q-245 0 -385.5 140.5t-140.5 382.5q0 106 29 181q40 106 126 106q80 0 80 -79q0 -51 -29 -75q-20 -16 -73 -28q-45 -10 -61 -23
q-26 -20 -26 -66q0 -174 170 -311q162 -131 373 -131q218 0 408 170q136 122 294 377q231 370 241 383q107 147 217 235q-118 -20 -210 -20q-145 0 -428 56t-428 56q-216 0 -270 -168q135 26 238 26q194 0 344 -84q182 -102 182 -283q0 -157 -122.5 -268.5t-281.5 -111.5
q-202 0 -328 161q-116 147 -116 350q0 67 15 143q-97 -25 -225 -96q-15 -9 -21 -9q-25 0 -25 24q0 26 120 76q91 38 165 59q46 144 175 233q126 87 281 87q100 0 334 -61q421 -109 615 -109q50 0 241 83q38 16 51 16q53 0 53 -44q0 -56 -115 -84zM660 1136q-62 0 -137 -15
q-9 -63 -9 -91q0 -197 139 -333t339 -136q103 0 166 49q69 52 69 150q0 175 -200 284q-168 92 -367 92z" />
    <glyph glyph-name="Ucircumflex" unicode="&#xdb;" horiz-adv-x="2138"
d="M2121 1284q-55 -14 -143 -21q-199 -131 -489 -614q149 85 296 85q146 0 232 -72q92 -78 92 -220q0 -188 -145 -322q-142 -130 -334 -130q-124 0 -204 64q-88 70 -88 191t94 211q81 79 206 112q21 5 35 5q25 0 25 -27q0 -11 -63 -41l-43 -21q-195 -93 -195 -268
q0 -134 178 -134q104 0 210 93q161 140 161 326q0 182 -188 182q-147 0 -297 -117q-42 -33 -47 -39q-15 -23 -45 -66q-329 -471 -715 -471q-245 0 -385.5 140.5t-140.5 382.5q0 106 29 181q40 106 126 106q80 0 80 -79q0 -51 -29 -75q-20 -16 -73 -28q-45 -10 -61 -23
q-26 -20 -26 -66q0 -174 170 -311q162 -131 373 -131q218 0 408 170q136 122 294 377q231 370 241 383q107 147 217 235q-118 -20 -210 -20q-145 0 -428 56t-428 56q-216 0 -270 -168q135 26 238 26q194 0 344 -84q182 -102 182 -283q0 -157 -122.5 -268.5t-281.5 -111.5
q-202 0 -328 161q-116 147 -116 350q0 67 15 143q-97 -25 -225 -96q-15 -9 -21 -9q-25 0 -25 24q0 26 120 76q91 38 165 59q46 144 175 233q126 87 281 87q100 0 334 -61q421 -109 615 -109q50 0 241 83q38 16 51 16q53 0 53 -44q0 -56 -115 -84zM660 1136q-62 0 -137 -15
q-9 -63 -9 -91q0 -197 139 -333t339 -136q103 0 166 49q69 52 69 150q0 175 -200 284q-168 92 -367 92z" />
    <glyph glyph-name="Udieresis" unicode="&#xdc;" horiz-adv-x="2138"
d="M2121 1284q-55 -14 -143 -21q-199 -131 -489 -614q149 85 296 85q146 0 232 -72q92 -78 92 -220q0 -188 -145 -322q-142 -130 -334 -130q-124 0 -204 64q-88 70 -88 191t94 211q81 79 206 112q21 5 35 5q25 0 25 -27q0 -11 -63 -41l-43 -21q-195 -93 -195 -268
q0 -134 178 -134q104 0 210 93q161 140 161 326q0 182 -188 182q-147 0 -297 -117q-42 -33 -47 -39q-15 -23 -45 -66q-329 -471 -715 -471q-245 0 -385.5 140.5t-140.5 382.5q0 106 29 181q40 106 126 106q80 0 80 -79q0 -51 -29 -75q-20 -16 -73 -28q-45 -10 -61 -23
q-26 -20 -26 -66q0 -174 170 -311q162 -131 373 -131q218 0 408 170q136 122 294 377q231 370 241 383q107 147 217 235q-118 -20 -210 -20q-145 0 -428 56t-428 56q-216 0 -270 -168q135 26 238 26q194 0 344 -84q182 -102 182 -283q0 -157 -122.5 -268.5t-281.5 -111.5
q-202 0 -328 161q-116 147 -116 350q0 67 15 143q-97 -25 -225 -96q-15 -9 -21 -9q-25 0 -25 24q0 26 120 76q91 38 165 59q46 144 175 233q126 87 281 87q100 0 334 -61q421 -109 615 -109q50 0 241 83q38 16 51 16q53 0 53 -44q0 -56 -115 -84zM660 1136q-62 0 -137 -15
q-9 -63 -9 -91q0 -197 139 -333t339 -136q103 0 166 49q69 52 69 150q0 175 -200 284q-168 92 -367 92z" />
    <glyph glyph-name="Yacute" unicode="&#xdd;" horiz-adv-x="1695"
d="M1728 1133q-63 -27 -151 -59q42 -104 42 -213q0 -156 -82 -310q218 -33 218 -150q0 -84 -105 -128q-78 -32 -171 -32q-88 0 -183 27q-185 -150 -453 -259q-286 -117 -508 -117q-201 0 -201 123q0 129 273 312q192 128 470 195l-185 171q-100 93 -212 93q-77 0 -157 -62
q-41 -31 -124 -120q-26 -28 -46 -28q-24 0 -24 23q0 20 25 45l118 116q95 90 266 90q137 0 283 -98q79 -53 231 -197q145 20 313 21q101 163 101 334q0 60 -14 127q-294 -77 -535 -77q-185 0 -323 57q-189 79 -189 240q0 139 149 215q118 60 268 60q226 0 418 -109
q189 -107 307 -299q5 2 91 38q73 32 202 87q27 2 27 -19q0 -36 -139 -97zM884 1458q-138 0 -265 -56q-157 -69 -157 -181q0 -105 221 -155q145 -33 311 -33q213 0 445 58q-55 181 -209 277q-144 90 -346 90zM1472 462q-47 -73 -117 -141q70 -31 137 -31q52 0 96 14
q63 19 63 58q0 58 -179 100zM1136 509h-35q71 -67 121 -106q42 45 76 92q-115 14 -162 14zM916 485q-181 -40 -348 -132q-186 -103 -284 -233q-48 -64 -48 -106q0 -72 132 -72q162 0 356 94q223 108 420 286q-109 56 -228 163z" />
    <glyph glyph-name="Thorn" unicode="&#xde;" horiz-adv-x="2195"
d="M2672 871q-133 -160 -327 -160q-38 0 -94 9q-131 -270 -323 -470q-249 -260 -486 -260q-144 0 -214 135q-54 104 -54 256q0 293 231 646q-390 -388 -695 -706q-32 -28 -82 -96q-122 -264 -239 -264q-41 0 -41 54q0 42 170 194q136 122 191 342q10 41 36 170
q62 307 196 454q132 144 222 199q-343 -25 -569 -193q-260 -193 -260 -512q0 -93 42 -212q4 -11 5 -20q-6 -17 -21 -17q-32 0 -76 163q-40 149 -40 207q0 346 341 510q258 124 644 124h31q44 0 53 -23q-123 -63 -188 -120q-59 -51 -198 -416q-50 -132 -157 -394
q339 399 695 699q36 26 103 91q165 209 263 209q53 0 53 -41q0 -49 -122 -133l-168 -108q-62 -47 -100 -116q-19 -34 -60 -138q-101 -261 -101 -474q0 -146 37 -245q52 -141 166 -141q188 0 385 247q155 195 242 430q-236 117 -236 392q0 119 58 214q68 113 184 113
q200 0 200 -298q0 -148 -95 -394q49 -15 91 -15q103 0 182 54q60 41 132 134q31 40 31 52q30 1 30 -18q0 -33 -68 -114zM2118 1402q-58 0 -91 -70q-26 -57 -26 -128q0 -110 48 -215q50 -110 135 -173q59 165 59 349q0 79 -28 149q-36 88 -97 88z" />
    <glyph glyph-name="germandbls" unicode="&#xdf;" horiz-adv-x="2139"
d="M2121 223q-207 -236 -381 -236q-105 0 -150 75q-50 86 -50 192q0 10 16 88q8 38 18 102q2 28 -67 109q-134 -176 -285 -302q25 -66 25 -133q0 -160 -102 -276q-107 -121 -268 -121q-41 0 -41 27q0 11 32 22q37 8 103 29q188 83 188 309q0 41 -9 91q-312 -212 -562 -212
q-210 0 -343 118q-138 123 -138 329q0 204 143 339q141 132 348 132q135 0 230 -72q104 -79 104 -210q0 -83 -50 -163q221 -5 315 -160q135 121 235 341q-182 231 -182 498q0 119 42 208q56 117 168 117q124 0 195 -129q57 -105 57 -235q0 -203 -170 -499q20 -26 61 -69
q36 -22 95 -70q21 -15 21 -56q0 -31 -13 -84q-14 -59 -16 -84q-1 -18 -1 -40q0 -149 82 -149q94 0 200 91l162 160q25 2 25 -20q0 -15 -37 -57zM1448 1419q-113 0 -113 -242q0 -245 125 -469q103 259 103 502q0 209 -115 209zM860 410h-18q-109 -114 -176 -114q-62 0 -62 49
q0 80 217 113q15 44 15 88q0 123 -92 210t-218 87q-138 0 -222.5 -94.5t-84.5 -233.5q0 -195 135 -318q131 -120 330 -120q226 0 447 172q-71 161 -271 161z" />
    <glyph glyph-name="agrave" unicode="&#xe0;" horiz-adv-x="807"
d="M791 219q-19 -21 -53 -54q-177 -175 -263 -175q-94 0 -94 108q0 18 3 41q-130 -149 -241 -149q-128 0 -128 212q0 26 5 55q-14 -12 -24 -12q-22 0 -22 18q0 22 99 118q203 197 376 197q118 0 118 -102l61 85l159 9l-236 -358q-74 -113 -74 -149q0 -18 21 -18
q49 0 243 193q47 47 68 62q26 2 26 -17q0 -16 -44 -64zM457 529q-109 0 -226 -163q-110 -154 -110 -270q0 -51 39 -51q68 0 183 122q171 182 171 309q0 53 -57 53z" />
    <glyph glyph-name="aacute" unicode="&#xe1;" horiz-adv-x="699"
d="M22 266q-16 -14 -26 -14q-20 0 -20 18q0 24 125 149q20 51 173.5 297t188.5 283q93 99 230 104q64 3 102 7q68 7 96 22q44 23 66 75q8 20 27 96q8 36 34 36q27 0 27 -38q0 -48 -36 -133q-71 -170 -281 -200q-73 -10 -146 -19q-85 -19 -126 -69q-109 -131 -223 -355
q107 68 197 68q66 0 113.5 -45.5t47.5 -110.5q0 -99 -105 -238q11 -2 16 -2q57 0 101 30q24 17 76 72q22 23 36 23q18 0 18 -22q0 -11 -27 -42q-94 -108 -217 -108q-20 0 -42 2q-155 -162 -285 -162q-147 0 -147 220q0 25 7 56zM446 539q-105 0 -217 -166
q-104 -155 -104 -269q0 -62 53 -62q81 0 203 177q117 171 117 265q0 55 -52 55z" />
    <glyph glyph-name="acircumflex" unicode="&#xe2;" horiz-adv-x="693"
d="M64 313q-57 -63 -68 -63q-20 0 -20 17q0 13 195 236q40 46 48 57q9 18 28 53q140 247 321 445q142 156 250 156q114 0 114 -110q0 -191 -549 -505l-260 -452q-29 -49 -29 -79q0 -29 51 -29q119 0 207 108q77 94 99 223q3 19 10 86q13 132 82 132t69 -92q0 -131 -121 -296
q12 -3 17 -3q61 0 133 62.5t76 62.5q18 0 18 -22q0 -11 -27 -43q-94 -108 -216 -108q-18 0 -44 3q-156 -162 -319 -162q-129 0 -129 128q0 74 64 195zM808 1166q-137 0 -386 -493q435 252 435 435q0 58 -49 58z" />
    <glyph glyph-name="atilde" unicode="&#xe3;" horiz-adv-x="575"
d="M557 213q-211 -223 -354 -223q-70 0 -120.5 50.5t-50.5 118.5q0 25 4 41q23 79 177 137q62 20 183 64q79 33 79 103q0 30 -26 30q-95 0 -205 -74q-68 -46 -161 -138q-76 -75 -87 -75q-20 0 -20 18q0 17 83 104q199 209 381 209q123 0 123 -102q0 -121 -138 -198
q-15 -9 -67 -26q-227 -77 -227 -133q0 -31 25.5 -56t56.5 -25q70 0 160 68q53 41 135 126q65 68 76 68q22 0 22 -19q0 -15 -49 -68z" />
    <glyph glyph-name="adieresis" unicode="&#xe4;" horiz-adv-x="771"
d="M411 -58q-315 -589 -540 -589q-114 0 -114 110q0 191 548 505l75 159q-140 -147 -237 -147q-128 0 -128 215q0 27 5 56q-14 -11 -24 -11q-22 0 -22 17q0 22 99 120q202 201 376 201q118 0 118 -103l61 86l149 9q-181 -289 -318 -545q113 79 300 270q25 2 25 -19
q0 -49 -159 -178q-121 -98 -214 -156zM457 528q-109 0 -226 -166q-110 -157 -110 -274q0 -52 39 -52q68 0 183 124q171 185 171 315q0 53 -57 53zM-168 -541q0 -58 49 -58q137 0 386 493q-435 -252 -435 -435z" />
    <glyph glyph-name="aring" unicode="&#xe5;" horiz-adv-x="575"
d="M23 262q-16 -15 -27 -15q-20 0 -20 18q0 17 83 104q199 209 381 209q123 0 123 -102q0 -106 -158 -191q-111 -61 -255 -93q-9 -51 -9 -71q0 -83 72 -83q70 0 160 68q53 41 135 126q65 68 76 68q22 0 22 -19q0 -21 -107 -126q-169 -165 -296 -165q-90 0 -141 73
q-43 62 -43 150q0 24 4 49zM449 534q-77 0 -166 -104q-71 -83 -115 -185q110 28 200 95q107 80 107 164q0 30 -26 30z" />
    <glyph glyph-name="ae" unicode="&#xe6;" horiz-adv-x="1403"
d="M1383 212q-211 -228 -356 -228q-90 0 -140 75q-42 63 -42 154q0 22 5 51q-244 -248 -336 -404l-230 -386l-158 -17l572 964q-111 -118 -212 -219q-212 -214 -377 -214q-143 0 -143 116q0 38 21 68q24 35 64 35q72 0 72 -63q0 -22 -35 -53l-12 -10q-17 -15 -17 -20
q0 -24 33 -24q108 0 215 156q99 145 99 263q0 80 -45 80q-69 0 -214 -142q-42 -39 -121 -122q-27 -2 -27 20t107 128q161 161 267 161q81 0 122 -77q31 -59 31 -143q0 -22 -4 -49q146 160 244 272q57 63 159 197l289 451l159 22l-468 -746q-68 -105 -198 -319l178 183
q208 213 377 213q143 0 143 -115q0 -39 -21 -69q-24 -34 -64 -34q-72 0 -72 62q0 23 35 54l12 10q17 15 17 19q0 25 -33 25q-108 0 -215 -156q-99 -146 -99 -263q0 -86 74 -86q93 0 245 147q42 39 121 122q27 2 27 -19q0 -16 -49 -70z" />
    <glyph glyph-name="ccedilla" unicode="&#xe7;" horiz-adv-x="643"
d="M508 109l-122 -102q-60 -49 -85 -65q-315 -589 -540 -589q-114 0 -114 110q0 191 548 505q10 28 10 55q0 84 -64 84q-13 0 -37.5 -13t-32.5 -13q-21 0 -21 24q0 19 60 54q145 84 192 124q103 88 103 190q0 64 -49 64q-7 0 -18 -3q-154 -37 -177 -187q-7 -44 -34 -74
q-33 -37 -75 -37q-24 0 -42 15q-9 -11 -14 -11q-23 0 -22 20q168 283 375 327q20 4 39 4q56 0 97 -30q46 -34 46 -90q0 -113 -151 -203l-108 -66q83 -25 83 -121q0 -25 -8 -50q113 91 282 264q25 2 25 -19q0 -47 -146 -167zM-278 -541q0 -58 49 -58q137 0 386 493
q-435 -252 -435 -435z" />
    <glyph glyph-name="egrave" unicode="&#xe8;" horiz-adv-x="805"
d="M104 349l-8 -9q-91 -93 -102 -93q-20 0 -20 16q0 28 266 296l170 9l-227 -343q-85 -129 -85 -161q0 -26 23 -26q171 0 491 521l163 9l-260 -397q-52 -80 -52 -107q0 -26 22 -26q44 0 177.5 131t138.5 131q22 0 22 -17q0 -35 -140 -162q-145 -131 -200 -131
q-106 0 -106 144q0 11 2 25q-156 -169 -252 -169q-123 0 -123 134q0 71 100 225z" />
    <glyph glyph-name="eacute" unicode="&#xe9;" horiz-adv-x="800"
d="M803 730q-31 -17 -83 -39q-121 -50 -218 -50q-75 0 -128 32q-63 39 -63 111q0 43 30 75t74 32q69 0 69 -77q0 -13 -11.5 -33.5t-11.5 -25.5q0 -54 87 -54q124 0 273 90q12 7 41 15l11 -8q0 -31 -70 -68zM379 161q-156 -171 -252 -171q-123 0 -123 136q0 71 100 227l-8 -8
q-91 -95 -102 -95q-20 0 -20 16q0 28 266 300l170 9l-227 -347q-85 -130 -85 -163q0 -26 23 -26q171 0 491 527l163 9l-260 -401q-52 -82 -52 -109q0 -26 22 -26q44 0 177.5 132.5t138.5 132.5q22 0 22 -18q0 -35 -140 -163q-145 -133 -200 -133q-106 0 -106 146q0 11 2 25z
" />
    <glyph glyph-name="ecircumflex" unicode="&#xea;" horiz-adv-x="753"
d="M33 12l-148 -16l246 387l-29 -31q-96 -102 -114 -102q-23 0 -22 21l173 212q60 74 121 148q67 86 108 155l265 447l156 21zM735 219q-208 -229 -298 -229q-59 0 -99 47q-38 44 -38 100q0 25 11 62t11 59q0 15 -3 30q-25 -10 -52 -10q-53 0 -53 42q0 47 52 47q27 0 51 -12
q94 19 137 89q99 159 193 159q38 0 74.5 -30.5t36.5 -67.5q0 -75 -76 -75q-26 0 -55.5 47t-36.5 47q-23 -3 -45 -36q-44 -69 -127 -143q-12 -10 -36 -19q66 -37 66 -97q0 -21 -7 -57q-17 -89 -12 -115q4 -18 20 -18q49 0 225 185q25 31 82 82q25 1 25 -20q0 -16 -46 -67z
" />
    <glyph glyph-name="edieresis" unicode="&#xeb;" horiz-adv-x="712"
d="M298 134q1 10 1 30q-159 -174 -252 -174q-123 0 -123 134q0 109 90 218h26q91 0 91 -52q0 -23 -56.5 -116.5t-56.5 -109.5q0 -26 23 -26q96 0 268 210q112 136 219 311l163 9l-260 -397q-52 -80 -52 -107q0 -26 22 -26q44 0 177.5 131t138.5 131q22 0 22 -17
q0 -34 -140 -162q-144 -131 -200 -131q-102 0 -102 144h1z" />
    <glyph glyph-name="igrave" unicode="&#xec;" horiz-adv-x="1088"
d="M1086 238q-27 -28 -63 -65q-167 -176 -249 -176q-90 0 -90 103q0 57 33 129q-204 -232 -297 -232q-92 0 -92 93q0 65 34 137q-217 -237 -323 -237q-55 0 -87 44q-28 37 -28 90q0 109 90 218q16 1 26 1q91 0 91 -53q0 -25 -56.5 -118.5t-56.5 -107.5q0 -25 23 -25
q118 0 540 526l168 16l-278 -403q-62 -90 -62 -115q0 -15 19 -15q76 0 509 517l170 16l-280 -403q-63 -91 -63 -114q0 -16 18 -16q50 0 190 141.5t146 141.5q20 0 20 -17q0 -19 -52 -76z" />
    <glyph glyph-name="iacute" unicode="&#xed;" horiz-adv-x="907"
d="M892 218q-18 -19 -52 -53q-176 -175 -257 -175q-121 0 -121 134q0 46 44 128h-172q-69 -106 -156 -240l-169 -16l291 421q50 73 50 95q0 15 -18 15q-52 0 -191 -141t-145 -141q-20 0 -20 18q0 19 50 72q107 114 144 147q107 96 170 96q90 0 90 -102q0 -75 -66 -178h169
q55 84 163 261l172 12l-214 -325q-98 -150 -98 -182q0 -28 25 -28q61 0 194 132t140 132q22 0 22 -19q0 -15 -45 -63z" />
    <glyph glyph-name="icircumflex" unicode="&#xee;" horiz-adv-x="677"
d="M22 261q-16 -14 -26 -14q-20 0 -20 18q0 16 87 108q198 209 367 209q151 0 151 -153q0 -109 -95 -233q11 -3 16 -3q44 0 97 41q27 21 71 73q8 9 25 9q18 0 18 -21q0 -11 -27.5 -42t-57.5 -53q-72 -53 -139 -53q-20 0 -42 2q-155 -159 -285 -159q-147 0 -147 216
q0 24 7 55zM438 529q-99 0 -209 -165q-104 -154 -104 -262q0 -62 39 -62q89 0 212 171q118 164 118 262q0 56 -56 56z" />
    <glyph glyph-name="idieresis" unicode="&#xef;" horiz-adv-x="907"
d="M598 -10q-108 0 -108 150q0 79 110.5 220t110.5 154t-13 13q-100 0 -521 -515l-168 -16l278 403q63 92 63 113q0 15 -18 15q-52 0 -191 -141t-145 -141q-20 0 -20 18q0 19 50 72q106 113 144 147q107 96 170 96q90 0 90 -102q0 -62 -40 -143q233 245 321 245
q87 0 87 -105q0 -74 -110.5 -225t-110.5 -184q0 -26 23 -26q46 0 311 262q27 2 27 -19q0 -33 -144 -160q-147 -131 -196 -131z" />
    <glyph glyph-name="eth" unicode="&#xf0;" horiz-adv-x="768"
d="M768 289l2 13q25 1 25 -20q0 -35 -142 -165q-145 -133 -196 -133q-108 0 -108 153q0 81 110.5 226t110.5 157q0 15 -13 15q-83 0 -290 -253q-161 -197 -252 -350l-273 -458l-158 -17l558 932q-133 -144 -152 -144q-22 0 -22 18q0 -1 302 366q71 86 113 152l289 451
l159 22l-572 -908q230 239 311 239q87 0 87 -107q0 -78 -110.5 -229t-110.5 -189q0 -26 23 -26q51 0 270 225q12 12 32 35q5 -1 7 -5z" />
    <glyph glyph-name="ntilde" unicode="&#xf1;" horiz-adv-x="575"
d="M557 213q-211 -223 -356 -223q-90 0 -140 73q-42 62 -42 150q0 22 4 48q-16 -14 -27 -14q-22 0 -22 18q0 17 85 104q202 209 377 209q136 0 143 -113q4 -70 -44 -122q-36 -39 -85 -53q-9 -2 -19 -2q-59 0 -59 47q0 9 4 19q24 61 127 76q22 26 22 48q0 53 -72 53
q-108 0 -215 -153q-99 -142 -99 -257q0 -85 74 -85q96 0 307 204q52 50 58 60q28 2 28 -19q0 -15 -49 -68z" />
    <glyph glyph-name="ograve" unicode="&#xf2;" horiz-adv-x="1251"
d="M938 -10q-108 0 -108 150q0 79 110.5 220t110.5 154q0 15 -13 15q-91 0 -505 -517l-168 -16l278 403q62 90 62 115q0 15 -19 15q-76 0 -509 -517l-170 -16l288 415q55 80 55 101q0 17 -18 17q-50 0 -190 -142t-146 -142q-20 0 -20 18q0 20 115 141q167 176 249 176
q90 0 90 -103q0 -57 -33 -130q204 233 297 233q92 0 92 -93q0 -67 -37 -142q223 235 302 235q87 0 87 -107q0 -74 -110.5 -224t-110.5 -185q0 -26 23 -26q46 0 311 262q27 2 27 -19q0 -32 -143 -160q-147 -131 -197 -131z" />
    <glyph glyph-name="oacute" unicode="&#xf3;" horiz-adv-x="734"
d="M100 340l-3 -4q-91 -95 -102 -95q-20 0 -20 16q0 29 266 302l170 9l-120 -184q-4 -7 -15 -21q-178 -249 -178 -289q0 -30 22 -30q84 0 259 210q130 157 221 307l149 9q-180 -288 -317 -544q106 73 300 269q25 2 25 -19q0 -16 -33 -57q-118 -144 -341 -277
q-314 -589 -539 -589q-115 0 -115 110q0 126 214 291q108 83 335 214l125 235q-197 -208 -299 -208q-49 0 -75 46q-21 36 -21 83q0 81 92 216zM-192 -541q0 -58 49 -58q135 0 386 492q-435 -252 -435 -434z" />
    <glyph glyph-name="ocircumflex" unicode="&#xf4;" horiz-adv-x="1059"
d="M563 508l422 730l132 7l-386 -680q38 20 72 20q149 0 149 -152q0 -120 -67 -240q3 -1 7 -1q27 0 67 27q50 33 92 83q13 15 25 15q18 0 18 -22q0 -11 -27 -43q-40 -45 -106 -83q-45 -25 -101 -25q-7 0 -22 2q-154 -162 -305 -162q-74 0 -87 75l-358 -632l-151 -10l366 635
q-77 -66 -160 -66q-128 0 -128 216q0 27 6 57q-15 -12 -25 -12q-22 0 -22 16q0 20 89 110q210 214 386 214q99 0 114 -79zM809 535q-76 0 -120 -60q-54 -73 -117 -190q-78 -145 -78 -202q0 -47 55 -47q93 0 206 176q106 165 106 267q0 56 -52 56zM457 535q-109 0 -226 -167
q-110 -157 -110 -275q0 -53 39 -53q70 0 187 127q51 56 114 172q59 109 59 136q0 60 -63 60z" />
    <glyph glyph-name="otilde" unicode="&#xf5;" horiz-adv-x="673"
d="M699 438q-30 0 -59 37t-27 37q-64 0 -191 -196q-88 -138 -88 -248q0 -30 25 -30q51 0 311 262q27 1 27 -19q0 -33 -140 -160q-145 -131 -202 -131q-61 0 -97 53q-32 48 -30 109q-152 -162 -252 -162q-104 0 -104 80q0 74 71 74q38 0 77 -83q1 -4 3 -8q37 0 111 68
q194 177 194 380q0 28 -20 28q-21 0 -66 -41q-30 -31 -96 -97q-21 -21 -95 -98q-46 -48 -55 -48q-20 0 -20 18q0 20 115 141q98 104 102 108q75 68 125 68q114 0 114 -143q0 -14 -1 -29q134 172 235 172q98 0 98 -81q0 -61 -65 -61z" />
    <glyph glyph-name="odieresis" unicode="&#xf6;" horiz-adv-x="795"
d="M379 154q-156 -170 -252 -170q-123 0 -123 136q0 71 100 227l-8 -9q-91 -94 -102 -94q-20 0 -20 15q0 29 266 300l170 9l-227 -346q-85 -131 -85 -163q0 -26 23 -26q171 0 491 526l163 9l-260 -401q-52 -81 -52 -108q0 -26 22 -26q44 0 177.5 132t138.5 132q22 0 22 -17
q0 -35 -140 -164q-145 -132 -200 -132q-106 0 -106 145q0 12 2 25zM342 -255q-42 0 -128 30q-65 25 -130 49q-41 15 -56 16q-46 2 -93 -33t-66 -81l-46 23q128 182 259 182q52 0 132 -27q64 -23 129 -47q39 -13 56 -13q115 0 204 248l70 61q-68 -184 -121 -266
q-92 -142 -210 -142z" />
    <glyph glyph-name="divide" unicode="&#xf7;" horiz-adv-x="538"
d="M218 -10q-108 0 -108 151q0 80 110.5 222t110.5 155t-8 13q18 0 -84 -22q-226 -260 -245 -260q-21 0 -20 19q72 102 203 251q-29 11 -29 51q0 51 38 113q43 70 95 70q61 0 61 -68q0 -36 -49 -107q33 4 38 4q87 0 87 -106q0 -74 -110.5 -226t-110.5 -185q0 -26 23 -26
q46 0 311 264q27 1 27 -20q0 -32 -144 -161q-146 -132 -196 -132z" />
    <glyph glyph-name="oslash" unicode="&#xf8;" horiz-adv-x="1128"
d="M92 340q-90 -93 -101 -93q-20 0 -20 16q0 28 266 296l170 9l-120 -181q-46 -60 -140 -184q-85 -114 -85 -140q0 -10 15 -10q92 0 502 512l169 16l-278 -403q-62 -90 -62 -115q0 -13 20 -15q59 -7 262 223q123 147 245 294l171 16l-288 -415q-55 -80 -55 -101
q0 -16 18 -17q62 -3 134 52q33 25 108 102q30 32 84 88q40 41 50 41q20 0 20 -17q0 -20 -115 -141q-164 -173 -289 -176q-90 -2 -90 103q0 57 33 130q-205 -233 -297 -233t-92 93q0 67 36 142q-223 -235 -301 -235t-78 124q0 74 108 219z" />
    <glyph glyph-name="ugrave" unicode="&#xf9;" horiz-adv-x="1116"
d="M93 338q-91 -94 -102 -94q-20 0 -20 15q0 29 266 300l170 9l-120 -183q-11 -17 -139 -187q-86 -115 -86 -141q0 -15 13 -15q90 0 504 523l169 16l-278 -407q-62 -92 -62 -117q0 -13 19 -15q64 -4 264 225l244 298l171 16l-288 -420q-55 -81 -55 -102q0 -17 18 -17
q76 0 238 156q34 32 81 87q38 44 47 44q20 0 20 -18q0 -20 -115 -142q-36 -38 -64 -65q-40 -153 -62 -198q-48 -101 -146 -147q-80 -39 -160 -39q-81 0 -231.5 54t-229.5 54q-124 0 -197 -119l-47 18q180 193 313 193q89 0 249 -48q180 -54 211 -54q129 0 193 97
q13 20 41 133q-86 -57 -149 -57q-90 0 -90 104q0 58 33 131q-205 -235 -297 -235t-92 93q0 69 36 144q-223 -237 -301 -237t-78 125q0 73 109 222z" />
    <glyph glyph-name="uacute" unicode="&#xfa;" horiz-adv-x="687"
d="M408 299l-6 -6q0 90 83 90q68 0 68 -63q0 -38 -23 -82q21 -12 42 -12q30 0 109 77q29 1 29 -20q0 -14 -26 -45q-48 -57 -122 -57q-31 0 -58 16q-50 -67 -127 -130q-95 -77 -156 -77q-123 0 -123 135q0 45 109 215.5t109 177.5q0 13 -8 13q-4 0 -83 -21
q-214 -261 -236 -261q-20 0 -20 16q0 15 67 91q40 56 126 163q-30 13 -30 64q0 52 26 108q34 70 86 70q71 0 71 -88q0 -36 -36 -97q25 7 37 7q84 0 84 -94q0 -55 -69 -175l-108 -176q-31 -55 -31 -73q0 -26 23 -26q58 0 116 50t68 106q4 23 4 75v24q3 0 4 -1q0 3 1 6z" />
    <glyph glyph-name="ucircumflex" unicode="&#xfb;" horiz-adv-x="891"
d="M309 291q0 89 83 89q46 0 61 -27q155 45 254 206l163 9l-260 -397q-52 -80 -52 -107q0 -26 22 -26q44 0 178 131t138 131q22 0 22 -17q0 -34 -140 -162q-145 -131 -200 -131q-106 0 -106 144q0 46 9 62l98 162q-56 -42 -121 -62q-21 -121 -207 -254q-73 -52 -123 -52
q-123 0 -123 134q0 71 100 225l-16 -17q-83 -85 -94 -85q-20 0 -20 16q0 28 266 296l170 9l-227 -343q-85 -129 -85 -161q0 -26 23 -26q58 0 116 49.5t68 106.5q4 22 4 73q0 24 -1 24z" />
    <glyph glyph-name="udieresis" unicode="&#xfc;" horiz-adv-x="589"
d="M308 291q0 89 83 89q68 0 68 -62q0 -38 -23 -82q21 -12 42 -12q33 0 61 29q40 42 49 47q28 1 28 -19q0 -14 -26 -45q-48 -57 -122 -57q-31 0 -58 16q-50 -67 -127 -129q-95 -76 -156 -76q-123 0 -123 134q0 71 101 227q-100 -104 -111 -104q-20 0 -20 16q0 28 266 296
l170 9l-227 -343q-85 -129 -85 -161q0 -26 23 -26q58 0 116 49.5t68 106.5q4 22 4 73q0 24 -1 24z" />
    <glyph glyph-name="yacute" unicode="&#xfd;" horiz-adv-x="621"
d="M645 266q-89 -76 -151 -76q-15 0 -29 5q-109 -101 -167 -139q-103 -66 -206 -66q-143 0 -143 113q0 38 21 67q24 34 64 34q72 0 72 -61q0 -23 -35 -53l-12 -10q-17 -14 -17 -18q0 -25 33 -25q70 0 156 87q71 72 115 157l-189 3l18 49l193 -2q21 59 21 116q0 81 -60 81
q-38 0 -102 -56q-43 -42 -87 -85q-43 -46 -122 -119q-11 -1 -19 4t-7 15q1 27 161 178q118 113 208 113q148 0 148 -223q0 -63 -21 -116q52 -4 133 68q7 4 22 14q25 1 25 -18q0 -17 -23 -37z" />
    <glyph glyph-name="thorn" unicode="&#xfe;" horiz-adv-x="1000"
d="M135 384q-131 -137 -144 -137q-20 0 -20 16q0 28 266 297l156 7l-138 -218q-10 -17 -31 -51h133q54 112 156 193q114 91 232 91q151 0 151 -153q0 -98 -104 -233q10 -3 15 -3q79 0 138 61.5t75 61.5q18 0 18 -21q0 -11 -27 -42q-94 -106 -217 -106q-20 0 -42 2
q-153 -159 -275 -159q-147 0 -147 203q0 30 9 60l-144 -1q-70 -106 -157 -240l-150 -9zM753 529q-99 0 -209 -165q-104 -154 -104 -262q0 -61 53 -61q102 0 210 151q103 141 103 247q0 47 -6 62q-10 28 -47 28z" />
    <glyph glyph-name="ydieresis" unicode="&#xff;" horiz-adv-x="796"
d="M488 -10q-108 0 -108 151q0 69 52 136q48 63 48 76q0 5 -1 9l-6 -1q-23 -32 -155 -175q-179 -196 -271 -196q-123 0 -123 135q0 109 90 218q16 1 26 1q91 0 91 -53q0 -22 -56.5 -116t-56.5 -110q0 -26 23 -26q44 0 171 116q104 97 179 188q-27 -7 -53 -7q-66 0 -111 40
q-48 42 -48 106q0 99 117 152q90 41 158 41q44 0 84 -19q49 -23 49 -61q0 -62 -85 -190q66 -15 66 -79q0 -44 -32 -109q-27 -52 -54 -103q-15 -32 -15 -49q0 -26 23 -26q46 0 311 263q27 1 27 -20q0 -32 -144 -161q-147 -131 -196 -131zM477 605q-60 0 -110 -57.5
t-50 -118.5q0 -40 52 -40q5 0 29 11q29 12 34 13q72 125 72 171q0 21 -27 21z" />
    <glyph glyph-name="Cacute" unicode="&#x106;" horiz-adv-x="1821"
d="M1804 1039q55 -50 55 -73q0 -18 -18 -18t-83 64q-402 -244 -951 -245q-101 -164 -101 -334q0 -61 14 -127q294 76 535 76q185 0 323 -57q189 -79 189 -240q0 -139 -149 -215q-118 -60 -268 -60q-225 0 -416 108.5t-309 299.5q-6 -2 -95 -40q-72 -31 -198 -85
q-27 -1 -27 19q0 51 290 156q-42 105 -42 213q0 157 83 311q-376 65 -376 348q0 192 193 301q160 91 366 91q264 0 573 -173q278 92 445 92q201 0 201 -124q0 -113 -234 -288zM1804 1401q-126 0 -339 -87q133 -88 288 -223q183 146 183 238q0 72 -132 72zM1401 1280
q-360 -205 -527 -432q115 -15 162 -15q332 0 672 223q-193 165 -307 224zM760 1449q-158 0 -268 -48q-146 -63 -146 -193q0 -123 117 -216q96 -76 237 -111q160 250 601 443q-272 125 -541 125zM1178 309q-213 0 -445 -57q55 -182 209 -278q144 -90 346 -90q138 0 265 56
q157 69 157 181q0 106 -221 155q-145 33 -311 33zM1930 1650q-121 -67 -154 -67q-25 0 -27 28q63 46 170 148q13 16 38 75q41 97 95 97q71 0 71 -67q0 -106 -193 -214z" />
    <glyph glyph-name="cacute" unicode="&#x107;" horiz-adv-x="575"
d="M557 213q-211 -223 -356 -223q-90 0 -140 73q-42 62 -42 150q0 22 4 48q-16 -14 -27 -14q-22 0 -22 18q0 17 85 104q202 209 377 209q143 0 143 -113q0 -38 -21 -67q-24 -34 -64 -34q-72 0 -72 61q0 23 35 53l12 10q17 14 17 18q0 25 -33 25q-108 0 -215 -153
q-99 -142 -99 -257q0 -85 74 -85q96 0 307 204q52 50 58 60q28 2 28 -19q0 -15 -49 -68zM521 673q-121 -67 -154 -67q-25 0 -27 28q63 46 170 148q13 16 38 75q41 97 95 97q71 0 71 -67q0 -106 -193 -214z" />
    <glyph glyph-name="Ccaron" unicode="&#x10c;" horiz-adv-x="1821"
d="M1804 1039q55 -50 55 -73q0 -18 -18 -18t-83 64q-402 -244 -951 -245q-101 -164 -101 -334q0 -61 14 -127q294 76 535 76q185 0 323 -57q189 -79 189 -240q0 -139 -149 -215q-118 -60 -268 -60q-225 0 -416 108.5t-309 299.5q-6 -2 -95 -40q-72 -31 -198 -85
q-27 -1 -27 19q0 51 290 156q-42 105 -42 213q0 157 83 311q-376 65 -376 348q0 192 193 301q160 91 366 91q264 0 573 -173q278 92 445 92q201 0 201 -124q0 -113 -234 -288zM1804 1401q-126 0 -339 -87q133 -88 288 -223q183 146 183 238q0 72 -132 72zM1401 1280
q-360 -205 -527 -432q115 -15 162 -15q332 0 672 223q-193 165 -307 224zM760 1449q-158 0 -268 -48q-146 -63 -146 -193q0 -123 117 -216q96 -76 237 -111q160 250 601 443q-272 125 -541 125zM1178 309q-213 0 -445 -57q55 -182 209 -278q144 -90 346 -90q138 0 265 56
q157 69 157 181q0 106 -221 155q-145 33 -311 33zM2221 1833q-16 -12 -50 -32q-58 -35 -194 -124q-44 -30 -136 -86q-27 2 -36 29l-70 228q-4 14 -4 28q0 31 24 31q34 0 121 -166l228 115q94 47 124 47q37 0 37 -25q0 -15 -44 -45z" />
    <glyph glyph-name="ccaron" unicode="&#x10d;" horiz-adv-x="575"
d="M557 213q-211 -223 -356 -223q-90 0 -140 73q-42 62 -42 150q0 22 4 48q-16 -14 -27 -14q-22 0 -22 18q0 17 85 104q202 209 377 209q143 0 143 -113q0 -38 -21 -67q-24 -34 -64 -34q-72 0 -72 61q0 23 35 53l12 10q17 14 17 18q0 25 -33 25q-108 0 -215 -153
q-99 -142 -99 -257q0 -85 74 -85q96 0 307 204q52 50 58 60q28 2 28 -19q0 -15 -49 -68zM812 856q-16 -12 -50 -32q-58 -35 -194 -124q-44 -30 -136 -86q-27 2 -36 29l-70 228q-4 14 -4 28q0 31 24 31q34 0 121 -166l228 115q94 47 124 47q37 0 37 -25q0 -15 -44 -45z" />
    <glyph glyph-name="dcroat" unicode="&#x111;" horiz-adv-x="807"
d="M567 493l198 351h-260l30 53h262l201 348l157 7l-208 -355h212l-34 -53h-208l-330 -563q-100 -170 -100 -215q0 -20 23 -20q35 0 166 130t137 130q22 0 22 -18q0 -23 -97 -120q-178 -178 -263 -178q-94 0 -94 110q0 18 3 42q-130 -152 -241 -152q-128 0 -128 216
q0 27 5 56q-14 -12 -24 -12q-22 0 -22 18q0 22 99 120q203 200 376 200q113 0 118 -95zM457 538q-109 0 -226 -166q-110 -156 -110 -274q0 -52 39 -52q68 0 183 124q171 185 171 315q0 53 -57 53z" />
    <glyph glyph-name="Gbreve" unicode="&#x11e;" horiz-adv-x="1669"
d="M1511 829q-294 0 -441 199q-95 -158 -95 -319q0 -126 72 -202t198 -76q78 0 153 34q70 131 153 225q120 136 223 136q69 0 69 -83q0 -78 -97 -162q-71 -61 -166 -107q-388 -730 -962 -730q-241 0 -387 124q-155 132 -155 368q0 196 111 361q126 186 317 186
q143 0 143 -112q0 -41 -26 -70t-68 -29q-37 0 -95.5 54.5t-64.5 54.5q-101 0 -161 -120q-50 -98 -50 -215q0 -229 144 -381q147 -157 376 -157q412 0 657 586q-101 -29 -173 -29q-169 0 -270 103.5t-101 270.5q0 212 178 414q-32 101 -32 168q0 167 113.5 283t281.5 116
q124 0 208 -66q89 -71 93 -191q352 -4 352 -251q0 -176 -167 -287q-147 -96 -331 -96zM1372 1660q-128 0 -206 -90q-73 -86 -73 -216q0 -39 12 -97q237 175 498 203q-4 92 -68.5 146t-162.5 54zM1692 1398q2 0 -31 -1q-40 -212 -88 -212q-24 0 -24 20t23 90q30 93 31 96
q-282 -32 -466 -260q45 -112 166 -174q108 -56 241 -56q148 0 273 79q141 88 141 223q0 100 -84 151q-71 44 -182 44zM1772 766q-45 0 -152 -213q168 102 168 184q0 29 -16 29zM1876 1823q-155 -195 -332 -195q-93 0 -160 72q-63 68 -63 155q0 42 33 42q18 0 34 -27
q39 -64 66 -85q38 -29 107 -29q70 0 163 48q30 15 147 88q29 2 29 -26q0 -13 -24 -43z" />
    <glyph glyph-name="gbreve" unicode="&#x11f;" horiz-adv-x="756"
d="M411 -58q-315 -589 -540 -589q-114 0 -114 110q0 191 548 505l75 159q-140 -147 -237 -147q-128 0 -128 215q0 27 5 56q-14 -11 -24 -11q-22 0 -22 17q0 22 99 120q202 201 376 201q118 0 118 -103l61 86l149 9q-181 -289 -318 -545q113 79 300 270q25 2 25 -19
q0 -49 -159 -178q-121 -98 -214 -156zM457 528q-109 0 -226 -166q-110 -157 -110 -274q0 -52 39 -52q68 0 183 124q171 185 171 315q0 53 -57 53zM-168 -541q0 -58 49 -58q137 0 386 493q-435 -252 -435 -435zM846 846q-155 -195 -332 -195q-93 0 -160 72q-63 68 -63 155
q0 42 33 42q18 0 34 -27q39 -64 66 -85q38 -29 107 -29q70 0 163 48q30 15 147 88q29 2 29 -26q0 -13 -24 -43z" />
    <glyph glyph-name="Idotaccent" unicode="&#x130;" horiz-adv-x="1612"
d="M1542 601q115 -120 115 -129q0 -23 -23 -23q-37 0 -127 104q-134 -176 -285 -302q25 -65 25 -133q0 -160 -102 -276q-107 -121 -268 -121q-41 0 -41 27q0 14 99 40q224 58 224 320q0 41 -9 91q-312 -212 -562 -212q-209 0 -342 119q-139 123 -139 328q0 204 143 339
q141 132 348 132q135 0 230 -72q104 -79 104 -210q0 -83 -50 -163q221 -5 315 -160q135 121 235 341q-182 231 -182 498q0 119 42 208q56 117 168 117q124 0 195 -129q57 -105 57 -235q0 -203 -170 -499zM1448 1419q-113 0 -113 -242q0 -245 125 -469q103 259 103 502
q0 209 -115 209zM842 410q-109 -114 -176 -114q-62 0 -62 49q0 80 217 113q15 44 15 88q0 123 -92 210t-218 87q-138 0 -222.5 -94.5t-84.5 -233.5q0 -195 135 -318q131 -120 330 -120q226 0 447 172q-70 160 -289 161zM1552 1667q-80 0 -80 70q0 40 27.5 69t73.5 29
q77 0 77 -71q0 -97 -98 -97z" />
    <glyph glyph-name="dotlessi" unicode="&#x131;" horiz-adv-x="451"
d="M436 218q-212 -228 -309 -228q-121 0 -121 134q0 68 108 234l-23 -25q-84 -86 -97 -86q-18 0 -18 16q0 32 265 296l171 11l-214 -324q-98 -150 -98 -182q0 -28 25 -28q62 0 194.5 132t139.5 132q22 0 22 -19q0 -15 -45 -63z" />
    <glyph glyph-name="Lslash" unicode="&#x141;" horiz-adv-x="1839"
d="M1459 608q-33 0 -33 21q11 12 34 19q14 4 119 31q157 40 257 171t100 293q0 239 -197 239q-322 0 -628 -628l346 158l12 -57l-405 -184q-137 -235 -230 -347q-157 -187 -334 -244q300 -90 381 -111q228 -57 389 -57q172 0 285 69q135 81 135 237q0 19 -5 57.5t-5 57.5
q0 26 22 26q39 0 39 -124q0 -207 -161 -338q-150 -122 -363 -122q-187 0 -816 272q-141 -50 -268 -50q-155 0 -155 93q0 72 98 72q71 0 228 -35l95 -21q36 0 89 19q231 80 444 484l-378 -177l-15 58l434 200q352 744 788 744q135 0 220 -72q89 -77 89 -210q0 -157 -110 -295
q-102 -128 -254.5 -188.5t-246.5 -60.5z" />
    <glyph glyph-name="lslash" unicode="&#x142;" horiz-adv-x="451"
d="M501 733l243 91l-51 -78l-242 -93l-274 -423q-85 -133 -85 -164q0 -29 27 -29q63 0 336 269q26 1 26 -20q0 -20 -97 -118q-177 -178 -257 -178q-121 0 -121 137q0 69 108 237l-23 -24q-84 -88 -97 -88q-18 0 -18 16q0 21 261 311l-235 -89l50 76l242 93l380 574l159 21z
" />
    <glyph glyph-name="OE" unicode="&#x152;" horiz-adv-x="1831"
d="M940 305q-288 -315 -555 -315q-159 0 -245 120q-76 105 -76 266q0 378 392 754q351 336 681 336q122 0 194 -56q80 -62 80 -182q0 -83 -35 -83q-20 0 -20 31q0 9 3 27t3 27q0 189 -215 189q-221 0 -451 -203q-209 -183 -350 -457.5t-141 -490.5q0 -97 47 -158
q51 -66 145 -66q128 0 282 96q273 171 448 523q104 209 104 369q0 83 -31 138q-37 66 -110 66q-131 0 -291 -179q-136 -153 -196 -307q-23 -69 -77 -214q-24 5 -24 41q0 215 169 457q184 264 394 264q215 0 215 -262q0 -150 -78 -324q119 83 315 133q-83 66 -83 159
q0 192 202 339q179 130 342 130q104 0 165.5 -56t61.5 -158q0 -125 -89 -220q-92 -96 -218 -96q-62 0 -102.5 38t-40.5 99q0 75 69 156q73 85 148 85q23 0 23 -16q0 -9 -31 -33q-144 -113 -144 -208q0 -76 81 -76q99 0 177.5 85t78.5 184q0 166 -166 166q-153 0 -300 -164
q-143 -159 -143 -314q0 -58 20 -71q15 -10 77 -10q124 0 124 -48q0 -39 -73 -39q-21 0 -60.5 12.5t-60.5 12.5q-110 0 -230 -87q-239 -172 -239 -435q0 -106 59.5 -171t165.5 -65q162 0 319 152q148 144 148 282q0 55 -30 91.5t-82 36.5q-82 0 -175 -97q-76 -78 -122 -174
q-19 -71 -77 -207q-26 4 -26 47q0 171 96 320q111 171 277 171q87 0 139.5 -49t52.5 -135q0 -140 -142 -295q-179 -197 -411 -197q-154 0 -252 79q-106 87 -106 236z" />
    <glyph glyph-name="oe" unicode="&#x153;" horiz-adv-x="983"
d="M966 214q-211 -224 -352 -224q-133 0 -174 168q-151 -168 -280 -168q-145 0 -145 214q0 28 4 56q-13 -13 -23 -13q-22 0 -22 16q0 11 65 85q207 234 385 234q127 0 148 -122q146 122 280 122q50 0 84 -27q37 -30 37 -78q0 -107 -156 -192q-107 -59 -253 -93
q-9 -51 -9 -71q0 -83 72 -83q78 0 195 100q16 14 167 163q27 -4 27 -20q0 -14 -50 -67zM860 535q-76 0 -164 -105q-71 -84 -115 -185q109 29 199 96q107 79 107 164q0 30 -27 30zM432 527q-96 0 -207 -166q-104 -156 -104 -261q0 -62 53 -62q73 0 186 118q138 144 138 281
q0 90 -66 90z" />
    <glyph glyph-name="Scedilla" unicode="&#x15e;" horiz-adv-x="1759"
d="M1982 867q-146 0 -213 121l-77 -76q118 -153 118 -195q0 -23 -27 -21q-22 27 -126 181q-163 -120 -271 -161q-216 -726 -782 -726q-222 0 -359 126q-142 129 -142 347q0 105 45 215q57 142 151 142q35 0 59.5 -25t24.5 -60q0 -93 -104 -93q-14 0 -40 8.5t-40 8.5
q-27 0 -27 -96q0 -209 161 -356q158 -143 372 -143q230 0 370 192q111 153 156 408q-153 -36 -262 -36q-220 0 -373 107q-172 122 -172 333q0 175 118 283q114 105 292 105q260 0 578 -262q211 262 546 262q140 0 233 -68q105 -76 105 -212q0 -135 -88.5 -222t-225.5 -87z
M1894 1406q-259 0 -375 -299q53 -49 140 -153q45 35 96 92q-8 61 -8 71q0 44 22 90q27 58 72 58q53 0 53 -60q0 -24 -93 -176q52 -113 165 -113q91 0 147 67q54 64 54 156q0 119 -76 193t-197 74zM1498 1054l-87 -260q108 43 215 127q-68 85 -128 133zM788 1367
q-135 0 -216 -59q-91 -66 -91 -191q0 -180 203 -292q172 -94 375 -94q72 0 189 18q54 283 132 402q-288 216 -592 216zM841 637q-63 0 -63 67q0 36 24.5 65t61.5 29q62 0 62 -68q0 -35 -23 -63q-26 -30 -62 -30zM616 637q-63 0 -63 67q0 36 24.5 65t61.5 29q62 0 62 -68
q0 -35 -23 -63q-26 -30 -62 -30zM297 265q-16 -15 -27 -15q-20 0 -20 17q0 18 83 105q199 211 381 211q123 0 123 -102q0 -107 -158 -194q-111 -61 -255 -93q-9 -51 -9 -72q0 -83 72 -83q70 0 160 68q53 41 135 128q65 68 76 68q22 0 22 -19q0 -22 -107 -127
q-169 -167 -296 -167q-90 0 -141 73q-43 63 -43 152q0 24 4 50zM723 539q-77 0 -166 -105q-71 -84 -115 -187q110 29 200 97q107 80 107 165q0 30 -26 30z" />
    <glyph glyph-name="scedilla" unicode="&#x15f;" horiz-adv-x="446"
d="M439 226q-213 -236 -363 -236q-149 0 -149 113q0 29 21.5 51t51.5 22q53 0 53 -47q0 -13 -12.5 -39t-12.5 -37q0 -12 21 -12q88 0 148 161q49 130 49 245q0 19 -2 52q-239 -253 -250 -253q-20 0 -20 18q0 27 267 301q39 88 93 88q51 0 51 -48q0 -35 -47 -55.5t-47 -65.5
q0 -40 19 -118t19 -118q0 -38 -10 -76q123 130 136 130q22 0 22 -20q0 -13 -38 -56zM278 637q-63 0 -63 67q0 36 24.5 65t61.5 29q62 0 62 -68q0 -35 -23 -63q-26 -30 -62 -30zM53 637q-63 0 -63 67q0 36 24.5 65t61.5 29q62 0 62 -68q0 -35 -23 -63q-26 -30 -62 -30z
M-266 265q-16 -15 -27 -15q-20 0 -20 17q0 18 83 105q199 211 381 211q123 0 123 -102q0 -107 -158 -194q-111 -61 -255 -93q-9 -51 -9 -72q0 -83 72 -83q70 0 160 68q53 41 135 128q65 68 76 68q22 0 22 -19q0 -22 -107 -127q-169 -167 -296 -167q-90 0 -141 73
q-43 63 -43 152q0 24 4 50zM160 539q-77 0 -166 -105q-71 -84 -115 -187q110 29 200 97q107 80 107 165q0 30 -26 30z" />
    <glyph glyph-name="Scaron" unicode="&#x160;" horiz-adv-x="1759"
d="M1982 867q-146 0 -213 121l-77 -76q118 -153 118 -195q0 -23 -27 -21q-22 27 -126 181q-163 -120 -271 -161q-216 -726 -782 -726q-222 0 -359 126q-142 129 -142 347q0 105 45 215q57 142 151 142q35 0 59.5 -25t24.5 -60q0 -93 -104 -93q-14 0 -40 8.5t-40 8.5
q-27 0 -27 -96q0 -209 161 -356q158 -143 372 -143q230 0 370 192q111 153 156 408q-153 -36 -262 -36q-220 0 -373 107q-172 122 -172 333q0 175 118 283q114 105 292 105q260 0 578 -262q211 262 546 262q140 0 233 -68q105 -76 105 -212q0 -135 -88.5 -222t-225.5 -87z
M1894 1406q-259 0 -375 -299q53 -49 140 -153q45 35 96 92q-8 61 -8 71q0 44 22 90q27 58 72 58q53 0 53 -60q0 -24 -93 -176q52 -113 165 -113q91 0 147 67q54 64 54 156q0 119 -76 193t-197 74zM1498 1054l-87 -260q108 43 215 127q-68 85 -128 133zM788 1367
q-135 0 -216 -59q-91 -66 -91 -191q0 -180 203 -292q172 -94 375 -94q72 0 189 18q54 283 132 402q-288 216 -592 216zM1965 1833q-16 -12 -50 -32q-58 -35 -194 -124q-44 -30 -136 -86q-27 2 -36 29l-70 228q-4 14 -4 28q0 31 24 31q34 0 121 -166l228 115q94 47 124 47
q37 0 37 -25q0 -15 -44 -45z" />
    <glyph glyph-name="scaron" unicode="&#x161;" horiz-adv-x="446"
d="M772 975q-15 -10 -42 -26q-49 -28 -213 -140l-133 -90q-31 0 -40 30l-71 251q-2 9 -2 17q0 30 26 30q36 0 119 -173l230 119q100 51 124 51q37 0 37 -27q0 -17 -35 -42zM439 229q-17 -19 -45 -48q-188 -191 -318 -191q-149 0 -149 114q0 29 21.5 51.5t51.5 22.5
q53 0 53 -48q0 -12 -13.5 -39t-13.5 -37q0 -12 23 -12q90 0 148 164q47 131 47 250q0 30 -1 48q-238 -255 -249 -255q-20 0 -20 16q0 19 120 149q74 79 148 159q3 6 8 17q36 70 84 70q51 0 51 -48q0 -35 -48 -57t-48 -65q0 -41 20 -119.5t20 -119.5q0 -39 -10 -77
q123 131 136 131q22 0 22 -20q0 -14 -38 -56z" />
    <glyph glyph-name="Ydieresis" unicode="&#x178;" horiz-adv-x="1892"
d="M1552 309q-176 -315 -389 -504q-274 -245 -575 -245q-230 0 -359 121q-133 125 -133 351q0 108 32 205q44 135 128 135q78 0 78 -81q0 -52 -42 -87q-21 -16 -88 -47q-59 -28 -59 -76q0 -108 112 -229q171 -185 441 -185q239 0 423 161q138 120 279 369
q-290 -200 -425 -200q-205 0 -205 276q0 147 138 364q27 43 255 354q138 188 138 261q0 148 -146 148q-184 0 -379 -164q-258 -218 -258 -575q0 -153 68 -333q4 -11 4 -17q0 -20 -23 -20q-34 0 -68 177q-30 151 -30 224q0 341 199 579q180 214 422 214q257 0 257 -251
q0 -155 -234 -553q-210 -355 -210 -499q0 -128 92 -128q139 0 463 250q180 362 390 676q327 490 511 490q82 0 82 -93q0 -223 -346 -589q-245 -259 -543 -479zM2365 1421q-139 0 -408 -406q-167 -250 -351 -604q234 181 545 579q241 308 241 394q0 37 -27 37zM2563 2561
q-63 0 -63 68q0 36 24.5 65.5t61.5 29.5q62 0 62 -69q0 -36 -23 -64q-26 -30 -62 -30zM2338 2561q-63 0 -63 68q0 36 24.5 65.5t61.5 29.5q62 0 62 -69q0 -36 -23 -64q-26 -30 -62 -30zM2166 850q-372 0 -599 239q-126 131 -157 304q-18 -9 -170 -111q-104 -71 -184 -71
q-23 0 -23 22q0 59 369 213v15q0 403 543 469l-11 46q-120 -12 -162 -12q-171 0 -291 52q-165 72 -165 224q0 142 129 231q115 79 262 79q210 0 454 -176q144 81 265 81q161 0 161 -120q0 -221 -500 -334q3 -26 13 -61q334 -10 334 -162q0 -112 -148 -112q-112 0 -201 58
q-92 59 -131 161q-421 -47 -421 -331q0 -23 4 -59q203 56 399 56q228 0 413 -74q251 -100 251 -295q0 -172 -138 -259q-115 -73 -296 -73zM2399 2404q-144 0 -228 -103q-77 -94 -83 -242q412 78 412 253q0 92 -101 92zM2116 1889q89 -166 213 -166q52 0 52 47
q0 109 -265 119zM1697 2482q-118 0 -204 -41q-108 -52 -108 -150q0 -123 181 -194q141 -56 297 -56q33 0 72 3q24 179 179 302q-208 136 -417 136zM1852 1478q-140 0 -301 -38q67 -229 254 -376q192 -150 430 -150q108 0 188 44q95 53 95 147q0 183 -248 289
q-197 84 -418 84z" />
    <glyph glyph-name="Zcaron" unicode="&#x17d;" horiz-adv-x="1569"
d="M2308 -252q-15 -17 -44 -44q-233 -218 -513 -218q-193 0 -603 250q-210 127 -327 187q-223 112 -348 116l-5 1h-3q-275 -53 -328 -53q-88 0 -88 60q0 69 154 69q38 0 156 -12q58 -6 57 -6q25 0 74 15q212 68 577 415q52 49 216 222q127 135 325 347q-58 20 -291 143
q-204 107 -293 107q-142 0 -221 -160q-64 -129 -64 -292q0 -18 5 -62q4 -39 3 -61q86 -133 86 -246q0 -71 -55 -71q-47 0 -68 139q-10 63 -14 155q-17 15 -168 61q-118 37 -118 99q0 23 24 23q119 0 263 -115q-2 103 -2 88q0 205 118 383q133 203 332 203q93 0 279 -135
l261 -189q320 297 523 297q114 0 114 -109q0 -146 -188 -225q-143 -61 -309 -61q-113 0 -146 8q-339 -391 -519 -564q-351 -339 -615 -431q115 -17 257 -73q33 -13 245 -107q613 -272 847 -272q243 0 369 138l20 23q30 33 39 33q19 0 19 -18q0 -21 -33 -58zM2195 1425
q-158 0 -447 -282q72 -19 112 -19q138 0 261 60q148 72 148 189q0 52 -74 52zM1869 1833q-16 -12 -50 -32q-58 -35 -194 -124q-44 -30 -136 -86q-27 2 -36 29l-70 228q-4 14 -4 28q0 31 24 31q34 0 121 -166l228 115q94 47 124 47q37 0 37 -25q0 -15 -44 -45z" />
    <glyph glyph-name="zcaron" unicode="&#x17e;" horiz-adv-x="676"
d="M362 -10q-93 0 -93 120q0 15 8 43t8 43l-4 -2q-85 0 -191 -79q-5 -4 -68 -70q-49 -51 -71 -51q-37 0 -37 33q0 32 37 61q31 21 63 42q41 34 123 101q126 102 239 185q-51 -12 -87 -12q-67 0 -112 36q-166 -198 -181 -198q-20 0 -20 17v6q0 10 4 14q59 67 168 205
q-8 23 -8 32q0 72 77 72q65 0 65 -53q0 -12 -8 -31t-8 -27q0 -24 56 -24q86 0 173 59.5l87 59.5q38 0 38 -31q0 -39 -78 -79q-32 -16 -130.5 -87.5t-185.5 -141.5q69 28 104 28q90 0 90 -83q0 -20 -37 -108q-6 -14 -6 -19q0 -13 4 -13q32 0 165 131.5t138 131.5q22 0 22 -20
q0 -33 -142 -160q-147 -131 -202 -131zM849 856q-16 -12 -50 -32q-58 -35 -194 -124q-44 -30 -136 -86q-27 2 -36 29l-70 228q-4 14 -4 28q0 31 24 31q34 0 121 -166l228 115q94 47 124 47q37 0 37 -25q0 -15 -44 -45z" />
    <glyph glyph-name="florin" unicode="&#x192;" horiz-adv-x="664"
d="M1049 1004q-42 0 -56 27q-6 11 -14 60q-5 29 -27 29q-123 0 -276 -205q-76 -101 -198 -320h200v-50h-226q-217 -422 -336 -592q-271 -387 -507 -387q-135 0 -135 97q0 68 69 68q40 0 54 -28q4 -8 14 -58q6 -29 29 -29q206 0 692 929h-178v50h205q143 239 254 363
q190 211 370 211q135 0 135 -97q0 -68 -69 -68z" />
    <glyph glyph-name="circumflex" unicode="&#x2c6;"
d="M864 616q-35 0 -119 166l-230 -114q-102 -50 -124 -50q-36 0 -36 27q0 25 81 68q58 32 341 217q31 0 40 -28q12 -39 41 -131q33 -105 33 -126q0 -29 -27 -29z" />
    <glyph glyph-name="caron" unicode="&#x2c7;"
d="M1023 856q-16 -12 -50 -32q-58 -35 -194 -124q-44 -30 -136 -86q-27 2 -36 29l-70 228q-4 14 -4 28q0 31 24 31q34 0 121 -166l228 115q94 47 124 47q37 0 37 -25q0 -15 -44 -45z" />
    <glyph glyph-name="breve" unicode="&#x2d8;"
d="M979 846q-155 -195 -332 -195q-93 0 -160 72q-63 68 -63 155q0 42 33 42q18 0 34 -27q39 -64 66 -85q38 -29 107 -29q70 0 163 48q30 15 147 88q29 2 29 -26q0 -13 -24 -43z" />
    <glyph glyph-name="dotaccent" unicode="&#x2d9;"
d="M684 690q-80 0 -80 70q0 40 27.5 69t73.5 29q77 0 77 -71q0 -97 -98 -97z" />
    <glyph glyph-name="ring" unicode="&#x2da;"
d="M692 608q-78 0 -131 51t-53 125q0 73 53 123.5t131 50.5t131 -50.5t53 -123.5q0 -74 -53 -125t-131 -51zM692 887q-47 0 -77 -29t-30 -74t30 -74.5t77 -29.5q46 0 78.5 30t32.5 74q0 43 -32.5 73t-78.5 30z" />
    <glyph glyph-name="ogonek" unicode="&#x2db;"
d="M324 -383q-125 0 -125 115q0 110 205 274h59q-154 -161 -154 -247q0 -67 58 -67q36 0 75 30.5t41 30.5q27 0 27 -21q0 -45 -74 -83q-63 -32 -112 -32z" />
    <glyph glyph-name="tilde" unicode="&#x2dc;"
d="M791 676q-45 0 -126.5 35t-121.5 35q-46 0 -124 -91q-34 -1 -34 23q0 58 57 116t121 58q45 0 126.5 -35t121.5 -35q41 0 122 90q35 1 35 -22q0 -59 -56 -115q-57 -59 -121 -59z" />
    <glyph glyph-name="hungarumlaut" unicode="&#x2dd;"
d="M866 694q-100 -78 -137 -78q-26 0 -24 28q101 98 145 163q5 8 24 66q32 92 76 92q57 0 57 -68q0 -94 -141 -203zM655 694q-102 -78 -135 -78q-26 0 -24 28q129 131 136 148q12 32 38 97q30 76 67 76q64 0 64 -68q0 -93 -146 -203z" />
    <glyph glyph-name="Delta" unicode="&#x394;" horiz-adv-x="995"
d="M-20 0l505 1497h40l493 -1497h-1038zM485 1233l-377 -1115h740z" />
    <glyph glyph-name="Delta" unicode="&#x2206;" horiz-adv-x="995"
d="M-20 0l505 1497h40l493 -1497h-1038zM485 1233l-377 -1115h740z" />
    <glyph glyph-name="Omega" unicode="&#x3a9;" horiz-adv-x="1565"
d="M1443 0h-517q321 526 321 862q0 242 -107 387q-121 164 -354 164q-232 0 -354 -164q-109 -147 -109 -387q0 -341 322 -862h-517l-104 347h79l78 -229h301v10q-297 391 -297 753q0 276 159 444q164 172 442 172q279 0 442 -172q160 -168 160 -444q0 -358 -299 -753v-10
h301l78 229h79z" />
    <glyph glyph-name="Omega" unicode="&#x2126;" horiz-adv-x="1565"
d="M1443 0h-517q321 526 321 862q0 242 -107 387q-121 164 -354 164q-232 0 -354 -164q-109 -147 -109 -387q0 -341 322 -862h-517l-104 347h79l78 -229h301v10q-297 391 -297 753q0 276 159 444q164 172 442 172q279 0 442 -172q160 -168 160 -444q0 -358 -299 -753v-10
h301l78 229h79z" />
    <glyph glyph-name="pi" unicode="&#x3c0;" horiz-adv-x="1298"
d="M1251 759h-310q-31 -221 -64 -440q-56 -362 -136 -362q-85 0 -85 88q0 25 43 171q23 75 52 173l113 370h-339q-35 -258 -63 -440q-57 -362 -136 -362q-86 0 -86 88q0 25 43 171q23 75 52 173l113 370h-176q-84 0 -128 -86q-19 -40 -46 -157h-85q31 177 94 261
q83 108 245 108h929z" />
    <glyph glyph-name="afii10023" unicode="&#x401;" horiz-adv-x="1688"
d="M1555 1584q-63 0 -63 68q0 36 24.5 65.5t61.5 29.5q62 0 62 -69q0 -36 -23 -64q-26 -30 -62 -30zM1330 1584q-63 0 -63 68q0 36 24.5 65.5t61.5 29.5q62 0 62 -69q0 -36 -23 -64q-26 -30 -62 -30zM1158 -127q-372 0 -599 239q-126 131 -157 304q-18 -9 -170 -111
q-104 -71 -184 -71q-23 0 -23 22q0 59 369 213v15q0 403 543 469l-11 46q-120 -12 -162 -12q-171 0 -291 52q-165 72 -165 224q0 142 129 231q115 79 262 79q210 0 454 -176q144 81 265 81q161 0 161 -120q0 -221 -500 -334q3 -26 13 -61q334 -10 334 -162q0 -112 -148 -112
q-112 0 -201 58q-92 59 -131 161q-421 -47 -421 -331q0 -23 4 -59q203 56 399 56q228 0 413 -74q251 -100 251 -295q0 -172 -138 -259q-115 -73 -296 -73zM1391 1427q-144 0 -228 -103q-77 -94 -83 -242q412 78 412 253q0 92 -101 92zM1108 912q89 -166 213 -166q52 0 52 47
q0 109 -265 119zM689 1505q-118 0 -204 -41q-108 -52 -108 -150q0 -123 181 -194q141 -56 297 -56q33 0 72 3q24 179 179 302q-208 136 -417 136zM844 501q-140 0 -301 -38q67 -229 254 -376q192 -150 430 -150q108 0 188 44q95 53 95 147q0 183 -248 289q-197 84 -418 84z
" />
    <glyph glyph-name="afii10017" unicode="&#x410;" horiz-adv-x="2499"
d="M2360 1015q-101 -171 -216 -363h4q123 0 199 -68q78 -71 78 -192q0 -145 -108 -268q-112 -128 -257 -128q-109 0 -167 73q-52 65 -52 174q0 133 85 322q-82 -36 -135 -86q-88 -246 -169 -246q-55 0 -55 60q0 83 186 232q21 50 21 89q0 41 -20 82q-268 -277 -326 -331
q-192 -178 -367 -266q-217 -109 -457 -109q-238 0 -393 127q-166 136 -166 367q0 238 176 393q169 149 412 149q171 0 314 -98q161 -110 161 -274q0 -95 -80 -95q-77 0 -77 95q0 19 9 56t9 56q0 95 -96 148q-79 44 -189 44q-212 0 -361 -155.5t-149 -366.5q0 -190 130 -295
q121 -99 319 -99q299 0 614 235q184 138 485 464q-57 65 -125 65q-88 0 -152 -108q-20 -33 -32 -33q-20 0 -20 20q0 80 81 136q72 51 154 51q92 0 154 -67l288 293q367 375 463 375q53 0 53 -50q0 -25 -226 -408zM2505 1415q-50 0 -393 -349l-298 -304q23 -51 23 -112
q0 -42 -18 -88q61 42 142 69q24 38 185 266l360 512q2 6 -1 6zM2112 594q-140 -276 -140 -430q0 -118 96 -118q109 0 178 112q60 97 60 216q0 213 -194 220z" />
    <glyph glyph-name="afii10018" unicode="&#x411;" horiz-adv-x="2136"
d="M2119 1284q-55 -14 -143 -21q-199 -131 -489 -614q149 85 296 85q146 0 232 -72q92 -78 92 -220q0 -188 -145 -322q-142 -130 -334 -130q-124 0 -204 64q-88 70 -88 191t94 211q81 79 206 112q21 5 35 5q25 0 25 -27q0 -11 -63 -41l-43 -21q-195 -93 -195 -268
q0 -134 178 -134q104 0 210 93q161 140 161 326q0 182 -188 182q-147 0 -297 -117q-42 -33 -47 -39q-15 -23 -45 -66q-329 -471 -715 -471q-245 0 -385.5 140.5t-140.5 382.5q0 106 29 181q40 106 126 106q80 0 80 -79q0 -51 -29 -75q-20 -16 -73 -28q-45 -10 -61 -23
q-26 -20 -26 -66q0 -174 170 -311q162 -131 373 -131q218 0 408 170q136 122 294 377q231 370 241 383q107 147 217 235q-118 -20 -210 -20q-145 0 -428 56t-428 56q-216 0 -270 -168q135 26 238 26q194 0 344 -84q182 -102 182 -283q0 -157 -122.5 -268.5t-281.5 -111.5
q-202 0 -328 161q-116 147 -116 350q0 67 15 143q-97 -25 -225 -96q-15 -9 -21 -9q-25 0 -25 24q0 26 120 76q91 38 165 59q46 144 175 233q126 87 281 87q100 0 334 -61q421 -109 615 -109q50 0 241 83q38 16 51 16q53 0 53 -44q0 -56 -115 -84zM658 1136q-62 0 -137 -15
q-9 -63 -9 -91q0 -197 139 -333t339 -136q103 0 166 49q69 52 69 150q0 175 -200 284q-168 92 -367 92z" />
    <glyph glyph-name="afii10019" unicode="&#x412;" horiz-adv-x="2030"
d="M1991 1416q-30 -14 -79 -35q144 -93 144 -256q0 -140 -109 -238q-90 -81 -238 -122q277 -81 277 -323q0 -190 -144 -323q-141 -129 -335 -129q-124 0 -204 64q-88 70 -88 191q0 120 94 211q82 78 206 112q22 5 35 5q25 0 25 -27q0 -12 -63 -41l-43 -21
q-195 -92 -195 -268q0 -134 178 -134q104 0 210 93q161 140 161 326q0 210 -192 234q-89 -22 -130 -22q-53 0 -53 49q0 52 76 52q8 0 68 -12q10 -2 15 -2q127 0 205 109q70 97 70 231q0 95 -74 174q-170 -111 -475 -575q-243 -372 -346 -484q-244 -265 -504 -265
q-191 0 -304 113.5t-113 301.5q0 219 138 432q122 187 320 330q448 324 936 324q231 0 402 -76q157 82 192 82q20 0 20 -24q0 -19 -83 -57zM1430 1437q-457 0 -795 -276q-180 -148 -283 -334q-113 -203 -113 -417q0 -154 67 -251q77 -111 224 -111q226 0 470 337
q39 55 209 311q311 472 550 655q-131 86 -329 86z" />
    <glyph glyph-name="afii10020" unicode="&#x413;" horiz-adv-x="1512"
d="M2091 1284q-56 -14 -143 -21q-134 -89 -298 -319q-80 -112 -239 -374q-354 -580 -787 -580q-245 0 -385.5 140.5t-140.5 382.5q0 106 29 181q40 106 126 106q80 0 80 -79q0 -51 -29 -75q-20 -16 -73 -28q-45 -10 -61 -23q-26 -20 -26 -66q0 -174 170 -311
q162 -131 373 -131q218 0 408 170q136 122 294 377q231 370 241 383q107 147 216 235q-117 -20 -209 -20q-145 0 -428 56t-428 56q-216 0 -270 -168q135 26 238 26q194 0 344 -84q182 -102 182 -283q0 -157 -122.5 -268.5t-281.5 -111.5q-202 0 -328 161q-116 147 -116 350
q0 67 15 143q-97 -25 -225 -96q-15 -9 -21 -9q-25 0 -25 24q0 26 121 76q90 38 164 59q46 144 175 233q126 87 281 87q100 0 334 -61q421 -109 615 -109q50 0 241 83q38 16 51 16q53 0 53 -44q0 -56 -115 -84zM630 1136q-62 0 -137 -15q-9 -63 -9 -91q0 -197 139 -333
t339 -136q103 0 166 49q69 52 69 150q0 175 -200 284q-168 92 -367 92z" />
    <glyph glyph-name="afii10021" unicode="&#x414;" horiz-adv-x="1817"
d="M1615 240q-249 -250 -636 -250q-133 0 -489 84q-157 -84 -297 -84q-73 0 -127 25q-72 33 -72 102q0 123 209 123q129 0 377 -50q134 95 229 238q-188 53 -303 187q-121 141 -121 330q0 252 173 404q166 146 423 146q242 0 472 -145q124 101 149 101q28 0 28 -24
q0 -16 -123 -114q322 -261 322 -578q0 -281 -214 -495zM866 1388q-178 0 -281 -91q-108 -96 -108 -269q0 -175 112 -317q108 -136 281 -194q52 83 154 252q112 184 152 245q89 136 171 232q-224 142 -481 142zM1401 1215q-102 -119 -233 -355q-148 -268 -218 -364
q50 -6 88 -6q122 0 222 52q109 57 156 159q11 30 23 60q18 43 38 43q24 0 24 -30q0 -91 -97 -192q-169 -176 -421 -176q-9 0 -98 5q-89 -119 -232 -231q342 -58 492 -58q252 0 423 142q181 151 181 394q0 310 -348 557zM121 156q-64 0 -64 -46q0 -71 146 -71q87 0 199 56
q-191 61 -281 61z" />
    <glyph glyph-name="afii10022" unicode="&#x415;" horiz-adv-x="1658"
d="M1150 -127q-372 0 -599 238q-126 132 -157 304q-18 -8 -170 -111q-104 -70 -184 -70q-23 0 -23 21q0 59 369 214v15q0 402 543 468l-11 46q-120 -12 -162 -12q-171 0 -291 52q-165 72 -165 224q0 141 129 230q115 79 262 79q210 0 454 -176q144 81 265 81q161 0 161 -119
q0 -221 -500 -334q3 -26 13 -61q334 -11 334 -162q0 -112 -148 -112q-112 0 -201 58q-92 59 -131 161q-421 -47 -421 -330q0 -24 4 -60q203 56 399 56q228 0 413 -74q251 -99 251 -294q0 -172 -138 -259q-115 -73 -296 -73zM1383 1426q-144 0 -228 -103q-77 -94 -83 -242
q412 77 412 253q0 92 -101 92zM1100 911q89 -166 213 -166q52 0 52 47q0 109 -265 119zM681 1503q-118 0 -204 -41q-108 -51 -108 -150q0 -122 181 -193q141 -56 297 -56q33 0 72 3q24 179 179 302q-208 135 -417 135zM836 501q-140 0 -301 -38q67 -230 254 -376
q192 -150 430 -150q108 0 188 44q95 53 95 147q0 182 -248 288q-197 85 -418 85z" />
    <glyph glyph-name="afii10024" unicode="&#x416;" horiz-adv-x="2585"
d="M2010 1455q7 11 33 25.5t36 14.5q23 0 41 -19.5t18 -41.5q0 -52 -136 -93q-137 -149 -170 -237q-43 -120 -130 -359l105 3q101 232 400 470t615 238q202 0 202 -191q0 -238 -339 -397q-233 -109 -545 -154q-65 -9 -253 -19q-30 -108 -30 -191q0 -62 19 -163
q20 -108 126 -195q97 -80 220 -80q121 0 215 94q85 84 117 210q10 61 33 181q7 31 18 31q22 0 22 -40q0 -223 -102 -357q-161 -210 -395 -210q-149 0 -257 87t-133 232q-10 61 -10 140q0 125 50 256h-99q-177 -448 -362 -594q-118 -94 -153 -94q-31 0 -31 25q0 14 29 28
q120 58 181 155q23 37 80 169q52 120 127 308h-112q-71 -121 -131 -210q-42 -64 -128 -145q-376 -350 -696 -350q-148 0 -247 71q-113 80 -113 223q0 142 119 244q95 82 248 125q6 329 168 554q186 257 507 257q172 0 277.5 -99t105.5 -268q0 -166 -85 -350l109 3
q49 121 79 194q14 35 45 101q88 156 215 282q-111 -33 -166 -33q-177 0 -177 133q0 95 89 206q35 43 57 43q20 0 20 -22q0 -11 -44 -55.5t-44 -109.5q0 -52 58 -88q52 -32 112 -32q68 0 110 25q21 12 82 72v-3zM2812 1406q-216 0 -464 -159q-232 -149 -357 -343
q-47 -75 -79 -149q287 16 417 46q209 48 379 176q223 168 223 346q0 83 -119 83zM1075 1362q-223 0 -378 -197q-123 -156 -123 -383q0 -54 7 -115q79 16 346 39q36 152 36 236q0 33 -57.5 81t-57.5 112q0 83 80 83q99 0 99 -203q0 -135 -47 -305q175 14 412 24
q42 139 42 229q0 180 -88 285q-94 114 -271 114zM587 612q6 -54 39 -117q38 -70 74 -70q114 0 208 228q-180 -16 -321 -41zM962 658q-36 -105 -106 -192q-89 -111 -181 -111q-142 0 -179 235q-275 -69 -275 -242q0 -124 115 -194q98 -59 235 -59q308 0 587 290
q152 158 213 297q-63 -4 -409 -24z" />
    <glyph glyph-name="afii10025" unicode="&#x417;" horiz-adv-x="1709"
d="M1370 793q126 -27 204.5 -120t78.5 -224q0 -141 -103 -258q-91 -102 -234 -157q-26 -129 -128 -220q-106 -93 -238 -93q-41 0 -41 27q0 5 27.5 14.5t36.5 9.5q75 5 143 62q74 61 101 152q-134 -56 -314 -56q-160 0 -292 44q-152 51 -245 163q-98 119 -98 274
q0 192 156 330q151 134 348 134q146 0 246.5 -105.5t100.5 -259.5q0 -115 -61 -228q21 2 42 2q220 0 220 -186q79 48 133 157q50 103 50 196q0 103 -70 195q-76 98 -176 98q-16 0 -46 -7.5t-46 -7.5q-69 0 -69 44q0 56 60 56q45 0 126 -18q142 45 233 143q101 109 101 246
q0 108 -66.5 176.5t-175.5 68.5q-103 0 -196 -77q-97 -81 -97 -179q0 -56 47 -116t100 -60q35 0 62.5 30t30.5 74q2 35 -40 119q-13 27 -13 52q0 69 54 69q37 0 60 -53q22 -49 22 -105q0 -101 -61 -173q-67 -79 -174 -79q-70 0 -116 68q-39 59 -39 129q0 150 122 251
q115 96 268 96q139 0 241 -70q115 -80 115 -216q0 -147 -125 -264q-106 -99 -265 -148zM1019 230q-110 -114 -177 -114q-62 0 -62 48q0 81 217 113q44 89 44 177q0 148 -109 254q-104 100 -234 100q-137 0 -222.5 -87.5t-85.5 -222.5q0 -214 151.5 -367t365.5 -153
q177 0 321 66q12 189 -166 189q-23 0 -43 -3z" />
    <glyph glyph-name="afii10026" unicode="&#x418;" horiz-adv-x="1841"
d="M1427 390q-27 -124 -27 -190q0 -148 82 -148q94 0 200 90q81 80 162 161q25 1 25 -21q0 -20 -81 -103q-183 -189 -337 -189q-195 0 -200 280q-407 -280 -566 -280q-188 0 -188 197q0 81 32 167q41 110 121 206q277 328 295 350q195 253 195 359q0 78 -57 121
q-52 39 -136 39q-203 0 -380 -177t-177 -377q0 -104 84 -104q85 0 159 79t74 164q0 38 -25 80.5t-25 66.5q0 34 21 61q23 31 58 31q43 0 68 -44q20 -35 20 -76q0 -153 -151 -309t-305 -156q-70 0 -109 46q-37 43 -37 112q0 121 116 286q94 134 194 207q212 156 421 156
q112 0 185 -68t73 -179q0 -162 -105 -337q-58 -96 -227 -300q-155 -187 -211 -296q-55 -105 -55 -174q0 -84 86 -84q138 0 557 298q33 278 318 655q115 152 247 279q193 187 302 187q69 0 69 -89q0 -176 -305 -522q-196 -223 -460 -455zM2119 1415q-84 0 -283 -251
q-263 -331 -382 -676q129 113 236 227q123 132 265 328q184 254 184 343q0 29 -20 29z" />
    <glyph glyph-name="afii10027" unicode="&#x419;" horiz-adv-x="1841"
d="M1709 1427q-91 0 -174 54q-48 31 -138 118q-87 83 -141 115q-180 -64 -313 -64t-133 85q0 91 190 91q173 0 277 -43q37 4 67.5 45.5t30.5 80.5q0 86 -138 86q-9 0 -27 -2t-27 -2q-30 0 -30 21q0 53 139 53q169 0 169 -116q0 -48 -33 -106q-35 -62 -81 -86
q28 -13 210 -142q139 -98 211 -98q101 0 170 95q63 87 63 194q0 20 -5 58.5t-5 57.5q0 26 22 26q39 0 39 -124q0 -162 -87 -274q-95 -123 -256 -123zM1428 392q-27 -125 -27 -191q0 -149 82 -149q94 0 200 91q81 80 162 161q25 1 25 -21q0 -20 -81 -104q-183 -189 -337 -189
q-195 0 -200 281q-408 -281 -566 -281q-188 0 -188 198q0 79 32 167q38 108 121 207q286 341 295 352q195 253 195 360q0 78 -57 121q-52 39 -136 39q-72 0 -156 -31l-73 28q132 50 235 50q112 0 185 -69t73 -179q0 -179 -136 -386q-21 -31 -259 -332q-203 -256 -203 -393
q0 -84 86 -84q137 0 557 298q33 280 318 657q118 157 246 282q193 187 303 187q69 0 69 -89q0 -178 -305 -525q-196 -223 -460 -456zM368 670q-70 0 -109 46q-37 43 -37 113q0 121 117 287q166 236 408 326l73 -29q-180 -67 -303 -215q-127 -153 -127 -320q0 -104 85 -104
q84 0 158 80t74 164q0 38 -25 80.5t-25 67.5q0 34 21 61q23 31 58 31q43 0 68 -44q20 -36 20 -77q0 -153 -151 -310t-305 -157zM1054 1784q-34 0 -82 -12q-62 -16 -62 -40t121 -24q82 0 172 44q-86 32 -149 32zM2120 1420q-84 0 -283 -252q-264 -333 -382 -678
q129 113 236 228q123 132 265 329q184 255 184 344q0 29 -20 29z" />
    <glyph glyph-name="afii10028" unicode="&#x41a;" horiz-adv-x="2391"
d="M2653 1198q-76 0 -76 78q0 16 14.5 46t14.5 39q0 37 -76 37q-86 0 -230 -134q-56 -52 -199 -210q-240 -268 -518 -376q150 -123 150 -292q0 -30 -4 -88.5t-4 -87.5q0 -171 129 -171q154 0 260.5 107t106.5 259q0 73 -32 128q-38 63 -103 63q-78 0 -200 -118q-26 4 -26 21
q0 53 104 112q96 55 152 55q102 0 164 -67q59 -64 59 -165q0 -185 -166 -319q-156 -127 -346 -127q-127 0 -200 83q-68 79 -68 205q0 34 4.5 102t4.5 102q0 119 -50 168q-94 -40 -197 -55q-154 -264 -356 -418q-239 -183 -514 -183q-211 0 -338 117q-131 120 -131 327
q0 80 26 141q36 85 111 85q80 0 80 -76q0 -57 -38 -82q-17 -10 -86 -29q-46 -13 -46 -45q0 -88 142 -213q153 -135 391 -135q224 0 400 152q134 116 263 348q-227 7 -227 120q0 59 65 88q50 22 117 22q85 0 159 -19q94 152 125 198q72 110 139 188q-144 -78 -269 -78
q-177 0 -259 131q-16 30 -53 86q-29 35 -70 35q-130 0 -224.5 -92t-94.5 -220q0 -89 47 -151q51 -69 135 -69q71 0 144 52q44 32 105 97q49 53 59 53q26 0 26 -25q0 -15 -49 -62q-211 -203 -373 -203q-92 0 -142 67q-45 59 -45 151q0 126 77 243q71 110 185 180
q76 47 184 47q86 0 147 -32q24 -13 115 -130q69 -89 147 -89q72 0 187 54q100 47 172 103q48 39 97 78q70 53 105 53q41 0 41 -40q0 -37 -87 -80l-120 -52q-3 -1 -23 -17q-139 -111 -354 -503q44 -18 124 -57q138 59 330 259q271 281 320 322q189 158 361 158q75 0 134 -27
q77 -37 77 -108q0 -45 -30 -80t-76 -35zM1390 724l-42 -77q66 9 132 34q-46 32 -90 43zM1236 754q-119 0 -119 -62q0 -60 117 -60h22l57 113q-43 9 -77 9z" />
    <glyph glyph-name="afii10029" unicode="&#x41b;" horiz-adv-x="2454"
d="M2401 1016q-112 -188 -226 -379q-163 -273 -163 -473q0 -118 96 -118q97 0 261 175q25 31 83 86q26 1 26 -20q0 -18 -141 -163q-125 -128 -237 -128q-109 0 -167 73q-52 65 -52 174q0 163 96 346q95 179 378 553q190 250 190 262q2 11 0 11q-54 0 -393 -349l-601 -620
q-442 -456 -907 -456q-238 0 -393 127q-166 136 -166 367q0 239 176 393q169 149 412 149q171 0 314 -98q161 -110 161 -274q0 -95 -80 -95q-77 0 -77 95q0 19 9 56t9 56q0 95 -96 148q-79 44 -189 44q-212 0 -361 -155.5t-149 -366.5q0 -190 130 -295q121 -99 319 -99
q247 0 488 149q95 58 256 205q151 137 361 352l342 350q86 88 151 150q-102 -50 -209 -50q-142 0 -220 75q-156 149 -257 149q-92 0 -178 -84q-101 -99 -101 -242q0 -214 148 -214q109 0 201 140q21 32 30 32q24 0 24 -22q0 -84 -108 -156q-99 -66 -186 -66
q-109 0 -173.5 66t-64.5 174q0 174 165 310q156 128 335 128q134 0 250 -108q60 -55 95 -74q51 -28 120 -28q96 0 193 53l168 110q50 32 80 32q53 0 53 -50q0 -26 -225 -407z" />
    <glyph glyph-name="afii10030" unicode="&#x41c;" horiz-adv-x="2535"
d="M3141 862q-194 -161 -446 -161q-190 0 -409 127q-203 -253 -203 -552q0 -214 119 -214q78 0 185 91q38 32 154 153q27 2 27 -19q0 -35 -105 -127q-197 -172 -343 -172q-101 0 -153 94q-42 75 -42 178q0 295 301 609q-38 29 -69 58q-284 -273 -499 -643q-22 -38 -31 -62
q-25 -74 -49 -149q-43 -98 -105 -98q-58 0 -58 57q0 91 144 228q13 13 19.5 21.5t36.5 81.5q104 255 123 573q-165 -493 -652 -787q-267 -161 -515 -161q-226 0 -367 122q-148 129 -148 350q0 229 160 385t392 156q151 0 249.5 -90t98.5 -238q0 -107 -78 -220
q-86 -124 -192 -124q-28 0 -28 22q0 11 76 51q100 52 100 196q0 139 -91 226t-233 87q-155 0 -256 -96t-101 -248q0 -218 155 -353q149 -129 374 -129q376 0 674 376q270 340 270 672q0 278 -211 278q-145 0 -243.5 -99.5t-98.5 -243.5q0 -86 32 -144q40 -70 116 -70
q109 0 201 140q21 32 30 32q24 0 24 -22q0 -85 -108 -157q-98 -65 -186 -65q-109 0 -173.5 66t-64.5 174q0 174 165 310q156 128 335 128q183 0 272 -134q74 -112 74 -298q0 -270 -97 -573q194 330 389 557q-148 203 -148 398q0 54 46 52q18 -77 61 -207q49 -149 79 -201
q365 371 741 371q158 0 282 -62q156 -78 156 -224t-158 -277zM2957 1336q-332 0 -765 -371q37 -36 74 -60q255 240 415 240q84 0 84 -77q0 -40 -27.5 -67t-68.5 -27q-25 0 -75 25t-73 25q-90 0 -203 -153q153 -90 299 -90q286 0 492 154q139 104 139 206q0 103 -96 154
q-77 41 -195 41z" />
    <glyph glyph-name="afii10031" unicode="&#x41d;" horiz-adv-x="2601"
d="M2024 819q-147 -284 -147 -502q0 -224 121 -256q-3 53 -3 97q0 193 76 335q96 179 278 179q103 0 164 -72q57 -67 57 -169q0 -184 -159 -310q-144 -115 -335 -128q2 -28 17 -123q4 -26 -25 -26q-31 0 -57 151q-140 16 -218 122q-71 97 -71 241q0 234 119 430
q-60 -8 -124 -8q-77 0 -145 10q-4 -7 -27 -52q-161 -312 -374 -503q-267 -241 -567 -241q-183 0 -305 112q-125 114 -125 294q0 210 176 356q166 138 381 138q225 0 318 -172q36 -66 36 -139q0 -143 -103 -259q-107 -121 -251 -121q-65 0 -104 37q-56 53 -56 104
q0 55 27 102q32 58 88 58q78 0 78 -66q0 -52 -36 -98q-31 -40 -31 -43q0 -33 65 -33q79 0 138 58q57 55 68 134q5 32 5 72q0 50 -41 130q-88 170 -261 170q-151 0 -255.5 -102t-104.5 -251q0 -171 109.5 -276.5t283.5 -105.5q237 0 433 192q135 133 283 402q45 80 68 120
q-97 25 -170 74q-98 65 -98 144q0 85 97 85q47 0 72 -38q2 -3 34 -75q22 -49 124 -93q148 238 284 373q-114 -57 -234 -57q-82 0 -235 51t-234 51q-119 0 -119 -134q0 -112 89 -282q26 -50 26 -60q0 -24 -18 -24q-50 0 -105 159q-49 141 -49 211q0 263 261 263q86 0 198 -40
q95 -38 189 -77q78 -29 104 -29q96 0 209 67l8 10l10 12q84 97 127 97q47 0 47 -46q0 -70 -136 -102q-188 -187 -349 -470q91 -26 174 -26q36 0 96 8q210 291 413 442q247 184 406 184q149 0 149 -143q0 -302 -834 -523zM2676 1427q-147 0 -343 -198q-150 -151 -266 -343
q242 72 424 177q259 149 259 301q0 63 -74 63zM2072 52q161 1 267 102t106 259q0 79 -31 134q-37 67 -106 67q-130 0 -192 -219q-41 -147 -44 -343z" />
    <glyph glyph-name="afii10032" unicode="&#x41e;" horiz-adv-x="1412"
d="M1564 863q-16 -22 -44 -67q-7 -20 -23 -58q-165 -403 -447 -603q23 -2 35 -2q163 0 308 155q13 15 43 42q23 2 23 -17q0 -85 -164 -165q-144 -71 -239 -71q2 0 -88 8q-182 -95 -330 -95q-201 0 -312 133q-103 124 -103 325q0 243 155 489q149 239 383 391
q246 159 492 159q173 0 279.5 -101t106.5 -271q0 -123 -75 -252zM1238 1243q-135 0 -278 -167q-185 -215 -185 -515q0 -132 43 -240q54 -132 157 -169q278 166 400 538q-123 -58 -288 -58q-36 0 -58 2q-57 5 -57 26q0 26 48 27q12 1 30.5 -0.5t19.5 -1.5q237 0 327 87
q30 143 30 216q0 255 -189 255zM1238 1439q-164 0 -328 -100q-144 -88 -258 -232q-256 -324 -256 -693q0 -364 273 -364q89 0 220 60q-115 51 -179 160q-61 104 -61 233q0 357 261 617q171 171 339 171q149 0 225 -115q64 -97 62 -247q30 72 30 140q0 161 -82 261
q-88 109 -246 109z" />
    <glyph glyph-name="afii10033" unicode="&#x41f;" horiz-adv-x="2082"
d="M2212 1239q-22 -25 -61 -75q-322 -412 -412 -805q-24 -103 -24 -159q0 -148 82 -148q115 0 249 136q36 40 113 115q25 1 25 -21q0 -20 -81 -103q-183 -189 -337 -189q-200 0 -200 282q0 67 35 187q115 389 496 773h-69q-173 -114 -445 -558q-420 -684 -874 -684
q-245 0 -385.5 140.5t-140.5 382.5q0 106 29 181q40 106 126 106q80 0 80 -79q0 -51 -29 -75q-20 -16 -73 -28q-45 -10 -61 -23q-26 -20 -26 -66q0 -174 170 -311q162 -131 373 -131q205 0 365 129q63 51 141 187q58 104 175 309q84 147 200 290q45 55 144 139q70 59 113 86
q-33 -3 -71 -3q-195 0 -529 65q-286 55 -444 55q-216 0 -270 -168q135 26 238 26q194 0 344 -84q182 -102 182 -283q0 -157 -122.5 -268.5t-281.5 -111.5q-202 0 -328 161q-116 147 -116 350q0 67 15 143q-97 -25 -225 -96q-15 -9 -21 -9q-25 0 -25 24q0 26 120 76
q91 38 165 59q46 144 175 233q126 87 281 87q93 0 234 -34l232 -60q390 -92 694 -98q187 171 322 171q85 0 85 -59q0 -70 -142 -120q-100 -34 -210 -44zM2444 1413q-70 0 -181 -119q97 15 173 91q18 17 18 26q0 2 -10 2zM715 1136q-62 0 -137 -15q-9 -63 -9 -91
q0 -197 139 -333t339 -136q103 0 166 49q69 52 69 150q0 175 -200 284q-168 92 -367 92z" />
    <glyph glyph-name="afii10034" unicode="&#x420;" horiz-adv-x="1926"
d="M1952 659q-100 0 -175 38q-97 48 -97 142q0 110 92 110q89 0 89 -74q0 -18 -13 -50t-13 -48q0 -69 117 -69q120 0 187 82q63 77 63 200q0 191 -113 304.5t-307 113.5q-281 0 -485 -215q-145 -153 -172 -425q174 -34 302 -108q98 218 206 391q170 274 278 274q24 0 22 -27
q-32 -21 -76 -58q-70 -60 -197 -292q-85 -165 -170 -329q251 -181 251 -374q0 -120 -66 -189q-68 -72 -188 -72q-213 0 -359 197q-239 -197 -497 -197q-244 0 -381 150q-131 144 -131 387q0 101 31 181q43 114 133 114q89 0 89 -105q0 -52 -39 -75q-21 -13 -79 -23
q-52 -9 -68 -24t-16 -62q0 -193 189 -320q170 -114 378 -114q186 0 364 126q-114 194 -114 407q0 47 5 97h-21q-135 0 -224 -58q-102 -67 -102 -191q0 -136 116 -166q29 -6 86 -20q27 -7 27 -18q0 -25 -40 -25q-128 0 -212 57q-97 67 -97 190q0 178 166 244q108 43 313 43
q72 302 299 498q237 204 546 204q199 0 346 -100q168 -114 168 -305q0 -176 -115 -296q-118 -121 -296 -121zM1465 578q-124 -195 -229 -301q59 -85 136 -143q93 -70 176 -70q144 0 144 150q0 202 -227 364zM1121 716q-1 -17 -1 -41q0 -172 89 -353q80 87 196 293
q-164 85 -284 101z" />
    <glyph glyph-name="afii10035" unicode="&#x421;" horiz-adv-x="1449"
d="M1260 667q-114 0 -186 55q-81 61 -81 173q0 79 45 135q-177 5 -259 98q-262 -333 -262 -634q0 -203 97 -321q104 -129 303 -129q241 0 538 296q25 1 25 -18q0 -51 -129 -146q-263 -194 -466 -194q-243 0 -390 126q-155 134 -155 371q0 217 113 407q84 141 273 327
q-13 40 -13 90q0 163 82 282q87 128 243 164q6 1 12 1q27 0 27 -28q0 -13 -56 -30l-37 -12q-186 -60 -186 -321q0 -41 7 -90q107 82 236 138q146 63 260 63q175 0 278.5 -103t103.5 -276q0 -183 -118.5 -303.5t-304.5 -120.5zM1218 1379q-238 0 -382 -183q20 -48 91 -91
q52 -31 150 -31q86 89 140 89q52 0 52 -40q0 -64 -173 -91q-12 -34 -12 -68q0 -96 73.5 -163.5t171.5 -67.5q108 0 175 74t67 183q0 389 -353 389z" />
    <glyph glyph-name="afii10036" unicode="&#x422;" horiz-adv-x="2408"
d="M2488 1239q-375 -451 -473 -880q-24 -104 -24 -159q0 -148 82 -148q98 0 201 91q80 80 161 160q25 1 25 -21q0 -20 -81 -103q-183 -189 -337 -189q-200 0 -200 282q0 68 35 187q116 388 490 765q-47 -5 -172 -11q-66 -45 -293 -464q-77 -141 -179 -301q-78 -124 -88 -139
q-52 -77 -102 -128q-174 -181 -219 -181q-44 0 -44 38q0 18 27 25q104 24 237 259q20 35 154 315q207 432 421 576q-47 0 -96 2q-167 -111 -430 -541q-419 -684 -874 -684q-245 0 -385.5 140.5t-140.5 382.5q0 106 29 181q40 106 126 106q80 0 80 -79q0 -51 -29 -75
q-20 -16 -73 -28q-45 -10 -61 -23q-26 -20 -26 -66q0 -174 170 -311q162 -131 373 -131q205 0 365 129q65 52 141 187l175 309q82 144 200 290q44 54 141 130q74 60 120 84q-73 4 -213 20q-224 32 -671 92q-127 16 -164 16q-216 0 -270 -168q135 26 238 26q194 0 344 -84
q182 -102 182 -283q0 -157 -122.5 -268.5t-281.5 -111.5q-202 0 -328 161q-116 147 -116 350q0 67 15 143q-97 -25 -225 -96q-15 -9 -21 -9q-25 0 -25 24q0 26 120 76q91 38 165 59q46 144 175 233q126 87 281 87q220 0 647 -105t647 -105q109 0 148 30q178 140 297 140
q88 0 88 -57q0 -63 -137 -107q-95 -31 -199 -40zM2709 1395q-76 0 -171 -102q48 5 73 18q120 62 120 81q0 3 -22 3zM715 1136q-62 0 -137 -15q-9 -63 -9 -91q0 -197 139 -333t339 -136q103 0 166 49q69 52 69 150q0 175 -200 284q-168 92 -367 92z" />
    <glyph glyph-name="afii10037" unicode="&#x423;" horiz-adv-x="1662"
d="M1949 1019q-107 -91 -380 -284q-176 -313 -389 -502q-274 -244 -575 -244q-230 0 -359 121q-133 124 -133 350q0 107 32 204q44 134 128 134q78 0 78 -80q0 -57 -44 -89q-2 -2 -91 -47q-54 -28 -54 -74q0 -107 112 -228q171 -184 441 -184q221 0 387 129q109 85 259 366
q-242 -168 -411 -168q-89 0 -128 49q-54 69 -54 162q0 103 79 238q15 26 145 215q79 114 79 166q0 147 -146 147q-79 0 -221 -59q-135 -57 -203 -113q-91 -77 -146 -210q-15 -36 -42 -36q-23 0 -23 21q0 43 59 142q206 340 511 340q257 0 257 -251q0 -94 -64 -240
q-51 -117 -103 -234q-30 -85 -30 -151q0 -128 92 -128q134 0 397 204q40 81 81 163q48 92 93 155q121 169 158 214q97 117 196 181q112 72 192 72q82 0 82 -93q0 -134 -262 -358zM2095 1412q-8 0 -21 -5q-154 -63 -286 -260q-14 -22 -70 -127q-41 -77 -96 -184
q154 111 214 166q98 89 177 213q90 142 90 186q0 11 -8 11z" />
    <glyph glyph-name="afii10038" unicode="&#x424;" horiz-adv-x="2194"
d="M2071 1216q-55 -21 -153 -44l-129 -8q-31 -31 -59 -85q-23 -47 -46 -93q25 -2 75 -9q169 -28 283 -128q127 -113 127 -275q0 -172 -121 -292t-295 -120q-119 0 -191 73.5t-72 190.5q0 99 54 163q49 58 126 101q84 46 155 46q29 0 29 -19q0 -20 -29 -29l-9 -2
q-96 -27 -149 -108.5t-53 -180.5q0 -130 89 -171q29 -13 40 -13q128 0 197 78q65 75 65 204q0 168 -90 280q-93 115 -258 145q-86 -157 -147 -263q-33 -56 -103 -166q-356 -503 -776 -503q-244 0 -381 148q-131 142 -131 385q0 100 31 181q43 114 133 114q89 0 89 -99
q0 -54 -31 -76q-22 -16 -78 -25q-48 -8 -66 -21q-27 -19 -27 -68q0 -187 185 -317q168 -117 368 -117q366 0 618 413q16 26 173 325l53 100q-64 9 -141 9q-238 0 -402 -82q-208 -104 -208 -311q0 -187 98 -187q74 0 151.5 63t77.5 132q0 19 -17 54.5t-17 58.5q0 34 24 60.5
t60 26.5q66 0 66 -76q0 -145 -141 -275t-288 -130q-83 0 -135 60q-48 57 -48 139q0 91 54 184q51 87 129 143q273 196 669 196q48 0 100 -2q12 23 37 68q18 29 74 100q-210 14 -430 133q-123 67 -206 67q-88 0 -175 -70t-127 -204q-16 -53 -38 -53q-24 0 -24 37q0 55 79 168
q148 211 388 211q144 0 262 -66q189 -107 323 -135q111 108 138 129q91 71 168 71q122 0 122 -93q0 -96 -119 -141zM2008 1361q-86 0 -168 -128q14 -2 35 -2q129 0 190 41q35 23 35 43q0 46 -92 46z" />
    <glyph glyph-name="afii10039" unicode="&#x425;" horiz-adv-x="1962"
d="M1445 706q-135 -261 -260 -370q36 -119 128 -193q95 -77 217 -77q119 0 215 94q88 86 117 209q13 68 43 212q30 -1 30 -40q0 -222 -102 -356q-161 -210 -395 -210q-132 0 -230.5 67t-143.5 187q-291 -247 -579 -247q-148 0 -247 71q-113 80 -113 223q0 141 118 243
q96 82 249 125q2 326 167 553q187 257 508 257q125 0 220 -56q104 -62 139 -174q313 230 604 230q202 0 202 -191q0 -237 -339 -399q-239 -114 -548 -158zM2120 1404q-259 0 -575 -238q5 -47 5 -79q0 -155 -79 -325q271 43 492 175q276 166 276 384q0 83 -119 83zM1423 1066
q-156 -159 -220 -339l191 21q40 129 40 214q0 37 -11 104zM1075 1359q-222 0 -378 -196q-123 -155 -123 -382q0 -54 7 -115q103 23 347 41q37 113 37 207q0 34 -4 52q-2 9 -60 57q-53 45 -53 110q0 83 81 83q96 0 96 -203q0 -143 -45 -302q59 4 125 8q91 212 307 403
q-26 112 -123 176q-92 61 -214 61zM1186 673q-21 -91 -21 -170q0 -42 7 -104q135 139 203 296q-66 -10 -189 -22zM587 611q6 -54 39 -117q38 -70 74 -70q114 0 208 228q-180 -17 -321 -41zM962 657q-48 -143 -154 -241q-70 -63 -133 -63q-77 0 -128 85q-38 63 -51 151
q-275 -69 -275 -242q0 -123 115 -193q98 -60 235 -60q262 0 473 185q-16 73 -16 120q0 119 57 267q-64 -5 -123 -9z" />
    <glyph glyph-name="afii10040" unicode="&#x426;" horiz-adv-x="2054"
d="M1696 177q-2 -8 -33 -34q-13 -12 -42 -38q-67 -64 -111 -88q-61 -33 -140 -33q-195 0 -200 281q-408 -281 -566 -281q-188 0 -188 198q0 139 92 285q46 71 190 238q361 418 361 563q0 78 -57 121q-52 39 -136 39q-202 0 -380 -177.5t-178 -377.5q0 -105 85 -105
q84 0 158 80t74 164q0 38 -25 81t-25 67q0 34 21 61q23 31 58 31q43 0 68 -44q20 -35 20 -77q0 -153 -151 -309.5t-305 -156.5q-70 0 -109 46q-37 43 -37 112q0 120 117 287q94 135 194 208q212 157 421 157q112 0 185 -68.5t73 -179.5q0 -178 -136 -385q-21 -32 -259 -332
q-203 -257 -203 -394q0 -84 86 -84q137 0 557 298q33 280 318 658q118 156 247 281q192 187 302 187q69 0 69 -89q0 -177 -305 -525q-196 -223 -460 -456q-27 -125 -27 -191q0 -149 82 -149q98 0 201 92q81 80 161 160q101 0 123 -14q-66 -132 -131 -252q113 82 297 270
q26 1 26 -18q0 -45 -157 -176q-117 -98 -214 -162q-315 -593 -540 -593q-114 0 -114 111q0 181 465 459q32 22 99 56q13 30 43 101q32 77 36 97zM2038 1415q-84 0 -283 -252q-264 -334 -382 -679q129 113 236 228q123 132 265 330q184 254 184 344q0 29 -20 29zM1126 -540
q0 -58 49 -58q137 0 386 495q-435 -253 -435 -437z" />
    <glyph glyph-name="afii10041" unicode="&#x427;" horiz-adv-x="1710"
d="M1390 651q-120 -265 -120 -451q0 -148 82 -148q98 0 201 91q80 80 161 160q25 1 25 -21q0 -20 -81 -103q-183 -189 -337 -189q-100 0 -154 80q-46 68 -46 170q0 112 42 246q-203 -130 -329 -130q-188 0 -188 197q0 78 32 167q13 36 55 107.5t67 98.5l157 170
q53 58 53 173q0 78 -57 121q-52 39 -136 39q-72 0 -156 -32l-72 29q131 49 234 49q112 0 185 -68.5t73 -178.5q0 -64 -23 -151q-25 -90 -59 -140q-49 -72 -148 -216q-89 -131 -89 -234q0 -84 86 -84q122 0 341 157q137 345 494 700q200 199 290 199q71 0 71 -70
q0 -122 -272 -396q-180 -182 -382 -342zM237 668q-70 0 -109 46q-37 43 -37 112q0 120 117 286q166 234 408 324l73 -28q-180 -68 -303 -214q-127 -153 -127 -319q0 -104 85 -104q84 0 158 79.5t74 163.5q0 38 -25 80.5t-25 66.5q0 34 21 61q23 31 58 31q43 0 68 -44
q20 -35 20 -76q0 -153 -150.5 -309t-305.5 -156zM1977 1418q-35 0 -143 -109q-221 -223 -391 -549q177 158 335 330q211 233 211 314q0 14 -12 14z" />
    <glyph glyph-name="afii10042" unicode="&#x428;" horiz-adv-x="2403"
d="M1903 336q-24 -107 -24 -136q0 -148 82 -148q95 0 200 90q81 80 162 161q25 1 25 -21q0 -20 -81 -103q-182 -189 -337 -189q-116 0 -164 66q-37 52 -39 160l-206 -154q-115 -72 -247 -72q-116 0 -164 66q-37 52 -39 160l-198 -144q-129 -82 -225 -82q-188 0 -188 197
q0 79 32 166q39 108 122 207q280 332 294 350q195 253 195 359q0 78 -57 121q-52 39 -136 39q-202 0 -379.5 -177.5t-177.5 -376.5q0 -104 85 -104q84 0 159 80q72 78 72 163q0 37 -24.5 79t-24.5 68q0 33 22 62.5t56 29.5q43 0 68 -44q20 -35 20 -76q0 -154 -149.5 -309.5
t-305.5 -155.5q-69 0 -107.5 43t-38.5 112q0 123 116 289q112 159 264 255q171 108 351 108q112 0 185 -68.5t73 -178.5q0 -178 -136 -384q-21 -31 -259 -330q-203 -256 -203 -393q0 -82 100 -80q69 1 207 96q96 72 193 144q19 164 119 373q87 184 202 336q119 156 247 280
q192 186 302 186q69 0 69 -89q0 -178 -306 -549q-229 -276 -462 -482q-24 -107 -24 -136q0 -156 103 -156q84 0 214 91l192 146q19 164 119 373q87 184 202 336q119 156 247 280q192 186 302 186q69 0 69 -89q0 -178 -306 -549q-229 -276 -462 -482zM2598 1415
q-84 0 -283 -251q-241 -303 -392 -749q196 181 429 488q266 351 266 483q0 29 -20 29zM1942 1415q-84 0 -283 -251q-236 -298 -387 -742q196 181 426 484q264 348 264 480q0 29 -20 29z" />
    <glyph glyph-name="afii10043" unicode="&#x429;" horiz-adv-x="2630"
d="M1903 331q-24 -107 -24 -136q0 -149 82 -149q95 0 200 91q81 81 162 161h6q95 0 119 -14q-66 -132 -131 -252q113 83 297 270q26 1 26 -18q0 -45 -157 -176q-117 -98 -214 -162q-315 -593 -540 -593q-114 0 -114 111q0 127 218 301q143 114 331 215l67 157
q-162 -153 -301 -153q-116 0 -164 67q-37 51 -39 160q-103 -78 -206 -155q-115 -72 -247 -72q-116 0 -164 67q-37 51 -39 160q-99 -73 -198 -145q-129 -82 -225 -82q-188 0 -188 198q0 79 32 167q39 108 122 207q280 334 294 352q195 253 195 360q0 78 -57 121
q-52 39 -136 39q-202 0 -379.5 -177.5t-177.5 -377.5q0 -105 85 -105q84 0 159 80q72 79 72 164q0 37 -24.5 79.5t-24.5 68.5q0 33 22 62.5t56 29.5q43 0 68 -44q20 -35 20 -76q0 -155 -149.5 -311t-305.5 -156q-69 0 -107.5 43t-38.5 112q0 124 116 290q112 160 264 257
q171 108 351 108q112 0 185 -68.5t73 -179.5q0 -178 -136 -385q-21 -32 -259 -332q-203 -257 -203 -394q0 -83 100 -81q69 1 207 97q96 72 193 144q19 165 119 375q87 185 202 337q119 156 247 281q192 187 302 187q69 0 69 -89q0 -179 -306 -551q-229 -278 -462 -485
q-24 -107 -24 -136q0 -156 103 -156q84 0 214 90q96 74 192 147q19 165 119 375q87 185 202 337q119 156 247 281q192 187 302 187q69 0 69 -89q0 -179 -306 -551q-229 -278 -462 -485zM2598 1415q-84 0 -283 -252q-241 -305 -392 -752q196 182 429 490q266 352 266 485
q0 29 -20 29zM1942 1415q-84 0 -283 -252q-236 -299 -387 -745q196 181 426 486q264 349 264 482q0 29 -20 29zM1688 -540q0 -58 49 -58q137 0 386 495q-435 -253 -435 -437z" />
    <glyph glyph-name="afii10044" unicode="&#x42a;" horiz-adv-x="2138"
d="M2121 1284q-55 -14 -143 -21q-199 -131 -489 -614q149 85 296 85q146 0 232 -72q92 -78 92 -220q0 -188 -145 -322q-142 -130 -334 -130q-124 0 -204 64q-88 70 -88 191t94 211q81 79 206 112q21 5 35 5q25 0 25 -27q0 -11 -63 -41l-43 -21q-195 -93 -195 -268
q0 -134 178 -134q104 0 210 93q161 140 161 326q0 182 -188 182q-147 0 -297 -117q-42 -33 -47 -39q-15 -23 -45 -66q-329 -471 -715 -471q-245 0 -385.5 140.5t-140.5 382.5q0 106 29 181q40 106 126 106q80 0 80 -79q0 -51 -29 -75q-20 -16 -73 -28q-45 -10 -61 -23
q-26 -20 -26 -66q0 -174 170 -311q162 -131 373 -131q218 0 408 170q136 122 294 377q231 370 241 383q107 147 217 235q-118 -20 -210 -20q-145 0 -428 56t-428 56q-216 0 -270 -168q135 26 238 26q194 0 344 -84q182 -102 182 -283q0 -157 -122.5 -268.5t-281.5 -111.5
q-202 0 -328 161q-116 147 -116 350q0 67 15 143q-97 -25 -225 -96q-15 -9 -21 -9q-25 0 -25 24q0 26 120 76q91 38 165 59q46 144 175 233q126 87 281 87q100 0 334 -61q421 -109 615 -109q50 0 241 83q38 16 51 16q53 0 53 -44q0 -56 -115 -84zM660 1136q-62 0 -137 -15
q-9 -63 -9 -91q0 -197 139 -333t339 -136q103 0 166 49q69 52 69 150q0 175 -200 284q-168 92 -367 92z" />
    <glyph glyph-name="afii10045" unicode="&#x42b;" horiz-adv-x="2138"
d="M2121 1284q-55 -14 -143 -21q-199 -131 -489 -614q149 85 296 85q146 0 232 -72q92 -78 92 -220q0 -188 -145 -322q-142 -130 -334 -130q-124 0 -204 64q-88 70 -88 191t94 211q81 79 206 112q21 5 35 5q25 0 25 -27q0 -11 -63 -41l-43 -21q-195 -93 -195 -268
q0 -134 178 -134q104 0 210 93q161 140 161 326q0 182 -188 182q-147 0 -297 -117q-42 -33 -47 -39q-15 -23 -45 -66q-329 -471 -715 -471q-245 0 -385.5 140.5t-140.5 382.5q0 106 29 181q40 106 126 106q80 0 80 -79q0 -51 -29 -75q-20 -16 -73 -28q-45 -10 -61 -23
q-26 -20 -26 -66q0 -174 170 -311q162 -131 373 -131q218 0 408 170q136 122 294 377q231 370 241 383q107 147 217 235q-118 -20 -210 -20q-145 0 -428 56t-428 56q-216 0 -270 -168q135 26 238 26q194 0 344 -84q182 -102 182 -283q0 -157 -122.5 -268.5t-281.5 -111.5
q-202 0 -328 161q-116 147 -116 350q0 67 15 143q-97 -25 -225 -96q-15 -9 -21 -9q-25 0 -25 24q0 26 120 76q91 38 165 59q46 144 175 233q126 87 281 87q100 0 334 -61q421 -109 615 -109q50 0 241 83q38 16 51 16q53 0 53 -44q0 -56 -115 -84zM660 1136q-62 0 -137 -15
q-9 -63 -9 -91q0 -197 139 -333t339 -136q103 0 166 49q69 52 69 150q0 175 -200 284q-168 92 -367 92z" />
    <glyph glyph-name="afii10046" unicode="&#x42c;" horiz-adv-x="2138"
d="M2121 1284q-55 -14 -143 -21q-199 -131 -489 -614q149 85 296 85q146 0 232 -72q92 -78 92 -220q0 -188 -145 -322q-142 -130 -334 -130q-124 0 -204 64q-88 70 -88 191t94 211q81 79 206 112q21 5 35 5q25 0 25 -27q0 -11 -63 -41l-43 -21q-195 -93 -195 -268
q0 -134 178 -134q104 0 210 93q161 140 161 326q0 182 -188 182q-147 0 -297 -117q-42 -33 -47 -39q-15 -23 -45 -66q-329 -471 -715 -471q-245 0 -385.5 140.5t-140.5 382.5q0 106 29 181q40 106 126 106q80 0 80 -79q0 -51 -29 -75q-20 -16 -73 -28q-45 -10 -61 -23
q-26 -20 -26 -66q0 -174 170 -311q162 -131 373 -131q218 0 408 170q136 122 294 377q231 370 241 383q107 147 217 235q-118 -20 -210 -20q-145 0 -428 56t-428 56q-216 0 -270 -168q135 26 238 26q194 0 344 -84q182 -102 182 -283q0 -157 -122.5 -268.5t-281.5 -111.5
q-202 0 -328 161q-116 147 -116 350q0 67 15 143q-97 -25 -225 -96q-15 -9 -21 -9q-25 0 -25 24q0 26 120 76q91 38 165 59q46 144 175 233q126 87 281 87q100 0 334 -61q421 -109 615 -109q50 0 241 83q38 16 51 16q53 0 53 -44q0 -56 -115 -84zM660 1136q-62 0 -137 -15
q-9 -63 -9 -91q0 -197 139 -333t339 -136q103 0 166 49q69 52 69 150q0 175 -200 284q-168 92 -367 92z" />
    <glyph glyph-name="afii10047" unicode="&#x42d;" horiz-adv-x="1821"
d="M1728 1133q-63 -27 -151 -59q42 -104 42 -213q0 -156 -82 -310q218 -33 218 -150q0 -84 -105 -128q-78 -32 -171 -32q-88 0 -183 27q-185 -150 -453 -259q-286 -117 -508 -117q-201 0 -201 123q0 129 273 312q192 128 470 195l-185 171q-100 93 -212 93q-77 0 -157 -62
q-41 -31 -124 -120q-26 -28 -46 -28q-24 0 -24 23q0 20 25 45l118 116q95 90 266 90q137 0 283 -98q79 -53 231 -197q145 20 313 21q101 163 101 334q0 60 -14 127q-294 -77 -535 -77q-185 0 -323 57q-189 79 -189 240q0 139 149 215q118 60 268 60q226 0 418 -109
q189 -107 307 -299q5 2 91 38q73 32 202 87q27 2 27 -19q0 -36 -139 -97zM884 1458q-138 0 -265 -56q-157 -69 -157 -181q0 -105 221 -155q145 -33 311 -33q213 0 445 58q-55 181 -209 277q-144 90 -346 90zM1472 462q-47 -73 -117 -141q70 -31 137 -31q52 0 96 14
q63 19 63 58q0 58 -179 100zM1136 509h-35q71 -67 121 -106q42 45 76 92q-115 14 -162 14zM916 485q-181 -40 -348 -132q-186 -103 -284 -233q-48 -64 -48 -106q0 -72 132 -72q162 0 356 94q223 108 420 286q-109 56 -228 163z" />
    <glyph glyph-name="afii10048" unicode="&#x42e;" horiz-adv-x="2195"
d="M2672 871q-133 -160 -327 -160q-38 0 -94 9q-131 -270 -323 -470q-249 -260 -486 -260q-144 0 -214 135q-54 104 -54 256q0 293 231 646q-390 -388 -695 -706q-32 -28 -82 -96q-122 -264 -239 -264q-41 0 -41 54q0 42 170 194q136 122 191 342q10 41 36 170
q62 307 196 454q132 144 222 199q-343 -25 -569 -193q-260 -193 -260 -512q0 -93 42 -212q4 -11 5 -20q-6 -17 -21 -17q-32 0 -76 163q-40 149 -40 207q0 346 341 510q258 124 644 124h31q44 0 53 -23q-123 -63 -188 -120q-59 -51 -198 -416q-50 -132 -157 -394
q339 399 695 699q36 26 103 91q165 209 263 209q53 0 53 -41q0 -49 -122 -133l-168 -108q-62 -47 -100 -116q-19 -34 -60 -138q-101 -261 -101 -474q0 -146 37 -245q52 -141 166 -141q188 0 385 247q155 195 242 430q-236 117 -236 392q0 119 58 214q68 113 184 113
q200 0 200 -298q0 -148 -95 -394q49 -15 91 -15q103 0 182 54q60 41 132 134q31 40 31 52q30 1 30 -18q0 -33 -68 -114zM2118 1402q-58 0 -91 -70q-26 -57 -26 -128q0 -110 48 -215q50 -110 135 -173q59 165 59 349q0 79 -28 149q-36 88 -97 88z" />
    <glyph glyph-name="afii10049" unicode="&#x42f;" horiz-adv-x="2085"
d="M2121 223q-207 -236 -381 -236q-105 0 -150 75q-50 86 -50 192q0 10 16 88q8 38 18 102q2 28 -67 109q-134 -176 -285 -302q25 -66 25 -133q0 -160 -102 -276q-107 -121 -268 -121q-41 0 -41 27q0 11 32 22q37 8 103 29q188 83 188 309q0 41 -9 91q-312 -212 -562 -212
q-210 0 -343 118q-138 123 -138 329q0 204 143 339q141 132 348 132q135 0 230 -72q104 -79 104 -210q0 -83 -50 -163q221 -5 315 -160q135 121 235 341q-182 231 -182 498q0 119 42 208q56 117 168 117q124 0 195 -129q57 -105 57 -235q0 -203 -170 -499q20 -26 61 -69
q36 -22 95 -70q21 -15 21 -56q0 -31 -13 -84q-14 -59 -16 -84q-1 -18 -1 -40q0 -149 82 -149q94 0 200 91l162 160q25 2 25 -20q0 -15 -37 -57zM1448 1419q-113 0 -113 -242q0 -245 125 -469q103 259 103 502q0 209 -115 209zM860 410h-18q-109 -114 -176 -114q-62 0 -62 49
q0 80 217 113q15 44 15 88q0 123 -92 210t-218 87q-138 0 -222.5 -94.5t-84.5 -233.5q0 -195 135 -318q131 -120 330 -120q226 0 447 172q-71 161 -271 161z" />
    <glyph glyph-name="afii10065" unicode="&#x430;" horiz-adv-x="807"
d="M791 219q-19 -21 -53 -54q-177 -175 -263 -175q-94 0 -94 108q0 18 3 41q-130 -149 -241 -149q-128 0 -128 212q0 26 5 55q-14 -12 -24 -12q-22 0 -22 18q0 22 99 118q203 197 376 197q118 0 118 -102l61 85l159 9l-236 -358q-74 -113 -74 -149q0 -18 21 -18
q49 0 243 193q47 47 68 62q26 2 26 -17q0 -16 -44 -64zM457 529q-109 0 -226 -163q-110 -154 -110 -270q0 -51 39 -51q68 0 183 122q171 182 171 309q0 53 -57 53z" />
    <glyph glyph-name="afii10066" unicode="&#x431;" horiz-adv-x="699"
d="M22 266q-16 -14 -26 -14q-20 0 -20 18q0 24 125 149q20 51 173.5 297t188.5 283q93 99 230 104q64 3 102 7q68 7 96 22q44 23 66 75q8 20 27 96q8 36 34 36q27 0 27 -38q0 -48 -36 -133q-71 -170 -281 -200q-73 -10 -146 -19q-85 -19 -126 -69q-109 -131 -223 -355
q107 68 197 68q66 0 113.5 -45.5t47.5 -110.5q0 -99 -105 -238q11 -2 16 -2q57 0 101 30q24 17 76 72q22 23 36 23q18 0 18 -22q0 -11 -27 -42q-94 -108 -217 -108q-20 0 -42 2q-155 -162 -285 -162q-147 0 -147 220q0 25 7 56zM446 539q-105 0 -217 -166
q-104 -155 -104 -269q0 -62 53 -62q81 0 203 177q117 171 117 265q0 55 -52 55z" />
    <glyph glyph-name="afii10067" unicode="&#x432;" horiz-adv-x="703"
d="M64 313q-57 -63 -68 -63q-20 0 -20 17q0 13 195 236q40 46 48 57q9 18 28 53q140 247 321 445q142 156 250 156q114 0 114 -110q0 -191 -549 -505l-260 -452q-29 -49 -29 -79q0 -29 51 -29q119 0 207 108q77 94 99 223q3 19 10 86q13 132 82 132t69 -92q0 -131 -121 -296
q12 -3 17 -3q61 0 133 62.5t76 62.5q18 0 18 -22q0 -11 -27 -43q-94 -108 -216 -108q-18 0 -44 3q-156 -162 -319 -162q-129 0 -129 128q0 74 64 195zM808 1166q-137 0 -386 -493q435 252 435 435q0 58 -49 58z" />
    <glyph glyph-name="afii10068" unicode="&#x433;" horiz-adv-x="575"
d="M557 213q-211 -223 -354 -223q-70 0 -120.5 50.5t-50.5 118.5q0 25 4 41q23 79 177 137q62 20 183 64q79 33 79 103q0 30 -26 30q-95 0 -205 -74q-68 -46 -161 -138q-76 -75 -87 -75q-20 0 -20 18q0 17 83 104q199 209 381 209q123 0 123 -102q0 -121 -138 -198
q-15 -9 -67 -26q-227 -77 -227 -133q0 -31 25.5 -56t56.5 -25q70 0 160 68q53 41 135 126q65 68 76 68q22 0 22 -19q0 -15 -49 -68z" />
    <glyph glyph-name="afii10069" unicode="&#x434;" horiz-adv-x="756"
d="M411 -58q-315 -589 -540 -589q-114 0 -114 110q0 191 548 505l75 159q-140 -147 -237 -147q-128 0 -128 215q0 27 5 56q-14 -11 -24 -11q-22 0 -22 17q0 22 99 120q202 201 376 201q118 0 118 -103l61 86l149 9q-181 -289 -318 -545q113 79 300 270q25 2 25 -19
q0 -49 -159 -178q-121 -98 -214 -156zM457 528q-109 0 -226 -166q-110 -157 -110 -274q0 -52 39 -52q68 0 183 124q171 185 171 315q0 53 -57 53zM-168 -541q0 -58 49 -58q137 0 386 493q-435 -252 -435 -435z" />
    <glyph glyph-name="afii10070" unicode="&#x435;" horiz-adv-x="575"
d="M23 262q-16 -15 -27 -15q-20 0 -20 18q0 17 83 104q199 209 381 209q123 0 123 -102q0 -106 -158 -191q-111 -61 -255 -93q-9 -51 -9 -71q0 -83 72 -83q70 0 160 68q53 41 135 126q65 68 76 68q22 0 22 -19q0 -21 -107 -126q-169 -165 -296 -165q-90 0 -141 73
q-43 62 -43 150q0 24 4 49zM449 534q-77 0 -166 -104q-71 -83 -115 -185q110 28 200 95q107 80 107 164q0 30 -26 30z" />
    <glyph glyph-name="afii10072" unicode="&#x436;" horiz-adv-x="1382"
d="M1383 212q-211 -228 -356 -228q-90 0 -140 75q-42 63 -42 154q0 22 5 51q-244 -248 -336 -404l-230 -386l-158 -17l572 964q-111 -118 -212 -219q-212 -214 -377 -214q-143 0 -143 116q0 38 21 68q24 35 64 35q72 0 72 -63q0 -22 -35 -53l-12 -10q-17 -15 -17 -20
q0 -24 33 -24q108 0 215 156q99 145 99 263q0 80 -45 80q-69 0 -214 -142q-42 -39 -121 -122q-27 -2 -27 20t107 128q161 161 267 161q81 0 122 -77q31 -59 31 -143q0 -22 -4 -49q146 160 244 272q57 63 159 197l289 451l159 22l-468 -746q-68 -105 -198 -319l178 183
q208 213 377 213q143 0 143 -115q0 -39 -21 -69q-24 -34 -64 -34q-72 0 -72 62q0 23 35 54l12 10q17 15 17 19q0 25 -33 25q-108 0 -215 -156q-99 -146 -99 -263q0 -86 74 -86q93 0 245 147q42 39 121 122q27 2 27 -19q0 -16 -49 -70z" />
    <glyph glyph-name="afii10073" unicode="&#x437;" horiz-adv-x="639"
d="M508 109l-122 -102q-60 -49 -85 -65q-315 -589 -540 -589q-114 0 -114 110q0 191 548 505q10 28 10 55q0 84 -64 84q-13 0 -37.5 -13t-32.5 -13q-21 0 -21 24q0 19 60 54q145 84 192 124q103 88 103 190q0 64 -49 64q-7 0 -18 -3q-154 -37 -177 -187q-7 -44 -34 -74
q-33 -37 -75 -37q-24 0 -42 15q-9 -11 -14 -11q-23 0 -22 20q168 283 375 327q20 4 39 4q56 0 97 -30q46 -34 46 -90q0 -113 -151 -203l-108 -66q83 -25 83 -121q0 -25 -8 -50q113 91 282 264q25 2 25 -19q0 -47 -146 -167zM-278 -541q0 -58 49 -58q137 0 386 493
q-435 -252 -435 -435z" />
    <glyph glyph-name="afii10074" unicode="&#x438;" horiz-adv-x="795"
d="M104 349l-8 -9q-91 -93 -102 -93q-20 0 -20 16q0 28 266 296l170 9l-227 -343q-85 -129 -85 -161q0 -26 23 -26q171 0 491 521l163 9l-260 -397q-52 -80 -52 -107q0 -26 22 -26q44 0 177.5 131t138.5 131q22 0 22 -17q0 -35 -140 -162q-145 -131 -200 -131
q-106 0 -106 144q0 11 2 25q-156 -169 -252 -169q-123 0 -123 134q0 71 100 225z" />
    <glyph glyph-name="afii10075" unicode="&#x439;" horiz-adv-x="795"
d="M803 730q-31 -17 -83 -39q-121 -50 -218 -50q-75 0 -128 32q-63 39 -63 111q0 43 30 75t74 32q69 0 69 -77q0 -13 -11.5 -33.5t-11.5 -25.5q0 -54 87 -54q124 0 273 90q12 7 41 15l11 -8q0 -31 -70 -68zM379 161q-156 -171 -252 -171q-123 0 -123 136q0 71 100 227l-8 -8
q-91 -95 -102 -95q-20 0 -20 16q0 28 266 300l170 9l-227 -347q-85 -130 -85 -163q0 -26 23 -26q171 0 491 527l163 9l-260 -401q-52 -82 -52 -109q0 -26 22 -26q44 0 177.5 132.5t138.5 132.5q22 0 22 -18q0 -35 -140 -163q-145 -133 -200 -133q-106 0 -106 146q0 11 2 25z
" />
    <glyph glyph-name="afii10076" unicode="&#x43a;" horiz-adv-x="774"
d="M33 12l-148 -16l246 387l-29 -31q-96 -102 -114 -102q-23 0 -22 21l173 212q60 74 121 148q67 86 108 155l265 447l156 21zM735 219q-208 -229 -298 -229q-59 0 -99 47q-38 44 -38 100q0 25 11 62t11 59q0 15 -3 30q-25 -10 -52 -10q-53 0 -53 42q0 47 52 47q27 0 51 -12
q94 19 137 89q99 159 193 159q38 0 74.5 -30.5t36.5 -67.5q0 -75 -76 -75q-26 0 -55.5 47t-36.5 47q-23 -3 -45 -36q-44 -69 -127 -143q-12 -10 -36 -19q66 -37 66 -97q0 -21 -7 -57q-17 -89 -12 -115q4 -18 20 -18q49 0 225 185q25 31 82 82q25 1 25 -20q0 -16 -46 -67z
" />
    <glyph glyph-name="afii10077" unicode="&#x43b;" horiz-adv-x="708"
d="M298 134q1 10 1 30q-159 -174 -252 -174q-123 0 -123 134q0 109 90 218h26q91 0 91 -52q0 -23 -56.5 -116.5t-56.5 -109.5q0 -26 23 -26q96 0 268 210q112 136 219 311l163 9l-260 -397q-52 -80 -52 -107q0 -26 22 -26q44 0 177.5 131t138.5 131q22 0 22 -17
q0 -34 -140 -162q-144 -131 -200 -131q-102 0 -102 144h1z" />
    <glyph glyph-name="afii10078" unicode="&#x43c;" horiz-adv-x="1096"
d="M1086 238q-27 -28 -63 -65q-167 -176 -249 -176q-90 0 -90 103q0 57 33 129q-204 -232 -297 -232q-92 0 -92 93q0 65 34 137q-217 -237 -323 -237q-55 0 -87 44q-28 37 -28 90q0 109 90 218q16 1 26 1q91 0 91 -53q0 -25 -56.5 -118.5t-56.5 -107.5q0 -25 23 -25
q118 0 540 526l168 16l-278 -403q-62 -90 -62 -115q0 -15 19 -15q76 0 509 517l170 16l-280 -403q-63 -91 -63 -114q0 -16 18 -16q50 0 190 141.5t146 141.5q20 0 20 -17q0 -19 -52 -76z" />
    <glyph glyph-name="afii10079" unicode="&#x43d;" horiz-adv-x="907"
d="M892 218q-18 -19 -52 -53q-176 -175 -257 -175q-121 0 -121 134q0 46 44 128h-172q-69 -106 -156 -240l-169 -16l291 421q50 73 50 95q0 15 -18 15q-52 0 -191 -141t-145 -141q-20 0 -20 18q0 19 50 72q107 114 144 147q107 96 170 96q90 0 90 -102q0 -75 -66 -178h169
q55 84 163 261l172 12l-214 -325q-98 -150 -98 -182q0 -28 25 -28q61 0 194 132t140 132q22 0 22 -19q0 -15 -45 -63z" />
    <glyph glyph-name="afii10080" unicode="&#x43e;" horiz-adv-x="695"
d="M22 261q-16 -14 -26 -14q-20 0 -20 18q0 16 87 108q198 209 367 209q151 0 151 -153q0 -109 -95 -233q11 -3 16 -3q44 0 97 41q27 21 71 73q8 9 25 9q18 0 18 -21q0 -11 -27.5 -42t-57.5 -53q-72 -53 -139 -53q-20 0 -42 2q-155 -159 -285 -159q-147 0 -147 216
q0 24 7 55zM438 529q-99 0 -209 -165q-104 -154 -104 -262q0 -62 39 -62q89 0 212 171q118 164 118 262q0 56 -56 56z" />
    <glyph glyph-name="afii10081" unicode="&#x43f;" horiz-adv-x="907"
d="M598 -10q-108 0 -108 150q0 79 110.5 220t110.5 154t-13 13q-100 0 -521 -515l-168 -16l278 403q63 92 63 113q0 15 -18 15q-52 0 -191 -141t-145 -141q-20 0 -20 18q0 19 50 72q106 113 144 147q107 96 170 96q90 0 90 -102q0 -62 -40 -143q233 245 321 245
q87 0 87 -105q0 -74 -110.5 -225t-110.5 -184q0 -26 23 -26q46 0 311 262q27 2 27 -19q0 -33 -144 -160q-147 -131 -196 -131z" />
    <glyph glyph-name="afii10082" unicode="&#x440;" horiz-adv-x="776"
d="M768 289l2 13q25 1 25 -20q0 -35 -142 -165q-145 -133 -196 -133q-108 0 -108 153q0 81 110.5 226t110.5 157q0 15 -13 15q-83 0 -290 -253q-161 -197 -252 -350l-273 -458l-158 -17l558 932q-133 -144 -152 -144q-22 0 -22 18q0 -1 302 366q71 86 113 152l289 451
l159 22l-572 -908q230 239 311 239q87 0 87 -107q0 -78 -110.5 -229t-110.5 -189q0 -26 23 -26q51 0 270 225q12 12 32 35q5 -1 7 -5z" />
    <glyph glyph-name="afii10083" unicode="&#x441;" horiz-adv-x="575"
d="M557 213q-211 -223 -356 -223q-90 0 -140 73q-42 62 -42 150q0 22 4 48q-16 -14 -27 -14q-22 0 -22 18q0 17 85 104q202 209 377 209q136 0 143 -113q4 -70 -44 -122q-36 -39 -85 -53q-9 -2 -19 -2q-59 0 -59 47q0 9 4 19q24 61 127 76q22 26 22 48q0 53 -72 53
q-108 0 -215 -153q-99 -142 -99 -257q0 -85 74 -85q96 0 307 204q52 50 58 60q28 2 28 -19q0 -15 -49 -68z" />
    <glyph glyph-name="afii10084" unicode="&#x442;" horiz-adv-x="1247"
d="M938 -10q-108 0 -108 150q0 79 110.5 220t110.5 154q0 15 -13 15q-91 0 -505 -517l-168 -16l278 403q62 90 62 115q0 15 -19 15q-76 0 -509 -517l-170 -16l288 415q55 80 55 101q0 17 -18 17q-50 0 -190 -142t-146 -142q-20 0 -20 18q0 20 115 141q167 176 249 176
q90 0 90 -103q0 -57 -33 -130q204 233 297 233q92 0 92 -93q0 -67 -37 -142q223 235 302 235q87 0 87 -107q0 -74 -110.5 -224t-110.5 -185q0 -26 23 -26q46 0 311 262q27 2 27 -19q0 -32 -143 -160q-147 -131 -197 -131z" />
    <glyph glyph-name="afii10085" unicode="&#x443;" horiz-adv-x="877"
d="M100 340l-3 -4q-91 -95 -102 -95q-20 0 -20 16q0 29 266 302l170 9l-120 -184q-4 -7 -15 -21q-178 -249 -178 -289q0 -30 22 -30q84 0 259 210q130 157 221 307l149 9q-180 -288 -317 -544q106 73 300 269q25 2 25 -19q0 -16 -33 -57q-118 -144 -341 -277
q-314 -589 -539 -589q-115 0 -115 110q0 126 214 291q108 83 335 214l125 235q-197 -208 -299 -208q-49 0 -75 46q-21 36 -21 83q0 81 92 216zM-192 -541q0 -58 49 -58q135 0 386 492q-435 -252 -435 -434z" />
    <glyph glyph-name="afii10086" unicode="&#x444;" horiz-adv-x="1121"
d="M563 508l422 730l132 7l-386 -680q38 20 72 20q149 0 149 -152q0 -120 -67 -240q3 -1 7 -1q27 0 67 27q50 33 92 83q13 15 25 15q18 0 18 -22q0 -11 -27 -43q-40 -45 -106 -83q-45 -25 -101 -25q-7 0 -22 2q-154 -162 -305 -162q-74 0 -87 75l-358 -632l-151 -10l366 635
q-77 -66 -160 -66q-128 0 -128 216q0 27 6 57q-15 -12 -25 -12q-22 0 -22 16q0 20 89 110q210 214 386 214q99 0 114 -79zM809 535q-76 0 -120 -60q-54 -73 -117 -190q-78 -145 -78 -202q0 -47 55 -47q93 0 206 176q106 165 106 267q0 56 -52 56zM457 535q-109 0 -226 -167
q-110 -157 -110 -275q0 -53 39 -53q70 0 187 127q51 56 114 172q59 109 59 136q0 60 -63 60z" />
    <glyph glyph-name="afii10087" unicode="&#x445;" horiz-adv-x="684"
d="M699 438q-30 0 -59 37t-27 37q-64 0 -191 -196q-88 -138 -88 -248q0 -30 25 -30q51 0 311 262q27 1 27 -19q0 -33 -140 -160q-145 -131 -202 -131q-61 0 -97 53q-32 48 -30 109q-152 -162 -252 -162q-104 0 -104 80q0 74 71 74q38 0 77 -83q1 -4 3 -8q37 0 111 68
q194 177 194 380q0 28 -20 28q-21 0 -66 -41q-30 -31 -96 -97q-21 -21 -95 -98q-46 -48 -55 -48q-20 0 -20 18q0 20 115 141q98 104 102 108q75 68 125 68q114 0 114 -143q0 -14 -1 -29q134 172 235 172q98 0 98 -81q0 -61 -65 -61z" />
    <glyph glyph-name="afii10088" unicode="&#x446;" horiz-adv-x="795"
d="M379 154q-156 -170 -252 -170q-123 0 -123 136q0 71 100 227l-8 -9q-91 -94 -102 -94q-20 0 -20 15q0 29 266 300l170 9l-227 -346q-85 -131 -85 -163q0 -26 23 -26q171 0 491 526l163 9l-260 -401q-52 -81 -52 -108q0 -26 22 -26q44 0 177.5 132t138.5 132q22 0 22 -17
q0 -35 -140 -164q-145 -132 -200 -132q-106 0 -106 145q0 12 2 25zM342 -255q-42 0 -128 30q-65 25 -130 49q-41 15 -56 16q-46 2 -93 -33t-66 -81l-46 23q128 182 259 182q52 0 132 -27q64 -23 129 -47q39 -13 56 -13q115 0 204 248l70 61q-68 -184 -121 -266
q-92 -142 -210 -142z" />
    <glyph glyph-name="afii10089" unicode="&#x447;" horiz-adv-x="559"
d="M218 -10q-108 0 -108 151q0 80 110.5 222t110.5 155t-8 13q18 0 -84 -22q-226 -260 -245 -260q-21 0 -20 19q72 102 203 251q-29 11 -29 51q0 51 38 113q43 70 95 70q61 0 61 -68q0 -36 -49 -107q33 4 38 4q87 0 87 -106q0 -74 -110.5 -226t-110.5 -185q0 -26 23 -26
q46 0 311 264q27 1 27 -20q0 -32 -144 -161q-146 -132 -196 -132z" />
    <glyph glyph-name="afii10090" unicode="&#x448;" horiz-adv-x="1122"
d="M92 340q-90 -93 -101 -93q-20 0 -20 16q0 28 266 296l170 9l-120 -181q-46 -60 -140 -184q-85 -114 -85 -140q0 -10 15 -10q92 0 502 512l169 16l-278 -403q-62 -90 -62 -115q0 -13 20 -15q59 -7 262 223q123 147 245 294l171 16l-288 -415q-55 -80 -55 -101
q0 -16 18 -17q62 -3 134 52q33 25 108 102q30 32 84 88q40 41 50 41q20 0 20 -17q0 -20 -115 -141q-164 -173 -289 -176q-90 -2 -90 103q0 57 33 130q-205 -233 -297 -233t-92 93q0 67 36 142q-223 -235 -301 -235t-78 124q0 74 108 219z" />
    <glyph glyph-name="afii10091" unicode="&#x449;" horiz-adv-x="1132"
d="M93 338q-91 -94 -102 -94q-20 0 -20 15q0 29 266 300l170 9l-120 -183q-11 -17 -139 -187q-86 -115 -86 -141q0 -15 13 -15q90 0 504 523l169 16l-278 -407q-62 -92 -62 -117q0 -13 19 -15q64 -4 264 225l244 298l171 16l-288 -420q-55 -81 -55 -102q0 -17 18 -17
q76 0 238 156q34 32 81 87q38 44 47 44q20 0 20 -18q0 -20 -115 -142q-36 -38 -64 -65q-40 -153 -62 -198q-48 -101 -146 -147q-80 -39 -160 -39q-81 0 -231.5 54t-229.5 54q-124 0 -197 -119l-47 18q180 193 313 193q89 0 249 -48q180 -54 211 -54q129 0 193 97
q13 20 41 133q-86 -57 -149 -57q-90 0 -90 104q0 58 33 131q-205 -235 -297 -235t-92 93q0 69 36 144q-223 -237 -301 -237t-78 125q0 73 109 222z" />
    <glyph glyph-name="afii10092" unicode="&#x44a;" horiz-adv-x="713"
d="M408 299l-6 -6q0 90 83 90q68 0 68 -63q0 -38 -23 -82q21 -12 42 -12q30 0 109 77q29 1 29 -20q0 -14 -26 -45q-48 -57 -122 -57q-31 0 -58 16q-50 -67 -127 -130q-95 -77 -156 -77q-123 0 -123 135q0 45 109 215.5t109 177.5q0 13 -8 13q-4 0 -83 -21
q-214 -261 -236 -261q-20 0 -20 16q0 15 67 91q40 56 126 163q-30 13 -30 64q0 52 26 108q34 70 86 70q71 0 71 -88q0 -36 -36 -97q25 7 37 7q84 0 84 -94q0 -55 -69 -175l-108 -176q-31 -55 -31 -73q0 -26 23 -26q58 0 116 50t68 106q4 23 4 75v24q3 0 4 -1q0 3 1 6z" />
    <glyph glyph-name="afii10093" unicode="&#x44b;" horiz-adv-x="890"
d="M309 291q0 89 83 89q46 0 61 -27q155 45 254 206l163 9l-260 -397q-52 -80 -52 -107q0 -26 22 -26q44 0 178 131t138 131q22 0 22 -17q0 -34 -140 -162q-145 -131 -200 -131q-106 0 -106 144q0 46 9 62l98 162q-56 -42 -121 -62q-21 -121 -207 -254q-73 -52 -123 -52
q-123 0 -123 134q0 71 100 225l-16 -17q-83 -85 -94 -85q-20 0 -20 16q0 28 266 296l170 9l-227 -343q-85 -129 -85 -161q0 -26 23 -26q58 0 116 49.5t68 106.5q4 22 4 73q0 24 -1 24z" />
    <glyph glyph-name="afii10094" unicode="&#x44c;" horiz-adv-x="589"
d="M308 291q0 89 83 89q68 0 68 -62q0 -38 -23 -82q21 -12 42 -12q33 0 61 29q40 42 49 47q28 1 28 -19q0 -14 -26 -45q-48 -57 -122 -57q-31 0 -58 16q-50 -67 -127 -129q-95 -76 -156 -76q-123 0 -123 134q0 71 101 227q-100 -104 -111 -104q-20 0 -20 16q0 28 266 296
l170 9l-227 -343q-85 -129 -85 -161q0 -26 23 -26q58 0 116 49.5t68 106.5q4 22 4 73q0 24 -1 24z" />
    <glyph glyph-name="afii10095" unicode="&#x44d;" horiz-adv-x="575"
d="M645 266q-89 -76 -151 -76q-15 0 -29 5q-109 -101 -167 -139q-103 -66 -206 -66q-143 0 -143 113q0 38 21 67q24 34 64 34q72 0 72 -61q0 -23 -35 -53l-12 -10q-17 -14 -17 -18q0 -25 33 -25q70 0 156 87q71 72 115 157l-189 3l18 49l193 -2q21 59 21 116q0 81 -60 81
q-38 0 -102 -56q-43 -42 -87 -85q-43 -46 -122 -119q-11 -1 -19 4t-7 15q1 27 161 178q118 113 208 113q148 0 148 -223q0 -63 -21 -116q52 -4 133 68q7 4 22 14q25 1 25 -18q0 -17 -23 -37z" />
    <glyph glyph-name="afii10096" unicode="&#x44e;" horiz-adv-x="1146"
d="M135 384q-131 -137 -144 -137q-20 0 -20 16q0 28 266 297l156 7l-138 -218q-10 -17 -31 -51h133q54 112 156 193q114 91 232 91q151 0 151 -153q0 -98 -104 -233q10 -3 15 -3q79 0 138 61.5t75 61.5q18 0 18 -21q0 -11 -27 -42q-94 -106 -217 -106q-20 0 -42 2
q-153 -159 -275 -159q-147 0 -147 203q0 30 9 60l-144 -1q-70 -106 -157 -240l-150 -9zM753 529q-99 0 -209 -165q-104 -154 -104 -262q0 -61 53 -61q102 0 210 151q103 141 103 247q0 47 -6 62q-10 28 -47 28z" />
    <glyph glyph-name="afii10097" unicode="&#x44f;" horiz-adv-x="796"
d="M488 -10q-108 0 -108 151q0 69 52 136q48 63 48 76q0 5 -1 9l-6 -1q-23 -32 -155 -175q-179 -196 -271 -196q-123 0 -123 135q0 109 90 218q16 1 26 1q91 0 91 -53q0 -22 -56.5 -116t-56.5 -110q0 -26 23 -26q44 0 171 116q104 97 179 188q-27 -7 -53 -7q-66 0 -111 40
q-48 42 -48 106q0 99 117 152q90 41 158 41q44 0 84 -19q49 -23 49 -61q0 -62 -85 -190q66 -15 66 -79q0 -44 -32 -109q-27 -52 -54 -103q-15 -32 -15 -49q0 -26 23 -26q46 0 311 263q27 1 27 -20q0 -32 -144 -161q-147 -131 -196 -131zM477 605q-60 0 -110 -57.5
t-50 -118.5q0 -40 52 -40q5 0 29 11q29 12 34 13q72 125 72 171q0 21 -27 21z" />
    <glyph glyph-name="afii10071" unicode="&#x451;" horiz-adv-x="575"
d="M567 637q-63 0 -63 67q0 36 24.5 65t61.5 29q62 0 62 -68q0 -35 -23 -63q-26 -30 -62 -30zM342 637q-63 0 -63 67q0 36 24.5 65t61.5 29q62 0 62 -68q0 -35 -23 -63q-26 -30 -62 -30zM23 265q-16 -15 -27 -15q-20 0 -20 17q0 18 83 105q199 211 381 211q123 0 123 -102
q0 -107 -158 -194q-111 -61 -255 -93q-9 -51 -9 -72q0 -83 72 -83q70 0 160 68q53 41 135 128q65 68 76 68q22 0 22 -19q0 -22 -107 -127q-169 -167 -296 -167q-90 0 -141 73q-43 63 -43 152q0 24 4 50zM449 539q-77 0 -166 -105q-71 -84 -115 -187q110 29 200 97
q107 80 107 165q0 30 -26 30z" />
    <glyph glyph-name="endash" unicode="&#x2013;"
d="M1003 262h-1004l52 70h1007z" />
    <glyph glyph-name="emdash" unicode="&#x2014;" horiz-adv-x="2048"
d="M2034 262h-2071l51 70h2071z" />
    <glyph glyph-name="quoteleft" unicode="&#x2018;" horiz-adv-x="418"
d="M561 1297q-12 -58 -24 -115q-20 -74 -72 -74q-72 0 -72 68q0 70 104 174q143 145 189 145q29 0 31 -26q-43 -41 -87 -81q-58 -55 -69 -91z" />
    <glyph glyph-name="quoteright" unicode="&#x2019;" horiz-adv-x="418"
d="M345 799q-145 -146 -189 -146q-32 0 -31 26l20 -1q-3 -6 -1 -6q11 0 59 61q69 89 78 118l22 114q20 75 74 75q71 0 71 -66q0 -73 -103 -175z" />
    <glyph glyph-name="quotesinglbase" unicode="&#x201a;" horiz-adv-x="418"
d="M136 -100q-142 -144 -189 -144q-28 0 -32 27q44 41 88 81q59 57 69 90q6 16 13 69q17 120 83 120q71 0 71 -68q0 -72 -103 -175z" />
    <glyph glyph-name="quotedblleft" unicode="&#x201c;" horiz-adv-x="649"
d="M792 1297q-6 -16 -13 -69q-17 -120 -83 -120q-69 0 -69 68q0 71 103 174q143 145 190 145q30 0 28 -27q-44 -41 -87 -81q-59 -57 -69 -90zM561 1297q-12 -58 -24 -115q-20 -74 -72 -74q-72 0 -72 68q0 70 104 174q143 145 189 145q29 0 31 -26q-43 -41 -87 -81
q-58 -55 -69 -91z" />
    <glyph glyph-name="quotedblright" unicode="&#x201d;" horiz-adv-x="649"
d="M802 1251q-142 -143 -190 -143q-30 0 -28 23l20 -1q-3 -6 -2 -6q12 0 59 61q70 90 79 119q4 11 9 47q21 142 87 142q69 0 69 -66q0 -73 -103 -176zM570 1251q-142 -143 -189 -143q-29 0 -31 26l88 80q56 52 68 89q7 18 14 71q17 119 82 119q72 0 72 -66q0 -72 -104 -176z
" />
    <glyph glyph-name="quotedblbase" unicode="&#x201e;" horiz-adv-x="649"
d="M394 -100q-142 -144 -189 -144q-31 0 -29 28l88 80q57 56 69 90q6 19 13 70q16 119 82 119q69 0 69 -68q0 -72 -103 -175zM163 -100q-142 -144 -190 -144q-30 0 -28 28q43 40 86 79q56 55 67 90l24 116q21 74 73 74q71 0 71 -68q0 -72 -103 -175z" />
    <glyph glyph-name="dagger" unicode="&#x2020;" horiz-adv-x="1147"
d="M1196 1002q-109 0 -284 53l-11 -130q-271 -426 -673 -1122l-55 17q296 536 436 821q80 163 129 279q2 7 10 23q22 27 92 106q-167 -47 -273 -47q-81 0 -81 62q0 68 120 68q87 0 273 -28q22 55 70 187q74 204 138 204q78 0 78 -60q0 -36 -94 -164q-63 -81 -127 -163l23 2
q198 24 241 24q88 0 88 -64q0 -68 -100 -68z" />
    <glyph glyph-name="daggerdbl" unicode="&#x2021;" horiz-adv-x="1147"
d="M1196 1002q-110 0 -287 54q-47 -107 -93 -214q-55 -127 -74 -220q-70 -66 -265 -375q176 50 279 50q81 0 81 -63q0 -70 -120 -70q-34 0 -273 30q-25 -64 -70 -187q-73 -204 -138 -204q-78 0 -78 61q0 36 94 163q64 82 127 164q-177 -27 -264 -27q-86 0 -86 64q0 69 98 69
q107 0 287 -55l96 214q52 126 73 222q157 185 266 374q-174 -50 -282 -50q-81 0 -81 62q0 68 120 68q88 0 273 -28q25 64 70 187q73 204 138 204q78 0 78 -60q0 -36 -94 -164q-63 -81 -127 -163l23 2q198 24 241 24q88 0 88 -64q0 -68 -100 -68z" />
    <glyph glyph-name="bullet" unicode="&#x2022;" horiz-adv-x="1208"
d="M602 465q-131 0 -218 85t-87 212t88 211t219 84q130 0 217.5 -84.5t87.5 -210.5t-88.5 -211.5t-218.5 -85.5z" />
    <glyph glyph-name="ellipsis" unicode="&#x2026;" horiz-adv-x="2048"
d="M295 -10q-70 0 -70 61q0 34 27.5 63t66.5 29q68 0 68 -61q0 -33 -27 -62.5t-65 -29.5zM977 -10q-70 0 -70 61q0 34 27.5 63t66.5 29q68 0 68 -61q0 -33 -27 -62.5t-65 -29.5zM1661 -10q-70 0 -70 61q0 34 27.5 63t66.5 29q68 0 68 -61q0 -33 -27 -62.5t-65 -29.5z" />
    <glyph glyph-name="perthousand" unicode="&#x2030;" horiz-adv-x="1659"
d="M1292 -12q-65 0 -104 50q-35 45 -35 108q0 125 99 238q103 119 229 119q118 0 118 -131q0 -117 -91 -245q-99 -139 -216 -139zM780 -12q-66 0 -105 49q-36 45 -36 109q0 126 100 239q103 118 230 118q118 0 118 -131q0 -117 -91 -245q-99 -139 -216 -139zM1109 981
l-26 12q64 3 64 -16q0 -20 -59 -79q-325 -319 -964 -967q-48 -50 -87 -50q-37 0 -37 23q0 18 69 84l867 837q-86 -36 -156 -36q-98 0 -155 41q-21 -123 -97 -227q-91 -125 -202 -125q-65 0 -105 50q-36 45 -36 109q0 125 99 237q102 117 228 117q65 0 108 -60q19 -30 66 -76
q31 -14 92 -14q85 0 282 113q20 10 49 27zM1485 447q-51 0 -129 -94q-119 -141 -119 -247q0 -66 55 -66q89 0 173 123q79 115 79 211q0 73 -59 73zM516 935q-55 0 -129 -91q-119 -145 -119 -249q0 -65 56 -65q89 0 172 123q78 114 78 209q0 73 -58 73zM973 447
q-51 0 -129 -94q-119 -141 -119 -247q0 -66 55 -66q89 0 172 123q78 115 78 211q0 73 -57 73z" />
    <glyph glyph-name="guilsinglleft" unicode="&#x2039;" horiz-adv-x="436"
d="M439 471l-216 -178q24 -71 69 -213q3 -9 3 -14q0 -31 -27 -31q-24 0 -41 34l-121 242l291 208q23 16 37 16q31 0 31 -28q0 -15 -26 -36z" />
    <glyph glyph-name="guilsinglright" unicode="&#x203a;" horiz-adv-x="436"
d="M35 50q-22 -15 -37 -15q-31 0 -31 27q0 15 19 31l8 6l215 177q-22 70 -69 212q-3 9 -3 15q0 32 27 32q25 0 42 -35l120 -242z" />
    <glyph glyph-name="fraction" unicode="&#x2044;" horiz-adv-x="342"
d="M-291 -27h-83l1007 1018h81z" />
    <glyph glyph-name="franc" unicode="&#x20a3;" horiz-adv-x="2638"
d="M2052 1267q-27 0 -74 -23q-166 -79 -325 -371q59 -12 106 -28q120 34 241 117q32 22 40 22q20 0 20 -22q0 -57 -233 -150q159 -94 159 -268q0 -153 -126 -261q-120 -104 -275 -104q-137 0 -330 119q-310 -321 -645 -321q-220 0 -358 149q-133 144 -133 362q0 103 32 190
q44 124 134 124q83 0 83 -85q0 -37 -22 -69q-26 -35 -65 -35q-9 0 -27 2t-27 2q-53 0 -53 -98q0 -186 178 -314q163 -116 361 -116q276 0 498 243q-373 327 -373 744q0 190 95 300q102 117 292 117q101 0 368 -80.5t419 -81.5q131 95 218 95q72 0 72 -58q0 -103 -250 -101z
M1802 1249q-111 0 -328.5 43.5t-328.5 43.5q-258 0 -258 -260q0 -181 122 -366q107 -163 275 -286q119 156 188 296q-147 9 -147 80q0 91 180 91q11 0 30.5 -2.5t27.5 -3.5q164 276 330 367q-54 -3 -91 -3zM1747 773q-33 0 -91 -20q-65 -23 -91 -27q-111 -199 -229 -336
q163 -91 300 -91q128 0 209 61q89 67 89 187q0 82 -53 152q-56 74 -134 74zM2632 465q-23 -19 -68 -51q-113 -82 -113 -163q0 -43 41 -43q62 0 152 95q26 -3 26 -20q0 -39 -69 -81q-63 -40 -104 -40q-96 0 -96 87q0 23 14 64q-106 -91 -276 -299l-168 -16l286 413
q55 80 55 101q0 17 -18 17q-50 0 -190 -141.5t-146 -141.5q-20 0 -20 17q0 20 115 141q167 176 249 176q90 0 90 -95q0 -72 -65 -191q60 56 125 109q33 84 59 118q46 59 117 59q57 0 57 -45q0 -24 -53 -70z" />
    <glyph glyph-name="afii61352" unicode="&#x2116;" horiz-adv-x="3016"
d="M2660 545q-66 0 -105 50q-36 44 -36 109q0 126 100 240q103 118 230 118q118 0 118 -131q0 -118 -91 -246q-99 -140 -216 -140zM2810 364h-500l34 59h500zM2776 271h-500l34 59h500zM2862 1246q-66 -22 -171 -39q-434 -303 -678 -826q-18 -38 -40 -122
q-20 -275 -118 -275q-46 0 -46 54q0 78 118 286q15 91 15 179q0 310 -153 576q-481 -1079 -1171 -1079q-237 0 -368 118q-137 123 -137 354q0 101 28 185q40 118 121 118q76 0 76 -85q0 -56 -89 -91t-89 -113q0 -173 191 -293q170 -106 360 -106q353 0 655 368
q233 283 376 694q-203 243 -470 243q-199 0 -320 -123.5t-121 -321.5q0 -138 78 -237q84 -108 217 -108q139 0 239 167q20 41 58 99q27 1 27 -20q0 -44 -72 -139q-140 -184 -344 -184q-149 0 -240 101q-87 96 -87 244q0 255 211 432q200 168 462 168q236 0 412 -156
q26 154 61 154q41 0 41 -37q0 -38 -48 -173q165 -232 165 -545q0 -138 -21 -276q200 455 557 754q-85 -9 -120 -9q-141 0 -178 12q-18 6 -18 18q0 22 28 22q2 0 19 -2q67 -8 124 -8q83 0 219 23q187 177 295 177q78 0 78 -68q0 -66 -132 -110zM2853 1006q-51 0 -129 -94
q-119 -142 -119 -248q0 -66 55 -66q89 0 172 124q78 115 78 211q0 73 -57 73z" />
    <glyph glyph-name="trademark" unicode="&#x2122;" horiz-adv-x="1683"
d="M1198 903v43q52 0 63 5q17 7 17 39v338l-169 -429h-22l-157 423v-332q0 -41 38 -43q7 -1 41 -1v-43h-218v41q52 0 63 6q17 7 17 40v353q0 42 -38 45q-8 1 -42 1v43h187l138 -381l151 381h179v-43q-52 0 -63 -5q-17 -8 -17 -39v-355q0 -41 39 -43q6 -1 41 -1v-43h-248z
M679 1244q-8 80 -41 112.5t-106 33.5v-400q0 -41 39 -43q6 -1 41 -1v-43h-262v43q54 0 64 5q18 7 18 39v401h-12q-120 0 -135 -147h-42l12 188h454l13 -188h-43z" />
    <glyph glyph-name="partialdiff" unicode="&#x2202;"
d="M444 -27q-160 0 -245 122q-74 105 -74 267q0 168 99 291q108 133 276 133q178 0 246 -166q16 119 16 259q0 339 -144 339q-21 0 -95 -72.5t-113 -72.5q-78 0 -78 74t78 117q65 36 141 36q195 0 288 -194q70 -145 70 -356q0 -269 -97 -488q-127 -289 -368 -289zM528 704
q-135 0 -203 -157q-51 -120 -51 -281q0 -229 175 -229q129 0 199 153q55 120 55 272q0 242 -175 242z" />
    <glyph glyph-name="product" unicode="&#x220f;" horiz-adv-x="1538"
d="M973 -393v82h207v1701h-822v-1701h207v-82h-514v82h187v1701h-187v83h1436v-83h-187v-1701h187v-82h-514z" />
    <glyph glyph-name="summation" unicode="&#x2211;" horiz-adv-x="1384"
d="M1256 -393h-1254v24l1013 859l-1017 926v57h1108l85 -321h-89l-57 215q-6 23 -39 23h-798l935 -856v-44l-897 -766h875q48 0 65 8q21 11 33 50l74 234h88z" />
    <glyph glyph-name="minus" unicode="&#x2212;" horiz-adv-x="1706"
d="M244 569v82h1218v-82h-1218z" />
    <glyph glyph-name="periodcentered" unicode="&#x2219;" horiz-adv-x="418"
d="M272 416q-85 0 -85 73q0 76 85 76q35 0 59.5 -22.5t24.5 -53.5q0 -73 -84 -73z" />
    <glyph glyph-name="radical" unicode="&#x221a;" horiz-adv-x="1264"
d="M1142 1546l-596 -1587h-45l-329 894l-111 -39l-20 68l248 85l272 -734l524 1393h189v-80h-132z" />
    <glyph glyph-name="infinity" unicode="&#x221e;" horiz-adv-x="1706"
d="M1178 244q-176 0 -308 247q-135 -247 -321 -247q-149 0 -239 116q-82 104 -82 252q0 150 69 251q81 118 231 118q189 0 308 -248q130 254 323 254q149 0 239 -118q80 -105 80 -253q0 -150 -69 -252q-82 -120 -231 -120zM1198 886q-156 0 -298 -327q104 -190 276 -190
q108 0 173 78q62 73 62 182q0 105 -53 177q-59 80 -160 80zM532 857q-108 0 -174 -77q-61 -72 -61 -182q0 -103 54 -175q59 -80 159 -80q103 0 189 118q47 65 109 207q-101 189 -276 189z" />
    <glyph glyph-name="integral" unicode="&#x222b;" horiz-adv-x="948"
d="M658 1432q-77 -20 -98 -376q-2 -29 -2 -168l-1 -282q0 -382 -42 -584q-83 -393 -322 -393q-61 0 -106 31q-52 36 -52 97q0 115 115 115q60 0 85 -33q10 -12 37 -82q5 -14 11 -14q82 0 105 380q2 28 2 169l1 286q0 373 44 579q84 389 321 389q65 0 108 -33q49 -36 49 -101
q0 -106 -112 -106q-48 0 -124 97q-13 17 -19 29z" />
    </font>
</defs>
</svg>
