<svg width="108" height="60" viewBox="0 0 108 60" fill="none" xmlns="http://www.w3.org/2000/svg">
<path d="M47.2793 24.7627C44.8281 27.165 42.9385 28.3662 41.6104 28.3662C41.0146 28.3662 40.5117 28.1172 40.1016 27.6191C39.6914 27.1113 39.4863 26.4863 39.4863 25.7441C39.4863 24.3672 40.2236 22.5215 41.6982 20.207C40.9756 20.5781 40.1846 20.8369 39.3252 20.9834C38.6904 22.1553 37.6943 23.415 36.3369 24.7627H36V23.4443C36.7617 22.6533 37.4502 21.8037 38.0654 20.8955C37.2256 20.5244 36.8057 19.9727 36.8057 19.2402C36.8057 18.4883 37.0596 17.6875 37.5674 16.8379C38.085 15.9785 38.793 15.5488 39.6914 15.5488C40.4531 15.5488 40.834 15.9395 40.834 16.7207C40.834 17.3359 40.6143 18.2148 40.1748 19.3574C41.7959 19.1816 43.2119 17.9414 44.4229 15.6367L45.7559 15.5781L44.3936 19.3281C43.8271 20.9102 43.4609 21.9893 43.2949 22.5654C43.1289 23.1318 43.0459 23.6348 43.0459 24.0742C43.0459 24.4844 43.1387 24.8115 43.3242 25.0557C43.5195 25.2998 43.7783 25.4219 44.1006 25.4219C44.4521 25.4219 44.7891 25.3047 45.1113 25.0703C45.4336 24.8262 46.1562 24.1621 47.2793 23.0781V24.7627ZM58.2363 24.7627C56.9961 25.9834 55.8828 26.8867 54.8965 27.4727C53.9102 28.0488 52.8213 28.3369 51.6299 28.3369C50.3018 28.3369 49.2275 27.9121 48.4072 27.0625C47.5967 26.2129 47.1914 25.0947 47.1914 23.708C47.1914 21.6377 47.9092 19.7676 49.3447 18.0977C50.7803 16.418 52.3721 15.5781 54.1201 15.5781C55.0283 15.5781 55.7559 15.8125 56.3027 16.2812C56.8496 16.75 57.123 17.3652 57.123 18.127C57.123 20.1484 54.9746 21.7891 50.6777 23.0488C51.0684 24.9531 52.0889 25.9053 53.7393 25.9053C54.3838 25.9053 54.999 25.7344 55.585 25.3926C56.1709 25.041 57.0547 24.2695 58.2363 23.0781V24.7627ZM50.5605 22.0527C53.0605 21.3496 54.3105 20.0508 54.3105 18.1562C54.3105 17.2188 53.9688 16.75 53.2852 16.75C52.6406 16.75 52.0254 17.2432 51.4395 18.2295C50.8535 19.2061 50.5605 20.4805 50.5605 22.0527ZM69.1934 24.7627C67.9531 25.9834 66.8398 26.8867 65.8535 27.4727C64.8672 28.0488 63.7783 28.3369 62.5869 28.3369C61.2588 28.3369 60.1846 27.9121 59.3643 27.0625C58.5537 26.2129 58.1484 25.0947 58.1484 23.708C58.1484 21.6377 58.8662 19.7676 60.3018 18.0977C61.7373 16.418 63.3291 15.5781 65.0771 15.5781C65.9854 15.5781 66.7129 15.8125 67.2598 16.2812C67.8066 16.75 68.0801 17.3652 68.0801 18.127C68.0801 20.1484 65.9316 21.7891 61.6348 23.0488C62.0254 24.9531 63.0459 25.9053 64.6963 25.9053C65.3408 25.9053 65.9561 25.7344 66.542 25.3926C67.1279 25.041 68.0117 24.2695 69.1934 23.0781V24.7627ZM61.5176 22.0527C64.0176 21.3496 65.2676 20.0508 65.2676 18.1562C65.2676 17.2188 64.9258 16.75 64.2422 16.75C63.5977 16.75 62.9824 17.2432 62.3965 18.2295C61.8105 19.2061 61.5176 20.4805 61.5176 22.0527ZM83.5781 24.7627C81.3223 27.1455 79.3887 28.3369 77.7773 28.3369C77.123 28.3369 76.5957 28.1074 76.1953 27.6484C75.7949 27.1895 75.5947 26.5742 75.5947 25.8027C75.5947 24.7578 76.0244 23.1611 76.8838 21.0127C77.3428 19.8604 77.5723 19.1279 77.5723 18.8154C77.5723 18.5029 77.4502 18.3467 77.2061 18.3467C77.0693 18.3467 76.8887 18.415 76.6641 18.5518C76.459 18.6885 76.2197 18.8789 75.9463 19.123C75.7021 19.3477 75.4287 19.6211 75.126 19.9434C74.8623 20.2168 74.5791 20.5293 74.2764 20.8809L73.4561 21.833C73.0947 22.2725 72.8701 22.7363 72.7822 23.2246C72.6357 24.0547 72.5381 24.8164 72.4893 25.5098C72.46 26.0273 72.4453 26.7256 72.4453 27.6045L69.208 28.3662C69.1006 27.0479 69.0469 26.0664 69.0469 25.4219C69.0469 23.8496 69.2275 22.3604 69.5889 20.9541C69.96 19.5479 70.5508 17.9658 71.3613 16.208L74.9355 15.5195C74.1836 17.541 73.6904 19.1328 73.4561 20.2949C75.0576 18.5078 76.3271 17.2725 77.2646 16.5889C78.2119 15.8955 79.0518 15.5488 79.7842 15.5488C80.2822 15.5488 80.6973 15.7393 81.0293 16.1201C81.3613 16.4912 81.5273 16.96 81.5273 17.5264C81.5273 18.4639 81.1074 20.0068 80.2676 22.1553C79.6914 23.6299 79.4033 24.5869 79.4033 25.0264C79.4033 25.6123 79.6426 25.9053 80.1211 25.9053C80.834 25.9053 81.9863 24.9629 83.5781 23.0781V24.7627ZM51.9668 41.7627C50.7266 42.9639 48.7441 44.1943 46.0195 45.4541C45.1113 48.0322 44.0908 49.8535 42.958 50.918C41.8252 51.9922 40.6436 52.5293 39.4131 52.5293C38.7881 52.5293 38.2852 52.3389 37.9043 51.958C37.5332 51.5771 37.3477 51.0693 37.3477 50.4346C37.3477 48.5107 39.1104 46.7676 42.6357 45.2051L43.5293 42.0557C41.6836 44.1162 40.0625 45.1465 38.666 45.1465C37.9141 45.1465 37.3037 44.8389 36.835 44.2236C36.376 43.6084 36.1465 42.7881 36.1465 41.7627C36.1465 40.2881 36.4688 38.7061 37.1133 37.0166L38.5195 33.2959L42.7822 32.5488L40.9512 36.8994C40.1113 38.999 39.6914 40.5811 39.6914 41.6455C39.6914 42.5244 39.9893 42.9639 40.585 42.9639C41.1904 42.9639 41.8789 42.4756 42.6504 41.499C43.4316 40.5225 44.0859 39.3213 44.6133 37.8955L46.2832 33.2959L50.2822 32.5488L46.4736 44.0039C48.71 42.9785 50.541 41.6699 51.9668 40.0781V41.7627ZM42.2109 46.6553C41.0098 47.1924 40.082 47.793 39.4277 48.457C38.7832 49.1309 38.4609 49.79 38.4609 50.4346C38.4609 51.0889 38.7393 51.416 39.2959 51.416C40.3799 51.416 41.3516 49.8291 42.2109 46.6553ZM67.6113 41.7627C66.3223 42.9834 65.2432 43.8867 64.374 44.4727C63.5049 45.0488 62.7236 45.3369 62.0303 45.3369C61.2588 45.3369 60.6631 45.0293 60.2432 44.4141C59.833 43.7988 59.6279 42.9639 59.6279 41.9092C58.5537 43.0908 57.5918 43.9648 56.7422 44.5312C55.8926 45.0879 55.0625 45.3662 54.252 45.3662C53.5098 45.3662 52.9141 45.0586 52.4648 44.4434C52.0156 43.8281 51.791 42.9932 51.791 41.9385C51.791 39.9072 52.4746 37.0459 53.8418 33.3545L57.7383 32.5781C56.1367 37.2559 55.3359 40.2588 55.3359 41.5869C55.3359 42.5244 55.6875 42.9932 56.3906 42.9932C56.8984 42.9932 57.5283 42.583 58.2803 41.7627C59.0322 40.9326 59.501 40.21 59.6865 39.5947L61.6055 33.3545L65.5898 32.5488C64.6719 35.4883 64.042 37.5537 63.7002 38.7451C63.3584 39.9365 63.1875 40.7715 63.1875 41.25C63.1875 42.168 63.5 42.627 64.125 42.627C64.6328 42.627 65.3848 42.1631 66.3809 41.2354L67.6113 40.0781V41.7627ZM89.1885 41.7627C87.9678 42.9541 86.9229 43.8477 86.0537 44.4434C85.1846 45.0391 84.3398 45.3369 83.5195 45.3369C82.875 45.3369 82.3623 45.1172 81.9814 44.6777C81.6104 44.2285 81.4248 43.6279 81.4248 42.876C81.4248 41.8213 81.6885 40.4834 82.2158 38.8623C82.7432 37.2412 83.0068 36.2549 83.0068 35.9033C83.0068 35.5908 82.8457 35.4346 82.5234 35.4346C82.4258 35.4346 82.3086 35.4688 82.1719 35.5371C82.0254 35.6055 81.8594 35.7031 81.6738 35.8301C81.4883 35.9668 81.2881 36.1328 81.0732 36.3281C80.8584 36.5234 80.6338 36.748 80.3994 37.002C80.1455 37.2559 79.8916 37.5342 79.6377 37.8369C79.208 38.3447 78.9541 38.7695 78.876 39.1113L78.3926 41.2061L77.5137 44.6631L73.793 45.3369L75.2139 39.3018C75.3213 38.8623 75.4482 38.2178 75.5947 37.3682C75.7412 36.5186 75.8145 36.0107 75.8145 35.8447C75.8145 35.5127 75.7021 35.3467 75.4775 35.3467C75.4092 35.3467 75.3115 35.3809 75.1846 35.4492C75.0381 35.5176 74.8721 35.6201 74.6865 35.7568C74.4717 35.9131 74.2422 36.0986 73.998 36.3135C73.7344 36.5479 73.4512 36.8164 73.1484 37.1191C72.8262 37.4414 72.4941 37.7979 72.1523 38.1885C71.6836 38.7158 71.3906 39.3311 71.2734 40.0342C71.1172 40.874 71.0098 41.626 70.9512 42.29C70.8828 42.9541 70.8438 43.6963 70.834 44.5166L67.582 45.293C67.5039 44.1699 67.4648 43.2324 67.4648 42.4805C67.4648 40.6934 67.6504 39.1406 68.0215 37.8223C68.3926 36.4941 68.998 34.9463 69.8379 33.1787L73.3828 32.4902C72.748 34.082 72.2549 35.6201 71.9033 37.1045C74.5303 34.0479 76.542 32.5195 77.9385 32.5195C78.4463 32.5195 78.8564 32.7295 79.1689 33.1494C79.4912 33.5596 79.6523 34.1016 79.6523 34.7754C79.6523 35.0879 79.6035 35.6641 79.5059 36.5039C81.1562 34.8535 82.3379 33.7793 83.0508 33.2812C83.7734 32.7734 84.4375 32.5195 85.043 32.5195C85.5801 32.5195 86.0195 32.7344 86.3613 33.1641C86.7031 33.5938 86.874 34.1406 86.874 34.8047C86.874 35.8496 86.5859 37.1924 86.0098 38.833C85.4336 40.4736 85.1455 41.5576 85.1455 42.085C85.1455 42.6318 85.3457 42.9053 85.7461 42.9053C86 42.9053 86.3516 42.7393 86.8008 42.4072C87.2598 42.0654 88.0557 41.2891 89.1885 40.0781V41.7627ZM100.16 41.7627C97.709 44.165 95.8193 45.3662 94.4912 45.3662C93.8955 45.3662 93.3926 45.1172 92.9824 44.6191C92.5723 44.1113 92.3672 43.4863 92.3672 42.7441C92.3672 41.3672 93.1045 39.5215 94.5791 37.207C93.8564 37.5781 93.0654 37.8369 92.2061 37.9834C91.5713 39.1553 90.5752 40.415 89.2178 41.7627H88.8809V40.4443C89.6426 39.6533 90.3311 38.8037 90.9463 37.8955C90.1064 37.5244 89.6865 36.9727 89.6865 36.2402C89.6865 35.4883 89.9404 34.6875 90.4482 33.8379C90.9658 32.9785 91.6738 32.5488 92.5723 32.5488C93.334 32.5488 93.7148 32.9395 93.7148 33.7207C93.7148 34.3359 93.4951 35.2148 93.0557 36.3574C94.6768 36.1816 96.0928 34.9414 97.3037 32.6367L98.6367 32.5781L97.2744 36.3281C96.708 37.9102 96.3418 38.9893 96.1758 39.5654C96.0098 40.1318 95.9268 40.6348 95.9268 41.0742C95.9268 41.4844 96.0195 41.8115 96.2051 42.0557C96.4004 42.2998 96.6592 42.4219 96.9814 42.4219C97.333 42.4219 97.6699 42.3047 97.9922 42.0703C98.3145 41.8262 99.0371 41.1621 100.16 40.0781V41.7627ZM107.074 26.8506C107.074 29.1943 106.21 30.3662 104.481 30.3662C103.642 30.3662 102.924 30.1123 102.328 29.6045C102.895 28.7451 103.334 27.7783 103.646 26.7041C104.418 27.1826 105.038 27.4219 105.507 27.4219C106.034 27.4219 106.557 27.2314 107.074 26.8506ZM107.367 41.7627C105.082 44.165 103.373 45.3662 102.24 45.3662C101.615 45.3662 101.088 45.0488 100.658 44.4141C100.229 43.7695 100.014 42.9639 100.014 41.9971C100.014 39.917 100.717 37.0361 102.123 33.3545L105.844 32.5781H106.02L104.555 37.1631C103.949 39.0576 103.646 40.4102 103.646 41.2207C103.646 41.543 103.715 41.8066 103.852 42.0117C103.998 42.207 104.179 42.3047 104.394 42.3047C104.774 42.3047 105.155 42.168 105.536 41.8945C105.927 41.6113 106.537 41.0059 107.367 40.0781V41.7627Z" fill="#FFF4DF"/>
<path d="M35.5298 40.0649C34.3123 41.4793 31.9849 43.0728 28.5474 44.8452C27.8312 49.6076 26.2467 53.2868 23.7939 55.8828C21.3411 58.4967 18.584 59.8037 15.5225 59.8037C14.0544 59.8037 12.8996 59.4635 12.0581 58.7832C11.2345 58.1029 10.8228 57.1629 10.8228 55.9634C10.8228 52.6333 14.0544 49.4017 20.5176 46.2686C21.1979 43.8516 21.8604 41.6763 22.5049 39.7427C21.377 41.3719 19.7388 42.8132 17.5903 44.0664C15.4419 45.3197 13.4456 45.9463 11.6016 45.9463C8.59375 45.9463 6.08724 44.6483 4.08203 42.0522C2.09473 39.4383 1.10107 36.1351 1.10107 32.1426C1.10107 27.9352 2.229 23.9517 4.48486 20.1919C6.74072 16.4142 9.70378 13.3975 13.374 11.1416C17.0443 8.86784 20.5981 7.73096 24.0356 7.73096C27.1151 7.73096 29.6126 8.60824 31.5283 10.3628C33.4619 12.1174 34.4287 14.3911 34.4287 17.1841C34.4287 20.1919 33.3455 22.8416 31.1792 25.1333C29.0129 27.425 26.5243 28.5708 23.7134 28.5708C22.0662 28.5708 20.6966 28.168 19.6045 27.3623C18.5303 26.5566 17.9932 25.563 17.9932 24.3813C17.9932 23.6652 18.1991 23.0296 18.6108 22.4746C19.0405 21.9196 19.5329 21.6421 20.0879 21.6421C20.625 21.6421 20.8936 21.9554 20.8936 22.582C20.8936 23.137 21.0994 23.5667 21.5112 23.8711C21.923 24.1755 22.3975 24.3276 22.9346 24.3276C24.3669 24.3276 25.7365 23.3519 27.0435 21.4004C28.3683 19.431 29.0308 17.3273 29.0308 15.0894C29.0308 13.5138 28.5205 12.2337 27.5 11.249C26.4795 10.2464 25.1636 9.74512 23.5522 9.74512C21.1353 9.74512 18.7899 10.8193 16.5161 12.9678C14.2603 15.1162 12.4162 17.945 10.9839 21.4541C9.5695 24.9453 8.8623 28.2664 8.8623 31.4175C8.8623 34.3179 9.48893 36.6274 10.7422 38.3462C11.9954 40.047 13.6605 40.8975 15.7373 40.8975C19.2464 40.8975 22.6034 38.4178 25.8081 33.4585L30.8569 32.7334C31.4836 32.6439 31.7969 32.7961 31.7969 33.1899C31.7969 33.369 31.5552 34.1388 31.0718 35.4995C30.5884 36.8602 29.9259 39.134 29.0845 42.3208C31.8595 40.7095 34.008 38.9281 35.5298 36.9766V40.0649ZM19.8999 48.981C15.245 51.3084 12.9175 53.6001 12.9175 55.856C12.9175 57.0555 13.4904 57.6553 14.6362 57.6553C16.8921 57.6553 18.6466 54.7638 19.8999 48.981Z" fill="#FFF4DF"/>
</svg>
