<svg width="13" height="21" viewBox="0 0 13 21" fill="none" xmlns="http://www.w3.org/2000/svg">
<path d="M0.974145 10.6856C0.974145 11.1565 1.14643 11.547 1.51399 11.9146L10.3582 20.5635C10.6569 20.8622 11.0129 21 11.4379 21C12.2994 21 13 20.3223 13 19.4609C13 19.0359 12.8162 18.6454 12.5061 18.3352L4.64967 10.697L12.5061 3.03588C12.8162 2.72576 13 2.34672 13 1.91025C13 1.0488 12.2994 0.359636 11.4379 0.359636C11.0129 0.359636 10.6569 0.508955 10.3582 0.80759L1.51399 9.45656C1.13495 9.82411 0.974145 10.2146 0.974145 10.6856Z" fill="#EDEDED"/>
</svg>
