<svg width="13" height="21" viewBox="0 0 13 21" fill="none" xmlns="http://www.w3.org/2000/svg">
<path d="M12.0259 10.3144C12.0259 9.84351 11.8536 9.45299 11.486 9.08543L2.64178 0.436468C2.34315 0.137832 1.98708 0 1.5621 0C0.700647 0 0 0.677675 0 1.53913C0 1.96411 0.183776 2.35463 0.493899 2.66475L8.35033 10.303L0.493899 17.9641C0.183776 18.2742 0 18.6533 0 19.0898C0 19.9512 0.700647 20.6404 1.5621 20.6404C1.98708 20.6404 2.34315 20.491 2.64178 20.1924L11.486 11.5434C11.8651 11.1759 12.0259 10.7854 12.0259 10.3144Z" fill="#EDEDED"/>
</svg>
