<svg width="27" height="27" viewBox="0 0 27 27" fill="none" xmlns="http://www.w3.org/2000/svg">
<path d="M12.5 23.625C11.1067 23.625 9.79422 23.3585 8.5625 22.8256C7.33077 22.2927 6.25806 21.5694 5.34435 20.6556C4.43065 19.7419 3.70733 18.6692 3.1744 17.4375C2.64147 16.2058 2.375 14.8933 2.375 13.5C2.375 12.1024 2.64147 10.7888 3.1744 9.55927C3.70733 8.3297 4.43065 7.25806 5.34435 6.34435C6.25806 5.43065 7.33077 4.70733 8.5625 4.1744C9.79422 3.64146 11.1067 3.375 12.5 3.375C13.8976 3.375 15.2112 3.64146 16.4407 4.1744C17.6703 4.70733 18.7419 5.43065 19.6556 6.34435C20.5694 7.25806 21.2927 8.3297 21.8256 9.55927C22.3585 10.7888 22.625 12.1024 22.625 13.5C22.625 14.8933 22.3585 16.2058 21.8256 17.4375C21.2927 18.6692 20.5694 19.7419 19.6556 20.6556C18.7419 21.5694 17.6703 22.2927 16.4407 22.8256C15.2112 23.3585 13.8976 23.625 12.5 23.625ZM12.5 22.5087C13.1606 21.6606 13.7051 20.8277 14.1334 20.0099C14.5618 19.1921 14.9101 18.2769 15.1784 17.2644H9.82163C10.1187 18.3346 10.4743 19.2786 10.8882 20.0964C11.3022 20.9142 11.8394 21.7183 12.5 22.5087ZM11.0678 22.3399C10.5428 21.7212 10.0636 20.9564 9.63015 20.0456C9.19675 19.1347 8.87403 18.2077 8.66201 17.2644H4.34808C4.9928 18.6635 5.90686 19.8108 7.09027 20.7065C8.27367 21.6022 9.59952 22.1466 11.0678 22.3399ZM13.9322 22.3399C15.4005 22.1466 16.7263 21.6022 17.9097 20.7065C19.0931 19.8108 20.0072 18.6635 20.6519 17.2644H16.338C16.0539 18.2221 15.6951 19.1564 15.2617 20.0672C14.8283 20.978 14.3851 21.7356 13.9322 22.3399ZM3.88942 16.1394H8.42837C8.34327 15.6779 8.28305 15.2283 8.24773 14.7905C8.21238 14.3528 8.19471 13.9226 8.19471 13.5C8.19471 13.0774 8.21238 12.6472 8.24773 12.2095C8.28305 11.7717 8.34327 11.3221 8.42837 10.8606H3.88942C3.76683 11.25 3.67128 11.6744 3.60277 12.1338C3.53426 12.5931 3.5 13.0486 3.5 13.5C3.5 13.9514 3.53426 14.4069 3.60277 14.8662C3.67128 15.3256 3.76683 15.75 3.88942 16.1394ZM9.55337 16.1394H15.4466C15.5317 15.6779 15.592 15.2355 15.6273 14.8121C15.6626 14.3888 15.6803 13.9514 15.6803 13.5C15.6803 13.0486 15.6626 12.6112 15.6273 12.1879C15.592 11.7645 15.5317 11.3221 15.4466 10.8606H9.55337C9.46827 11.3221 9.40805 11.7645 9.37273 12.1879C9.33738 12.6112 9.31971 13.0486 9.31971 13.5C9.31971 13.9514 9.33738 14.3888 9.37273 14.8121C9.40805 15.2355 9.46827 15.6779 9.55337 16.1394ZM16.5716 16.1394H21.1106C21.2332 15.75 21.3287 15.3256 21.3972 14.8662C21.4657 14.4069 21.5 13.9514 21.5 13.5C21.5 13.0486 21.4657 12.5931 21.3972 12.1338C21.3287 11.6744 21.2332 11.25 21.1106 10.8606H16.5716C16.6567 11.3221 16.717 11.7717 16.7523 12.2095C16.7876 12.6472 16.8053 13.0774 16.8053 13.5C16.8053 13.9226 16.7876 14.3528 16.7523 14.7905C16.717 15.2283 16.6567 15.6779 16.5716 16.1394ZM16.338 9.73558H20.6519C19.9928 8.30769 19.0895 7.16033 17.9422 6.2935C16.7948 5.42669 15.4582 4.87501 13.9322 4.63846C14.4572 5.32932 14.9292 6.11934 15.3482 7.00853C15.7672 7.89771 16.0971 8.80672 16.338 9.73558ZM9.82163 9.73558H15.1784C14.8813 8.67981 14.5149 7.725 14.0793 6.87116C13.6437 6.01731 13.1173 5.22403 12.5 4.49134C11.8827 5.22403 11.3562 6.01731 10.9207 6.87116C10.4851 7.725 10.1187 8.67981 9.82163 9.73558ZM4.34808 9.73558H8.66201C8.90287 8.80672 9.2328 7.89771 9.65181 7.00853C10.0708 6.11934 10.5428 5.32932 11.0678 4.63846C9.5274 4.87501 8.18713 5.4303 7.04698 6.30433C5.90685 7.17836 5.00722 8.32211 4.34808 9.73558Z" fill="white"/>
</svg>
