<svg width="10" height="11" viewBox="0 0 10 11" fill="none" xmlns="http://www.w3.org/2000/svg">
<path id="Vector" d="M1.85672 9.37026C0.848772 8.36231 0.344796 7.15276 0.344796 5.74163C0.344796 4.3305 0.848772 3.12095 1.85672 2.113C2.86468 1.10505 4.07422 0.601074 5.48535 0.601074C6.89648 0.601074 8.10603 1.10505 9.11398 2.113C9.20805 2.20708 9.29709 2.30283 9.38109 2.40027C9.46508 2.4977 9.54404 2.59682 9.61796 2.69761C9.14758 2.61698 8.67384 2.65058 8.19674 2.79841C7.71965 2.94624 7.29967 3.20159 6.9368 3.56445C6.33203 4.16922 6.02965 4.89495 6.02965 5.74163C6.02965 6.58831 6.33203 7.31404 6.9368 7.91881C7.30638 8.28839 7.72805 8.54542 8.20178 8.68989C8.67552 8.83436 9.14758 8.86628 9.61795 8.78565C9.54404 8.88644 9.46508 8.98556 9.38109 9.08299C9.29709 9.18043 9.20805 9.27618 9.11398 9.37026C8.10603 10.3782 6.89648 10.8822 5.48535 10.8822C4.07422 10.8822 2.86468 10.3782 1.85672 9.37026ZM2.66309 8.5639C3.25442 9.15523 3.94822 9.52313 4.74451 9.6676C5.54079 9.81208 6.30851 9.72976 7.04768 9.42066C6.87969 9.31986 6.71841 9.21234 6.56386 9.09811C6.40931 8.98388 6.26483 8.85956 6.13044 8.72517C5.30392 7.89865 4.89066 6.90413 4.89066 5.74163C4.89066 4.57913 5.30392 3.58461 6.13044 2.75809C6.26483 2.6237 6.40931 2.49938 6.56386 2.38515C6.71841 2.27091 6.87969 2.1634 7.04768 2.0626C6.30851 1.7535 5.54079 1.67118 4.74451 1.81566C3.94822 1.96013 3.25442 2.32803 2.66309 2.91936C1.8836 3.69885 1.49386 4.6396 1.49386 5.74163C1.49386 6.84366 1.8836 7.78441 2.66309 8.5639Z" fill="#221607"/>
</svg>
