<svg width="16" height="16" viewBox="0 0 16 16" fill="none" xmlns="http://www.w3.org/2000/svg">
<g id="light_mode_FILL0_wght400_GRAD0_opsz24 1" clip-path="url(#clip0_1670_623)">
<path id="Vector" d="M9.19585 9.60469C9.64117 9.27252 9.90344 8.83433 9.98265 8.29009C10.0619 7.74585 9.93539 7.25107 9.60323 6.80575C9.27107 6.36043 8.83287 6.09816 8.28863 6.01895C7.74439 5.93974 7.24961 6.06621 6.80429 6.39837C6.35897 6.73053 6.0967 7.16873 6.01749 7.71297C5.93828 8.25721 6.06475 8.75199 6.39691 9.19731C6.72908 9.64263 7.16728 9.9049 7.71151 9.98411C8.25575 10.0633 8.75053 9.93685 9.19585 9.60469ZM9.99304 10.6735C9.2538 11.2248 8.42936 11.4343 7.51971 11.3019C6.61005 11.1695 5.87953 10.7337 5.32814 9.99449C4.77676 9.25526 4.56726 8.43082 4.69966 7.52116C4.83206 6.61151 5.26787 5.88099 6.00711 5.3296C6.74634 4.77821 7.57078 4.56872 8.48044 4.70112C9.39009 4.83351 10.1206 5.26933 10.672 6.00856C11.2234 6.7478 11.4329 7.57224 11.3005 8.48189C11.1681 9.39155 10.7323 10.1221 9.99304 10.6735ZM3.05481 12.5218C2.9034 12.6348 2.73828 12.6782 2.55946 12.6522C2.38064 12.6262 2.23476 12.5375 2.12183 12.3861C2.0089 12.2346 1.96544 12.0695 1.99147 11.8907C2.0175 11.7119 2.10621 11.566 2.25762 11.4531L3.32639 10.6559C3.4778 10.543 3.64292 10.4995 3.82174 10.5255C4.00056 10.5516 4.14644 10.6403 4.25937 10.7917C4.37231 10.9431 4.41576 11.1082 4.38973 11.287C4.36371 11.4658 4.27499 11.6117 4.12358 11.7247L3.05481 12.5218ZM12.6737 5.34717C12.5223 5.4601 12.3572 5.50356 12.1784 5.47753C11.9996 5.4515 11.8537 5.36279 11.7408 5.21138C11.6278 5.05997 11.5844 4.89485 11.6104 4.71603C11.6364 4.53721 11.7252 4.39133 11.8766 4.2784L12.9453 3.48121C13.0967 3.36828 13.2619 3.32482 13.4407 3.35085C13.6195 3.37688 13.7654 3.46559 13.8783 3.617C13.9912 3.76841 14.0347 3.93353 14.0087 4.11235C13.9826 4.29117 13.8939 4.43705 13.7425 4.54998L12.6737 5.34717ZM5.20992 4.26083C5.05851 4.37376 4.89339 4.41722 4.71457 4.39119C4.53575 4.36516 4.38987 4.27645 4.27694 4.12504L3.47975 3.05627C3.36682 2.90486 3.32337 2.73974 3.34939 2.56092C3.37542 2.3821 3.46414 2.23622 3.61555 2.12329C3.76696 2.01035 3.93207 1.9669 4.11089 1.99293C4.28971 2.01895 4.43559 2.10767 4.54852 2.25908L5.34571 3.32785C5.45865 3.47926 5.5021 3.64438 5.47607 3.8232C5.45005 4.00202 5.36133 4.14789 5.20992 4.26083ZM12.3846 13.8798C12.2332 13.9927 12.0681 14.0362 11.8893 14.0101C11.7104 13.9841 11.5646 13.8954 11.4516 13.744L10.6544 12.6752C10.5415 12.5238 10.498 12.3587 10.5241 12.1799C10.5501 12.001 10.6388 11.8552 10.7902 11.7422C10.9416 11.6293 11.1067 11.5858 11.2856 11.6119C11.4644 11.6379 11.6103 11.7266 11.7232 11.878L12.5204 12.9468C12.6333 13.0982 12.6768 13.2633 12.6508 13.4421C12.6247 13.621 12.536 13.7668 12.3846 13.8798ZM2.63369 7.88739L1.6407 7.75477C1.46075 7.73652 1.31653 7.65003 1.20805 7.4953C1.09957 7.34056 1.05445 7.17322 1.0727 6.99327C1.09986 6.80667 1.18915 6.65691 1.34056 6.54397C1.49196 6.43104 1.65651 6.39147 1.8342 6.42527L2.8238 6.58122C3.00149 6.61502 3.14348 6.70317 3.24977 6.84567C3.35606 6.98818 3.40008 7.1494 3.38183 7.32936C3.36357 7.50931 3.27931 7.65187 3.12903 7.75703C2.97875 7.86219 2.81364 7.90564 2.63369 7.88739ZM14.1659 9.57778L13.1763 9.42184C12.9987 9.38804 12.855 9.29766 12.7454 9.1507C12.6358 9.00375 12.5934 8.84475 12.6183 8.6737C12.6366 8.49375 12.7208 8.35119 12.8711 8.24603C13.0214 8.14087 13.1865 8.09742 13.3665 8.11567L14.3594 8.24829C14.5394 8.26654 14.6836 8.35303 14.7921 8.50776C14.9006 8.66249 14.9457 8.82983 14.9274 9.00979C14.9003 9.19638 14.811 9.34615 14.6596 9.45908C14.5082 9.57202 14.3436 9.61158 14.1659 9.57778ZM8.67224 3.38328C8.49229 3.36503 8.34973 3.28077 8.24458 3.13049C8.13942 2.98021 8.09596 2.8151 8.11421 2.63514L8.24683 1.64216C8.26508 1.4622 8.35157 1.31799 8.5063 1.20951C8.66104 1.10102 8.82838 1.05591 9.00833 1.07416C9.19493 1.10132 9.34469 1.1906 9.45763 1.34201C9.57056 1.49342 9.61013 1.65797 9.57633 1.83566L9.42038 2.82525C9.38658 3.00294 9.29843 3.14493 9.15593 3.25122C9.01342 3.35752 8.8522 3.40154 8.67224 3.38328ZM6.99181 14.9289C6.80522 14.9017 6.65545 14.8125 6.54252 14.661C6.42958 14.5096 6.39002 14.3451 6.42382 14.1674L6.57976 13.1778C6.61356 13.0001 6.70394 12.8565 6.8509 12.7469C6.99785 12.6372 7.15685 12.5949 7.3279 12.6198C7.50785 12.638 7.65041 12.7223 7.75557 12.8726C7.86073 13.0228 7.90418 13.188 7.88593 13.3679L7.75331 14.3609C7.73506 14.5409 7.64857 14.6851 7.49384 14.7936C7.33911 14.902 7.17177 14.9471 6.99181 14.9289Z" fill="white"/>
</g>
<defs>
<clipPath id="clip0_1670_623">
<rect width="16" height="16" fill="white" transform="matrix(0 -1 1 0 0 16)"/>
</clipPath>
</defs>
</svg>
