<svg width="19" height="21" viewBox="0 0 19 21" fill="none" xmlns="http://www.w3.org/2000/svg">
<path d="M2.3173 20.6249C1.79952 20.6249 1.36719 20.4514 1.02031 20.1045C0.673438 19.7577 0.5 19.3253 0.5 18.8076V4.44215C0.5 3.92437 0.673438 3.49204 1.02031 3.14517C1.36719 2.79829 1.79952 2.62486 2.3173 2.62486H4.30767V0.115234H5.51922V2.62486H13.5673V0.115234H14.6923V2.62486H16.6827C17.2005 2.62486 17.6328 2.79829 17.9797 3.14517C18.3266 3.49204 18.5 3.92437 18.5 4.44215V18.8076C18.5 19.3253 18.3266 19.7577 17.9797 20.1045C17.6328 20.4514 17.2005 20.6249 16.6827 20.6249H2.3173ZM2.3173 19.4999H16.6827C16.8558 19.4999 17.0144 19.4277 17.1587 19.2835C17.3029 19.1393 17.375 18.9806 17.375 18.8076V8.94215H1.625V18.8076C1.625 18.9806 1.69711 19.1393 1.84134 19.2835C1.98558 19.4277 2.14423 19.4999 2.3173 19.4999ZM1.625 7.81715H17.375V4.44215C17.375 4.26909 17.3029 4.11044 17.1587 3.96619C17.0144 3.82197 16.8558 3.74986 16.6827 3.74986H2.3173C2.14423 3.74986 1.98558 3.82197 1.84134 3.96619C1.69711 4.11044 1.625 4.26909 1.625 4.44215V7.81715ZM9.5 12.9229C9.26778 12.9229 9.0655 12.8368 8.89315 12.6644C8.7208 12.492 8.63462 12.2898 8.63462 12.0576C8.63462 11.8253 8.7208 11.6231 8.89315 11.4507C9.0655 11.2783 9.26778 11.1922 9.5 11.1922C9.73222 11.1922 9.9345 11.2783 10.1069 11.4507C10.2792 11.6231 10.3654 11.8253 10.3654 12.0576C10.3654 12.2898 10.2792 12.492 10.1069 12.6644C9.9345 12.8368 9.73222 12.9229 9.5 12.9229ZM5 12.9229C4.76778 12.9229 4.5655 12.8368 4.39315 12.6644C4.2208 12.492 4.13462 12.2898 4.13462 12.0576C4.13462 11.8253 4.2208 11.6231 4.39315 11.4507C4.5655 11.2783 4.76778 11.1922 5 11.1922C5.23222 11.1922 5.4345 11.2783 5.60685 11.4507C5.7792 11.6231 5.86538 11.8253 5.86538 12.0576C5.86538 12.2898 5.7792 12.492 5.60685 12.6644C5.4345 12.8368 5.23222 12.9229 5 12.9229ZM14 12.9229C13.7678 12.9229 13.5655 12.8368 13.3931 12.6644C13.2208 12.492 13.1346 12.2898 13.1346 12.0576C13.1346 11.8253 13.2208 11.6231 13.3931 11.4507C13.5655 11.2783 13.7678 11.1922 14 11.1922C14.2322 11.1922 14.4345 11.2783 14.6069 11.4507C14.7792 11.6231 14.8654 11.8253 14.8654 12.0576C14.8654 12.2898 14.7792 12.492 14.6069 12.6644C14.4345 12.8368 14.2322 12.9229 14 12.9229ZM9.5 17.2499C9.26778 17.2499 9.0655 17.1637 8.89315 16.9913C8.7208 16.819 8.63462 16.6167 8.63462 16.3845C8.63462 16.1523 8.7208 15.95 8.89315 15.7776C9.0655 15.6053 9.26778 15.5191 9.5 15.5191C9.73222 15.5191 9.9345 15.6053 10.1069 15.7776C10.2792 15.95 10.3654 16.1523 10.3654 16.3845C10.3654 16.6167 10.2792 16.819 10.1069 16.9913C9.9345 17.1637 9.73222 17.2499 9.5 17.2499ZM5 17.2499C4.76778 17.2499 4.5655 17.1637 4.39315 16.9913C4.2208 16.819 4.13462 16.6167 4.13462 16.3845C4.13462 16.1523 4.2208 15.95 4.39315 15.7776C4.5655 15.6053 4.76778 15.5191 5 15.5191C5.23222 15.5191 5.4345 15.6053 5.60685 15.7776C5.7792 15.95 5.86538 16.1523 5.86538 16.3845C5.86538 16.6167 5.7792 16.819 5.60685 16.9913C5.4345 17.1637 5.23222 17.2499 5 17.2499ZM14 17.2499C13.7678 17.2499 13.5655 17.1637 13.3931 16.9913C13.2208 16.819 13.1346 16.6167 13.1346 16.3845C13.1346 16.1523 13.2208 15.95 13.3931 15.7776C13.5655 15.6053 13.7678 15.5191 14 15.5191C14.2322 15.5191 14.4345 15.6053 14.6069 15.7776C14.7792 15.95 14.8654 16.1523 14.8654 16.3845C14.8654 16.6167 14.7792 16.819 14.6069 16.9913C14.4345 17.1637 14.2322 17.2499 14 17.2499Z" fill="white"/>
</svg>
