<svg width="10" height="12" viewBox="0 0 10 12" fill="none" xmlns="http://www.w3.org/2000/svg">
<path d="M0 6C0 6.23675 0.127326 6.43968 0.401567 6.61556L8.02155 11.77C8.23702 11.9188 8.51126 12 8.83448 12C9.4809 12 10 11.6483 10 11.195C10 10.9718 9.86288 10.7756 9.6474 10.6201L2.78159 6L9.6474 1.37993C9.86288 1.22435 10 1.02142 10 0.804961C10 0.351747 9.4809 0 8.83448 0C8.51126 0 8.23702 0.0811725 8.02155 0.229989L0.401567 5.37768C0.127326 5.56032 0 5.76325 0 6Z" fill="#221607" fill-opacity="0.9"/>
</svg>
