<svg width="10" height="12" viewBox="0 0 10 12" fill="none" xmlns="http://www.w3.org/2000/svg">
<path id="SF Symbol / chevron.forward" d="M10 6C9.99021 5.76325 9.86288 5.56032 9.59843 5.37768L1.97845 0.229989C1.75318 0.0811725 1.48874 0 1.16552 0C0.509305 0 0 0.351747 0 0.804961C0 1.02142 0.127326 1.22435 0.352595 1.37993L7.20862 6L0.352595 10.6201C0.127326 10.7756 0 10.9718 0 11.195C0 11.6483 0.509305 12 1.16552 12C1.47894 12 1.75318 11.9188 1.97845 11.77L9.59843 6.61556C9.87267 6.43968 10 6.23675 10 6Z" fill="#221607" fill-opacity="0.9"/>
</svg>
