<svg width="27" height="27" viewBox="0 0 27 27" fill="none" xmlns="http://www.w3.org/2000/svg">
<g id="group_FILL0_wght200_GRAD0_opsz24 1">
<path id="Vector" d="M2.91992 20.8847V19.0327C2.91992 18.5106 3.05514 18.0617 3.32557 17.686C3.596 17.3102 3.95942 17.01 4.41583 16.7852C5.39164 16.3205 6.36055 15.9501 7.32255 15.6739C8.28458 15.3977 9.44203 15.2596 10.7949 15.2596C12.1478 15.2596 13.3053 15.3977 14.2673 15.6739C15.2293 15.9501 16.1982 16.3205 17.174 16.7852C17.6304 17.01 17.9938 17.3102 18.2643 17.686C18.5347 18.0617 18.6699 18.5106 18.6699 19.0327V20.8847H2.91992ZM20.9199 20.8847V18.9808C20.9199 18.3289 20.788 17.7135 20.5241 17.1347C20.2602 16.5558 19.8859 16.0592 19.4012 15.6447C19.9536 15.7572 20.4858 15.9133 20.9978 16.1131C21.5098 16.3129 22.0161 16.5375 22.5166 16.787C23.0041 17.0322 23.3863 17.346 23.6632 17.7284C23.9401 18.1107 24.0786 18.5282 24.0786 18.9808V20.8847H20.9199ZM10.7949 12.75C9.8668 12.75 9.07227 12.4196 8.41133 11.7586C7.75039 11.0977 7.41992 10.3032 7.41992 9.37503C7.41992 8.44689 7.75039 7.65234 8.41133 6.99141C9.07227 6.33047 9.8668 6 10.7949 6C11.723 6 12.5176 6.33047 13.1785 6.99141C13.8395 7.65234 14.1699 8.44689 14.1699 9.37503C14.1699 10.3032 13.8395 11.0977 13.1785 11.7586C12.5176 12.4196 11.723 12.75 10.7949 12.75ZM18.9728 9.37503C18.9728 10.3032 18.6424 11.0977 17.9814 11.7586C17.3205 12.4196 16.526 12.75 15.5978 12.75C15.5502 12.75 15.4896 12.7446 15.4161 12.7338C15.3425 12.723 15.2819 12.7111 15.2343 12.6981C15.6154 12.2313 15.9083 11.7135 16.1129 11.1446C16.3176 10.5758 16.4199 9.98499 16.4199 9.37233C16.4199 8.75969 16.3128 8.17429 16.0986 7.61612C15.8845 7.05795 15.5964 6.53655 15.2343 6.05192C15.2949 6.0303 15.3555 6.01624 15.4161 6.00973C15.4767 6.00324 15.5372 6 15.5978 6C16.526 6 17.3205 6.33047 17.9814 6.99141C18.6424 7.65234 18.9728 8.44689 18.9728 9.37503ZM4.04492 19.7596H17.5449V19.0327C17.5449 18.7688 17.4789 18.538 17.347 18.3404C17.215 18.1428 16.9781 17.9539 16.6363 17.7736C15.7968 17.325 14.912 16.9814 13.9817 16.7427C13.0514 16.504 11.9891 16.3846 10.7949 16.3846C9.6007 16.3846 8.53843 16.504 7.60813 16.7427C6.67785 16.9814 5.793 17.325 4.95358 17.7736C4.61175 17.9539 4.37485 18.1428 4.24287 18.3404C4.1109 18.538 4.04492 18.7688 4.04492 19.0327V19.7596ZM10.7949 11.625C11.4137 11.625 11.9434 11.4047 12.384 10.9641C12.8246 10.5235 13.0449 9.99378 13.0449 9.37503C13.0449 8.75628 12.8246 8.22659 12.384 7.78597C11.9434 7.34534 11.4137 7.12503 10.7949 7.12503C10.1762 7.12503 9.64648 7.34534 9.20586 7.78597C8.76523 8.22659 8.54492 8.75628 8.54492 9.37503C8.54492 9.99378 8.76523 10.5235 9.20586 10.9641C9.64648 11.4047 10.1762 11.625 10.7949 11.625Z" fill="#FFF4DF"/>
</g>
</svg>
