<?xml version="1.0" standalone="no"?>
<!DOCTYPE svg PUBLIC "-//W3C//DTD SVG 20010904//EN"
 "http://www.w3.org/TR/2001/REC-SVG-20010904/DTD/svg10.dtd">
<svg version="1.0" xmlns="http://www.w3.org/2000/svg"
 width="301.000000pt" height="301.000000pt" viewBox="0 0 301.000000 301.000000"
 preserveAspectRatio="xMidYMid meet">
<metadata>
Created by potrace 1.14, written by Peter Selinger 2001-2017
</metadata>
<g transform="translate(0.000000,301.000000) scale(0.100000,-0.100000)"
fill="#000000" stroke="none">
<path d="M580 2156 c-189 -54 -363 -200 -463 -385 -97 -179 -110 -408 -33
-560 110 -216 347 -238 543 -49 l41 41 -26 -90 -26 -90 -52 -27 c-120 -63
-231 -171 -235 -228 -4 -61 0 -83 19 -105 29 -33 62 -45 121 -44 175 2 313
139 371 367 11 42 21 78 23 79 1 1 34 21 72 44 110 65 128 85 132 142 l3 49
-48 -47 c-44 -43 -127 -103 -143 -103 -4 0 1 28 12 63 11 34 29 89 40 123 27
87 26 96 -13 90 -18 -3 -56 -8 -84 -12 -57 -7 -66 -11 -80 -35 -5 -9 -25 -36
-44 -59 -107 -131 -254 -173 -349 -99 -31 25 -88 128 -89 164 -8 188 11 283
89 443 39 81 64 117 117 171 84 85 145 116 228 115 52 0 68 -4 99 -28 50 -38
69 -86 62 -158 -13 -140 -122 -270 -206 -243 -17 5 -34 32 -36 57 -2 30 -57
18 -73 -17 -26 -57 -1 -119 59 -151 66 -34 193 -20 264 29 171 118 209 370 74
491 -90 82 -223 104 -369 62z m0 -1284 c-20 -73 -70 -162 -101 -178 -100 -51
-125 61 -32 147 42 40 137 98 142 87 2 -5 -2 -31 -9 -56z"/>
<path d="M1152 1870 c-22 -9 -52 -63 -52 -94 0 -8 7 -22 16 -31 15 -14 14 -18
-10 -50 -25 -33 -34 -65 -18 -65 9 0 27 20 60 67 12 17 35 36 52 41 l30 11
-24 -47 c-79 -156 7 -227 137 -113 38 34 47 37 47 18 0 -23 50 -66 86 -73 48
-9 101 8 157 51 l46 35 16 -31 c17 -32 67 -59 110 -59 37 0 86 23 128 60 l37
32 0 -40 c0 -23 3 -43 8 -45 4 -2 25 0 47 5 l40 8 3 61 c3 66 18 96 79 157 59
57 66 43 28 -63 -33 -94 -33 -139 0 -161 22 -14 32 -15 64 -5 48 14 130 85
128 111 -1 16 -6 14 -39 -16 -39 -35 -62 -42 -73 -24 -4 6 7 51 24 99 38 109
39 135 7 156 -21 14 -28 14 -58 2 -19 -8 -58 -38 -86 -66 l-51 -51 13 43 c7
23 16 51 20 63 6 20 5 21 -43 11 -45 -9 -50 -12 -65 -51 -24 -64 -44 -134 -39
-139 2 -3 -16 -21 -40 -41 -63 -52 -124 -50 -153 6 -15 28 -14 29 14 39 107
37 165 99 141 152 -22 49 -91 56 -158 15 -39 -25 -88 -97 -97 -145 -9 -49 -73
-103 -122 -103 -44 1 -68 17 -77 51 -5 22 -2 26 39 38 63 18 126 78 126 120 0
40 -44 70 -97 65 -65 -6 -142 -83 -163 -163 -12 -47 -63 -103 -89 -98 -8 1
-19 10 -25 20 -9 14 -3 40 27 126 20 60 37 111 37 114 0 3 -9 3 -20 0 -11 -3
-20 -8 -20 -12 0 -14 -71 -81 -85 -81 -13 0 -15 7 -9 35 4 22 2 41 -6 50 -14
17 -16 17 -48 5z m419 -47 c4 -54 -13 -83 -63 -109 -35 -18 -36 -18 -33 9 1
12 3 29 4 37 0 8 10 30 21 48 22 36 69 46 71 15z m293 -27 c-1 -31 -8 -45 -30
-62 -58 -47 -75 -37 -54 35 12 44 39 73 64 69 17 -2 21 -10 20 -42z"/>
<path d="M2889 1541 c-16 -38 -16 -39 7 -49 47 -22 97 9 102 63 1 21 -1 23
-21 16 -12 -5 -31 -5 -42 0 -11 4 -22 8 -25 8 -3 1 -12 -17 -21 -38z"/>
<path d="M1201 1416 l-55 -11 -29 -80 c-36 -100 -41 -186 -12 -214 36 -35 70
-31 130 15 43 32 46 33 40 12 -4 -13 -9 -30 -11 -39 -2 -8 -19 -22 -37 -31
-104 -50 -147 -150 -75 -177 55 -20 132 36 174 128 23 50 34 62 80 86 30 16
62 36 73 46 21 20 25 18 34 -22 8 -33 46 -53 85 -44 17 3 51 24 76 46 44 39
46 40 46 17 0 -31 34 -68 63 -68 26 0 80 31 120 68 l27 26 0 -46 0 -46 42 10
c23 5 43 10 44 11 1 1 5 28 8 59 8 78 17 96 67 146 42 41 73 55 64 30 -2 -7
-6 -29 -8 -48 -5 -33 -32 -154 -43 -192 -4 -15 0 -17 23 -12 15 3 36 6 46 8
27 4 34 16 52 97 14 67 22 81 61 120 58 57 70 45 45 -44 -37 -127 -27 -187 31
-187 48 0 145 75 211 162 16 20 41 41 57 46 l28 10 -26 -51 c-46 -87 -31 -167
31 -167 22 0 80 33 116 67 l25 22 12 -36 c20 -57 48 -66 99 -34 49 30 90 74
93 100 4 24 3 24 -33 -8 -20 -17 -42 -30 -48 -28 -21 7 -14 78 15 171 15 50
28 91 28 92 0 0 -23 -3 -51 -9 -58 -11 -65 -22 -94 -139 -13 -51 -23 -70 -51
-92 -77 -61 -91 -12 -40 135 20 56 36 103 36 104 0 2 -9 1 -19 -2 -11 -3 -30
-20 -42 -38 -13 -18 -36 -41 -53 -51 l-29 -17 6 40 c9 54 -8 78 -45 64 -28
-11 -58 -56 -58 -88 0 -10 7 -28 15 -40 14 -20 12 -25 -43 -82 -69 -73 -98
-80 -89 -23 4 20 15 66 25 102 22 76 15 124 -19 133 -30 8 -57 -5 -111 -52
-25 -23 -48 -41 -50 -41 -2 0 -3 16 -2 35 2 28 -3 39 -21 51 -22 14 -27 14
-58 -1 -19 -9 -55 -37 -81 -62 l-46 -47 16 55 c9 30 18 58 21 63 3 4 -3 6 -13
3 -11 -3 -33 -8 -51 -12 -27 -5 -34 -14 -56 -68 -13 -34 -27 -78 -31 -97 -6
-34 -47 -77 -88 -93 -44 -16 -38 69 16 221 l16 44 -43 -6 c-23 -3 -47 -5 -53
-5 -6 -1 -23 -43 -39 -93 -29 -96 -69 -162 -105 -171 -24 -6 -43 22 -36 55 7
40 35 143 50 186 11 29 11 40 3 37 -15 -5 -68 -16 -85 -17 -12 -1 -44 -89 -57
-159 -5 -25 -20 -44 -53 -70 -55 -42 -92 -63 -92 -51 0 4 20 68 45 142 25 74
45 139 45 146 0 8 -13 8 -51 0 l-51 -12 -34 -88 c-38 -103 -80 -161 -115 -161
-22 0 -24 4 -23 46 1 26 17 81 38 133 20 49 36 89 34 90 -2 2 -27 -2 -57 -8z
m34 -413 c-25 -59 -44 -83 -65 -83 -21 0 -26 22 -14 55 6 16 71 65 86 65 5 0
1 -17 -7 -37z"/>
</g>
</svg>
