<svg width="26" height="20" viewBox="0 0 26 20" fill="none" xmlns="http://www.w3.org/2000/svg">
<path d="M2.42955 19.768C1.76566 19.768 1.20371 19.538 0.743713 19.078C0.283712 18.618 0.0537109 18.056 0.0537109 17.3922V2.42955C0.0537109 1.76566 0.283712 1.20371 0.743713 0.743713C1.20371 0.283712 1.76566 0.0537109 2.42955 0.0537109H22.6493C23.3132 0.0537109 23.8752 0.283712 24.3352 0.743713C24.7952 1.20371 25.0252 1.76566 25.0252 2.42955V17.3922C25.0252 18.056 24.7952 18.618 24.3352 19.078C23.8752 19.538 23.3132 19.768 22.6493 19.768H2.42955ZM12.5394 10.6438L2.02511 3.92068V17.3922C2.02511 17.5101 2.06303 17.607 2.13887 17.6828C2.2147 17.7587 2.3116 17.7966 2.42955 17.7966H22.6493C22.7673 17.7966 22.8642 17.7587 22.94 17.6828C23.0158 17.607 23.0538 17.5101 23.0538 17.3922V3.92068L12.5394 10.6438ZM12.5394 8.59656L22.8516 2.02511H2.22732L12.5394 8.59656ZM2.02511 3.92068V2.02511V17.3922C2.02511 17.5101 2.06303 17.607 2.13887 17.6828C2.2147 17.7587 2.3116 17.7966 2.42955 17.7966H2.02511V3.92068Z" fill="white"/>
</svg>
