<svg width="25" height="25" viewBox="0 0 25 25" fill="none" xmlns="http://www.w3.org/2000/svg">
<path d="M7.57449 12.5792C8.6054 14.7081 10.3269 16.4251 12.4584 17.4506C12.6156 17.525 12.7895 17.5572 12.963 17.5441C13.1365 17.5309 13.3035 17.4728 13.4477 17.3754L16.5784 15.2841C16.7167 15.1903 16.8766 15.133 17.043 15.1177C17.2094 15.1024 17.377 15.1295 17.5301 15.1964L23.3908 17.7135C23.5911 17.7969 23.7585 17.9438 23.8671 18.1316C23.9757 18.3194 24.0196 18.5377 23.9919 18.7529C23.8062 20.2027 23.0985 21.5352 22.0014 22.501C20.9042 23.4668 19.4927 23.9997 18.0311 24C13.5141 24 9.18223 22.2057 5.98828 19.0117C2.79434 15.8178 1 11.4859 1 6.96894C1.00033 5.50727 1.53324 4.0958 2.49902 2.99864C3.46479 1.90148 4.79725 1.19382 6.24707 1.00806C6.46226 0.980422 6.68057 1.02429 6.86838 1.1329C7.0562 1.24152 7.2031 1.40886 7.28647 1.60916L9.80356 7.48237C9.86901 7.63308 9.8964 7.79758 9.88329 7.96136C9.87019 8.12515 9.817 8.2832 9.72842 8.42159L7.63711 11.6024C7.544 11.7463 7.48935 11.9116 7.47839 12.0826C7.46743 12.2536 7.50052 12.4246 7.57449 12.5792Z" stroke="white" stroke-width="2" stroke-linecap="round" stroke-linejoin="round"/>
</svg>
