<svg width="24" height="24" viewBox="0 0 24 24" fill="none" xmlns="http://www.w3.org/2000/svg">
<path d="M12.0021 24C10.3424 24 8.78236 23.6851 7.32198 23.0552C5.86157 22.4253 4.59123 21.5704 3.51096 20.4906C2.43066 19.4108 1.57543 18.141 0.945255 16.6813C0.315085 15.2215 0 13.6618 0 12.0021C0 10.3424 0.314948 8.78236 0.944845 7.32198C1.57474 5.86157 2.42959 4.59123 3.50938 3.51096C4.58919 2.43066 5.85897 1.57543 7.31872 0.945256C8.77845 0.315086 10.3382 0 11.9979 0C13.6576 0 15.2176 0.31495 16.678 0.944846C18.1384 1.57474 19.4088 2.42959 20.489 3.50938C21.5693 4.58919 22.4246 5.85897 23.0547 7.31873C23.6849 8.77846 24 10.3382 24 11.9979C24 13.6576 23.6851 15.2176 23.0552 16.678C22.4253 18.1384 21.5704 19.4088 20.4906 20.489C19.4108 21.5693 18.141 22.4246 16.6813 23.0547C15.2215 23.6849 13.6618 24 12.0021 24ZM12 22.1053C14.8211 22.1053 17.2105 21.1263 19.1684 19.1684C21.1263 17.2105 22.1053 14.8211 22.1053 12C22.1053 11.8526 22.102 11.702 22.0956 11.5482C22.0891 11.3943 22.0818 11.2567 22.0737 11.1352C21.9927 11.7214 21.7389 12.2065 21.3122 12.5903C20.8855 12.9741 20.3725 13.166 19.7733 13.166H16.9069C16.2656 13.166 15.7166 12.9378 15.2599 12.4815C14.8033 12.0251 14.5749 11.4765 14.5749 10.8357V9.67054H9.91095V7.34023C9.91095 6.69939 10.1393 6.14982 10.596 5.69152C11.0527 5.23322 11.6017 5.00408 12.2429 5.00408H13.4089V4.5182C13.4089 3.96921 13.5749 3.51456 13.9069 3.15424C14.2389 2.7939 14.6389 2.54248 15.1069 2.39998C14.613 2.23804 14.1094 2.11334 13.5961 2.02589C13.0829 1.93844 12.5508 1.89471 12 1.89471C9.17894 1.89471 6.78946 2.87366 4.83156 4.83156C2.87366 6.78946 1.89471 9.17894 1.89471 12V12.1822C1.89471 12.2389 1.89876 12.2996 1.90687 12.3644H7.89469C9.18701 12.3644 10.2874 12.8186 11.1959 13.7272C12.1044 14.6356 12.5587 15.7342 12.5587 17.0229V18.1944H9.06069V21.6559C9.53033 21.8016 10.0089 21.913 10.4963 21.9899C10.9838 22.0668 11.485 22.1053 12 22.1053Z" fill="white"/>
</svg>
