<?xml version="1.0" standalone="no"?>
<!DOCTYPE svg PUBLIC "-//W3C//DTD SVG 1.1//EN" "http://www.w3.org/Graphics/SVG/1.1/DTD/svg11.dtd" >
<svg xmlns="http://www.w3.org/2000/svg" xmlns:xlink="http://www.w3.org/1999/xlink" version="1.1">
<metadata>
Created by FontForge 20201107 at Sat Mar  9 17:06:59 2024
 By
Copyright (c) 2016 by Syuzi Hakobyan, Yerevan. All rights reserved.
</metadata>
<defs>
<font id="SHKDzeragir-Italic" horiz-adv-x="790" >
  <font-face
    font-family="SHK Dzeragir"
    font-weight="400"
    font-style="italic"
    font-stretch="normal"
    units-per-em="2048"
    panose-1="2 0 5 6 8 0 0 9 0 4"
    ascent="1638"
    descent="-410"
    x-height="778"
    cap-height="1434"
    bbox="-365 -539 2393 1917"
    underline-thickness="102"
    underline-position="-204"
    slope="-12"
    unicode-range="U+000D-FB17"
  />
<missing-glyph horiz-adv-x="1054"
d="M92 100l565 639l-247 637zM922 66l-238 610l-547 -610h785zM987 96l320 1280l-568 -639zM713 799l542 612h-782zM1040 0h-1026l355 1475h1026z" />
    <glyph glyph-name="ff" unicode="ff" horiz-adv-x="1251"
d="M309 -229q26 108 42.5 218.5t16.5 216t-24 156.5l-104 -417q-62 -250 -72 -317q-15 -103 16 -103q29 0 63 69.5t62 176.5zM420 666q88 137 163.5 302.5t106.5 288.5q7 29 11 48.5t6 40t-1.5 30.5t-13.5 10q-22 0 -50.5 -49t-61 -144t-56.5 -172t-58.5 -198t-45.5 -157z
M958 666q88 137 164 303t107 288q7 29 11 48.5t6 40t-1.5 30.5t-13.5 10q-16 0 -35.5 -27t-41 -77.5t-42 -107t-43.5 -132t-40.5 -134.5t-38.5 -132.5t-32 -109.5zM848 -229q26 108 42.5 218.5t16.5 216t-24 156.5l-105 -417q-63 -253 -72 -325q-13 -95 17 -95q29 0 63 69.5
t62 176.5zM672 16l86 340q-105 -155 -201 -155q-84 0 -145 135q33 -184 -62 -551q-78 -317 -205 -317q-26 0 -44 16t-25 47t-9.5 65.5t3 84t11 88.5t17 92t18.5 83t17 72l168 666q2 10 8 33q12 49 19 77.5t22 86t27 95.5t30 94t35.5 94.5t39 84.5t44 76.5t47.5 57.5t53.5 40
t57.5 13q92 0 45 -189q-36 -145 -133.5 -338.5t-196.5 -322.5l-18 -68q29 -4 42 -18.5t19 -46.5q27 -128 57.5 -170.5t73.5 -42.5q40 0 95.5 53.5t113.5 161.5l56 227q65 255 96 350q131 404 289 404q92 0 45 -189q-36 -145 -133.5 -338.5t-196.5 -322.5l-18 -68
q29 -4 42 -18.5t19 -46.5q79 -357 166 -357q34 0 70.5 38t58.5 124q3 12 16 12q14 0 11 -18q-22 -89 -73 -142.5t-100 -50.5q-19 1 -37.5 13.5t-36.5 38.5t-31 48t-29.5 61.5t-24 59t-21.5 58.5q19 -106 -3.5 -260.5t-57.5 -290.5q-78 -317 -205 -317q-147 0 -14 539
q1 6 2 9z" />
    <glyph glyph-name="fi" unicode="fi" horiz-adv-x="1036"
d="M309 -229q26 108 42.5 218.5t16.5 216t-24 156.5l-104 -417q-62 -250 -72 -317q-15 -103 16 -103q29 0 63 69.5t62 176.5zM420 666q88 137 163.5 302.5t106.5 288.5q7 29 11 48.5t6 40t-1.5 30.5t-13.5 10q-22 0 -50.5 -49t-61 -144t-56.5 -172t-58.5 -198t-45.5 -157z
M793 498q-123 -297 -236 -297q-84 0 -145 135q33 -184 -62 -551q-78 -317 -205 -317q-26 0 -44 16t-25 47t-9.5 65.5t3 84t11 88.5t17 92t18.5 83t17 72l168 666q2 10 8 33q12 49 19 77.5t22 86t27 95.5t30 94t35.5 94.5t39 84.5t44 76.5t47.5 57.5t53.5 40t57.5 13
q92 0 45 -189q-36 -145 -133.5 -338.5t-196.5 -322.5l-18 -68q29 -4 42 -18.5t19 -46.5q27 -128 57.5 -170.5t73.5 -42.5q20 0 41 14.5t41.5 42.5t38 57t36.5 68.5t31 67t27 63t19 45.5q40 95 88 138.5t88 43.5q37 0 44 -38.5t-9 -98.5l-129 -514q-9 -37 6 -37q38 0 92.5 76
t77.5 168q3 12 18 12q5 0 8.5 -5t0.5 -13q-35 -142 -127 -245t-168 -103q-67 0 -33 137l127 514q5 19 4.5 28t-8.5 9q-22 0 -94 -170zM954 965q11 43 37.5 72.5t55.5 29.5t42 -29.5t3 -72.5t-39 -73t-58 -30t-40.5 30t-0.5 73z" />
    <glyph glyph-name="fl" unicode="fl" horiz-adv-x="1019"
d="M698 117l60 239q-105 -155 -201 -155q-84 0 -145 135q33 -184 -62 -551q-78 -317 -205 -317q-26 0 -44 16t-25 47t-9.5 65.5t3 84t11 88.5t17 92t18.5 83t17 72l168 666q2 10 8 33q12 49 19 77.5t22 86t27 95.5t30 94t35.5 94.5t39 84.5t44 76.5t47.5 57.5t53.5 40
t57.5 13q92 0 45 -189q-36 -145 -133.5 -338.5t-196.5 -322.5l-18 -68q29 -4 42 -18.5t19 -46.5q27 -128 57.5 -170.5t73.5 -42.5q40 0 95.5 53.5t113.5 161.5l56 227q65 255 96 350q131 404 289 404q92 0 45 -189q-36 -145 -133.5 -338.5t-196.5 -322.5l-115 -457
q-9 -37 6 -37q38 0 92 74t78 166q3 16 19 16q14 0 8 -18q-35 -142 -127 -245t-168 -103q-64 0 -33 137zM309 -229q26 108 42.5 218.5t16.5 216t-24 156.5l-104 -417q-62 -250 -72 -317q-15 -103 16 -103q29 0 63 69.5t62 176.5zM420 666q88 137 163.5 302.5t106.5 288.5
q7 29 11 48.5t6 40t-1.5 30.5t-13.5 10q-22 0 -50.5 -49t-61 -144t-56.5 -172t-58.5 -198t-45.5 -157zM958 666q88 137 164 303t107 288q7 29 11 48.5t6 40t-1.5 30.5t-13.5 10q-16 0 -35.5 -27t-41 -77.5t-42 -107t-43.5 -132t-40.5 -134.5t-38.5 -132.5t-32 -109.5z" />
    <glyph glyph-name="ffi" unicode="ffi" horiz-adv-x="1579"
d="M309 -229q26 108 42.5 218.5t16.5 216t-24 156.5l-104 -417q-62 -250 -72 -317q-15 -103 16 -103q29 0 63 69.5t62 176.5zM420 666q88 137 163.5 302.5t106.5 288.5q7 29 11 48.5t6 40t-1.5 30.5t-13.5 10q-22 0 -50.5 -49t-61 -144t-56.5 -172t-58.5 -198t-45.5 -157z
M958 666q88 137 164 303t107 288q7 29 11 48.5t6 40t-1.5 30.5t-13.5 10q-16 0 -35.5 -27t-41 -77.5t-42 -107t-43.5 -132t-40.5 -134.5t-38.5 -132.5t-32 -109.5zM848 -229q26 108 42.5 218.5t16.5 216t-24 156.5l-105 -417q-63 -253 -72 -325q-13 -95 17 -95q29 0 63 69.5
t62 176.5zM981 451q27 -128 57.5 -170.5t73.5 -42.5q20 0 41 14.5t41.5 42.5t38 57t36.5 68.5t31 67t27 63t19 45.5q40 95 88 138.5t88 43.5q37 0 43.5 -38.5t-9.5 -98.5l-129 -514q-9 -37 7 -37q38 0 92.5 76t77.5 168q3 12 18 12q14 0 8 -18q-35 -142 -127 -245t-168 -103
q-37 0 -43.5 38.5t11.5 98.5l127 514q9 37 -5 37q-22 0 -94 -170q-123 -297 -235 -297q-85 0 -146 135q19 -106 -3.5 -260.5t-57.5 -290.5q-78 -317 -205 -317q-147 0 -14 539q1 6 2 9l86 340q-105 -155 -201 -155q-84 0 -145 135q33 -184 -62 -551q-78 -317 -205 -317
q-26 0 -44 16t-25 47t-9.5 65.5t3 84t11 88.5t17 92t18.5 83t17 72l168 666q2 10 8 33q12 49 19 77.5t22 86t27 95.5t30 94t35.5 94.5t39 84.5t44 76.5t47.5 57.5t53.5 40t57.5 13q92 0 45 -189q-36 -145 -133.5 -338.5t-196.5 -322.5l-18 -68q29 -4 42 -18.5t19 -46.5
q27 -128 57.5 -170.5t73.5 -42.5q40 0 95.5 53.5t113.5 161.5l56 227q65 255 96 350q131 404 289 404q92 0 45 -189q-36 -145 -133.5 -338.5t-196.5 -322.5l-18 -68q29 -4 42 -18.5t19 -46.5zM1493 965q11 43 37 72.5t55 29.5t42 -29.5t3 -72.5t-38.5 -73t-57.5 -30
t-40.5 30t-0.5 73z" />
    <glyph glyph-name="ffl" unicode="ffl" horiz-adv-x="1548"
d="M309 -229q26 108 42.5 218.5t16.5 216t-24 156.5l-104 -417q-62 -250 -72 -317q-15 -103 16 -103q29 0 63 69.5t62 176.5zM420 666q88 137 163.5 302.5t106.5 288.5q7 29 11 48.5t6 40t-1.5 30.5t-13.5 10q-22 0 -50.5 -49t-61 -144t-56.5 -172t-58.5 -198t-45.5 -157z
M958 666q88 137 164 303t107 288q7 29 11 48.5t6 40t-1.5 30.5t-13.5 10q-16 0 -35.5 -27t-41 -77.5t-42 -107t-43.5 -132t-40.5 -134.5t-38.5 -132.5t-32 -109.5zM848 -229q26 108 42.5 218.5t16.5 216t-24 156.5l-105 -417q-63 -253 -72 -325q-13 -95 17 -95q29 0 63 69.5
t62 176.5zM981 451q27 -128 57.5 -170.5t73.5 -42.5q40 0 95.5 53.5t113.5 161.5l55 227q65 255 96 350q131 404 289 404q92 0 45 -189q-36 -145 -133 -338.5t-196 -322.5l-115 -457q-9 -37 6 -37q38 0 92 74t78 166q3 16 18 16q5 0 8.5 -5t0.5 -13q-35 -142 -127 -245
t-168 -103q-64 0 -33 137l59 239q-105 -155 -200 -155q-85 0 -146 135q19 -106 -3.5 -260.5t-57.5 -290.5q-78 -317 -205 -317q-147 0 -14 539q1 6 2 9l86 340q-105 -155 -201 -155q-84 0 -145 135q33 -184 -62 -551q-78 -317 -205 -317q-26 0 -44 16t-25 47t-9.5 65.5t3 84
t11 88.5t17 92t18.5 83t17 72l168 666q2 10 8 33q12 49 19 77.5t22 86t27 95.5t30 94t35.5 94.5t39 84.5t44 76.5t47.5 57.5t53.5 40t57.5 13q92 0 45 -189q-36 -145 -133.5 -338.5t-196.5 -322.5l-18 -68q29 -4 42 -18.5t19 -46.5q27 -128 57.5 -170.5t73.5 -42.5
q40 0 95.5 53.5t113.5 161.5l56 227q65 255 96 350q131 404 289 404q92 0 45 -189q-36 -145 -133.5 -338.5t-196.5 -322.5l-18 -68q29 -4 42 -18.5t19 -46.5zM1497 666q88 137 163.5 302.5t106.5 288.5q7 29 11 48.5t6 40t-1.5 30.5t-13.5 10q-22 0 -50.5 -49t-61 -144
t-56.5 -172t-58.5 -198t-45.5 -157z" />
    <glyph glyph-name="uniFB13" unicode="&#x574;&#x576;" horiz-adv-x="1587"
d="M1198 1409q-37 0 -92.5 -37t-83.5 -80q19 -8 51 -8q57 0 111 26.5t63 61.5q4 19 -11.5 28t-37.5 9zM1638 737q-28 0 -57 -119l-51 -202q82 132 108 235q19 86 0 86zM1513 348l-55 -221q-9 -37 6 -37q38 0 92.5 76t77.5 168q3 12 19 12q14 0 8 -18q-35 -142 -127 -245
t-168 -103q-67 0 -33 137l23 94q-25 -39 -53.5 -75.5t-64.5 -73.5t-76 -59.5t-75 -22.5q-150 0 -88 243l207 830h-78q-124 0 -188 48.5t-45 123.5q6 28 29 61q-8 3 -43.5 22.5t-70 32.5t-62.5 13q-63 0 -82 -78q-9 -46 9 -98.5t46.5 -102t52 -129t25 -180t-34.5 -254.5
l-96 -385q-9 -37 6 -37q38 0 92.5 76t77.5 168q3 12 18 12q14 0 8 -18q-35 -142 -127 -245t-168 -103q-37 0 -43.5 38.5t11.5 98.5l22 94q-148 -231 -268 -231q-150 0 -88 243l100 408q9 37 -6 37q-38 0 -92 -75.5t-78 -168.5q-3 -12 -16 -12q-6 0 -10 5t-1 13
q35 142 127 245t168 103q37 0 44 -38.5t-9 -98.5l-98 -389q-10 -39 -14 -67.5t-1 -52t17 -36t39 -12.5q31 0 83 45.5t120 144.5l59 236q26 104 32.5 197t-2 156.5t-20.5 128.5t-24.5 111.5t-14 106.5t12.5 113q12 49 42.5 80t65.5 31q33 0 68 -18t80.5 -50t68.5 -45
q43 43 113.5 78t122.5 35q47 0 68.5 -22t17.5 -44q-13 -52 -74 -82.5t-141 -30.5q-7 0 -47 5q-6 -13 -9 -23q-14 -62 56 -106t160 -44q71 0 120 5l-209 -840q-10 -39 -14 -67.5t-1 -52t17 -36t39 -12.5q31 0 83 45.5t120 144.5l60 236q37 149 85 208.5t107 59.5
q76 0 45 -123q-14 -63 -58.5 -148t-97.5 -159z" />
    <glyph glyph-name="uniFB14" unicode="&#x574;&#x565;" horiz-adv-x="1695"
d="M1655 655q-29 0 -58 -118l-41 -162q76 102 101 200q17 80 -2 80zM434 641l-98 -389q-10 -39 -14 -67.5t-1 -52t17 -36t39 -12.5q31 0 83 45.5t120 144.5l59 236q30 123 40 230.5t5 183t-12.5 141.5t-7.5 134.5t16 133.5q13 52 32.5 76.5t53.5 24.5q35 0 141 -62.5
t142 -62.5q34 0 56.5 26.5t37.5 85.5q1 5 6.5 9t9.5 4q13 0 10 -19q-23 -91 -72 -143.5t-122 -52.5q-34 0 -81.5 30.5t-90 61t-62.5 30.5t-28 -30q-9 -35 -7.5 -73t11.5 -67t22.5 -68.5t26.5 -76.5t23 -90.5t12 -111.5t-6.5 -139t-32.5 -173l-96 -385q-9 -37 6 -37
q33 0 170.5 309.5t279.5 685.5q61 162 131 255.5t140 93.5q67 0 32 -138l-139 -563q225 94 512 94q51 0 73.5 -4t18.5 -18q-4 -17 -22 -17h-56q-283 0 -536 -96l-111 -440q-10 -39 -14 -67.5t-1 -52t17 -36t39 -12.5q31 0 83 45.5t120 144.5l39 154q37 149 85 208.5
t107 59.5q77 0 48 -116q-16 -63 -57.5 -136t-88.5 -131l-47 -186q-9 -37 6 -37q38 0 92.5 76t77.5 168q3 12 19 12q14 0 8 -18q-35 -142 -127 -245t-168 -103q-67 0 -33 137l23 94q-148 -231 -269 -231q-150 0 -88 243l264 1063q9 37 -6 37q-53 0 -145 -244
q-159 -430 -369 -880q-109 -219 -207 -219q-37 0 -43.5 38.5t11.5 98.5l22 94q-148 -231 -268 -231q-150 0 -88 243l100 408q9 37 -6 37q-38 0 -92 -75.5t-78 -168.5q-3 -12 -16 -12q-5 0 -8.5 5t-0.5 13q35 142 126 245t167 103q37 0 44 -38.5t-9 -98.5z" />
    <glyph glyph-name="uniFB15" unicode="&#x574;&#x56b;" horiz-adv-x="1619"
d="M829 -492q29 0 58 119l149 598q-36 -83 -120 -332.5t-97 -298.5q-16 -86 10 -86zM434 641l-98 -389q-10 -39 -14 -67.5t-1 -52t17 -36t39 -12.5q31 0 83 45.5t120 144.5l59 236q30 123 40 230.5t5 183t-12.5 141.5t-7.5 134.5t16 133.5q13 52 32.5 76.5t53.5 24.5
q35 0 141 -62.5t142 -62.5q34 0 56.5 26.5t37.5 85.5q1 5 6.5 9t9.5 4q13 0 10 -19q-23 -91 -72 -143.5t-122 -52.5q-34 0 -81.5 30.5t-90 61t-62.5 30.5t-28 -30q-9 -35 -7.5 -73t11.5 -67t22.5 -68.5t26.5 -76.5t23 -90.5t12 -111.5t-6.5 -139t-32.5 -173l-96 -385
q-9 -37 6 -37q33 0 170.5 309.5t279.5 685.5q61 162 131 255.5t140 93.5q67 0 32 -138l-180 -725q61 86 130 146.5t132 60.5q148 0 90 -243l-102 -408q-9 -37 6 -37q38 0 92.5 76t77.5 168q3 12 19 12q14 0 8 -18q-35 -142 -127 -245t-168 -103q-67 0 -33 137l96 389
q10 39 14 67t2 52.5t-16 36.5t-39 12q-86 0 -196 -164l-195 -774q-21 -84 -43 -139t-46.5 -82t-47 -37t-51.5 -10q-43 0 -60 31.5t-2 90.5q20 88 114 354.5t173 430.5l227 911q9 37 -6 37q-53 0 -145 -244q-159 -430 -369 -880q-109 -219 -207 -219q-37 0 -43.5 38.5
t11.5 98.5l22 94q-148 -231 -268 -231q-150 0 -88 243l100 408q9 37 -6 37q-38 0 -92 -75.5t-78 -168.5q-3 -12 -16 -12q-5 0 -8.5 5t-0.5 13q35 142 126 245t167 103q37 0 44 -38.5t-9 -98.5z" />
    <glyph glyph-name="uniFB16" unicode="&#x57e;&#x576;" horiz-adv-x="1642"
d="M1196 1092q111 274 117 299q5 18 -10 18q-42 0 -99 -61.5t-74 -126.5q-13 -52 6.5 -85.5t59.5 -43.5zM1006 1393q-16 0 -27.5 -27.5t-26.5 -91.5l-186 -742q47 106 136.5 397.5t111.5 377.5q20 86 -8 86zM1698 737q-29 0 -58 -119l-51 -202q85 140 109 235q19 86 0 86z
M434 641l-98 -389q-10 -39 -14 -67.5t-1 -52t17 -36t39 -12.5q34 0 87 43.5t114 140.5l223 897q28 111 59.5 172t59.5 79t67 18q43 0 60 -32t2 -91q-22 -83 -63 -223.5t-118 -362.5t-139 -342l-190 -768q-9 -37 6 -37q24 0 100.5 159t181 415t189 471t166.5 432
q-35 4 -62 12t-52.5 22.5t-35.5 40.5t0 62q19 76 111 159t164 83q48 0 34 -52q-3 -10 -112 -297q12 -2 43 -2q46 0 127 11l-211 -842q-10 -39 -14 -67.5t-1 -52t17 -36t39 -12.5q31 0 83 45.5t120 144.5l59 236q37 149 85 208.5t107 59.5q77 0 46 -123q-15 -64 -59 -149.5
t-97 -157.5l-55 -221q-9 -37 6 -37q38 0 92.5 76t77.5 168q3 12 18 12q14 0 8 -18q-35 -142 -127 -245t-168 -103q-37 0 -43.5 38.5t11.5 98.5l22 94q-148 -231 -268 -231q-150 0 -88 243l207 830h-52q-13 -33 -75.5 -195t-106.5 -273.5t-111.5 -278.5t-136 -324
t-133.5 -295q-104 -219 -205 -219q-37 0 -43.5 38.5t9.5 98.5l147 592q-55 -92 -126.5 -154.5t-137.5 -62.5q-150 0 -88 243l100 408q9 37 -6 37q-38 0 -92 -75.5t-78 -168.5q-3 -12 -16 -12q-5 0 -8.5 5t-0.5 13q35 142 126 245t167 103q37 0 44 -38.5t-9 -98.5z" />
    <glyph glyph-name="uniFB17" unicode="&#x574;&#x56d;" horiz-adv-x="1984"
d="M829 -492q29 0 58 119l149 598q-36 -83 -120 -332.5t-97 -298.5q-16 -86 10 -86zM2036 737q-29 0 -58 -119l-49 -196q81 128 107 229q19 86 0 86zM207 223l100 408q9 37 -6 37q-38 0 -92 -75.5t-78 -168.5q-3 -12 -16 -12q-5 0 -8.5 5t-0.5 13q35 142 126 245t167 103
q37 0 44 -38.5t-9 -98.5l-98 -389q-10 -39 -14 -67.5t-1 -52t17 -36t39 -12.5q31 0 83 45.5t120 144.5l59 236q30 123 40 230.5t5 183t-12.5 141.5t-7.5 134.5t16 133.5q13 52 32.5 76.5t53.5 24.5q35 0 141 -62.5t142 -62.5q34 0 56.5 26.5t37.5 85.5q1 5 6.5 9t9.5 4
q13 0 10 -19q-23 -91 -72 -143.5t-122 -52.5q-34 0 -81.5 30.5t-90 61t-62.5 30.5t-28 -30q-9 -35 -7.5 -73t11.5 -67t22.5 -68.5t26.5 -76.5t23 -90.5t12 -111.5t-6.5 -139t-32.5 -173l-96 -385q-9 -37 6 -37q33 0 170.5 309.5t279.5 685.5q61 162 131 255.5t140 93.5
q67 0 32 -138l-180 -725q61 86 130 146.5t132 60.5q148 0 90 -243l-71 -283q-10 -39 -14 -67.5t-1 -52t17 -36t39 -12.5q31 0 82.5 45t119.5 145l60 236q37 149 85 208.5t107 59.5q76 0 45 -123q-15 -64 -57.5 -146.5t-95.5 -154.5l-58 -227q-9 -37 7 -37q38 0 92.5 76
t77.5 168q3 12 18 12q14 0 8 -18q-35 -142 -127 -245t-168 -103q-37 0 -43.5 38.5t11.5 98.5l22 94q-55 -86 -130.5 -158.5t-137.5 -72.5q-150 0 -88 243l69 283q10 39 14 67t2 52.5t-16 36.5t-39 12q-86 0 -196 -164l-195 -774q-21 -84 -43 -139t-46.5 -82t-47 -37
t-51.5 -10q-43 0 -60 31.5t-2 90.5q20 88 114 354.5t173 430.5l227 911q9 37 -6 37q-53 0 -145 -244q-159 -430 -369 -880q-109 -219 -207 -219q-37 0 -43.5 38.5t11.5 98.5l22 94q-148 -231 -268 -231q-150 0 -88 243z" />
    <glyph glyph-name="f_f_j" unicode="ffj" horiz-adv-x="1560"
d="M309 -229q26 108 42.5 218.5t16.5 216t-24 156.5l-104 -417q-62 -250 -72 -317q-15 -103 16 -103q29 0 63 69.5t62 176.5zM420 666q88 137 163.5 302.5t106.5 288.5q7 29 11 48.5t6 40t-1.5 30.5t-13.5 10q-22 0 -50.5 -49t-61 -144t-56.5 -172t-58.5 -198t-45.5 -157z
M958 666q88 137 164 303t107 288q7 29 11 48.5t6 40t-1.5 30.5t-13.5 10q-16 0 -35.5 -27t-41 -77.5t-42 -107t-43.5 -132t-40.5 -134.5t-38.5 -132.5t-32 -109.5zM848 -229q26 108 42.5 218.5t16.5 216t-24 156.5l-105 -417q-63 -253 -72 -325q-13 -95 17 -95q29 0 63 69.5
t62 176.5zM1493 965q11 43 37 72.5t55 29.5t42 -29.5t3 -72.5t-38.5 -73t-57.5 -30t-40.5 30t-0.5 73zM1268 -23l162 654q9 37 -5 37q-22 0 -94 -170q-123 -297 -235 -297q-85 0 -146 135q19 -106 -3.5 -260.5t-57.5 -290.5q-78 -317 -205 -317q-147 0 -14 539q1 6 2 9
l86 340q-105 -155 -201 -155q-84 0 -145 135q33 -184 -62 -551q-78 -317 -205 -317q-26 0 -44 16t-25 47t-9.5 65.5t3 84t11 88.5t17 92t18.5 83t17 72l168 666q2 10 8 33q12 49 19 77.5t22 86t27 95.5t30 94t35.5 94.5t39 84.5t44 76.5t47.5 57.5t53.5 40t57.5 13
q92 0 45 -189q-36 -145 -133.5 -338.5t-196.5 -322.5l-18 -68q29 -4 42 -18.5t19 -46.5q27 -128 57.5 -170.5t73.5 -42.5q40 0 95.5 53.5t113.5 161.5l56 227q65 255 96 350q131 404 289 404q92 0 45 -189q-36 -145 -133.5 -338.5t-196.5 -322.5l-18 -68q29 -4 42 -18.5
t19 -46.5q27 -128 57.5 -170.5t73.5 -42.5q20 0 41 14.5t41.5 42.5t38 57t36.5 68.5t31 67t27 63t19 45.5q40 95 88 138.5t88 43.5q37 0 43.5 -38.5t-9.5 -98.5l-135 -539q64 67 170 168q16 14 24 4q6 -7 -3 -16q-152 -152 -203 -207l-70 -274q-74 -309 -225 -309
q-97 0 -67 118q41 162 221 391zM1188 -352l65 264q-78 -123 -116.5 -198t-51.5 -132q-21 -74 21 -74q45 0 82 140z" />
    <glyph glyph-name="f_j" unicode="fj" horiz-adv-x="1019"
d="M309 -229q26 108 42.5 218.5t16.5 216t-24 156.5l-104 -417q-62 -250 -72 -317q-15 -103 16 -103q29 0 63 69.5t62 176.5zM420 666q88 137 163.5 302.5t106.5 288.5q7 29 11 48.5t6 40t-1.5 30.5t-13.5 10q-22 0 -50.5 -49t-61 -144t-56.5 -172t-58.5 -198t-45.5 -157z
M1018 641l-135 -539q64 67 170 168q15 13 23 4q6 -7 -3 -16q-152 -152 -203 -207l-69 -274q-74 -309 -226 -309q-97 0 -67 118q41 162 221 391l162 654q5 19 4.5 28t-8.5 9q-22 0 -94 -170q-123 -297 -236 -297q-84 0 -145 135q33 -184 -62 -551q-78 -317 -205 -317
q-26 0 -44 16t-25 47t-9.5 65.5t3 84t11 88.5t17 92t18.5 83t17 72l168 666q2 10 8 33q12 49 19 77.5t22 86t27 95.5t30 94t35.5 94.5t39 84.5t44 76.5t47.5 57.5t53.5 40t57.5 13q92 0 45 -189q-36 -145 -133.5 -338.5t-196.5 -322.5l-18 -68q29 -4 42 -18.5t19 -46.5
q27 -128 57.5 -170.5t73.5 -42.5q20 0 41 14.5t41.5 42.5t38 57t36.5 68.5t31 67t27 63t19 45.5q40 95 88 138.5t88 43.5q37 0 44 -38.5t-9 -98.5zM954 965q11 43 37.5 72.5t55.5 29.5t42 -29.5t3 -72.5t-39 -73t-58 -30t-40.5 30t-0.5 73zM647 -352l66 264
q-78 -123 -116.5 -198t-51.5 -132q-21 -74 20 -74q45 0 82 140z" />
    <glyph glyph-name="fb" unicode="fb" horiz-adv-x="1425"
d="M309 -229q26 108 42.5 218.5t16.5 216t-24 156.5l-104 -417q-62 -250 -72 -317q-15 -103 16 -103q29 0 63 69.5t62 176.5zM420 666q88 137 163.5 302.5t106.5 288.5q7 29 11 48.5t6 40t-1.5 30.5t-13.5 10q-22 0 -50.5 -49t-61 -144t-56.5 -172t-58.5 -198t-45.5 -157z
M1034 707q79 105 156 266t108 284q31 129 -2 129q-16 0 -35 -24.5t-39.5 -71.5t-39.5 -99t-41 -123.5t-38.5 -126.5t-37 -126.5t-31.5 -107.5zM844 446q-68 -111 -150 -178t-133 -67q-45 0 -79 33t-70 102q33 -184 -62 -551q-78 -317 -205 -317q-26 0 -44 16t-25 47
t-9.5 65.5t3 84t11 88.5t17 92t18.5 83t17 72l168 666q2 10 8 33q12 49 19 77.5t22 86t27 95.5t30 94t35.5 94.5t39 84.5t44 76.5t47.5 57.5t53.5 40t57.5 13q92 0 45 -189q-36 -145 -133.5 -338.5t-196.5 -322.5l-18 -68q29 -4 42 -18.5t19 -46.5q28 -127 61 -170t77 -43
q42 0 121 74.5t167 222.5l35 145q65 255 96 350q131 404 289 404q92 0 43 -187q-34 -136 -124 -308t-195 -312l-74 -295q-28 -106 -19.5 -175.5t40.5 -103t83 -33.5q63 0 121 60t97 146t65 190q37 146 11.5 227.5t-111.5 81.5q-57 0 -102.5 -52t-59.5 -112q-5 -16 -16 -16
q-20 0 -15 20q22 84 91.5 148.5t146.5 64.5q113 0 167 -105.5t13 -277.5q-12 -47 -31.5 -96.5t-55.5 -108.5t-80.5 -104t-110 -75.5t-140.5 -30.5q-89 0 -144 65t-64 168.5t20 232.5z" />
    <glyph glyph-name="fh" unicode="fh" horiz-adv-x="1384"
d="M309 -229q26 108 42.5 218.5t16.5 216t-24 156.5l-104 -417q-62 -250 -72 -317q-15 -103 16 -103q29 0 63 69.5t62 176.5zM420 666q88 137 163.5 302.5t106.5 288.5q7 29 11 48.5t6 40t-1.5 30.5t-13.5 10q-22 0 -50.5 -49t-61 -144t-56.5 -172t-58.5 -198t-45.5 -157z
M1034 707q79 105 156 266t108 284q31 129 -2 129q-16 0 -35 -24.5t-39.5 -71.5t-39.5 -99t-41 -123.5t-38.5 -126.5t-37 -126.5t-31.5 -107.5zM711 20q29 0 55 119l51 203q-77 -121 -106 -236q-19 -86 0 -86zM834 410l8 30q-82 -118 -156 -178.5t-125 -60.5q-45 0 -79 33
t-70 102q33 -184 -62 -551q-78 -317 -205 -317q-26 0 -44 16t-25 47t-9.5 65.5t3 84t11 88.5t17 92t18.5 83t17 72l168 666q2 10 8 33q12 49 19 77.5t22 86t27 95.5t30 94t35.5 94.5t39 84.5t44 76.5t47.5 57.5t53.5 40t57.5 13q92 0 45 -189q-36 -145 -133.5 -338.5
t-196.5 -322.5l-18 -68q29 -4 42 -18.5t19 -46.5q28 -127 61 -170t77 -43q42 0 121 74.5t167 222.5l35 145q65 255 96 350q131 404 289 404q92 0 43 -187q-34 -136 -124 -308t-195 -312l-15 -56q61 86 130.5 146.5t132.5 60.5q148 0 90 -243l-103 -408q-9 -37 6 -37
q38 0 92.5 76t77.5 168q3 12 19 12q14 0 8 -18q-35 -142 -127 -245t-168 -103q-67 0 -33 137l97 389q10 39 14 67t2 52.5t-16 36.5t-39 12q-87 0 -197 -164l-65 -262q-67 -268 -193 -268q-80 0 -47 122q15 63 59 151t97 157z" />
    <glyph glyph-name="fk" unicode="fk" horiz-adv-x="1372"
d="M309 -229q26 108 42.5 218.5t16.5 216t-24 156.5l-104 -417q-62 -250 -72 -317q-15 -103 16 -103q29 0 63 69.5t62 176.5zM420 666q88 137 163.5 302.5t106.5 288.5q7 29 11 48.5t6 40t-1.5 30.5t-13.5 10q-22 0 -50.5 -49t-61 -144t-56.5 -172t-58.5 -198t-45.5 -157z
M737 14l97 385q-75 -118 -151.5 -180t-125.5 -59q-45 3 -79.5 47t-65.5 129q33 -184 -62 -551q-78 -317 -205 -317q-26 0 -44 16t-25 47t-9.5 65.5t3 84t11 88.5t17 92t18.5 83t17 72l168 666q2 10 8 33q12 49 19 77.5t22 86t27 95.5t30 94t35.5 94.5t39 84.5t44 76.5
t47.5 57.5t53.5 40t57.5 13q92 0 45 -189q-36 -145 -133.5 -338.5t-196.5 -322.5l-18 -68q29 -4 42 -18.5t19 -46.5q30 -137 60.5 -195.5t68.5 -58.5q46 0 121.5 73t165.5 224l45 186q65 255 96 350q131 404 289 404q92 0 43 -187q-35 -140 -131 -333.5t-196 -327.5l-3 -11
l-63 -251q40 104 93 191t128 149.5t152 62.5q70 0 104 -46t19 -116q-28 -115 -141.5 -200t-276.5 -89q0 -80 39 -144t102 -64q43 0 98 33.5t107 97.5q5 7 12.5 16.5t12 15.5t9.5 12t8.5 8.5t6.5 2.5q6 -4 6 -11t-9 -24.5t-15 -27t-11 -17.5q-51 -70 -127.5 -132t-140.5 -62
q-41 0 -70.5 29.5t-43.5 78.5t-20.5 98t-6.5 101q0 19 7 27t30 8q101 0 189.5 55t113.5 153q14 53 -10 79t-60 26q-54 0 -108 -48.5t-96 -121.5t-84 -157.5t-73.5 -157.5t-63 -121.5t-54.5 -48.5q-19 0 -25 7t-2 27zM1024 666q89 139 166.5 304.5t107.5 286.5q31 129 -2 129
q-22 0 -50.5 -49t-61 -144t-56.5 -172t-58.5 -198t-45.5 -157z" />
    <glyph glyph-name="ft" unicode="ft" horiz-adv-x="1179"
d="M309 -229q26 108 42.5 218.5t16.5 216t-24 156.5l-104 -417q-62 -250 -72 -317q-15 -103 16 -103q29 0 63 69.5t62 176.5zM801 264l55 223q-87 -165 -163 -236t-132 -71q-51 0 -85 37t-64 119q33 -184 -62 -551q-78 -317 -205 -317q-26 0 -44 16t-25 47t-9.5 65.5t3 84
t11 88.5t17 92t18.5 83t17 72l168 666q2 10 8 33q12 49 19 77.5t22 86t27 95.5t30 94t35.5 94.5t39 84.5t44 76.5t47.5 57.5t53.5 40t57.5 13q92 0 45 -189q-36 -145 -133.5 -338.5t-196.5 -322.5l-18 -68q29 -4 42 -18.5t19 -46.5q31 -140 58 -187t78 -47q50 0 133 102
t178 297l2 15q-82 -20 -156 -51q-14 -5 -34.5 -13.5t-30.5 -11.5q-8 -3 -14.5 -0.5t-8.5 8.5q-1 12 26 27q15 8 72 31q70 26 156 51l10 41q23 93 57.5 191t80 198.5t102.5 164.5t111 64q38 0 54.5 -32t0.5 -99q-25 -100 -115.5 -255t-169.5 -245q40 14 107.5 25.5
t105.5 13.5q25 2 40.5 2t29.5 -1t19.5 -5.5t4.5 -11.5q-4 -16 -22 -16l-57 -2q-115 -4 -238 -43l-82 -328q-11 -41 -17.5 -80.5t-8 -79.5t10 -65t36.5 -25q49 0 106 77t80 173q3 12 18 12q5 0 8.5 -5t0.5 -13q-35 -142 -127 -245t-168 -103q-43 0 -67 25.5t-29 69t0 90
t18 99.5zM420 666q88 137 163.5 302.5t106.5 288.5q7 29 11 48.5t6 40t-1.5 30.5t-13.5 10q-22 0 -50.5 -49t-61 -144t-56.5 -172t-58.5 -198t-45.5 -157zM1049 768q62 87 132.5 219.5t92.5 224.5q10 35 7.5 53.5t-21.5 18.5q-27 0 -89.5 -160t-121.5 -356z" />
    <glyph glyph-name="tt" unicode="tt" horiz-adv-x="1032"
d="M319 639l-120 -10q-69 -6 -79 -1q-6 4 -5 11q4 16 22 16l45 7l148 14l16 67q54 220 84 306q101 282 258 282q44 0 67.5 -33.5t2.5 -117.5q-24 -93 -109 -229t-192 -261l291 23q23 93 57 191t80 198.5t102.5 164.5t110.5 64q38 0 54.5 -32t0.5 -99q-25 -100 -111.5 -243
t-164.5 -224q39 5 229 29q79 5 88 2q10 -3 8 -12q-4 -17 -22 -17l-58 -6q-62 -5 -256 -33l-90 -362q-11 -41 -17.5 -80.5t-8 -79.5t10 -65t36.5 -25q49 0 106 77t80 173q3 12 18 12q5 0 8.5 -5t0.5 -13q-35 -142 -127 -245t-168 -103q-43 0 -67 25.5t-29 69t0 90t18 99.5
l55 223q-129 -271 -221 -389t-166 -118q-43 0 -67 25.5t-29 69t0 90t18 99.5zM360 63q99 0 367 568l12 45l-293 -25l-79 -317q-38 -148 -42 -196q-4 -75 35 -75zM473 760q64 77 144 214.5t100 217.5q22 92 -21 92q-13 0 -26 -10t-26 -31t-25 -44.5t-26 -60t-24.5 -67
t-25 -76.5t-24 -77.5t-24 -80.5t-22.5 -77zM891 791q180 262 219 421q10 35 7.5 53.5t-21.5 18.5q-27 0 -87 -151t-118 -342z" />
    <glyph glyph-name="uni0561_uni055B" unicode="&#x561;&#x55b;" horiz-adv-x="1163"
d="M895 1069l121 354q10 31 33 31q8 0 20 -6l70 -39q37 -18 2 -59l-213 -295q-10 -14 -18 -21.5t-13.5 -7.5t-8 4.5t-1 14.5t7.5 24zM846 737q-29 0 -58 -119l-51 -202q80 123 109 235q19 86 0 86zM207 223l100 408q9 37 -6 37q-38 0 -92 -75.5t-78 -168.5q-3 -12 -16 -12
q-5 0 -8.5 5t-0.5 13q35 142 126 245t167 103q37 0 44 -38.5t-9 -98.5l-98 -389q-10 -39 -14 -67.5t-1 -52t17 -36t39 -12.5q31 0 83 45.5t120 144.5l59 236q37 149 85 208.5t107 59.5q77 0 46 -123q-15 -64 -59 -149.5t-97 -157.5l-25 -96q-10 -39 -14 -67.5t-1 -52t17 -36
t39 -12.5q31 0 83 45.5t120 144.5l59 236q37 149 85.5 208.5t107.5 59.5q76 0 45 -123q-15 -64 -59 -149.5t-97 -157.5l-55 -221q-9 -37 6 -37q38 0 92.5 76t77.5 168q3 12 19 12q14 0 8 -18q-35 -142 -127 -245t-168 -103q-67 0 -33 137l23 94q-148 -231 -269 -231
q-54 0 -80.5 33t-25.5 84.5t14 113.5q-148 -231 -268 -231q-150 0 -88 243zM1206 737q-28 0 -57 -119l-51 -202q79 120 108 235q19 86 0 86z" />
    <glyph glyph-name="uni0561_uni055C" unicode="&#x561;&#x55c;" horiz-adv-x="1159"
d="M1108 1284q64 14 97.5 28.5t56.5 45.5q10 14 18.5 39.5t15.5 41t17 15.5q5 0 7 -7t1 -19t-3.5 -26t-6.5 -30q-21 -78 -76.5 -130.5t-142.5 -72.5q-45 -10 -67 -16.5t-47 -21t-40 -35.5q-11 -15 -20 -39.5t-15.5 -40t-15.5 -17.5q-5 0 -7 7t-1 19t3.5 26t6.5 30
q21 78 76.5 130.5t142.5 72.5zM846 737q-29 0 -58 -119l-51 -202q80 123 109 235q19 86 0 86zM207 223l100 408q9 37 -6 37q-38 0 -92 -75.5t-78 -168.5q-3 -12 -16 -12q-5 0 -8.5 5t-0.5 13q35 142 126 245t167 103q37 0 44 -38.5t-9 -98.5l-98 -389q-10 -39 -14 -67.5
t-1 -52t17 -36t39 -12.5q31 0 83 45.5t120 144.5l59 236q37 149 85 208.5t107 59.5q77 0 46 -123q-15 -64 -59 -149.5t-97 -157.5l-25 -96q-10 -39 -14 -67.5t-1 -52t17 -36t39 -12.5q31 0 83 45.5t120 144.5l59 236q37 149 85.5 208.5t107.5 59.5q76 0 45 -123
q-15 -64 -59 -149.5t-97 -157.5l-55 -221q-9 -37 6 -37q38 0 92.5 76t77.5 168q3 12 19 12q14 0 8 -18q-35 -142 -127 -245t-168 -103q-67 0 -33 137l23 94q-148 -231 -269 -231q-54 0 -80.5 33t-25.5 84.5t14 113.5q-148 -231 -268 -231q-150 0 -88 243zM1206 737
q-28 0 -57 -119l-51 -202q79 120 108 235q19 86 0 86z" />
    <glyph glyph-name="uni0561_uni055E" unicode="&#x561;&#x55f;" horiz-adv-x="1163"
d="M1118 1356q-68 0 -136 -68t-91 -162q-5 -18 -21 -18q-14 0 -8 18q41 166 128 257.5t181 91.5q63 0 97.5 -41.5t17.5 -104.5q-15 -63 -73.5 -109t-131.5 -46q-7 0 -11 2.5t-3 9.5q3 10 16 10q39 2 73 23t42 57q8 33 -14.5 56.5t-65.5 23.5zM846 737q-29 0 -58 -119
l-51 -202q80 123 109 235q19 86 0 86zM207 223l100 408q9 37 -6 37q-38 0 -92 -75.5t-78 -168.5q-3 -12 -16 -12q-5 0 -8.5 5t-0.5 13q35 142 126 245t167 103q37 0 44 -38.5t-9 -98.5l-98 -389q-10 -39 -14 -67.5t-1 -52t17 -36t39 -12.5q31 0 83 45.5t120 144.5l59 236
q37 149 85 208.5t107 59.5q77 0 46 -123q-15 -64 -59 -149.5t-97 -157.5l-25 -96q-10 -39 -14 -67.5t-1 -52t17 -36t39 -12.5q31 0 83 45.5t120 144.5l59 236q37 149 85.5 208.5t107.5 59.5q76 0 45 -123q-15 -64 -59 -149.5t-97 -157.5l-55 -221q-9 -37 6 -37q38 0 92.5 76
t77.5 168q3 12 19 12q14 0 8 -18q-35 -142 -127 -245t-168 -103q-67 0 -33 137l23 94q-148 -231 -269 -231q-54 0 -80.5 33t-25.5 84.5t14 113.5q-148 -231 -268 -231q-150 0 -88 243zM1206 737q-28 0 -57 -119l-51 -202q79 120 108 235q19 86 0 86z" />
    <glyph glyph-name="uni0565_uni055B" unicode="&#x565;&#x55b;" horiz-adv-x="868"
d="M731 1069l121 354q10 31 33 31q8 0 20 -6l70 -39q37 -18 2 -59l-213 -295q-10 -14 -18 -21.5t-13.5 -7.5t-8 4.5t-1 14.5t7.5 24zM825 655q-28 0 -57 -118l-41 -162q75 100 100 200q17 80 -2 80zM596 1296l-139 -563q225 94 512 94q51 0 73.5 -4t18.5 -18q-4 -17 -23 -17
h-55q-284 0 -537 -96l-110 -440q-10 -39 -14 -67.5t-1 -52t17 -36t39 -12.5q31 0 83 45.5t120 144.5l38 154q37 149 85.5 208.5t107.5 59.5q76 0 47 -116q-16 -63 -57 -136.5t-88 -130.5l-47 -186q-9 -37 6 -37q38 0 92.5 76t77.5 168q3 12 18 12q14 0 8 -18
q-35 -142 -127 -245t-168 -103q-37 0 -43.5 38.5t11.5 98.5l22 94q-148 -231 -268 -231q-150 0 -88 243l264 1063q9 37 -6 37q-38 0 -92.5 -76t-77.5 -168q-3 -12 -19 -12q-12 0 -6 18q35 142 126 245.5t167 103.5q67 0 33 -138z" />
    <glyph glyph-name="uni0565_uni055C" unicode="&#x565;&#x55c;" horiz-adv-x="874"
d="M944 1284q64 14 97.5 28.5t56.5 45.5q10 14 18.5 39.5t15.5 41t17 15.5q5 0 7 -7t1 -19t-3.5 -26t-6.5 -30q-21 -78 -76.5 -130.5t-142.5 -72.5q-45 -10 -67 -16.5t-47 -21t-40 -35.5q-11 -15 -20 -39.5t-15.5 -40t-15.5 -17.5q-5 0 -7 7t-1 19t3.5 26t6.5 30
q21 78 76.5 130.5t142.5 72.5zM825 655q-28 0 -57 -118l-41 -162q75 100 100 200q17 80 -2 80zM596 1296l-139 -563q225 94 512 94q51 0 73.5 -4t18.5 -18q-4 -17 -23 -17h-55q-284 0 -537 -96l-110 -440q-10 -39 -14 -67.5t-1 -52t17 -36t39 -12.5q31 0 83 45.5t120 144.5
l38 154q37 149 85.5 208.5t107.5 59.5q76 0 47 -116q-16 -63 -57 -136.5t-88 -130.5l-47 -186q-9 -37 6 -37q38 0 92.5 76t77.5 168q3 12 18 12q14 0 8 -18q-35 -142 -127 -245t-168 -103q-37 0 -43.5 38.5t11.5 98.5l22 94q-148 -231 -268 -231q-150 0 -88 243l264 1063
q9 37 -6 37q-38 0 -92.5 -76t-77.5 -168q-3 -12 -19 -12q-12 0 -6 18q35 142 126 245.5t167 103.5q67 0 33 -138z" />
    <glyph glyph-name="uni0565_uni055E" unicode="&#x565;&#x55f;" horiz-adv-x="864"
d="M975 1356q-68 0 -136 -68t-91 -162q-4 -18 -21 -18q-14 0 -8 18q41 166 128 257.5t181 91.5q63 0 97.5 -41.5t17.5 -104.5q-15 -63 -73.5 -109t-131.5 -46q-7 0 -11 2.5t-3 9.5q3 10 16 10q39 2 73 23t42 57q8 33 -14.5 56.5t-65.5 23.5zM825 655q-28 0 -57 -118
l-41 -162q75 100 100 200q17 80 -2 80zM596 1296l-139 -563q225 94 512 94q51 0 73.5 -4t18.5 -18q-4 -17 -23 -17h-55q-284 0 -537 -96l-110 -440q-10 -39 -14 -67.5t-1 -52t17 -36t39 -12.5q31 0 83 45.5t120 144.5l38 154q37 149 85.5 208.5t107.5 59.5q76 0 47 -116
q-16 -63 -57 -136.5t-88 -130.5l-47 -186q-9 -37 6 -37q38 0 92.5 76t77.5 168q3 12 18 12q14 0 8 -18q-35 -142 -127 -245t-168 -103q-37 0 -43.5 38.5t11.5 98.5l22 94q-148 -231 -268 -231q-150 0 -88 243l264 1063q9 37 -6 37q-38 0 -92.5 -76t-77.5 -168
q-3 -12 -19 -12q-12 0 -6 18q35 142 126 245.5t167 103.5q67 0 33 -138z" />
    <glyph glyph-name="uni0567_uni055C" unicode="&#x567;&#x55c;" horiz-adv-x="782"
d="M862 1284q64 14 97.5 28.5t56.5 45.5q10 14 18.5 39.5t15.5 41t17 15.5q5 0 7 -7t1 -19t-3.5 -26t-6.5 -30q-21 -78 -76.5 -130.5t-142.5 -72.5q-45 -10 -67 -16.5t-47 -21t-40 -35.5q-11 -15 -20 -39.5t-15.5 -40t-15.5 -17.5q-5 0 -7 7t-1 19t3.5 26t6.5 30
q21 78 76.5 130.5t142.5 72.5zM156 23l315 1263q9 37 -6 37q-38 0 -92.5 -76t-77.5 -168q-3 -12 -19 -12q-12 0 -6 18q35 142 126 245.5t167 103.5q67 0 33 -138l-139 -563q82 26 210.5 45t217.5 19q96 0 90 -23q-5 -18 -57 -18q-222 0 -472 -64l-153 -616q66 16 147 16
q71 0 116 -25.5t34 -72.5q-18 -74 -119.5 -121t-232.5 -47q-12 0 -17 16q7 15 19 15q82 0 140 28.5t71 81.5q7 33 -15.5 55.5t-62.5 22.5q-52 0 -99.5 -10.5t-75.5 -21.5t-32 -11q-14 0 -10 21z" />
    <glyph glyph-name="uni0567_uni055E" unicode="&#x567;&#x55f;" horiz-adv-x="782"
d="M893 1356q-68 0 -136 -68t-91 -162q-4 -18 -21 -18q-14 0 -8 18q41 166 128 257.5t181 91.5q63 0 97.5 -41.5t17.5 -104.5q-15 -63 -73.5 -109t-131.5 -46q-7 0 -11 2.5t-3 9.5q3 10 16 10q39 2 73 23t42 57q8 33 -14.5 56.5t-65.5 23.5zM156 23l315 1263q9 37 -6 37
q-38 0 -92.5 -76t-77.5 -168q-3 -12 -19 -12q-12 0 -6 18q35 142 126 245.5t167 103.5q67 0 33 -138l-139 -563q82 26 210.5 45t217.5 19q96 0 90 -23q-5 -18 -57 -18q-222 0 -472 -64l-153 -616q66 16 147 16q71 0 116 -25.5t34 -72.5q-18 -74 -119.5 -121t-232.5 -47
q-12 0 -17 16q7 15 19 15q82 0 140 28.5t71 81.5q7 33 -15.5 55.5t-62.5 22.5q-52 0 -99.5 -10.5t-75.5 -21.5t-32 -11q-14 0 -10 21z" />
    <glyph glyph-name="uni0568_uni055B" unicode="&#x568;&#x55b;" horiz-adv-x="808"
d="M731 1069l121 354q10 31 33 31q8 0 20 -6l70 -39q37 -18 2 -59l-213 -295q-10 -14 -18 -21.5t-13.5 -7.5t-8 4.5t-1 14.5t7.5 24zM88 -252l219 883q9 37 -6 37q-38 0 -92 -75.5t-78 -168.5q-3 -12 -16 -12q-5 0 -8.5 5t-0.5 13q35 142 126 245t167 103q37 0 44 -38.5
t-9 -98.5l-24 -94q148 231 268 231q148 0 90 -243l-102 -408q-9 -37 6 -37q38 0 92.5 76t77.5 168q3 12 18 12q14 0 8 -18q-35 -142 -127 -245t-168 -103q-37 0 -43.5 38.5t11.5 98.5l96 389q10 39 14 67t2 52.5t-16 36.5t-39 12q-31 0 -84 -46t-121 -145l-174 -704
q-30 -110 -19.5 -155.5t72.5 -45.5q73 0 166.5 73t165.5 191q6 13 19 13t10 -19q-10 -40 -60 -102.5t-116 -121.5t-144.5 -101.5t-138.5 -42.5q-77 0 -99 71t13 209z" />
    <glyph glyph-name="uni0568_uni055C" unicode="&#x568;&#x55c;" horiz-adv-x="831"
d="M883 1284q63 14 96.5 28.5t56.5 45.5q10 14 18.5 39.5t15.5 41t17 15.5q5 0 7 -7t1 -19t-3.5 -26t-6.5 -30q-21 -78 -76.5 -130.5t-142.5 -72.5q-65 -15 -98.5 -28.5t-54.5 -44.5q-11 -15 -20 -39.5t-15.5 -40t-15.5 -17.5q-5 0 -7 7t-1 19t3.5 26t6.5 30
q21 78 76.5 130.5t142.5 72.5zM88 -252l219 883q9 37 -6 37q-38 0 -92 -75.5t-78 -168.5q-3 -12 -16 -12q-5 0 -8.5 5t-0.5 13q35 142 126 245t167 103q37 0 44 -38.5t-9 -98.5l-24 -94q148 231 268 231q148 0 90 -243l-102 -408q-9 -37 6 -37q38 0 92.5 76t77.5 168
q3 12 18 12q14 0 8 -18q-35 -142 -127 -245t-168 -103q-37 0 -43.5 38.5t11.5 98.5l96 389q10 39 14 67t2 52.5t-16 36.5t-39 12q-31 0 -84 -46t-121 -145l-174 -704q-30 -110 -19.5 -155.5t72.5 -45.5q73 0 166.5 73t165.5 191q6 13 19 13t10 -19q-10 -40 -60 -102.5
t-116 -121.5t-144.5 -101.5t-138.5 -42.5q-77 0 -99 71t13 209z" />
    <glyph glyph-name="uni0568_uni055E" unicode="&#x568;&#x55f;" horiz-adv-x="800"
d="M893 1356q-68 0 -136 -68t-91 -162q-4 -18 -21 -18q-14 0 -8 18q41 166 128 257.5t181 91.5q63 0 97.5 -41.5t17.5 -104.5q-15 -63 -73.5 -109t-131.5 -46q-7 0 -11 2.5t-3 9.5q3 10 16 10q39 2 73 23t42 57q8 33 -14.5 56.5t-65.5 23.5zM88 -252l219 883q9 37 -6 37
q-38 0 -92 -75.5t-78 -168.5q-3 -12 -16 -12q-5 0 -8.5 5t-0.5 13q35 142 126 245t167 103q37 0 44 -38.5t-9 -98.5l-24 -94q148 231 268 231q148 0 90 -243l-102 -408q-9 -37 6 -37q38 0 92.5 76t77.5 168q3 12 18 12q14 0 8 -18q-35 -142 -127 -245t-168 -103
q-37 0 -43.5 38.5t11.5 98.5l96 389q10 39 14 67t2 52.5t-16 36.5t-39 12q-31 0 -84 -46t-121 -145l-174 -704q-30 -110 -19.5 -155.5t72.5 -45.5q73 0 166.5 73t165.5 191q6 13 19 13t10 -19q-10 -40 -60 -102.5t-116 -121.5t-144.5 -101.5t-138.5 -42.5q-77 0 -99 71
t13 209z" />
    <glyph glyph-name="uni056B_uni055B" unicode="&#x56b;&#x55b;" horiz-adv-x="1042"
d="M731 1069l121 354q10 31 33 31q8 0 20 -6l70 -39q37 -18 2 -59l-213 -295q-10 -14 -18 -21.5t-13.5 -7.5t-8 4.5t-1 14.5t7.5 24zM6 -492q22 0 51 119l150 598q-39 -88 -120.5 -340t-86.5 -291q-8 -86 6 -86zM596 1296l-180 -725q61 86 130 146.5t132 60.5q148 0 90 -243
l-102 -408q-9 -37 6 -37q38 0 92.5 76t77.5 168q3 12 18 12q14 0 8 -18q-35 -142 -127 -245t-168 -103q-37 0 -43.5 38.5t11.5 98.5l96 389q10 39 14 67t2 52.5t-16 36.5t-39 12q-87 0 -197 -164l-194 -774q-21 -84 -43.5 -139t-47 -82t-47 -37t-51.5 -10q-34 0 -47.5 31
t0.5 91q23 102 109 363t164 422l227 911q9 37 -6 37q-38 0 -92.5 -76t-77.5 -168q-3 -12 -19 -12q-12 0 -6 18q35 142 126 245.5t167 103.5q67 0 33 -138z" />
    <glyph glyph-name="uni056B_uni055C" unicode="&#x56b;&#x55c;" horiz-adv-x="811"
d="M903 1284q64 14 97.5 28.5t56.5 45.5q10 14 18.5 39.5t15.5 41t17 15.5q5 0 7 -7t1 -19t-3.5 -26t-6.5 -30q-21 -78 -76.5 -130.5t-142.5 -72.5q-45 -10 -67 -16.5t-47 -21t-40 -35.5q-11 -15 -20 -39.5t-15.5 -40t-15.5 -17.5q-5 0 -7 7t-1 19t3.5 26t6.5 30
q21 78 76.5 130.5t142.5 72.5zM6 -492q22 0 51 119l150 598q-39 -88 -120.5 -340t-86.5 -291q-8 -86 6 -86zM596 1296l-180 -725q61 86 130 146.5t132 60.5q148 0 90 -243l-102 -408q-9 -37 6 -37q38 0 92.5 76t77.5 168q3 12 18 12q14 0 8 -18q-35 -142 -127 -245
t-168 -103q-37 0 -43.5 38.5t11.5 98.5l96 389q10 39 14 67t2 52.5t-16 36.5t-39 12q-87 0 -197 -164l-194 -774q-21 -84 -43.5 -139t-47 -82t-47 -37t-51.5 -10q-34 0 -47.5 31t0.5 91q23 102 109 363t164 422l227 911q9 37 -6 37q-38 0 -92.5 -76t-77.5 -168
q-3 -12 -19 -12q-12 0 -6 18q35 142 126 245.5t167 103.5q67 0 33 -138z" />
    <glyph glyph-name="uni056B_uni055E" unicode="&#x56b;&#x55f;" horiz-adv-x="806"
d="M913 1356q-68 0 -136 -68t-91 -162q-4 -18 -20 -18q-5 0 -8.5 5t-0.5 13q41 166 128.5 257.5t181.5 91.5q63 0 97 -41.5t17 -104.5q-15 -64 -73 -109.5t-131 -45.5q-7 0 -11.5 2.5t-3.5 9.5q3 10 17 10q39 2 72.5 23t41.5 57q8 33 -14.5 56.5t-65.5 23.5zM6 -492
q22 0 51 119l150 598q-39 -88 -120.5 -340t-86.5 -291q-8 -86 6 -86zM596 1296l-180 -725q61 86 130 146.5t132 60.5q148 0 90 -243l-102 -408q-9 -37 6 -37q38 0 92.5 76t77.5 168q3 12 18 12q14 0 8 -18q-35 -142 -127 -245t-168 -103q-37 0 -43.5 38.5t11.5 98.5l96 389
q10 39 14 67t2 52.5t-16 36.5t-39 12q-87 0 -197 -164l-194 -774q-21 -84 -43.5 -139t-47 -82t-47 -37t-51.5 -10q-34 0 -47.5 31t0.5 91q23 102 109 363t164 422l227 911q9 37 -6 37q-38 0 -92.5 -76t-77.5 -168q-3 -12 -19 -12q-12 0 -6 18q35 142 126 245.5t167 103.5
q67 0 33 -138z" />
    <glyph glyph-name="uni0578_uni055B" unicode="&#x578;&#x55b;" horiz-adv-x="798"
d="M711 1069l120 354q10 31 33 31q9 0 21 -6l69 -39q37 -18 2 -59l-213 -295q-24 -35 -35.5 -28.5t3.5 42.5zM252 410l55 221q9 37 -6 37q-38 0 -92 -75.5t-78 -168.5q-3 -12 -16 -12q-5 0 -8.5 5t-0.5 13q35 142 126 245t167 103q37 0 44 -38.5t-9 -98.5l-24 -94
q148 231 268 231q148 0 90 -243l-102 -408q-9 -37 6 -37q38 0 92.5 76t77.5 168q3 12 18 12q14 0 8 -18q-35 -142 -127 -245t-168 -103q-37 0 -43.5 38.5t11.5 98.5l96 389q10 39 14 67t2 52.5t-16 36.5t-39 12q-31 0 -84 -46t-121 -145l-57 -235q-67 -268 -195 -268
q-75 0 -45 122q17 66 61 152.5t95 155.5zM127 20q28 0 57 119l52 203q-80 -122 -109 -236q-19 -86 0 -86z" />
    <glyph glyph-name="uni0578_uni055C" unicode="&#x578;&#x55c;" horiz-adv-x="817"
d="M883 1284q63 14 96.5 28.5t56.5 45.5q10 14 18.5 39.5t15.5 41t17 15.5q5 0 7 -7t1 -19t-3.5 -26t-6.5 -30q-21 -78 -76.5 -130.5t-142.5 -72.5q-65 -15 -98.5 -28.5t-54.5 -44.5q-11 -15 -20 -39.5t-15.5 -40t-15.5 -17.5q-5 0 -7 7t-1 19t3.5 26t6.5 30
q21 78 76.5 130.5t142.5 72.5zM252 410l55 221q9 37 -6 37q-38 0 -92 -75.5t-78 -168.5q-3 -12 -16 -12q-5 0 -8.5 5t-0.5 13q35 142 126 245t167 103q37 0 44 -38.5t-9 -98.5l-24 -94q148 231 268 231q148 0 90 -243l-102 -408q-9 -37 6 -37q38 0 92.5 76t77.5 168
q3 12 18 12q14 0 8 -18q-35 -142 -127 -245t-168 -103q-37 0 -43.5 38.5t11.5 98.5l96 389q10 39 14 67t2 52.5t-16 36.5t-39 12q-31 0 -84 -46t-121 -145l-57 -235q-67 -268 -195 -268q-75 0 -45 122q17 66 61 152.5t95 155.5zM127 20q28 0 57 119l52 203
q-80 -122 -109 -236q-19 -86 0 -86z" />
    <glyph glyph-name="uni0578_uni055E" unicode="&#x578;&#x55f;" horiz-adv-x="817"
d="M913 1356q-68 0 -136 -68t-91 -162q-4 -18 -20 -18q-5 0 -8.5 5t-0.5 13q41 166 128.5 257.5t181.5 91.5q63 0 97 -41.5t17 -104.5q-15 -64 -73 -109.5t-131 -45.5q-7 0 -11.5 2.5t-3.5 9.5q3 10 17 10q39 2 72.5 23t41.5 57q8 33 -14.5 56.5t-65.5 23.5zM252 410l55 221
q9 37 -6 37q-38 0 -92 -75.5t-78 -168.5q-3 -12 -16 -12q-5 0 -8.5 5t-0.5 13q35 142 126 245t167 103q37 0 44 -38.5t-9 -98.5l-24 -94q148 231 268 231q148 0 90 -243l-102 -408q-9 -37 6 -37q38 0 92.5 76t77.5 168q3 12 18 12q14 0 8 -18q-35 -142 -127 -245t-168 -103
q-37 0 -43.5 38.5t11.5 98.5l96 389q10 39 14 67t2 52.5t-16 36.5t-39 12q-31 0 -84 -46t-121 -145l-57 -235q-67 -268 -195 -268q-75 0 -45 122q17 66 61 152.5t95 155.5zM127 20q28 0 57 119l52 203q-80 -122 -109 -236q-19 -86 0 -86z" />
    <glyph glyph-name="uni0585_uni055B" unicode="&#x585;&#x55b;" horiz-adv-x="800"
d="M555 778q-96 0 -184 -59t-145.5 -147t-82.5 -187q-46 -187 19.5 -296t228.5 -109q146 0 264 106t166 299q40 158 -13 265.5t-171 107.5q-77 0 -146.5 -50.5t-91.5 -140.5q-7 -20 13 -20q13 0 16 16q15 58 55.5 100t98.5 42q88 0 114.5 -97t-12.5 -243q-14 -57 -39 -113.5
t-60 -110.5t-84.5 -87.5t-103.5 -33.5q-56 0 -90.5 32.5t-44.5 88t-5 122.5t24 143q37 151 118 246.5t162 95.5q18 0 21 10q2 8 -5.5 14t-21.5 6zM672 1069l209 354q17 31 41 31q6 0 18 -6l59 -39q33 -17 -12 -59l-287 -295q-36 -38 -44 -27q-7 8 16 41z" />
    <glyph glyph-name="uni0585_uni055C" unicode="&#x585;&#x55c;" horiz-adv-x="800"
d="M555 778q-96 0 -184 -59t-145.5 -147t-82.5 -187q-46 -187 19.5 -296t228.5 -109q146 0 264 106t166 299q40 158 -13 265.5t-171 107.5q-77 0 -146.5 -50.5t-91.5 -140.5q-7 -20 13 -20q13 0 16 16q15 58 55.5 100t98.5 42q88 0 114.5 -97t-12.5 -243q-14 -57 -39 -113.5
t-60 -110.5t-84.5 -87.5t-103.5 -33.5q-56 0 -90.5 32.5t-44.5 88t-5 122.5t24 143q37 151 118 246.5t162 95.5q18 0 21 10q2 8 -5.5 14t-21.5 6zM801 1284q63 14 96.5 28.5t56.5 45.5q10 14 18.5 39.5t16 41t17.5 15.5q5 0 7 -7t1 -19t-3.5 -26t-6.5 -30q-21 -77 -77 -130
t-143 -73q-65 -15 -98.5 -28.5t-54.5 -44.5q-11 -15 -20 -39.5t-15.5 -40t-15.5 -17.5q-5 0 -7 7t-1 19t3.5 26t6.5 30q21 78 76.5 130.5t142.5 72.5z" />
    <glyph glyph-name="uni0585_uni055E" unicode="&#x585;&#x55f;" horiz-adv-x="804"
d="M555 778q-96 0 -184 -59t-145.5 -147t-82.5 -187q-46 -187 19.5 -296t228.5 -109q146 0 264 106t166 299q40 158 -13 265.5t-171 107.5q-77 0 -146.5 -50.5t-91.5 -140.5q-7 -20 13 -20q13 0 16 16q15 58 55.5 100t98.5 42q88 0 114.5 -97t-12.5 -243q-14 -57 -39 -113.5
t-60 -110.5t-84.5 -87.5t-103.5 -33.5q-56 0 -90.5 32.5t-44.5 88t-5 122.5t24 143q37 151 118 246.5t162 95.5q18 0 21 10q2 8 -5.5 14t-21.5 6zM893 1356q-68 0 -136 -68t-91 -162q-4 -18 -21 -18q-14 0 -8 18q41 166 128 257.5t181 91.5q63 0 97.5 -41.5t17.5 -104.5
q-15 -63 -73.5 -109t-131.5 -46q-7 0 -11 2.5t-3 9.5q3 10 16 10q39 2 73 23t42 57q8 33 -14.5 56.5t-65.5 23.5z" />
    <glyph glyph-name="uni0587_uni055B" unicode="&#x587;&#x55b;" horiz-adv-x="872"
d="M672 1069l209 354q17 31 41 31q6 0 18 -6l59 -39q33 -17 -12 -59l-287 -295q-36 -38 -44 -27q-7 8 16 41zM846 737q19 0 0 -86q-29 -112 -109 -235l51 202q29 119 58 119zM207 223l264 1063q9 37 -6 37q-38 0 -92.5 -76t-77.5 -168q-3 -12 -19 -12q-12 0 -6 18
q35 142 126 245.5t167 103.5q67 0 33 -138l-260 -1044q-10 -39 -14 -67.5t-1 -52t17 -36t39 -12.5q31 0 83 45.5t120 144.5l59 236q37 149 85 208.5t107 59.5q77 0 46 -123q-15 -64 -59 -149.5t-97 -157.5l-59 -235q31 -10 54.5 -34t41.5 -41.5t41 -17.5q32 0 82 50
q12 12 20 8q3 -2 3 -9.5t-5 -15.5q-26 -32 -63.5 -54t-67.5 -19q-28 2 -50 20.5t-40 37t-35 19.5q-16 -40 -50.5 -58.5t-74.5 -18.5q-12 0 -2 40l47 191q-148 -231 -268 -231q-150 0 -88 243z" />
    <glyph glyph-name="uni0587_uni055C" unicode="&#x587;&#x55c;" horiz-adv-x="866"
d="M821 1284q64 14 97.5 28.5t56.5 45.5q10 14 18.5 39.5t15.5 41t17 15.5q5 0 7 -7t1 -19t-3.5 -26t-6.5 -30q-21 -78 -76.5 -130.5t-142.5 -72.5q-45 -10 -67 -16.5t-47 -21t-40 -35.5q-11 -15 -20 -39.5t-15.5 -40t-15.5 -17.5q-5 0 -7 7t-1 19t3.5 26t6.5 30
q21 78 76.5 130.5t142.5 72.5zM846 737q19 0 0 -86q-29 -112 -109 -235l51 202q29 119 58 119zM207 223l264 1063q9 37 -6 37q-38 0 -92.5 -76t-77.5 -168q-3 -12 -19 -12q-12 0 -6 18q35 142 126 245.5t167 103.5q67 0 33 -138l-260 -1044q-10 -39 -14 -67.5t-1 -52t17 -36
t39 -12.5q31 0 83 45.5t120 144.5l59 236q37 149 85 208.5t107 59.5q77 0 46 -123q-15 -64 -59 -149.5t-97 -157.5l-59 -235q31 -10 54.5 -34t41.5 -41.5t41 -17.5q32 0 82 50q12 12 20 8q3 -2 3 -9.5t-5 -15.5q-26 -32 -63.5 -54t-67.5 -19q-28 2 -50 20.5t-40 37t-35 19.5
q-16 -40 -50.5 -58.5t-74.5 -18.5q-12 0 -2 40l47 191q-148 -231 -268 -231q-150 0 -88 243z" />
    <glyph glyph-name="uni0587_uni055E" unicode="&#x587;&#x55f;" horiz-adv-x="866"
d="M893 1356q-68 0 -136 -68t-91 -162q-4 -18 -21 -18q-14 0 -8 18q41 166 128 257.5t181 91.5q63 0 97.5 -41.5t17.5 -104.5q-15 -63 -73.5 -109t-131.5 -46q-7 0 -11 2.5t-3 9.5q3 10 16 10q39 2 73 23t42 57q8 33 -14.5 56.5t-65.5 23.5zM846 737q19 0 0 -86
q-29 -112 -109 -235l51 202q29 119 58 119zM207 223l264 1063q9 37 -6 37q-38 0 -92.5 -76t-77.5 -168q-3 -12 -19 -12q-12 0 -6 18q35 142 126 245.5t167 103.5q67 0 33 -138l-260 -1044q-10 -39 -14 -67.5t-1 -52t17 -36t39 -12.5q31 0 83 45.5t120 144.5l59 236
q37 149 85 208.5t107 59.5q77 0 46 -123q-15 -64 -59 -149.5t-97 -157.5l-59 -235q31 -10 54.5 -34t41.5 -41.5t41 -17.5q32 0 82 50q12 12 20 8q3 -2 3 -9.5t-5 -15.5q-26 -32 -63.5 -54t-67.5 -19q-28 2 -50 20.5t-40 37t-35 19.5q-16 -40 -50.5 -58.5t-74.5 -18.5
q-12 0 -2 40l47 191q-148 -231 -268 -231q-150 0 -88 243z" />
    <glyph glyph-name="uni0574_uni0565_uni055B" unicode="&#x574;&#x565;&#x55b;" horiz-adv-x="1703"
d="M207 223l100 408q9 37 -6 37q-38 0 -92 -75.5t-78 -168.5q-3 -12 -16 -12q-5 0 -8.5 5t-0.5 13q35 142 126 245t167 103q37 0 44 -38.5t-9 -98.5l-98 -389q-10 -39 -14 -67.5t-1 -52t17 -36t39 -12.5q31 0 83 45.5t120 144.5l59 236q30 123 40 230.5t5 183t-12.5 141.5
t-7.5 134.5t16 133.5q13 52 32.5 76.5t53.5 24.5q35 0 141 -62.5t142 -62.5q34 0 56.5 26.5t37.5 85.5q1 5 6.5 9t9.5 4q13 0 10 -19q-23 -91 -72 -143.5t-122 -52.5q-34 0 -81.5 30.5t-90 61t-62.5 30.5t-28 -30q-9 -35 -7.5 -73t11.5 -67t22.5 -68.5t26.5 -76.5t23 -90.5
t12 -111.5t-6.5 -139t-32.5 -173l-96 -385q-9 -37 6 -37q33 0 170.5 309.5t279.5 685.5q61 162 131 255.5t140 93.5q67 0 32 -138l-139 -563q225 94 512 94q51 0 73.5 -4t18.5 -18q-4 -17 -22 -17h-56q-283 0 -536 -96l-111 -440q-10 -39 -14 -67.5t-1 -52t17 -36t39 -12.5
q31 0 83 45.5t120 144.5l39 154q37 149 85 208.5t107 59.5q77 0 48 -116q-16 -63 -57.5 -136t-88.5 -131l-47 -186q-9 -37 6 -37q38 0 92.5 76t77.5 168q3 12 19 12q14 0 8 -18q-35 -142 -127 -245t-168 -103q-67 0 -33 137l23 94q-148 -231 -269 -231q-150 0 -88 243
l264 1063q9 37 -6 37q-53 0 -145 -244q-159 -430 -369 -880q-109 -219 -207 -219q-37 0 -43.5 38.5t11.5 98.5l22 94q-148 -231 -268 -231q-150 0 -88 243zM1655 655q-29 0 -58 -118l-41 -162q76 102 101 200q17 80 -2 80zM1501 1069l209 354q17 31 41 31q6 0 18 -6l60 -39
q33 -17 -12 -59l-287 -295q-37 -39 -45 -27q-6 10 16 41z" />
    <glyph glyph-name="uni0574_uni0565_uni055C" unicode="&#x574;&#x565;&#x55c;" horiz-adv-x="1695"
d="M1657 655q-29 0 -58 -118l-40 -162q75 100 100 200q17 80 -2 80zM1673 1284q64 14 97.5 28.5t56.5 45.5q10 14 18.5 39.5t15.5 41t17 15.5q5 0 7 -7t1 -19t-3.5 -26t-6.5 -30q-21 -78 -76.5 -130.5t-142.5 -72.5q-45 -10 -67 -16.5t-47 -21t-40 -35.5q-11 -15 -20 -39.5
t-15.5 -40t-15.5 -17.5q-5 0 -7 7t-1 19t3.5 26t6.5 30q21 78 76.5 130.5t142.5 72.5zM436 641l-98 -389q-10 -39 -14 -67.5t-1 -52t17 -36t39 -12.5q31 0 83 45.5t120 144.5l59 236q30 123 40 230.5t5 183t-12.5 141.5t-7.5 134.5t16 133.5q13 52 32.5 76.5t53.5 24.5
q35 0 141 -62.5t142 -62.5q34 0 56.5 26.5t37.5 85.5q1 5 6.5 9t9.5 4q13 0 10 -19q-23 -91 -72 -143.5t-122 -52.5q-34 0 -81.5 30.5t-90 61t-62.5 30.5t-28 -30q-9 -35 -7.5 -73t11.5 -67t22.5 -68.5t26.5 -76.5t23 -90.5t12 -111.5t-6.5 -139t-32.5 -173l-96 -385
q-9 -37 6 -37q33 0 170.5 309.5t279.5 685.5q61 162 131 255.5t140 93.5q67 0 32 -138l-139 -563q225 94 512 94q51 0 73.5 -4t18.5 -18q-4 -17 -22 -17h-55q-284 0 -537 -96l-111 -440q-10 -39 -14 -67.5t-1 -52t17 -36t39 -12.5q31 0 83 45.5t120 144.5l39 154
q37 149 85 208.5t107 59.5q77 0 48 -116q-16 -63 -57.5 -136t-88.5 -131l-47 -186q-9 -37 6 -37q38 0 92.5 76t77.5 168q3 12 19 12q14 0 8 -18q-35 -142 -127 -245t-168 -103q-67 0 -33 137l23 94q-148 -231 -269 -231q-150 0 -88 243l265 1063q9 37 -7 37q-53 0 -145 -244
q-159 -430 -369 -880q-109 -219 -207 -219q-37 0 -43.5 38.5t11.5 98.5l22 94q-148 -231 -268 -231q-150 0 -88 243l100 408q9 37 -6 37q-38 0 -92 -75.5t-78 -168.5q-3 -12 -16 -12q-6 0 -10 5t-1 13q35 142 127 245t168 103q37 0 44 -38.5t-9 -98.5z" />
    <glyph glyph-name="uni0574_uni0565_uni055E" unicode="&#x574;&#x565;&#x55f;" horiz-adv-x="1691"
d="M207 223l100 408q9 37 -6 37q-38 0 -92 -75.5t-78 -168.5q-3 -12 -16 -12q-5 0 -8.5 5t-0.5 13q35 142 126 245t167 103q37 0 44 -38.5t-9 -98.5l-98 -389q-10 -39 -14 -67.5t-1 -52t17 -36t39 -12.5q31 0 83 45.5t120 144.5l59 236q30 123 40 230.5t5 183t-12.5 141.5
t-7.5 134.5t16 133.5q13 52 32.5 76.5t53.5 24.5q35 0 141 -62.5t142 -62.5q34 0 56.5 26.5t37.5 85.5q1 5 6.5 9t9.5 4q13 0 10 -19q-23 -91 -72 -143.5t-122 -52.5q-34 0 -81.5 30.5t-90 61t-62.5 30.5t-28 -30q-9 -35 -7.5 -73t11.5 -67t22.5 -68.5t26.5 -76.5t23 -90.5
t12 -111.5t-6.5 -139t-32.5 -173l-96 -385q-9 -37 6 -37q33 0 170.5 309.5t279.5 685.5q61 162 131 255.5t140 93.5q67 0 32 -138l-139 -563q225 94 512 94q51 0 73.5 -4t18.5 -18q-4 -17 -22 -17h-56q-283 0 -536 -96l-111 -440q-10 -39 -14 -67.5t-1 -52t17 -36t39 -12.5
q31 0 83 45.5t120 144.5l39 154q37 149 85 208.5t107 59.5q77 0 48 -116q-16 -63 -57.5 -136t-88.5 -131l-47 -186q-9 -37 6 -37q38 0 92.5 76t77.5 168q3 12 19 12q14 0 8 -18q-35 -142 -127 -245t-168 -103q-67 0 -33 137l23 94q-148 -231 -269 -231q-150 0 -88 243
l264 1063q9 37 -6 37q-53 0 -145 -244q-159 -430 -369 -880q-109 -219 -207 -219q-37 0 -43.5 38.5t11.5 98.5l22 94q-148 -231 -268 -231q-150 0 -88 243zM1655 655q-29 0 -58 -118l-41 -162q76 102 101 200q17 80 -2 80zM1722 1356q-68 0 -136 -68t-91 -162
q-5 -18 -20 -18q-5 0 -8.5 5t-0.5 13q41 166 128.5 257.5t181.5 91.5q63 0 97 -41.5t17 -104.5q-15 -64 -73 -109.5t-131 -45.5q-7 0 -11.5 2.5t-3.5 9.5q3 10 17 10q39 2 72.5 23t41.5 57q8 33 -14.5 56.5t-65.5 23.5z" />
    <glyph glyph-name="uni0574_uni056B_uni055B" unicode="&#x574;&#x56b;&#x55b;" horiz-adv-x="1628"
d="M829 -492q29 0 58 119l149 598q-36 -83 -120 -332.5t-97 -298.5q-16 -86 10 -86zM1501 1069l209 354q17 31 41 31q6 0 18 -6l60 -39q33 -17 -12 -59l-287 -295q-37 -39 -45 -27q-6 10 16 41zM434 641l-98 -389q-10 -39 -14 -67.5t-1 -52t17 -36t39 -12.5q31 0 83 45.5
t120 144.5l59 236q30 123 40 230.5t5 183t-12.5 141.5t-7.5 134.5t16 133.5q13 52 32.5 76.5t53.5 24.5q35 0 141 -62.5t142 -62.5q34 0 56.5 26.5t37.5 85.5q1 5 6.5 9t9.5 4q13 0 10 -19q-23 -91 -72 -143.5t-122 -52.5q-34 0 -81.5 30.5t-90 61t-62.5 30.5t-28 -30
q-9 -35 -7.5 -73t11.5 -67t22.5 -68.5t26.5 -76.5t23 -90.5t12 -111.5t-6.5 -139t-32.5 -173l-96 -385q-9 -37 6 -37q33 0 170.5 309.5t279.5 685.5q61 162 131 255.5t140 93.5q67 0 32 -138l-180 -725q61 86 130 146.5t132 60.5q148 0 90 -243l-102 -408q-9 -37 6 -37
q38 0 92.5 76t77.5 168q3 12 19 12q14 0 8 -18q-35 -142 -127 -245t-168 -103q-67 0 -33 137l96 389q10 39 14 67t2 52.5t-16 36.5t-39 12q-86 0 -196 -164l-195 -774q-21 -84 -43 -139t-46.5 -82t-47 -37t-51.5 -10q-43 0 -60 31.5t-2 90.5q20 88 114 354.5t173 430.5
l227 911q9 37 -6 37q-53 0 -145 -244q-159 -430 -369 -880q-109 -219 -207 -219q-37 0 -43.5 38.5t11.5 98.5l22 94q-148 -231 -268 -231q-150 0 -88 243l100 408q9 37 -6 37q-38 0 -92 -75.5t-78 -168.5q-3 -12 -16 -12q-5 0 -8.5 5t-0.5 13q35 142 126 245t167 103
q37 0 44 -38.5t-9 -98.5z" />
    <glyph glyph-name="uni0574_uni056B_uni055C" unicode="&#x574;&#x56b;&#x55c;" horiz-adv-x="1624"
d="M829 -492q29 0 58 119l149 598q-36 -83 -120 -332.5t-97 -298.5q-16 -86 10 -86zM1671 1284q64 14 97.5 28.5t56.5 45.5q10 14 18.5 39.5t15.5 41t17 15.5q5 0 7 -7t1 -19t-3.5 -26t-6.5 -30q-21 -78 -76.5 -130.5t-142.5 -72.5q-45 -10 -67 -16.5t-47 -21t-40 -35.5
q-11 -15 -20 -39.5t-15.5 -40t-15.5 -17.5q-5 0 -7 7t-1 19t3.5 26t6.5 30q21 78 76.5 130.5t142.5 72.5zM434 641l-98 -389q-10 -39 -14 -67.5t-1 -52t17 -36t39 -12.5q31 0 83 45.5t120 144.5l59 236q30 123 40 230.5t5 183t-12.5 141.5t-7.5 134.5t16 133.5
q13 52 32.5 76.5t53.5 24.5q35 0 141 -62.5t142 -62.5q34 0 56.5 26.5t37.5 85.5q1 5 6.5 9t9.5 4q13 0 10 -19q-23 -91 -72 -143.5t-122 -52.5q-34 0 -81.5 30.5t-90 61t-62.5 30.5t-28 -30q-9 -35 -7.5 -73t11.5 -67t22.5 -68.5t26.5 -76.5t23 -90.5t12 -111.5t-6.5 -139
t-32.5 -173l-96 -385q-9 -37 6 -37q33 0 170.5 309.5t279.5 685.5q61 162 131 255.5t140 93.5q67 0 32 -138l-180 -725q61 86 130 146.5t132 60.5q148 0 90 -243l-102 -408q-9 -37 6 -37q38 0 92.5 76t77.5 168q3 12 19 12q14 0 8 -18q-35 -142 -127 -245t-168 -103
q-67 0 -33 137l96 389q10 39 14 67t2 52.5t-16 36.5t-39 12q-86 0 -196 -164l-195 -774q-21 -84 -43 -139t-46.5 -82t-47 -37t-51.5 -10q-43 0 -60 31.5t-2 90.5q20 88 114 354.5t173 430.5l227 911q9 37 -6 37q-53 0 -145 -244q-159 -430 -369 -880q-109 -219 -207 -219
q-37 0 -43.5 38.5t11.5 98.5l22 94q-148 -231 -268 -231q-150 0 -88 243l100 408q9 37 -6 37q-38 0 -92 -75.5t-78 -168.5q-3 -12 -16 -12q-5 0 -8.5 5t-0.5 13q35 142 126 245t167 103q37 0 44 -38.5t-9 -98.5z" />
    <glyph glyph-name="uni0574_uni056B_uni055E" unicode="&#x574;&#x56b;&#x55f;" horiz-adv-x="1619"
d="M829 -492q29 0 58 119l149 598q-36 -83 -120 -332.5t-97 -298.5q-16 -86 10 -86zM1722 1356q-68 0 -136 -68t-91 -162q-5 -18 -20 -18q-5 0 -8.5 5t-0.5 13q41 166 128.5 257.5t181.5 91.5q63 0 97 -41.5t17 -104.5q-15 -64 -73 -109.5t-131 -45.5q-7 0 -11.5 2.5
t-3.5 9.5q3 10 17 10q39 2 72.5 23t41.5 57q8 33 -14.5 56.5t-65.5 23.5zM434 641l-98 -389q-10 -39 -14 -67.5t-1 -52t17 -36t39 -12.5q31 0 83 45.5t120 144.5l59 236q30 123 40 230.5t5 183t-12.5 141.5t-7.5 134.5t16 133.5q13 52 32.5 76.5t53.5 24.5q35 0 141 -62.5
t142 -62.5q34 0 56.5 26.5t37.5 85.5q1 5 6.5 9t9.5 4q13 0 10 -19q-23 -91 -72 -143.5t-122 -52.5q-34 0 -81.5 30.5t-90 61t-62.5 30.5t-28 -30q-9 -35 -7.5 -73t11.5 -67t22.5 -68.5t26.5 -76.5t23 -90.5t12 -111.5t-6.5 -139t-32.5 -173l-96 -385q-9 -37 6 -37
q33 0 170.5 309.5t279.5 685.5q61 162 131 255.5t140 93.5q67 0 32 -138l-180 -725q61 86 130 146.5t132 60.5q148 0 90 -243l-102 -408q-9 -37 6 -37q38 0 92.5 76t77.5 168q3 12 19 12q14 0 8 -18q-35 -142 -127 -245t-168 -103q-67 0 -33 137l96 389q10 39 14 67t2 52.5
t-16 36.5t-39 12q-86 0 -196 -164l-195 -774q-21 -84 -43 -139t-46.5 -82t-47 -37t-51.5 -10q-43 0 -60 31.5t-2 90.5q20 88 114 354.5t173 430.5l227 911q9 37 -6 37q-53 0 -145 -244q-159 -430 -369 -880q-109 -219 -207 -219q-37 0 -43.5 38.5t11.5 98.5l22 94
q-148 -231 -268 -231q-150 0 -88 243l100 408q9 37 -6 37q-38 0 -92 -75.5t-78 -168.5q-3 -12 -16 -12q-5 0 -8.5 5t-0.5 13q35 142 126 245t167 103q37 0 44 -38.5t-9 -98.5z" />
    <glyph glyph-name=".notdef" horiz-adv-x="1054"
d="M92 100l565 639l-247 637zM922 66l-238 610l-547 -610h785zM987 96l320 1280l-568 -639zM713 799l542 612h-782zM1040 0h-1026l355 1475h1026z" />
    <glyph glyph-name=".null" horiz-adv-x="0"
 />
    <glyph glyph-name=".null" horiz-adv-x="0"
 />
    <glyph glyph-name="nonmarkingreturn" horiz-adv-x="682"
 />
    <glyph glyph-name="CR" unicode="&#xd;" horiz-adv-x="587"
 />
    <glyph glyph-name="space" unicode=" " horiz-adv-x="587"
 />
    <glyph glyph-name="exclam" unicode="!" horiz-adv-x="595"
d="M420 90q-10 -47 -51 -80t-88 -33t-72.5 33t-13.5 80q12 46 53 79.5t88 33.5t71.5 -33.5t12.5 -79.5zM381 319h-33l166 1002q6 26 15 33.5t28 7.5h135q19 0 23.5 -6.5t-2.5 -34.5z" />
    <glyph glyph-name="quotedbl" unicode="&#x22;" horiz-adv-x="702"
d="M774 1049h-57l26 321q2 28 11 45t24 17h129q27 0 2 -62zM479 1049h-57l27 321q7 62 34 62h129q27 0 2 -62z" />
    <glyph glyph-name="numbersign" unicode="#" horiz-adv-x="1036"
d="M729 553l156 315h-273l-157 -315h274zM549 61h-64l191 383h-273l-190 -383h-68l193 383h-219l51 109h221l158 315h-219l53 109h219l191 383h65l-194 -383h276l190 383h66l-192 -383h241l-53 -109h-242l-155 -315h239l-53 -109h-240z" />
    <glyph glyph-name="dollar" unicode="$" horiz-adv-x="1021"
d="M475 -193h-49l43 173q-119 1 -230.5 34t-168.5 76l67 268h45l-4 -18q-10 -61 4.5 -118t50.5 -103t99.5 -73.5t144.5 -27.5h2l133 533q-148 55 -206 92q-143 90 -124 246q3 22 9 45q10 37 32 79t65 89.5t97.5 85.5t136 64.5t173.5 29.5l28 121h49l-28 -121
q174 -7 319 -111l-67 -268h-45l6 19q12 58 4 113.5t-29.5 99.5t-72 73t-125.5 33l-132 -526q39 -14 60.5 -22t58 -23t57 -27t49.5 -31.5t44.5 -38t32 -45t22 -54.5t5 -64t-10.5 -76q-26 -105 -102 -184t-179 -120.5t-221 -47.5zM657 733l127 508q-101 -7 -191 -72t-116 -172
q-8 -31 -8 -58t6 -49t19 -42t29 -35t38.5 -30t44.5 -26.5t51 -23.5zM655 532l-127 -512q67 8 125 33t106.5 78t67.5 127q7 39 8.5 68.5t-10 56.5t-26 47.5t-39 39.5t-49 33t-56.5 29z" />
    <glyph glyph-name="percent" unicode="%" horiz-adv-x="1273"
d="M147 -63h-63l1370 1558h66zM504 750q-85 0 -132 49.5t-52 135t22 200.5q39 159 132 258.5t214 99.5t165 -100t5 -258q-44 -177 -135.5 -281t-218.5 -104zM510 780q78 0 140 84t110 273q39 170 17.5 247.5t-95.5 77.5t-137.5 -80.5t-104.5 -244.5q-46 -197 -27 -277
t97 -80zM913 -72q-85 0 -132 49.5t-51.5 135t22.5 200.5q39 159 132 259t214 100t165 -100.5t5 -258.5q-44 -176 -136 -280.5t-219 -104.5zM922 -41q78 0 138.5 83t108.5 273q40 170 18.5 248t-95.5 78t-137.5 -81t-104.5 -245q-46 -197 -26.5 -276.5t98.5 -79.5z" />
    <glyph glyph-name="ampersand" unicode="&#x26;" horiz-adv-x="1382"
d="M1393 242l30 -17q-151 -245 -321 -245q-66 0 -122 29t-120 91q-172 -120 -362 -120q-73 0 -133 16t-100.5 43t-70.5 63.5t-41.5 78.5t-15 86.5t9.5 88.5q53 215 359 424q-14 51 -21.5 82t-15 76.5t-6 85.5t11.5 78q28 115 127 197.5t234 82.5q54 0 94 -15.5t60 -39.5
t32 -53.5t10 -58.5t-6 -54q-25 -98 -122.5 -190.5t-233.5 -163.5q20 -156 101 -342t140 -256q143 145 207 395q30 119 -114 119l10 45h442l-10 -45q-90 -1 -130 -26t-77 -99q-6 -13 -27 -56t-28 -57.5t-26.5 -51.5t-31.5 -55t-34 -50t-41.5 -54t-47 -50t-57.5 -54
q54 -65 97.5 -90t95.5 -25q119 0 254 187zM823 135q-99 107 -174 257t-114 315q-71 -65 -128 -152t-79 -174q-19 -87 -5.5 -149t56 -101.5t92 -57.5t102.5 -18q59 0 127.5 22t122.5 58zM655 891q111 85 173 152t83 149q17 67 -5.5 109t-67.5 42q-49 0 -90.5 -34.5
t-63.5 -77.5t-35 -92q-24 -98 6 -248z" />
    <glyph glyph-name="quotesingle" unicode="'" horiz-adv-x="407"
d="M479 1049h-57l27 321q7 62 34 62h129q27 0 2 -62z" />
    <glyph glyph-name="parenleft" unicode="(" horiz-adv-x="643"
d="M360 -487l-24 -33q-58 97 -99.5 204t-66.5 235t-20 275.5t43 299.5q73 296 247 554.5t402 458.5l6 -30q-151 -189 -281.5 -442t-201.5 -541q-50 -196 -62.5 -387t4 -333t53.5 -261z" />
    <glyph glyph-name="parenright" unicode=")" horiz-adv-x="616"
d="M-33 -520l-8 33q146 194 274.5 445.5t200.5 535.5q49 196 61.5 387t-4 333.5t-53.5 262.5l23 30q61 -95 103.5 -203.5t66.5 -235.5t18.5 -274t-43.5 -300q-38 -151 -107 -299t-157 -276t-180 -234.5t-195 -204.5z" />
    <glyph glyph-name="asterisk" unicode="*" horiz-adv-x="892"
d="M764 913l-47 228l-158 -228q-33 9 -64 36.5t-38 54.5l229 165l-244 29q8 34 34 79t52 66l185 -129l10 246q43 15 82 15q41 0 67 -15l-112 -246l250 132q15 -31 18.5 -76t-6.5 -74l-258 -27h-2l149 -165q-27 -30 -72 -57.5t-75 -33.5z" />
    <glyph glyph-name="plus" unicode="+" horiz-adv-x="1073"
d="M563 -4h-76l117 471h-448l16 63h449l112 449h76l-113 -449h449l-17 -63h-448z" />
    <glyph glyph-name="comma" unicode="," horiz-adv-x="626"
d="M266 147q11 28 32 45t46 17q15 0 28 -7t21 -23t9 -39t-9 -58.5t-31 -77.5q-44 -86 -113 -136t-120 -50q-7 0 -10 8q0 10 18 14q44 9 77 31.5t44 50.5q18 41 5.5 114t2.5 111z" />
    <glyph glyph-name="hyphen" unicode="-" horiz-adv-x="864"
d="M915 461h-757l16 65h758z" />
    <glyph glyph-name="period" unicode="." horiz-adv-x="454"
d="M156 82q11 43 38 72.5t56 29.5t41.5 -29.5t1.5 -72.5t-38 -72.5t-56 -29.5t-41.5 29.5t-1.5 72.5z" />
    <glyph glyph-name="slash" unicode="/" horiz-adv-x="1036"
d="M27 -63h-41l1347 1558h66z" />
    <glyph glyph-name="zero" unicode="0" horiz-adv-x="864"
d="M754 1331q24 0 24 -20q-7 -11 -20 -11q-47 0 -88 -14.5t-86 -53.5t-84.5 -103.5t-80 -169.5t-75.5 -246q-173 -693 92 -693q48 0 90.5 22t78 65t66 97t58.5 129.5t51 149.5t47 168q151 602 -61 602q-58 0 -100.5 -43t-55.5 -100q-5 -16 -16 -16q-6 0 -9 1t-5.5 5.5
t0.5 13.5q22 87 86 136.5t135 49.5q91 0 142.5 -67t58.5 -206.5t-48 -354.5q-48 -191 -105 -326t-123.5 -214.5t-138.5 -115.5t-157 -36q-129 0 -196 87.5t-68 245.5t53 379q24 94 58.5 183t84 172.5t107.5 146t132 100t153 37.5z" />
    <glyph glyph-name="one" unicode="1" horiz-adv-x="632"
d="M201 604q-26 -26 -36 -26q-5 1 -9 6q0 6 -1 8t4 11t8 13t10 15t11 16q91 113 185 229.5t150.5 186.5t58.5 72q98 128 130 158q39 38 72 38q12 0 7 -22l-285 -1141q-28 -103 -66 -145.5t-92 -42.5q-12 0 -6 22l270 1088q-57 -65 -202 -240.5t-209 -245.5z" />
    <glyph glyph-name="two" unicode="2" horiz-adv-x="872"
d="M932 827q-42 -171 -155 -370.5t-224 -302.5q76 -127 154 -127q37 0 78.5 22.5t69 45t30.5 22.5q13 0 10 -15q-7 -29 -79.5 -75.5t-135.5 -46.5q-29 0 -52.5 6.5t-44 22.5t-31 26.5t-30.5 36t-26 32.5q-78 -61 -145 -92.5t-140 -31.5q-59 0 -100 36.5t-51.5 89t1.5 111.5
q22 90 79.5 142.5t135.5 52.5q36 0 70 -13t58 -32.5t48 -49t38.5 -53t31.5 -55.5q91 107 165.5 266t111.5 311q28 110 32.5 194.5t-8 133.5t-39.5 80.5t-56 42t-64 10.5q-109 0 -208 -108.5t-141 -243.5q-7 -21 -20 -21q-6 0 -11.5 5.5t-2.5 17.5q23 101 90.5 200
t168.5 166.5t205 67.5t159.5 -68t58 -180t-30.5 -256zM459 150q-102 161 -217 161q-49 0 -79 -31t-42 -79q-16 -67 12 -124t92 -57q99 0 234 130z" />
    <glyph glyph-name="three" unicode="3" horiz-adv-x="794"
d="M887 1036q-31 -128 -109.5 -209.5t-161.5 -109.5q121 -13 174.5 -103t24.5 -211q-17 -77 -56 -151t-94.5 -135.5t-131.5 -99t-158 -37.5q-53 0 -99 16t-79 43.5t-58 64t-37 78t-16 85.5t6 85q10 23 27 23q14 0 12 -21q-18 -141 45.5 -217t175.5 -76q114 0 205.5 85.5
t132.5 252.5q21 81 9.5 137t-47 82t-86 40t-109 11.5t-115.5 -3.5q-15 -1 -18.5 7t0.5 13q7 14 24 14q131 0 212.5 33t124 94.5t69.5 167.5q15 71 11 119.5t-28.5 78t-57 42t-73.5 12.5q-110 0 -201.5 -94.5t-130.5 -226.5q-7 -21 -20 -21q-6 0 -11.5 5.5t-4.5 17.5
q37 157 169.5 280t288.5 123q113 0 168.5 -81.5t22.5 -213.5z" />
    <glyph glyph-name="four" unicode="4" horiz-adv-x="892"
d="M80 326q76 102 166.5 219.5t169.5 217t142.5 178.5t109.5 136t47 58q80 104 126.5 150t84.5 46q12 0 6 -22l-219 -877q88 6 147 6q51 0 73.5 -4t18.5 -18q-4 -17 -22 -17h-56q-79 0 -172 -8l-55 -223q-27 -103 -65.5 -145.5t-92.5 -42.5q-5 0 -7 2.5t-1.5 6.5t2.5 13
l95 377q-327 -38 -478 -96q-26 -13 -29 0t9 43zM588 422l166 668q-109 -125 -316 -391.5t-270 -342.5q185 47 420 66z" />
    <glyph glyph-name="five" unicode="5" horiz-adv-x="884"
d="M238 563q-9 -18 -25 -18q-8 0 -11 8t-0.5 26t6.5 33.5t11 42.5q31 133 133 402q27 71 46 107.5t47 62t60.5 32.5t88.5 7h295q77 0 123 10q32 7 57 21t37 24t16 10q8 0 -3 -26t-38.5 -63t-60.5 -60q-36 -26 -79.5 -33.5t-109.5 -7.5h-315q-56 0 -72 -11t-34 -53
q-97 -230 -152 -426q48 69 141 120.5t201 51.5q168 0 240 -113t28 -286q-21 -87 -61 -165t-95.5 -141t-130 -100.5t-157.5 -37.5q-61 0 -112 18.5t-82.5 49t-55 70t-32 81t-11.5 81.5t6 72q10 23 25 23q14 0 12 -21q-20 -122 48.5 -209.5t176.5 -87.5q114 0 207.5 91
t138.5 272q44 183 -10 269.5t-172 86.5q-96 0 -181 -57.5t-144 -155.5z" />
    <glyph glyph-name="six" unicode="6" horiz-adv-x="884"
d="M1059 1319q0 -3 -5.5 -7.5t-15 -9.5t-18 -8.5t-21 -8.5t-16.5 -7q-199 -86 -362.5 -244t-247.5 -336q53 58 133.5 91.5t148.5 33.5q81 0 141 -34.5t89.5 -92.5t38 -134t-14.5 -159q-15 -61 -41 -118.5t-67 -113.5t-92 -98t-121 -67.5t-150 -25.5q-82 0 -142.5 25.5
t-94.5 70t-49.5 106.5t-11.5 133.5t24 153.5q30 124 115 262.5t198.5 258.5t255 212t275.5 123q18 6 32 6q10 0 15 -3t4 -9zM434 20q117 0 209.5 95t130.5 254q103 411 -141 411q-70 0 -131.5 -33t-105 -88t-74 -118t-48.5 -133q-25 -111 -23 -185.5t31.5 -119.5t67 -64
t84.5 -19z" />
    <glyph glyph-name="seven" unicode="7" horiz-adv-x="901"
d="M993 1182q-24 -6 -57 -6q-83 0 -243.5 24.5t-184.5 24.5q-62 0 -75 -4q-35 -10 -60 -69q-14 -33 -31 -91q-12 -31 -27 -31q-8 0 -11.5 7.5t-0.5 17.5q16 62 28.5 105t24 76.5t25 53.5t25.5 33.5t31.5 19t36.5 7.5t46 2q24 0 179.5 -26t267.5 -26q44 0 108.5 14.5
t67.5 14.5q11 -3 8.5 -12t-16.5 -29q-76 -104 -220.5 -340t-277.5 -495q49 -5 91.5 -10.5t79.5 -11t65.5 -11.5t49 -12.5t30 -13t8.5 -13.5q-3 -14 -21 -14h-4l-53 8q-101 22 -269 39q-20 -39 -37.5 -76.5t-41 -90.5t-35.5 -79q-48 -104 -93 -146t-100 -42q-11 0 -8 10
q3 3 6 12q94 218 203 418q-74 4 -109 4q-138 0 -233 -18q-9 -3 -14 -3q-14 0 -22.5 6.5t-6.5 14.5q5 23 99 33t198 10q44 0 110 -4q130 237 264.5 439t198.5 280z" />
    <glyph glyph-name="eight" unicode="8" horiz-adv-x="884"
d="M987 1100q-25 -105 -98.5 -199.5t-177.5 -152.5q29 -24 50.5 -43.5t46 -45.5t41 -50t31 -54.5t20.5 -61t5.5 -67.5t-10.5 -76q-39 -162 -159.5 -266t-286.5 -104q-76 0 -135 16t-95.5 44t-60.5 63t-32 76.5t-6.5 81t11.5 79.5q60 243 397 379q-27 22 -46.5 40.5t-41 42.5
t-36 46t-27 49t-17.5 54.5t-4.5 60t9.5 67.5q12 47 43 97t80 97.5t124 78t162 30.5q63 0 109 -19.5t69.5 -49t34.5 -68.5t10 -75t-10 -70zM758 299q9 38 9 74.5t-6.5 65t-24 60t-32 52.5t-43.5 49.5t-47 44.5t-51 45q-128 -50 -229 -144.5t-131 -215.5q-18 -82 -7.5 -141
t48.5 -97t88 -56t110 -18q114 0 200 80t116 201zM500 1108q-8 -31 -7.5 -60t6.5 -53.5t19.5 -50t28.5 -45.5t38.5 -43t43 -40t47.5 -40q196 105 250 320q25 101 -22 174t-146 73q-103 0 -167.5 -67t-90.5 -168z" />
    <glyph glyph-name="nine" unicode="9" horiz-adv-x="884"
d="M123 -8q0 3 5 7.5t15 9.5t17.5 8.5t20.5 9t16 6.5q201 86 364.5 243.5t247.5 335.5q-54 -58 -134.5 -91.5t-148.5 -33.5q-81 0 -141 34.5t-89.5 92.5t-38 134t14.5 159q19 77 55.5 148.5t93 135t140 102t182.5 38.5q102 0 170.5 -39t96 -105.5t31.5 -155.5t-23 -189
q-31 -124 -116.5 -262.5t-199 -258.5t-254.5 -212t-274 -123q-18 -6 -33 -6q-9 0 -14 3t-4 9zM748 1290q-117 0 -209.5 -94.5t-132.5 -253.5q-103 -412 141 -412q70 0 131.5 33t105 88t74 119t47.5 133q25 111 23.5 185t-30 119t-66 64t-84.5 19z" />
    <glyph glyph-name="colon" unicode=":" horiz-adv-x="464"
d="M305 678q11 43 37 72.5t55 29.5t42 -29.5t3 -72.5q-11 -43 -38 -73t-56 -30t-41.5 30t-1.5 73zM156 82q11 43 38 72.5t56 29.5t41.5 -29.5t1.5 -72.5t-38 -72.5t-56 -29.5t-41.5 29.5t-1.5 72.5z" />
    <glyph glyph-name="semicolon" unicode=";" horiz-adv-x="514"
d="M205 147q-15 -37 -2.5 -111t-5.5 -114q-11 -28 -44 -50.5t-77 -31.5q-19 -4 -19 -14q3 -8 11 -8q51 0 120 50t113 136q21 42 31 77.5t9 58.5t-9 39t-21 23t-28 7q-25 0 -46 -17t-32 -45zM313 678q11 43 37.5 72.5t55.5 29.5t42 -29.5t3 -72.5q-11 -43 -38.5 -73
t-56.5 -30t-41.5 30t-1.5 73z" />
    <glyph glyph-name="less" unicode="&#x3c;" horiz-adv-x="1079"
d="M1034 0l-887 461l15 61l1104 461l-19 -74l-1005 -417l796 -418z" />
    <glyph glyph-name="equal" unicode="=" horiz-adv-x="1058"
d="M1081 326h-968l12 45h969zM1141 559h-969l10 45h969z" />
    <glyph glyph-name="greater" unicode="&#x3e;" horiz-adv-x="1079"
d="M1137 461l-1092 -461l4 74l1004 418l-795 417l18 74l875 -461z" />
    <glyph glyph-name="question" unicode="?" horiz-adv-x="796"
d="M408 86q-10 -44 -50.5 -75t-85.5 -31q-46 0 -69.5 31t-12.5 75q11 46 50.5 78.5t85.5 32.5q44 0 68 -32.5t14 -78.5zM389 346h-49q13 57 43 111.5t68 98.5t81.5 88t87.5 88t83 89.5t70 102t46 116.5q11 53 12 92t-12.5 67.5t-30 46.5t-40 29t-43.5 15t-39 4
q-105 0 -201 -88.5t-135 -247.5h-45q46 184 167 304t283 120q64 0 115.5 -18.5t82.5 -50t50.5 -72.5t20 -86.5t-8.5 -91.5q-14 -55 -51.5 -111.5t-87 -104.5t-107 -97t-115 -97t-107 -96t-87 -102.5t-51.5 -108.5z" />
    <glyph glyph-name="at" unicode="@" horiz-adv-x="1622"
d="M1409 172l21 -47q-119 -76 -277.5 -122t-292.5 -46q-141 0 -254 31t-187 86t-124 126.5t-70 155.5t-19 169.5t23 172.5q43 174 142.5 321t232 245.5t289 153.5t315.5 55q119 0 221 -31.5t173 -87t118.5 -131.5t57 -165t-12.5 -188q-24 -98 -74.5 -182t-115.5 -142
t-139 -102.5t-151 -70.5t-146 -38.5t-129 -12.5q-62 0 -21 86q7 13 5.5 15.5t-5 0.5t-10.5 -8q-112 -99 -234 -99q-86 0 -127.5 48t-36 128.5t51.5 180.5q26 58 75 118t115.5 114t154 88t177.5 34q48 0 132.5 -13.5t109.5 -15.5q-68 -113 -123 -233l-123 -264
q-14 -31 -21.5 -50t-9 -31.5t3 -17t15.5 -4.5q46 0 106 17t129.5 55t131.5 90.5t113.5 133t74.5 173.5q13 53 14.5 107t-10.5 108.5t-37 103t-67.5 91t-98 73.5t-133 48.5t-168.5 17.5q-100 0 -200 -27.5t-196.5 -86.5t-178.5 -143t-147 -203.5t-101 -262.5
q-21 -85 -21 -168.5t20 -158.5t63.5 -139.5t104 -111.5t146.5 -73.5t188 -26.5q280 0 537 156zM797 365q172 0 315 315q62 131 96 217q17 41 5 69.5t-62 28.5q-68 0 -133.5 -32t-114.5 -83t-84.5 -103t-58.5 -103q-66 -138 -57 -223.5t94 -85.5z" />
    <glyph glyph-name="A" unicode="A" horiz-adv-x="1101"
d="M469 477q101 0 176 57t111 138q2 4 5 12q6 15 9 20.5t7 10t9 4.5q20 0 13 -37q-5 -21 -22 -51t-47.5 -64.5t-68 -64t-88.5 -49t-104 -19.5h-23q-24 -44 -74 -136t-69 -126q-51 -93 -92 -145t-76 -52q-59 0 -76 97t19 245q9 31 22 31q17 0 11 -31q-15 -88 -6 -159.5
t40 -71.5q26 0 84.5 86.5t161.5 269.5q-77 19 -113 73t-22 112q28 113 132.5 182t260.5 80q91 143 183.5 263t180 201t138.5 81q38 0 44 -35.5t-19 -138.5l-105 -410l-31 -121q119 -165 58 -442q-30 -125 -81 -216t-102 -91q-40 0 -65 29t-32.5 80.5t-6.5 111.5t12 133
t23 133t28 123l33 129l15 61q-95 69 -232 72q-151 -246 -221 -375zM770 973q-40 -60 -53 -82q123 -3 217 -64q79 292 153 510q-76 -5 -317 -364zM418 492q155 275 207 356q-116 -12 -190.5 -68t-96.5 -143q-11 -43 7.5 -87t72.5 -58zM1057 293q24 99 16 193t-47 171
q-32 -146 -53.5 -274.5t-26.5 -209t12 -83.5q23 0 49.5 54t49.5 149z" />
    <glyph glyph-name="B" unicode="B" horiz-adv-x="1046"
d="M354 821l117 465q9 37 -6 37q-36 0 -86 -71t-78 -160q-9 -31 -22 -31q-16 0 -9 24q35 141 129 245t170 104q69 0 35 -138l-57 -229q67 107 139 184t135.5 114t112.5 53t90 16q107 0 161.5 -77t24.5 -198q-17 -67 -61.5 -132.5t-97 -111t-103.5 -76.5t-88 -40
q126 -26 193 -135t28 -267q-22 -88 -60.5 -161.5t-94 -131.5t-132.5 -91t-169 -33q-108 0 -174.5 74t-79.5 186q-12 92 22 92q6 0 10.5 -15t9 -43t7.5 -41q46 -184 188 -184q129 0 211 91.5t121 252.5q45 174 -26.5 272.5t-268.5 98.5q-22 0 -32 4t-7 14q6 23 90 23
q144 0 237.5 90t131.5 246q24 94 -7.5 155.5t-109.5 61.5q-190 0 -430 -410l-196 -786q-21 -85 -60.5 -131.5t-87.5 -46.5q-59 0 -83 49.5t-3 144.5q15 58 38 131t88.5 232.5t139.5 279.5zM207 229l115 455q-47 -87 -100.5 -221.5t-84.5 -259.5q-35 -150 0 -150
q14 0 34.5 55t35.5 121z" />
    <glyph glyph-name="C" unicode="C" horiz-adv-x="1030"
d="M211 655q28 111 76 221t116.5 211t148.5 178t179 123t201 46q110 0 172.5 -71.5t34.5 -184.5q-17 -68 -60 -139.5t-86 -114.5t-67 -43q-21 0 -32 12t7 35q2 2 34.5 37t51.5 59t45 72.5t39 99.5q17 72 -16.5 124t-128.5 52q-93 0 -185 -63.5t-167 -168.5t-134 -236.5
t-94 -272.5q-29 -116 -30.5 -220t24.5 -185t87 -129t151 -48q107 0 215 81t174 179q8 12 31 52.5t41 67t28 26.5q27 0 -3 -69q-11 -24 -26 -50q-84 -150 -217.5 -253t-292.5 -103q-96 0 -167.5 38t-111.5 103t-57.5 151.5t-12 183t31.5 199.5z" />
    <glyph glyph-name="D" unicode="D" horiz-adv-x="1138"
d="M303 176l29 117q-19 31 -41 31q-38 0 -70 -131q-11 -42 -12 -76.5t5.5 -52t16.5 -17.5q41 0 72 129zM715 1378q-80 0 -144.5 -24t-108 -67t-71.5 -94.5t-43 -113.5q-19 -82 14 -151q5 -8 5 -15q-3 -6 -15 -6q-46 0 -69.5 28.5t-22.5 66.5t8 75q39 160 158 258.5t307 98.5
q134 0 241.5 -61t170.5 -169.5t80.5 -259t-29.5 -330.5q-23 -93 -61 -183t-91 -172t-114.5 -144t-136 -98.5t-150.5 -36.5q-38 0 -73.5 18.5t-62 49.5t-44 59.5t-31.5 58.5q-25 -89 -73.5 -137.5t-100.5 -48.5q-46 0 -70.5 36.5t-25 91t11.5 119.5q20 82 52.5 122t66.5 40
q27 0 55 -31l199 795q24 94 68 141t98 47q5 0 7 -2.5t1.5 -6.5t-2.5 -13l-268 -1073q30 -71 78.5 -130t103.5 -59q75 0 148 59.5t127 152t92.5 186t60.5 180.5q57 235 20 400t-135 254t-231 89z" />
    <glyph glyph-name="E" unicode="E" horiz-adv-x="974"
d="M360 1051q40 155 174 269t275 114q64 0 111.5 -15.5t72.5 -40.5t40 -56.5t13.5 -64t-6.5 -63.5q-26 -103 -87 -187.5t-99 -84.5q-26 0 -34.5 14t9.5 33q41 32 77.5 89.5t49.5 115.5q23 86 -11.5 142t-141.5 56q-87 0 -178 -94.5t-125 -230.5q-25 -99 -1 -162t74.5 -92
t122.5 -29q88 0 82 -23q-5 -18 -49 -18q-179 0 -306.5 -84t-168.5 -246q-36 -148 43.5 -246t218.5 -98q109 0 215 71.5t168 164.5q8 12 31 52t41 66.5t28 26.5q19 0 9 -37q-6 -28 -37 -82q-82 -145 -212 -238t-292 -93q-193 0 -294.5 116t-55.5 301q38 156 146 254t251 107
q-36 10 -67 29t-60 55t-35 86.5t8 122.5z" />
    <glyph glyph-name="F" unicode="F" horiz-adv-x="1050"
d="M733 1434q69 -1 142 -19t125.5 -39t125 -38t140.5 -17q35 0 58.5 24t31.5 53t17.5 53t19.5 24q8 0 11.5 -13t2 -33t-4.5 -39.5t-7 -37.5q-14 -56 -56.5 -95.5t-115.5 -39.5q-56 0 -109.5 15.5t-98.5 38.5t-89 46t-99 40.5t-112 20.5q-80 0 -144.5 -24t-108 -67
t-71.5 -94.5t-43 -113.5q-19 -82 14 -151q5 -8 5 -15q-3 -6 -15 -6q-46 0 -69.5 28.5t-22.5 66.5t8 75q39 160 158 258.5t307 98.5zM414 651l125 504q24 94 68 141t98 47q5 0 7 -2.5t1.5 -6.5t-2.5 -13l-160 -647q189 30 358 37q93 3 159 -3.5t62 -25.5q-4 -16 -43 -16
q-180 0 -266 -7q-142 -11 -282 -32l-117 -463q-24 -95 -67.5 -142t-96.5 -47q-14 0 -8 23l153 610l-90 -12q-39 -6 -39 10q5 24 140 45z" />
    <glyph glyph-name="G" unicode="G" horiz-adv-x="1060"
d="M1030 610l-84 -334q83 87 172 168q16 14 23 3q5 -6 -4 -15q-97 -97 -203 -207l-62 -243q-75 -310 -225 -310q-45 0 -62.5 32.5t-4.5 82.5q25 108 137 262q-117 -69 -230 -69q-102 0 -173 58t-102.5 153.5t-32 216t31.5 247.5q28 111 76 221t116.5 211t148.5 178t179 123
t201 46q110 0 172.5 -71.5t34.5 -184.5q-17 -68 -60 -139.5t-86 -114.5t-67 -43q-21 0 -32 12t7 35q104 122 143 198q19 38 27 70q17 72 -16.5 124t-128.5 52q-93 0 -185 -63.5t-167 -168.5t-134 -236.5t-94 -272.5q-29 -116 -31.5 -220t21 -185t80 -129t139.5 -48
q105 0 219 78l19 25l75 305q47 188 156 188q15 0 6 -35zM719 -147l57 233q-138 -201 -162 -303q-7 -32 -0.5 -51t23.5 -19q45 0 82 140z" />
    <glyph glyph-name="H" unicode="H" horiz-adv-x="1021"
d="M999 272q48 197 -32 363q-30 -143 -49.5 -266t-24 -200t11.5 -79q47 0 94 182zM244 637q-16 -64 37 -113l63 256q-77 -54 -100 -143zM604 1296l-102 -415q62 10 125 10q140 0 250 -78l108 432q24 94 68 141.5t98 47.5q12 0 6 -23l-139 -561l-35 -143q116 -169 57 -441
q-31 -123 -79 -204.5t-99 -81.5q-40 0 -65 29t-32.5 80.5t-6.5 111.5t12 133t23 133t28 123l43 174q-106 88 -254 88q-66 0 -118 -12l-91 -363h29q82 0 157.5 59t110.5 136q18 42 25 46q3 1 6 1q19 0 12 -37q-7 -27 -33 -67t-67 -81.5t-102.5 -70.5t-126.5 -29h-23l-65 -266
q-24 -94 -68 -141t-98 -47q-12 0 -6 22l114 459q-60 25 -87.5 68.5t-14.5 97.5q15 63 64 120t132 93l111 446q9 37 -6 37q-36 0 -86 -71t-78 -160q-9 -31 -22 -31q-16 0 -9 24q35 141 129 245t170 104q69 0 35 -138z" />
    <glyph glyph-name="I" unicode="I" horiz-adv-x="710"
d="M598 762l115 461q-93 96 -189 96q-147 0 -241 -309q-3 -14 -9.5 -22.5t-13.5 -8.5q-15 0 -4 53q99 402 270 402q43 0 97.5 -49t101.5 -115q3 6 12.5 27.5t15 32t16.5 30t20.5 30t22.5 22t28 17t32 5.5q66 0 88 -64.5t-4 -155.5q-13 -54 -36 -80t-50 -26q-28 0 -47 31
l-151 -613q-30 -116 -62 -203t-70 -146.5t-77.5 -98t-90.5 -59.5t-101 -29.5t-117 -9.5q-37 0 -29 20q2 20 39 20q54 2 99 15t77 30.5t59.5 49.5t44 58.5t33 71.5t25.5 75.5t22 82.5q10 41 33 164.5t41 194.5zM848 1237l-14 -55q21 -35 43 -35q26 0 47 84q12 43 11.5 80
t-8 56t-18.5 19q-26 0 -61 -149z" />
    <glyph glyph-name="J" unicode="J" horiz-adv-x="786"
d="M506 139l88 346q-142 -161 -195 -370q-11 -48 1.5 -81.5t35.5 -33.5q14 0 25 11.5t20 37t13 41.5t12 49zM776 1223q-42 40 -97.5 67t-109.5 27q-58 0 -103 -38.5t-67 -121.5q-22 -93 18 -167.5t101 -74.5q65 0 103 86q2 6 5 13l4.5 10.5t3.5 8t3.5 7t3 4.5t3.5 2.5t5 0.5
q10 0 4 -21q-17 -71 -57.5 -108t-83.5 -37q-84 0 -139.5 98t-22.5 235q32 122 93 171t126 49q102 0 219 -164q2 5 12.5 27.5t15.5 32t16 30t20.5 30t23 22t28.5 17.5t32 5q66 0 88 -64.5t-4 -155.5q-13 -54 -36 -80t-50 -26q-28 0 -47 31l-121 -484q10 10 34 35t45 46.5
t44 44t39 35.5t22 13q11 0 8 -10q0 -4 -4 -8q-29 -30 -101.5 -104t-100.5 -103l-84 -336q-78 -309 -226 -309q-56 0 -76 46t1 124q23 89 88.5 208.5t154.5 213.5zM911 1237l-14 -55q21 -35 43 -35q26 0 47 84q12 43 12 80t-7.5 56t-18.5 19q-27 0 -62 -149z" />
    <glyph glyph-name="K" unicode="K" horiz-adv-x="894"
d="M207 229l88 353q-121 -234 -158 -379q-30 -150 0 -150q14 0 34.5 55t35.5 121zM604 1296l-92 -374q100 184 251.5 348t235.5 164q70 0 87.5 -100.5t-19.5 -248.5q-7 -24 -23 -24q-13 0 -10 31q20 105 -1 168t-75 63q-45 0 -111 -50t-132 -126.5t-126.5 -162.5
t-103.5 -165q82 -4 141 -27t94.5 -57t53.5 -88.5t22 -107.5t-5 -128.5t-22 -137t-34 -146.5q-9 -37 6 -37q36 0 86 71.5t78 160.5q9 30 23 30q17 0 10 -24q-37 -142 -131 -245t-170 -103q-69 0 -35 137q25 101 40 178t22 152t-1 128.5t-28.5 97.5t-60.5 70t-99 35l-153 -616
q-21 -85 -60.5 -131.5t-87.5 -46.5q-63 0 -84.5 48t2.5 146q59 235 234 520l145 588q9 37 -6 37q-36 0 -86 -71t-78 -160q-9 -31 -22 -31q-16 0 -9 24q35 141 129 245t170 104q69 0 35 -138z" />
    <glyph glyph-name="L" unicode="L" horiz-adv-x="890"
d="M195 176l18 76q-26 22 -49 22q-45 0 -62 -71q-14 -60 -5 -108t32 -48q38 0 66 129zM604 1296l-264 -1065q91 -74 152 -107.5t126 -33.5q101 0 189.5 77.5t136.5 235.5q3 14 9.5 22.5t13.5 8.5q17 0 10 -24q-26 -106 -78 -201.5t-131 -162t-164 -66.5q-42 0 -86 21.5
t-68.5 42.5t-68 65t-55.5 55q-26 -90 -67.5 -137t-88.5 -47q-45 0 -74.5 36.5t-34 91t10.5 119.5q12 48 39.5 73.5t54.5 25.5t61 -19l244 979q9 37 -6 37q-36 0 -86 -71t-78 -160q-9 -31 -22 -31q-16 0 -9 24q35 141 129 245t170 104q69 0 35 -138z" />
    <glyph glyph-name="M" unicode="M" horiz-adv-x="1353"
d="M354 821l117 465q9 37 -6 37q-36 0 -86 -71t-78 -160q-9 -31 -22 -31q-16 0 -9 24q35 141 129 245t170 104q69 0 35 -138l-57 -229q111 188 213.5 277.5t173.5 89.5q80 0 99 -82t-29 -285q111 188 213.5 277.5t173.5 89.5q55 0 81 -29.5t25 -115t-39 -236.5l-231 -926
q-9 -37 6 -37q36 0 86 71.5t78 160.5q9 30 22 30q8 0 11 -7t0 -17q-37 -141 -131.5 -244.5t-170.5 -103.5q-68 0 -34 137l221 887q29 115 41.5 172t15 98t-7.5 52t-35 11q-19 0 -48.5 -17.5t-73.5 -57t-105 -121t-127 -193.5l-195 -776q-47 -188 -159 -188q-8 0 -10 6t-1 24
l248 990q29 115 41.5 172t15 98t-7.5 52t-35 11q-19 0 -48.5 -17.5t-73.5 -57t-105 -121t-127 -193.5l-196 -786q-21 -85 -60.5 -131.5t-87.5 -46.5q-131 0 -82 215q9 39 35 121t89.5 231t137.5 270zM207 229l115 455q-47 -87 -100.5 -221.5t-84.5 -259.5q-38 -150 0 -150
q14 0 34.5 55t35.5 121z" />
    <glyph glyph-name="N" unicode="N" horiz-adv-x="972"
d="M207 229l115 455q-47 -87 -100.5 -221.5t-84.5 -259.5q-38 -150 0 -150q14 0 34.5 55t35.5 121zM694 117l221 887q26 106 37.5 171t8 101t-17.5 48.5t-42 12.5q-17 0 -39.5 -7.5t-60 -33t-78 -66t-95 -113.5t-110.5 -169l-196 -786q-21 -85 -60.5 -131.5t-87.5 -46.5
q-131 0 -82 215q9 39 35 121t89.5 231t137.5 270l117 465q9 37 -6 37q-36 0 -86 -71t-78 -160q-9 -31 -22 -31q-16 0 -9 24q35 141 129 245t170 104q69 0 35 -138l-57 -229q50 83 101 148.5t94 106t85 66.5t74.5 36t61.5 10q45 0 73.5 -19.5t43 -66.5t7 -130.5t-37.5 -205.5
l-222 -885q-9 -37 7 -37q36 0 85.5 71.5t77.5 160.5q9 30 23 30q17 0 10 -24q-37 -142 -131 -245t-170 -103q-69 0 -35 137z" />
    <glyph glyph-name="O" unicode="O" horiz-adv-x="1042"
d="M809 1434q14 0 21.5 -6.5t5.5 -14.5q-3 -10 -23 -10q-118 0 -237 -162t-195 -467q-36 -140 -52.5 -264.5t-12.5 -236t47.5 -177t125.5 -65.5q74 0 146.5 62.5t130 165t102 218t74.5 236.5q33 133 42.5 252.5t-4.5 206t-51 137.5t-93 51q-58 0 -99.5 -42t-54.5 -99
q-6 -17 -16 -17q-20 0 -15 21q23 90 93 140t147 50q94 0 157 -83t78 -234t-36 -363q-56 -222 -145.5 -390t-209.5 -265.5t-254 -97.5q-124 0 -200 89.5t-91.5 261.5t46.5 423q24 94 61 187t91 183t117 158t142 110t162 42z" />
    <glyph glyph-name="P" unicode="P" horiz-adv-x="978"
d="M207 229l115 455q-47 -87 -100.5 -221.5t-84.5 -259.5q-30 -150 0 -150q14 0 34.5 55t35.5 121zM354 821l117 465q9 37 -6 37q-36 0 -86 -71t-78 -160q-9 -31 -22 -31q-16 0 -9 24q35 141 129 245t170 104q69 0 35 -138l-57 -229q67 107 139 184t135.5 114t112.5 53
t90 16q104 0 157.5 -74.5t22.5 -200.5q-23 -92 -84 -181.5t-151 -166t-213.5 -132t-261.5 -75.5q-20 -4 -32 -1t-9 13t18.5 15t62.5 15q9 2 13 3q112 22 205.5 77.5t153.5 128t97.5 144.5t55.5 142q24 97 -3 157t-108 60q-190 0 -430 -410l-196 -786q-21 -85 -60.5 -131.5
t-87.5 -46.5q-125 0 -82 194q102 381 262 643z" />
    <glyph glyph-name="Q" unicode="Q" horiz-adv-x="1073"
d="M367 -78q36 0 80 18t71 40q-108 114 -203 114q-36 0 -58 -22t-26 -43q-11 -44 23.5 -75.5t112.5 -31.5zM412 193q-32 -13 -68 -9q-65 6 -102.5 61t-45 136t0 162.5t26.5 156.5q44 177 114 320t151 231.5t167 135.5t170 47q201 0 274 -175.5t-7 -513.5
q-59 -240 -192 -454.5t-271 -302.5q16 -12 39.5 -19.5t36.5 -7.5q50 0 91 20.5t66.5 51.5t49 67.5t40 67.5t38.5 51.5t46 20.5q23 0 17 -21q-27 -110 -136 -211.5t-229 -101.5q-61 0 -125 37q-113 -66 -217 -66q-87 0 -135 45.5t-31 116.5q9 39 50 73.5t106 34.5
q61 0 126.5 -36.5t115.5 -83.5q106 92 210 288t160 420q161 647 -131 647q-71 0 -140 -55.5t-126 -151t-104 -216.5t-82 -259q-11 -45 -19.5 -91.5t-13.5 -110t-0.5 -115.5t25 -98t57.5 -68q1 -1 3.5 -3t4 -3.5t2.5 -4t0 -4.5t-3.5 -4.5t-8.5 -4.5z" />
    <glyph glyph-name="R" unicode="R" horiz-adv-x="978"
d="M207 229l115 455q-47 -87 -100.5 -221.5t-84.5 -259.5q-30 -150 0 -150q14 0 34.5 55t35.5 121zM604 1296l-57 -229q67 107 139 184t135.5 114t112.5 53t90 16q104 0 157.5 -74.5t22.5 -200.5q-24 -94 -75.5 -180t-130.5 -161t-193.5 -128.5t-251.5 -73.5q5 -24 13 -83.5
t15.5 -112t22 -116t31.5 -108t44.5 -75.5t61.5 -31q70 0 138 93.5t106 219.5q3 14 9.5 22.5t13.5 8.5q17 0 10 -24q-25 -103 -75 -201t-116.5 -163.5t-128.5 -65.5q-47 0 -84 34t-64.5 104.5t-47 161t-37.5 218.5q-9 103 -4 125q1 5 3 8.5t5.5 7t6 5.5t9 4.5t11 3.5t14.5 3
t16.5 3t20.5 3.5t24 4.5q91 16 167.5 55t128.5 87t92.5 108.5t63 114.5t36.5 110q24 97 -3 157t-108 60q-190 0 -430 -410l-196 -786q-21 -85 -60.5 -131.5t-87.5 -46.5q-63 0 -84.5 48t2.5 146q102 381 262 643l117 465q9 37 -6 37q-36 0 -86 -71t-78 -160q-9 -31 -22 -31
q-16 0 -9 24q35 141 129 245t170 104q69 0 35 -138z" />
    <glyph glyph-name="S" unicode="S" horiz-adv-x="862"
d="M717 926q29 117 217 291q-11 64 -65.5 109.5t-135.5 45.5q-52 0 -96 -17.5t-72.5 -43t-51.5 -60.5t-34.5 -64.5t-19.5 -60.5q-15 -61 -8 -114.5t31 -94.5t59 -82t75.5 -75t81 -74t76 -79.5t59 -91.5t30.5 -109.5t-9 -133.5q-34 -135 -143 -213.5t-269 -78.5
q-107 0 -186 55.5t-110 152t-3 209.5q14 61 64.5 115.5t116.5 54.5q10 0 10 -4v-4q-4 -8 -8 -12q-22 -22 -35.5 -38t-31.5 -47.5t-26 -66.5q-13 -49 -13.5 -97.5t13.5 -95t41 -82.5t75.5 -57.5t111.5 -21.5q102 0 169 65.5t91 163.5q14 55 6.5 106.5t-32.5 92.5t-60 83
t-76 77.5t-82 76.5t-76 80.5t-59 88t-31 100t8 117.5q39 155 144.5 248.5t269.5 93.5q91 0 163 -44t93 -124q65 58 182 141q6 6 17 6t8 -10q0 -5 -6 -8q-114 -93 -197 -168q7 -65 -10 -133q-33 -128 -95.5 -201.5t-115.5 -73.5q-34 0 -50.5 30.5t-4.5 76.5zM932 1120
q6 24 6 54q-143 -147 -166 -238q-11 -55 19 -55q8 0 18 4.5t26 19.5t31 39.5t33 70t33 105.5z" />
    <glyph glyph-name="T" unicode="T" horiz-adv-x="1032"
d="M825 1225l-266 -1061q-24 -95 -67.5 -142t-96.5 -47q-14 0 -8 23l264 1061q24 94 68 141t98 47q13 0 8 -22zM1120 1331q78 -16 111 -16q35 0 57 22.5t28.5 50t14 50t17.5 22.5q11 0 13.5 -22t-1.5 -50t-10 -51q-12 -54 -54.5 -91.5t-115.5 -37.5q-51 0 -586 115
q-97 20 -173.5 -49t-133.5 -260q-4 -18 -12.5 -26.5t-16.5 -8.5q-17 0 -10 25q49 202 140 316t220 114q23 0 512 -103z" />
    <glyph glyph-name="U" unicode="U" horiz-adv-x="1007"
d="M1092 1188l-115 -459q46 85 99 222t85 263q8 33 13 59.5t5.5 43t-1.5 27.5t-5.5 15.5t-9.5 4.5q-26 0 -71 -176zM604 1296l-221 -886q-26 -105 -37.5 -170.5t-8 -102t17.5 -49t42 -12.5q17 0 39.5 7.5t60 33t78 66t95 113.5t110.5 169l197 790q21 85 61 132t88 47
q131 0 82 -215q-14 -53 -37 -126t-88 -227t-139 -274l-117 -465q-9 -37 7 -37q36 0 85.5 71.5t77.5 160.5q9 30 23 30q17 0 10 -24q-37 -142 -131 -245t-170 -103q-69 0 -35 137l58 229q-61 -103 -123.5 -178t-116 -114t-96.5 -56.5t-80 -17.5q-45 0 -73.5 19.5t-43 66
t-7 130t37.5 205.5l221 885q9 37 -6 37q-36 0 -86 -71t-78 -160q-9 -31 -22 -31q-16 0 -9 24q35 141 129 245t170 104q69 0 35 -138z" />
    <glyph glyph-name="V" unicode="V" horiz-adv-x="829"
d="M604 1296l-194 -784q-24 -95 -38 -156t-24.5 -118.5t-12.5 -90.5t2.5 -58.5t17 -35.5t34.5 -10q75 0 156 77.5t151 203t129 276.5t97 305q53 205 49.5 309t-70.5 125q56 95 117 95q31 0 45.5 -26t12 -83t-17.5 -135t-44 -195q-34 -136 -83.5 -274t-116 -272.5t-139 -238
t-158.5 -167t-169 -63.5q-51 0 -82 21.5t-44 59t-10.5 98.5t15.5 130t37 164l207 833q9 37 -6 37q-36 0 -86 -71t-78 -160q-9 -31 -22 -31q-16 0 -9 24q35 141 129 245t170 104q69 0 35 -138z" />
    <glyph glyph-name="W" unicode="W" horiz-adv-x="1226"
d="M604 1296l-194 -784q-24 -95 -38 -156t-24.5 -118.5t-12.5 -90.5t2.5 -58.5t17 -35.5t34.5 -10q71 0 173 118.5t186 297.5l122 487q24 94 68 141.5t98 47.5q12 0 6 -23l-149 -600q-24 -95 -38 -155.5t-25.5 -119t-14 -91t0 -58t13 -35.5t29.5 -10q61 0 129 77
t128.5 203.5t112.5 276t91 305.5q53 205 49.5 309t-70.5 125q56 95 117 95q31 0 45.5 -26t12 -83t-17.5 -135t-44 -195q-36 -141 -79 -274.5t-102 -271t-121.5 -239t-139 -166t-152.5 -64.5q-94 0 -118 80.5t8 228.5q-202 -309 -359 -309q-51 0 -82 21.5t-44 59t-10.5 98.5
t15.5 130t37 164l207 833q9 37 -6 37q-36 0 -86 -71t-78 -160q-9 -31 -22 -31q-16 0 -9 24q35 141 129 245t170 104q69 0 35 -138z" />
    <glyph glyph-name="X" unicode="X" horiz-adv-x="1038"
d="M514 485l115 193l-78 586q-2 22 -14 40.5t-27 18.5q-36 0 -86 -71t-78 -160q-9 -31 -22 -31q-8 0 -11 7t0 17q37 145 120 247t157 102q71 0 86 -138l59 -442l47 76q31 48 76.5 122t74 120t67 101.5t67 86.5t62 52.5t63.5 21.5q23 0 38 -11.5t20.5 -36t6 -52.5t-6 -71.5
t-15 -82.5t-21.5 -95q-7 -24 -22 -24q-13 0 -10 31q21 88 15.5 159.5t-40.5 71.5q-25 0 -52.5 -20.5t-60.5 -66t-59.5 -87t-71.5 -115.5t-75 -121l-90 -147l88 -639q3 -21 10 -29t22 -8q36 0 86 71.5t78 160.5q9 30 23 30q17 0 10 -24q-37 -145 -120 -246.5t-157 -101.5
q-37 0 -59 44.5t-27 108.5l-61 457l-72 -121q-17 -26 -52.5 -81t-53 -81.5t-49 -73.5t-50 -71t-46 -59t-47.5 -52.5t-43.5 -36.5t-45 -26.5t-41.5 -7.5q-23 0 -38 11.5t-20.5 35.5t-6 52.5t6 71.5t15 82t21.5 95q7 24 22 24q14 0 11 -30q-21 -88 -16 -160t40 -72
q23 0 50.5 18.5t53 45t61 74.5t62 87.5t69.5 105.5q28 42 42 64z" />
    <glyph glyph-name="Y" unicode="Y" horiz-adv-x="952"
d="M1092 1184l-48 -189q107 177 132 271q21 94 -15 94q-14 0 -33.5 -54.5t-35.5 -121.5zM698 139l88 346q-141 -160 -194 -370q-11 -48 1.5 -81.5t35.5 -33.5q14 0 24.5 11t20 38t13 40.5t11.5 49.5zM604 1296l-119 -477q-26 -105 -37 -170.5t-7.5 -102t17.5 -49t42 -12.5
q18 0 39 5.5t58.5 28t77 60t93.5 108.5t109 167l100 397q21 85 61 132t88 47q134 0 95 -173q-26 -124 -207 -378l-53 -217q8 8 33.5 34t45 45.5t43 42t39 35t21.5 12.5q7 0 8 -7.5t-4 -12.5q-30 -31 -103 -105t-100 -102l-84 -336q-78 -309 -225 -309q-57 0 -77 46t1 124
q22 88 88.5 207.5t155.5 214.5l45 184q-94 -159 -206 -252.5t-204 -93.5q-45 0 -73.5 19.5t-43 66.5t-7 130.5t37.5 205.5l119 475q9 37 -6 37q-36 0 -86 -71t-78 -160q-9 -31 -22 -31q-16 0 -9 24q35 141 129 245t170 104q69 0 35 -138z" />
    <glyph glyph-name="Z" unicode="Z" horiz-adv-x="952"
d="M190 135q54 29 115.5 49.5t102.5 20.5q57 0 108 -13.5t81 -30.5t67 -30.5t69 -13.5q46 0 81 44t73 142q9 31 24 31q8 0 11 -7.5t0 -17.5q-16 -62 -36 -114.5t-50.5 -104t-73.5 -81t-94 -29.5q-27 0 -75.5 18.5t-115.5 37.5t-137 19q-58 0 -120.5 -18.5t-113 -37.5
t-79.5 -19q-18 7 -10 33t26 44q65 58 214.5 228.5t282 330t317 382.5t233.5 282q-54 -29 -118.5 -50.5t-105.5 -21.5q-57 0 -108 14t-81 30t-67 30t-69 14q-46 0 -81 -44t-73 -142q-9 -31 -25 -31q-17 0 -10 25q16 62 36 114.5t50.5 104.5t73.5 81.5t94 29.5q27 0 75.5 -19
t115.5 -38t137 -19q58 0 120.5 19t113 38t79.5 19q14 -2 17.5 -11.5t-2.5 -22.5t-14 -24t-17 -20q-126 -117 -343 -374t-427.5 -518.5t-270.5 -328.5z" />
    <glyph glyph-name="bracketleft" unicode="[" horiz-adv-x="622"
d="M496 -514h-332v2001h332v-43h-40t-33 -1.5t-29 -4.5t-22 -8t-18.5 -13t-11.5 -20t-8 -27.5t-2 -36.5v-1695q0 -21 2 -36.5t8 -27.5t11.5 -20t18.5 -13t22 -8t29 -4.5t33 -1.5h40v-41z" />
    <glyph glyph-name="backslash" unicode="\" horiz-adv-x="1036"
d="M1026 -514h-63l-971 2009h53z" />
    <glyph glyph-name="bracketright" unicode="]" horiz-adv-x="559"
d="M373 -514h-320v41q28 0 40.5 0.5t32.5 2.5t29 6t21 11.5t17 19.5t8.5 29.5t3.5 41.5v1695q0 21 -2 36.5t-8 27.5t-11.5 20t-18.5 13t-22 8t-29 4.5t-33 1.5h-40v43h332v-2001z" />
    <glyph glyph-name="asciicircum" unicode="^" horiz-adv-x="849"
d="M760 961h-72l-276 440l-275 -440h-74l336 528h27z" />
    <glyph glyph-name="underscore" unicode="_" horiz-adv-x="1030"
d="M1018 -508h-1018v66h1018v-66z" />
    <glyph glyph-name="grave" unicode="`" horiz-adv-x="440"
d="M336 1053l-25 -13l-260 314q-10 10 -9 28.5t15 24.5l115 53q17 8 31.5 -6.5t21.5 -36.5z" />
    <glyph glyph-name="a" unicode="a" horiz-adv-x="860"
d="M879 737q-29 0 -58 -119l-51 -202q84 135 109 235q19 86 0 86zM754 348l-56 -221q-9 -37 7 -37q38 0 92 76t77 168q3 12 19 12q14 0 8 -18q-35 -142 -127 -245t-168 -103q-66 0 -24 170q-58 -76 -125 -123t-131 -47q-83 0 -135.5 54t-63 142t13.5 199q42 171 150 287
t233 116q77 0 122 -50t22 -140q-5 -21 -23 -21q-14 0 -8 17q13 58 -7 99.5t-77 41.5q-85 0 -165.5 -101t-117.5 -249q-39 -146 -13 -244t110 -98q51 0 121.5 57.5t111.5 132.5l72 287q37 150 82.5 209t103.5 59q37 0 52.5 -32.5t0.5 -90.5q-14 -64 -59 -149.5t-98 -157.5z
" />
    <glyph glyph-name="b" unicode="b" horiz-adv-x="831"
d="M252 446q-6 -7 -49.5 -60t-71 -82.5t-35.5 -29.5q-7 0 -11.5 7t3.5 18q24 29 90.5 111t91.5 112l39 158q65 255 96 350q131 404 289 404q92 0 45 -189q-36 -145 -133 -338.5t-196 -322.5l-64 -252q-28 -106 -19 -175.5t41 -103t83 -33.5q63 0 121 60t96.5 146t64.5 190
q37 146 11.5 227.5t-111.5 81.5q-57 0 -102.5 -52t-59.5 -112q-5 -16 -16 -16q-20 0 -15 20q22 84 91.5 148.5t146.5 64.5q113 0 167 -105.5t13 -277.5q-12 -47 -31.5 -96.5t-55.5 -108.5t-80.5 -104t-110 -75.5t-140.5 -30.5q-89 0 -144 65t-64 168.5t20 232.5zM430 666
q88 137 163.5 302.5t106.5 288.5q7 29 11 48.5t6 40t-1.5 30.5t-13.5 10q-22 0 -50.5 -49t-61 -144t-56.5 -172t-58.5 -198t-45.5 -157z" />
    <glyph glyph-name="c" unicode="c" horiz-adv-x="665"
d="M563 737q-100 0 -197 -100.5t-137 -263.5q-28 -113 -6.5 -188t69 -112.5t109.5 -37.5q66 0 137 48t93 107q8 25 20 25q7 0 11 -6t2 -12q-20 -77 -115.5 -147t-194.5 -70q-92 0 -159.5 41.5t-100 130t1.5 225.5q17 68 59.5 138.5t101 129.5t135 96t153.5 37q97 0 151 -62
t43 -132q-7 -21 -20 -21q-11 0 -8 25q5 58 -39 103.5t-109 45.5z" />
    <glyph glyph-name="d" unicode="d" horiz-adv-x="837"
d="M780 463l-84 -336q-9 -37 6 -37q38 0 92.5 76t77.5 168q3 12 19 12q14 0 8 -18q-35 -142 -127 -245t-168 -103q-66 0 -24 170q-58 -76 -125 -123t-131 -47q-83 0 -135.5 54t-63 142t13.5 199q42 171 150 287t233 116q77 0 122 -50t22 -140q-5 -21 -23 -21q-14 0 -8 17
q13 58 -7 99.5t-77 41.5q-85 0 -165.5 -101t-117.5 -249q-39 -146 -13 -244t110 -98q51 0 121.5 57.5t111.5 132.5l233 942q67 269 199 269q39 0 52.5 -43t-5.5 -121q-86 -343 -297 -807zM983 1274l-160 -639q156 383 221 631q10 46 10 86.5t-14 40.5q-28 0 -57 -119z" />
    <glyph glyph-name="e" unicode="e" horiz-adv-x="671"
d="M455 35q65 0 134.5 48.5t94.5 106.5q8 25 21 25q14 0 10 -16q-20 -77 -117.5 -148t-196.5 -71q-61 0 -112.5 22t-88.5 63.5t-53.5 108.5t-5.5 150q-19 0 -55 4q-2 1 -2 14q4 14 25 14q12 -2 38 -2q0 12 9 43q17 68 57.5 135.5t96 122.5t129.5 89t151 34q95 0 141.5 -49.5
t28.5 -116.5q-29 -114 -165 -192.5t-323 -93.5q-13 -67 -6 -116.5t24 -83t45.5 -54t57.5 -29t62 -8.5zM680 629q10 53 -20 80.5t-78 27.5q-84 0 -171.5 -101t-127.5 -263l-4 -15q91 9 165 36t122 65.5t76.5 81t37.5 88.5z" />
    <glyph glyph-name="f" unicode="f" horiz-adv-x="720"
d="M309 -229q26 108 42.5 218.5t16.5 216t-24 156.5l-104 -417q-62 -250 -72 -317q-15 -103 16 -103q29 0 63 69.5t62 176.5zM399 584l-18 -68q29 -4 42 -18.5t19 -46.5q79 -357 166 -357q34 0 70.5 38t58.5 124q3 12 17 12q13 0 10 -18q-22 -89 -72.5 -142.5t-99.5 -50.5
q-19 1 -37.5 13.5t-36.5 38.5t-31 48t-29.5 61.5t-24 59t-21.5 58.5q33 -184 -62 -551q-78 -317 -205 -317q-26 0 -44 16t-25 47t-9.5 65.5t3 84t11 88.5t17 92t18.5 83t17 72l168 666q2 10 8 33q12 49 19 77.5t22 86t27 95.5t30 94t35.5 94.5t39 84.5t44 76.5t47.5 57.5
t53.5 40t57.5 13q92 0 45 -189q-36 -145 -133.5 -338.5t-196.5 -322.5zM420 666q88 137 163.5 302.5t106.5 288.5q7 29 11 48.5t6 40t-1.5 30.5t-13.5 10q-22 0 -50.5 -49t-61 -144t-56.5 -172t-58.5 -198t-45.5 -157z" />
    <glyph glyph-name="g" unicode="g" horiz-adv-x="854"
d="M854 754l-162 -652q64 67 170 168q16 14 24 4q6 -7 -3 -16q-152 -152 -203 -207l-70 -274q-74 -309 -225 -309q-98 0 -68 118q40 160 222 391l39 162q-47 -71 -124 -115t-130 -44q-125 0 -175 112.5t-8 282.5q42 171 150 287t233 116q77 0 122 -50t22 -140
q-5 -21 -23 -21q-14 0 -8 17q13 58 -7 99.5t-77 41.5q-85 0 -165.5 -101t-117.5 -249q-39 -146 -13 -244t110 -98q71 0 148 83t101 177l78 307q15 66 62 122t92 56q12 0 6 -24zM457 -352l65 264q-78 -123 -116.5 -198t-51.5 -132q-21 -74 21 -74q45 0 82 140z" />
    <glyph glyph-name="h" unicode="h" horiz-adv-x="794"
d="M117 20q29 0 55 119l51 203q-77 -121 -106 -236q-19 -86 0 -86zM418 627l-15 -56q61 86 130.5 146.5t132.5 60.5q148 0 90 -243l-103 -408q-9 -37 6 -37q38 0 92.5 76t77.5 168q3 12 19 12q14 0 8 -18q-35 -142 -127 -245t-168 -103q-67 0 -33 137l97 389q10 39 14 67
t2 52.5t-16 36.5t-39 12q-87 0 -197 -164l-65 -262q-67 -268 -193 -268q-80 0 -47 122q15 63 59 151t97 157l16 59q-15 -17 -73 -92t-74 -92q-14 -14 -25 -8q-10 5 2 22q30 36 98 127t88 115l35 139q65 255 96 350q131 404 289 404q92 0 43 -187q-34 -136 -123.5 -308.5
t-193.5 -311.5zM436 705q87 124 161.5 277.5t104.5 274.5q31 129 -2 129q-16 0 -35 -25t-39.5 -71.5t-40 -99.5t-41 -123t-38.5 -127.5t-37.5 -127t-32.5 -107.5z" />
    <glyph glyph-name="i" unicode="i" horiz-adv-x="520"
d="M371 965q11 43 37 72.5t55 29.5t42 -29.5t3 -72.5t-38.5 -73t-57.5 -30t-40.5 30t-0.5 73zM434 641l-129 -514q-9 -37 6 -37q38 0 92.5 76t77.5 168q3 12 19 12q14 0 8 -18q-35 -142 -127 -245t-168 -103q-67 0 -33 137l127 514q9 37 -6 37q-38 0 -92 -75.5t-78 -168.5
q-3 -12 -16 -12q-5 0 -8.5 5t-0.5 13q35 142 126 245t167 103q37 0 44 -38.5t-9 -98.5z" />
    <glyph glyph-name="j" unicode="j" horiz-adv-x="475"
d="M371 965q11 43 37 72.5t55 29.5t42 -29.5t3 -72.5t-38.5 -73t-57.5 -30t-40.5 30t-0.5 73zM63 -352l66 264q-121 -191 -154 -330q-21 -74 21 -74q30 0 67 140zM434 641l-135 -539q64 67 170 168q15 13 23 4q6 -7 -3 -16q-138 -138 -202 -207l-70 -274
q-36 -148 -90.5 -228.5t-124.5 -80.5q-93 0 -63 118q47 190 206 391l162 654q9 37 -6 37q-38 0 -92 -75.5t-78 -168.5q-3 -12 -16 -12q-5 0 -8.5 5t-0.5 13q35 142 126 245t167 103q37 0 44 -38.5t-9 -98.5z" />
    <glyph glyph-name="k" unicode="k" horiz-adv-x="819"
d="M410 586l-2 -11l-64 -251q40 104 93 191t128 149.5t152 62.5q70 0 104 -46t19 -116q-28 -115 -141.5 -200t-276.5 -89q0 -80 39 -144t102 -64q43 0 98 33.5t107 97.5q5 7 12.5 16.5t12 15.5t9.5 12t8.5 8.5t6.5 2.5q6 -4 6 -11t-9 -24.5t-15 -27t-11 -17.5
q-51 -70 -127.5 -132t-140.5 -62q-41 0 -70.5 29.5t-43.5 78.5t-20.5 98t-6.5 101q0 19 7 27t30 8q101 0 189.5 55t113.5 153q14 53 -10 79t-60 26q-54 0 -108 -48.5t-96 -121.5t-84 -157.5t-73.5 -157.5t-63 -121.5t-54.5 -48.5q-19 0 -25 7t-2 27l109 437
q-123 -147 -141 -166q-14 -14 -26 -8q-10 5 3 22q24 29 90.5 111t91.5 112l39 158q65 255 96 350q131 404 289 404q92 0 43 -187q-35 -140 -131 -333.5t-196 -327.5zM430 666q90 140 167.5 305t107.5 286q31 129 -3 129q-22 0 -50.5 -49t-61 -144t-56.5 -172t-58.5 -198
t-45.5 -157z" />
    <glyph glyph-name="l" unicode="l" horiz-adv-x="520"
d="M170 117l82 329q-6 -7 -49.5 -60t-71 -82.5t-35.5 -29.5q-7 0 -11.5 7t3.5 18q24 29 90.5 111t91.5 112l39 158q65 255 96 350q131 404 289 404q92 0 45 -189q-36 -145 -133 -338.5t-196 -322.5l-115 -457q-9 -37 6 -37q38 0 92 74t78 166q3 16 18 16q5 0 8.5 -5t0.5 -13
q-35 -142 -127 -245t-168 -103q-64 0 -33 137zM430 666q88 137 163.5 302.5t106.5 288.5q7 29 11 48.5t6 40t-1.5 30.5t-13.5 10q-22 0 -50.5 -49t-61 -144t-56.5 -172t-58.5 -198t-45.5 -157z" />
    <glyph glyph-name="m" unicode="m" horiz-adv-x="1157"
d="M487 20q29 0 58 119l51 203q-80 -122 -109 -236q-19 -86 0 -86zM252 410l55 221q9 37 -6 37q-38 0 -92 -75.5t-78 -168.5q-3 -12 -16 -12q-5 0 -8.5 5t-0.5 13q35 142 126 245t167 103q37 0 44 -38.5t-9 -98.5l-24 -94q148 231 268 231q54 0 80.5 -33t25.5 -84.5
t-14 -113.5q148 231 268 231q148 0 90 -243l-102 -408q-9 -37 6 -37q38 0 92.5 76t77.5 168q3 12 19 12q14 0 8 -18q-35 -142 -127 -245t-168 -103q-67 0 -33 137l96 389q10 39 14 67t2 52.5t-16 36.5t-39 12q-31 0 -83.5 -46t-120.5 -145l-58 -235q-37 -148 -86 -208
t-108 -60q-76 0 -45 122q17 66 60.5 152.5t94.5 155.5l25 96q10 39 14 67t2 52.5t-16 36.5t-39 12q-31 0 -84 -46t-121 -145l-57 -235q-67 -268 -195 -268q-75 0 -45 122q17 66 61 152.5t95 155.5zM127 20q28 0 57 119l52 203q-80 -122 -109 -236q-19 -86 0 -86z" />
    <glyph glyph-name="n" unicode="n"
d="M252 410l55 221q9 37 -6 37q-38 0 -92 -75.5t-78 -168.5q-3 -12 -16 -12q-5 0 -8.5 5t-0.5 13q35 142 126 245t167 103q37 0 44 -38.5t-9 -98.5l-24 -94q148 231 268 231q148 0 90 -243l-102 -408q-9 -37 6 -37q38 0 92.5 76t77.5 168q3 12 18 12q14 0 8 -18
q-35 -142 -127 -245t-168 -103q-37 0 -43.5 38.5t11.5 98.5l96 389q10 39 14 67t2 52.5t-16 36.5t-39 12q-31 0 -84 -46t-121 -145l-57 -235q-67 -268 -195 -268q-75 0 -45 122q17 66 61 152.5t95 155.5zM127 20q28 0 57 119l52 203q-80 -122 -109 -236q-19 -86 0 -86z" />
    <glyph glyph-name="o" unicode="o" horiz-adv-x="780"
d="M545 778q14 0 21 -6t5 -14q-3 -10 -20 -10q-80 0 -156 -94.5t-114 -247.5q-20 -78 -26 -143.5t2 -122t41 -88.5t89 -32q54 0 102 33.5t81.5 88t56 110t37.5 113.5q40 146 17 243t-110 97q-57 0 -97.5 -42t-55.5 -100q-3 -16 -17 -16q-19 0 -12 20q22 90 91.5 140.5
t146.5 50.5q117 0 165.5 -106.5t8.5 -266.5q-48 -195 -161.5 -300t-258.5 -105q-162 0 -223 108t-15 297q25 100 80 187.5t140.5 146.5t181.5 59z" />
    <glyph glyph-name="p" unicode="p" horiz-adv-x="833"
d="M57 -373l160 639q-177 -436 -211 -631q-8 -43 -8.5 -84t8.5 -43q22 0 51 119zM428 618q47 71 124 115.5t130 44.5q125 0 174.5 -112.5t7.5 -282.5q-42 -171 -150 -287t-233 -116q-77 0 -121 50t-22 140q5 20 24 20q12 0 9 -16q-15 -58 4.5 -99.5t77.5 -41.5q85 0 165 101
t117 249q39 146 13.5 244t-109.5 98q-71 0 -148.5 -83t-101.5 -177l-182 -729q-67 -268 -197 -268q-30 0 -40.5 42.5t7.5 120.5q37 189 104.5 376t178.5 431l47 193q9 37 -6 37q-38 0 -92 -75.5t-78 -168.5q-3 -12 -16 -12q-5 0 -8.5 5t-0.5 13q35 142 126 245t167 103
q69 0 29 -160z" />
    <glyph glyph-name="q" unicode="q" horiz-adv-x="903"
d="M670 12q60 11 115.5 37.5t132.5 73.5q27 16 32 6q2 -3 0 -8q-4 -21 -83.5 -65.5t-157.5 -71.5q14 -34 16.5 -120t-14.5 -167q-59 -229 -146 -229q-154 0 -88 268l101 403q-47 -71 -124 -115t-130 -44q-125 0 -175 112.5t-8 282.5q42 171 150 287t233 116q77 0 122 -50
t22 -140q-5 -21 -23 -21q-14 0 -8 17q13 58 -7 99.5t-77 41.5q-85 0 -165.5 -101t-117.5 -249q-39 -146 -13 -244t110 -98q71 0 148 83t101 177l78 307q15 66 62 122t92 56q12 0 6 -24zM662 -23l-89 -350q-30 -119 17 -119q17 0 40.5 59t41.5 130q14 58 11.5 160.5
t-21.5 119.5z" />
    <glyph glyph-name="r" unicode="r" horiz-adv-x="675"
d="M322 434q9 25 5 46.5t-10.5 34.5t-22.5 25.5t-29.5 20.5t-31.5 19.5t-30 21.5q-28 -77 -63 -156.5t-46 -80.5q-3 -1 -2 3q0 3 2 11q9 37 44 130.5t42 119.5q-13 46 2 104q10 45 41 45q6 0 9 -3.5t2.5 -12t-1.5 -14.5t-4 -19q-9 -35 1.5 -59.5t33 -37t50.5 -25.5t56 -25
t48 -36t27 -58t-7 -91q-4 -15 -25 -73q-67 -179 -63 -236q3 -41 35 -41q50 0 121.5 49.5t134 129.5t82.5 157q3 12 18 12q5 0 8.5 -5t0.5 -13q-14 -56 -56.5 -124.5t-99 -129t-127 -102t-133.5 -41.5q-45 0 -71 18.5t-32 51t-2.5 70.5t17.5 84.5t27.5 86t28.5 81t20 62.5z
" />
    <glyph glyph-name="s" unicode="s" horiz-adv-x="620"
d="M201 -20q-70 0 -112 25t-54 61q-11 62 21 86t89 -7q9 -5 37.5 -24.5t59.5 -38.5t59 -31q57 53 84 166q40 159 -37 377q-92 -102 -178 -160q-19 -13 -29 -5q-3 3 -2 7q0 7 22 26.5t51.5 43.5t67.5 65t64 84q0 123 57 123q16 0 17.5 -13t-4.5 -30q-12 -48 6 -112.5t45 -121
t42 -134t-3 -152.5q-12 -51 -43.5 -99t-77.5 -81q59 0 111.5 23.5t111.5 82.5q19 19 25 19q7 -3 4 -12t-8 -17q-45 -66 -114 -101t-138 -30q-25 0 -49 4q-63 -24 -125 -24zM184 8q38 0 72 15q-23 9 -46 21.5t-52 31t-43 26.5q-23 13 -35 -2t-4 -32q11 -23 42 -41.5t66 -18.5
z" />
    <glyph glyph-name="t" unicode="t" horiz-adv-x="598"
d="M227 264l90 367q-80 -20 -155 -51q-45 -23 -53 -25q-8 -3 -14.5 -0.5t-8.5 8.5q0 4 1.5 7.5t6 7.5t9.5 7.5t14 8l16 8l19 9.5l20 10q70 26 156 51l18 71q54 220 84 306q101 282 258 282q44 0 67.5 -33.5t2.5 -117.5q-23 -92 -106.5 -222.5t-192.5 -257.5
q40 14 107.5 25.5t105.5 13.5q25 2 40.5 2t29.5 -1t19.5 -5.5t4.5 -11.5q-4 -16 -23 -16l-57 -2q-114 -4 -237 -43l-82 -328q-7 -26 -12 -52t-9.5 -55.5t-4.5 -54t4 -45t14.5 -32t27.5 -11.5q49 0 106 77t80 173q3 12 19 12q14 0 8 -18q-35 -142 -127 -245t-168 -103
q-43 0 -67 25.5t-29 69t0 90t18 99.5zM475 770q65 79 143.5 210.5t98.5 211.5q22 92 -21 92q-16 0 -32.5 -15.5t-33.5 -48.5t-31.5 -66.5t-32.5 -88t-30 -94t-31.5 -103.5t-29.5 -98z" />
    <glyph glyph-name="u" unicode="u" horiz-adv-x="800"
d="M721 348l-55 -221q-9 -37 6 -37q38 0 92.5 76t77.5 168q3 12 18 12q14 0 8 -18q-35 -142 -127 -245t-168 -103q-37 0 -43.5 38.5t11.5 98.5l22 94q-148 -231 -268 -231q-150 0 -88 243l100 408q9 37 -6 37q-38 0 -92 -75.5t-78 -168.5q-3 -12 -16 -12q-5 0 -8.5 5
t-0.5 13q35 142 126 245t167 103q37 0 44 -38.5t-9 -98.5l-98 -389q-10 -39 -14 -67.5t-1 -52t17 -36t39 -12.5q31 0 83 45.5t120 144.5l59 236q37 149 85 208.5t107 59.5q77 0 46 -123q-15 -64 -59 -149.5t-97 -157.5zM846 737q-29 0 -58 -119l-51 -202q80 123 109 235
q19 86 0 86z" />
    <glyph glyph-name="v" unicode="v" horiz-adv-x="663"
d="M434 641l-41 -162q-13 -54 -22.5 -95.5t-20 -96.5t-13 -94.5t-0.5 -75.5t15 -55t37 -19q45 0 104.5 72t104.5 162t61 157q62 240 -41 271q45 73 84 73q42 0 46.5 -80t-29.5 -215q-15 -64 -52.5 -147.5t-87 -164t-112 -136t-119.5 -55.5q-100 0 -123 118t31 322l51 211
q9 37 -6 37q-38 0 -92 -75.5t-78 -168.5q-3 -12 -16 -12q-5 0 -8.5 5t-0.5 13q35 142 126 245t167 103q37 0 44 -38.5t-9 -98.5z" />
    <glyph glyph-name="w" unicode="w" horiz-adv-x="1040"
d="M434 641l-41 -162q-13 -54 -22.5 -95.5t-20 -96.5t-13 -94.5t-0.5 -75.5t15 -55t37 -19q49 0 110 87t115 208l19 82l45 182q23 91 65 133.5t88 42.5q12 0 9 -22l-70 -277q-13 -54 -22.5 -95.5t-20 -96.5t-13 -94.5t-0.5 -75.5t15 -55t37 -19q45 0 104.5 72t104.5 162
t61 157q62 240 -41 271q45 73 84 73q42 0 46.5 -80t-29.5 -215q-15 -64 -52.5 -147.5t-87 -164t-112 -136t-119.5 -55.5q-145 0 -129 241q-131 -241 -248 -241q-100 0 -123 118t31 322l51 211q9 37 -6 37q-38 0 -92 -75.5t-78 -168.5q-3 -12 -16 -12q-5 0 -8.5 5t-0.5 13
q35 142 126 245t167 103q37 0 44 -38.5t-9 -98.5z" />
    <glyph glyph-name="x" unicode="x" horiz-adv-x="724"
d="M573 565l-94 -135l96 -299q10 -25 31 -25q20 0 45 47.5t39 108.5q0 1 3.5 13.5t6 20.5t8.5 15.5t13 7.5q6 0 8.5 -9t1 -24t-4.5 -30t-7 -31q-24 -95 -75 -170t-97 -75q-54 0 -86 116l-68 211l-90 -131q-32 -47 -48 -69.5t-45.5 -58.5t-52.5 -52t-42 -16q-35 0 -52 33.5
t-14 73t8 71.5q12 63 29 63q18 0 8 -41q-12 -40 -4.5 -85.5t39.5 -45.5q45 0 143 144l109 155l-88 275q-8 28 -31 28q-20 0 -44 -46.5t-40 -108.5q0 -1 -3.5 -13.5t-6 -20.5t-8.5 -16t-13 -8q-17 0 1 82q1 9 2 12q24 95 75 170.5t97 75.5q31 0 49.5 -29t38.5 -92l57 -186
l76 111q32 47 48 69.5t45.5 58.5t52.5 52t42 16q35 0 52.5 -33.5t15 -73t-7.5 -71.5q-16 -63 -31 -63q-18 0 -8 41q12 40 4.5 85.5t-39.5 45.5q-46 0 -144 -144z" />
    <glyph glyph-name="y" unicode="y" horiz-adv-x="782"
d="M844 737q-30 0 -56 -119l-51 -202q82 137 107 235q19 86 0 86zM424 -352l65 264q-142 -224 -167 -330q-21 -74 20 -74q45 0 82 140zM434 641l-98 -389q-10 -39 -14 -67.5t-1 -52t17 -36t39 -12.5q84 0 196 164l66 262q37 148 85 208t105 60q81 0 48 -123
q-15 -61 -60 -149.5t-96 -157.5l-62 -246q64 67 170 168q16 14 24 4q6 -7 -3 -16q-152 -152 -203 -207l-69 -274q-34 -149 -91.5 -229t-134.5 -80q-97 0 -67 118q41 162 221 391l51 209q-61 -86 -130 -146t-132 -60q-150 0 -88 243l100 408q9 37 -6 37q-38 0 -92 -75.5
t-78 -168.5q-3 -12 -16 -12q-5 0 -8.5 5t-0.5 13q35 142 126 245t167 103q37 0 44 -38.5t-9 -98.5z" />
    <glyph glyph-name="z" unicode="z" horiz-adv-x="706"
d="M188 125q55 18 109 18t135.5 -20.5t110.5 -20.5q44 0 75.5 31.5t53.5 110.5q9 30 24 30q8 0 11 -7t0 -17q-13 -51 -24 -85t-30.5 -72t-43 -60t-59.5 -36.5t-83 -14.5q-29 0 -110.5 20.5t-135.5 20.5q-34 0 -78 -10.5t-75.5 -20.5t-32.5 -10q-26 0 -23 24q7 26 37 53
q178 145 317 269t336 319q-74 -24 -129 -24q-54 0 -125 20.5t-100 20.5q-43 0 -75 -34t-56 -114q-6 -31 -22 -31q-8 0 -11 7.5t0 17.5q13 52 23.5 85t30 71.5t42.5 60.5t59 36.5t83 14.5q29 0 100 -20.5t125 -20.5q34 0 78.5 10.5t76 20.5t32.5 10q29 0 22 -24
q-7 -30 -35 -54q-116 -103 -209 -187.5t-216 -197.5t-208 -190z" />
    <glyph glyph-name="braceleft" unicode="{" horiz-adv-x="581"
d="M528 -467v-45q-85 0 -148.5 15t-114.5 50.5t-77 100.5t-26 158v456q0 105 -26 145.5t-113 69.5v11q87 29 113 69.5t26 145.5v456q0 93 26 158t77 100.5t114.5 50.5t148.5 15v-45q-52 -1 -88 -13.5t-57 -32t-32.5 -53.5t-15 -67.5t-3.5 -83.5v-475q0 -195 -154 -230v-2
q154 -35 154 -229v-475q0 -50 3.5 -83.5t15 -67.5t32.5 -53.5t57 -32t88 -13.5z" />
    <glyph glyph-name="bar" unicode="|" horiz-adv-x="630"
d="M317 -512h-49v2007h49v-2007z" />
    <glyph glyph-name="braceright" unicode="}" horiz-adv-x="579"
d="M41 -512v45q60 1 97.5 18.5t56 53t24.5 75.5t6 103v475q0 194 154 229v2q-154 35 -154 230v475q0 50 -3.5 83.5t-15 67.5t-32.5 53.5t-57 32t-88 13.5v45q85 0 148.5 -15t114.5 -50.5t77 -100.5t26 -158v-456q0 -105 26.5 -145.5t113.5 -69.5v-11q-87 -29 -113.5 -69.5
t-26.5 -145.5v-456q0 -93 -26 -158t-75.5 -100.5t-110.5 -50.5t-142 -15z" />
    <glyph glyph-name="asciitilde" unicode="~" horiz-adv-x="946"
d="M844 647h76q-19 -107 -90 -179t-183 -73q-70 -1 -144 25.5t-139.5 53t-113.5 26.5q-41 0 -89 -23t-83 -82h-74q26 103 103 177.5t190 74.5q64 0 197 -53t188 -53q113 0 162 106z" />
    <glyph glyph-name="uni00A0" unicode="&#xa0;" horiz-adv-x="0"
 />
    <glyph glyph-name="exclamdown" unicode="&#xa1;" horiz-adv-x="591"
d="M711 1251q-12 -46 -53.5 -79t-88.5 -33t-71.5 33t-12.5 79q10 47 52 80t90 33q47 0 71.5 -33t12.5 -80zM348 -20h-135q-19 0 -24 6t1 34l334 1002h33l-168 -1002q-4 -26 -13 -33t-28 -7z" />
    <glyph glyph-name="cent" unicode="&#xa2;" horiz-adv-x="956"
d="M528 -184h-49l41 164q-88 3 -157 32t-110.5 77.5t-65.5 112.5t-23 136.5t18 150.5q31 124 113 234t208.5 184.5t268.5 83.5l45 176h49l-45 -174q140 -4 283 -43l-66 -266h-41q-7 116 -18 154q-27 94 -123 112q-20 3 -43 4l-227 -907q71 0 160 35.5t151 87.5l33 -27
q-65 -61 -158 -107.5t-203 -53.5zM539 51l223 899q-127 -21 -241 -149.5t-159 -311.5q-45 -181 5.5 -299t171.5 -139z" />
    <glyph glyph-name="sterling" unicode="&#xa3;" horiz-adv-x="1105"
d="M1032 0h-905l-2 47q100 60 169.5 213.5t104.5 355.5h-229l16 50h220l4 145q-5 87 31 177.5t102 165t169.5 122t223.5 47.5q93 0 175.5 -31.5t170.5 -107.5l14 -19q-38 -38 -69 -164l-19 -75h-55l-12 133q1 58 -15 101t-38.5 66t-55 37t-58 17.5t-54.5 3.5
q-62 0 -119.5 -24.5t-105 -71t-77.5 -120.5t-34 -165q2 -131 -9 -237h394l-17 -50h-381q-60 -409 -338 -565l-8 -4l693 -2l141 320h51z" />
    <glyph glyph-name="currency" unicode="&#xa4;" horiz-adv-x="1044"
d="M1028 690l-80 105q-116 -78 -248 -78q-63 0 -121 22t-94 62l-123 -96l-28 40l119 99q-60 105 -29 229q34 129 143 230l-69 94l61 49l70 -94q116 78 250 78q133 0 208 -78l123 94l31 -39l-121 -98q66 -107 33 -236q-31 -126 -143 -229l80 -105zM723 809q107 0 201.5 77.5
t122.5 186.5q28 107 -29 184.5t-164 77.5q-108 0 -203 -77t-123 -185q-28 -109 29 -186.5t166 -77.5z" />
    <glyph glyph-name="yen" unicode="&#xa5;" horiz-adv-x="1243"
d="M887 0h-484l-2 45q89 0 128 30.5t61 114.5l43 177h-295l12 45h295l2 8q1 4 4.5 19.5t5 24t4.5 28t2.5 31.5l-1.5 36h-275l10 45h256l-4 19l-172 551q-9 38 -16.5 58.5t-23.5 43t-42.5 32t-66.5 9.5l10 45h440l-10 -45q-79 0 -91.5 -26.5t11.5 -100.5l127 -434
q18 -62 38 -63.5t71 61.5l325 434q21 31 31 48.5t13.5 35t-9 26.5t-39.5 14t-74 5l11 45h377l-11 -45q-82 0 -133 -29t-100 -98l-379 -510q-11 -16 -47 -76h272l-10 -45h-283q-1 -3 -24 -86l-15 -61h285l-12 -45h-285l-43 -174q-22 -86 0.5 -117t110.5 -31z" />
    <glyph glyph-name="brokenbar" unicode="&#xa6;" horiz-adv-x="641"
d="M209 -539h-72l187 750h71zM530 750h-71l186 749h72z" />
    <glyph glyph-name="section" unicode="&#xa7;" horiz-adv-x="919"
d="M651 500q67 11 121.5 56t71.5 108q6 22 6 42t-4.5 37t-14 34t-21 30.5t-28 28t-31.5 25t-35 23.5t-36 22.5t-37 22t-35 21.5q-89 -7 -143 -67q-51 -51 -64 -115q-8 -39 3 -72t42.5 -62t58 -47t76.5 -46t70 -41zM129 162l18 76h50l2 -146q23 -49 73.5 -78.5t112.5 -29.5
q85 0 153 54.5t89 133.5q14 47 3 86.5t-39.5 65.5t-68 52.5t-82.5 48t-82 51t-67 62.5t-38 81.5t5 109.5q19 76 100 151.5t199 104.5q-105 85 -100 191q0 36 12 77q14 41 45 83t77.5 80t115.5 61.5t147 23.5q80 0 161.5 -26.5t112.5 -77.5q-28 -55 -41 -115l-18 -74h-49
l-4 152q-44 96 -162 96q-93 0 -155 -53.5t-83 -128.5q-12 -46 2.5 -84t47.5 -66.5t75.5 -54t88 -52.5t84 -56t64.5 -70.5t28 -89.5q3 -40 -13 -92q-27 -78 -104 -145t-193 -99q138 -108 105 -236q-28 -116 -140.5 -202t-295.5 -86q-77 0 -161 25.5t-116 78.5q22 43 41 117z
" />
    <glyph glyph-name="dieresis" unicode="&#xa8;" horiz-adv-x="862"
d="M674 1032q-45 0 -78 33t-33 78t32.5 77.5t78.5 32.5q44 0 76 -33t32 -77q0 -45 -32 -78t-76 -33zM346 1143q0 -45 -32.5 -78t-77.5 -33q-44 0 -76.5 33.5t-32.5 77.5t32.5 77t76.5 33q45 0 77.5 -32.5t32.5 -77.5z" />
    <glyph glyph-name="copyright" unicode="&#xa9;" horiz-adv-x="1562"
d="M778 23q178 0 351 89t298.5 241.5t169.5 330.5q36 136 12.5 256.5t-87.5 210.5t-172.5 142.5t-241.5 52.5q-178 0 -350.5 -89.5t-297.5 -242t-169 -330.5q-24 -110 -18.5 -208t46.5 -181t105 -143.5t155.5 -94.5t198.5 -34zM1665 684q-37 -146 -127.5 -279.5t-211 -230
t-268.5 -154t-294 -57.5q-117 0 -218.5 37t-172.5 102.5t-117 156t-53 198t20 227.5q48 195 186.5 361.5t329 263t385.5 96.5q117 0 218 -37t172 -102.5t117 -156t53.5 -198t-19.5 -227.5zM1133 418l26 -23q-54 -53 -135.5 -92t-177.5 -39q-73 0 -130.5 22.5t-92.5 61.5
t-55.5 91.5t-19.5 112t15 122.5q39 162 179.5 281.5t320.5 119.5q117 0 235 -33l-53 -213h-33q0 7 -1 20q-2 40 -4 60t-11 50.5t-24 45.5t-44 27t-71 12q-106 0 -209 -106.5t-141 -263.5q-41 -159 10 -257t166 -98q58 0 129 28.5t121 70.5z" />
    <glyph glyph-name="ordfeminine" unicode="&#xaa;" horiz-adv-x="669"
d="M864 1018l31 -31q-60 -54 -99.5 -72t-82.5 -18q-42 0 -63.5 24.5t-12.5 63.5l6 23q-35 -48 -92 -80t-111 -31q-73 1 -109.5 42t-21.5 101q23 88 107.5 147t212.5 85l86 18l14 64q19 74 -6 107.5t-76 33.5q-92 0 -155 -102h-7l-47 102q48 29 111.5 47.5t122.5 18.5
q115 0 164.5 -58t23.5 -160l-78 -309q-14 -63 11 -63q21 0 71 47zM662 1077l43 172l-70 -18q-64 -17 -117 -64t-72 -120q-9 -33 7 -53.5t49 -20.5q74 0 160 104z" />
    <glyph glyph-name="guillemotleft" unicode="&#xab;" horiz-adv-x="1095"
d="M518 27h-43l-319 477l319 442h45l-172 -442zM905 27h-41l-319 477l319 442h43l-172 -442z" />
    <glyph glyph-name="logicalnot" unicode="&#xac;" horiz-adv-x="1099"
d="M1014 322h-82v567h-932v67h1014v-634z" />
    <glyph glyph-name="uni00AD" unicode="&#xad;" horiz-adv-x="854"
d="M793 457h-758v65h758v-65z" />
    <glyph glyph-name="registered" unicode="&#xae;" horiz-adv-x="1556"
d="M774 23q133 0 254 53t208.5 141.5t139 211t51.5 255.5q0 178 -87 330.5t-237.5 242t-328.5 89.5t-328.5 -89.5t-237.5 -242t-87 -330.5q0 -133 51.5 -255.5t139 -211t208.5 -141.5t254 -53zM1495 684q0 -146 -57.5 -279.5t-154 -230t-230 -154t-279.5 -57.5t-279.5 57.5
t-230 154t-154 230t-57.5 279.5t57.5 279.5t154 230t230 154t279.5 57.5t279.5 -57.5t230 -154t154 -230t57.5 -279.5zM1135 272h-205l-201 336q-7 13 -10 17.5t-12.5 10t-24.5 5.5h-10q-12 0 -15.5 -3t-3.5 -13v-238q0 -53 15.5 -70.5t68.5 -17.5v-27h-282v27q52 0 67 17.5
t15 70.5v588q0 53 -15 70.5t-67 17.5v27h293q157 0 238 -62.5t81 -163.5q0 -80 -56 -138t-167 -77q-3 0 -5.5 -1.5t-3.5 -5.5t3 -11l174 -269q14 -21 29 -34t33 -19t29 -7.5t32 -2.5v-27zM678 668h22q113 0 175.5 48.5t62.5 147.5q0 93 -51 146t-137 53q-51 0 -71 -18.5
t-20 -69.5v-293q0 -9 3.5 -11.5t15.5 -2.5z" />
    <glyph glyph-name="macron" unicode="&#xaf;" horiz-adv-x="1024"
d="M1014 1395h-1014v65h1014v-65z" />
    <glyph glyph-name="degree" unicode="&#xb0;" horiz-adv-x="780"
d="M539 1030q0 -66 -47.5 -113t-114.5 -47q-66 0 -114 47t-48 113q0 67 48 115.5t114 48.5q67 0 114.5 -48t47.5 -116zM498 1030q0 53 -34.5 88t-86.5 35q-51 0 -86 -35.5t-35 -87.5q0 -51 35 -85t86 -34q52 0 86.5 34t34.5 85z" />
    <glyph glyph-name="plusminus" unicode="&#xb1;" horiz-adv-x="1060"
d="M1018 0h-973l-10 61h973zM559 477h-74v469h-450v66h450v446h74v-446h449v-66h-449v-469z" />
    <glyph glyph-name="twosuperior" unicode="&#xb2;" horiz-adv-x="647"
d="M520 911h-426l2 45q89 56 150 111t91 105t42 91.5t12 86.5q0 67 -35.5 106t-91.5 39q-32 0 -67 -28.5t-56 -86.5l-39 2q16 87 75 133t118 46q104 0 164.5 -56.5t60.5 -146.5q0 -101 -75 -185t-222 -167v-7h176q78 0 88 58l5 26h26z" />
    <glyph glyph-name="threesuperior" unicode="&#xb3;" horiz-adv-x="657"
d="M289 1237h-21v35h13q62 0 89 35t27 82q0 44 -30 73t-80 29q-34 0 -71 -23t-56 -77h-43q9 45 34 79.5t55.5 51t56 24.5t44.5 8q103 0 159 -43.5t56 -103.5q0 -55 -36.5 -96.5t-98.5 -53.5q76 -6 122 -52t46 -111q0 -31 -13 -63t-39.5 -62.5t-76.5 -50t-115 -19.5
q-76 0 -144.5 44.5t-90.5 105.5l33 12q81 -90 172 -90q65 0 101 40t36 89q0 60 -39 98.5t-90 38.5z" />
    <glyph glyph-name="acute" unicode="&#xb4;" horiz-adv-x="1112"
d="M485 1040l-24 13l110 364q7 22 22 36.5t32 6.5l114 -53q14 -6 15 -24.5t-9 -28.5z" />
    <glyph glyph-name="mu" unicode="&#xb5;" horiz-adv-x="1093"
d="M1053 0h-295l28 170q3 10 -6 10q-11 0 -22 -14q-156 -186 -326 -186q-26 0 -61 6q-20 7 -28.5 -4t-16.5 -45q-66 -274 -66 -437l-4 -12l-190 -2q0 1 -1.5 2t-1.5 2q4 84 37.5 239.5t59.5 254.5l194 796q26 85 11 118.5t-95 33.5l11 41h294l-172 -688q-28 -114 5.5 -168
t113.5 -54q49 0 117 39t139 127q10 12 24.5 38.5t20.5 45.5l115 467q26 85 11 118.5t-95 33.5l10 41h295l-194 -783q-26 -83 -11 -116t95 -33z" />
    <glyph glyph-name="paragraph" unicode="&#xb6;" horiz-adv-x="1093"
d="M868 -119h-98l385 1546h-149l-385 -1546h-99l176 709q-138 0 -235.5 58.5t-135 158t-8.5 219.5q18 71 54 138t98 132.5t142.5 114.5t194.5 79t247 30q193 0 266 -25q-33 -16 -58 -73t-51 -158z" />
    <glyph glyph-name="periodcentered" unicode="&#xb7;" horiz-adv-x="743"
d="M592 492q-11 -44 -52 -77.5t-85 -33.5q-45 0 -70 33t-14 78q12 45 53 77.5t86 32.5q44 0 69 -33t13 -77z" />
    <glyph glyph-name="cedilla" unicode="&#xb8;" horiz-adv-x="811"
d="M182 -453l-10 23q100 53 119 121q5 22 -9 46t-27 51t-5 56q2 8 7 18t14.5 22t18 22.5t23 25t23.5 24t25.5 25.5t23.5 23h41l-47 -57q-22 -24 -15.5 -56t24 -57t31 -60t5.5 -65q-17 -51 -80.5 -93.5t-161.5 -68.5z" />
    <glyph glyph-name="onesuperior" unicode="&#xb9;" horiz-adv-x="577"
d="M700 909h-321l8 33q20 0 31.5 1.5t30 7.5t31 22t18.5 41l88 354q-91 -42 -152 -45l10 37q172 57 304 203h22l-137 -549q-3 -13 -3.5 -24t3 -18.5t6.5 -13t11.5 -8.5t13 -5t15.5 -2.5t15 -0.5h15z" />
    <glyph glyph-name="ordmasculine" unicode="&#xba;" horiz-adv-x="677"
d="M504 750q-85 0 -132 49.5t-52 135t22 200.5q39 159 132 258.5t214 99.5t165 -100t5 -258q-44 -177 -135.5 -281t-218.5 -104zM510 780q78 0 140 84t110 273q39 170 17.5 247.5t-95.5 77.5t-137.5 -80.5t-104.5 -244.5q-46 -197 -27 -277t97 -80z" />
    <glyph glyph-name="guillemotright" unicode="&#xbb;" horiz-adv-x="1114"
d="M610 27h-43l289 477l-61 442h45l209 -442zM223 27h-43l289 477l-61 442h45l209 -442z" />
    <glyph glyph-name="onequarter" unicode="&#xbc;" horiz-adv-x="1290"
d="M111 -63h-64l1430 1607h65zM682 909h-322l9 33q20 0 31.5 1.5t29.5 7.5t30.5 22t18.5 41l88 354q-92 -42 -151 -45l10 37q171 56 303 203h23l-138 -549q-3 -13 -3.5 -24t3 -18.5t6.5 -13t11.5 -8.5t13 -5t15.5 -2.5t15 -0.5h15zM1108 -63h-322l9 32q20 0 31.5 1.5
t29.5 7.5t29.5 22t17.5 41l25 92h-297l8 33q201 197 276 491h136q-26 -103 -124 -232.5t-247 -258.5h256l2 8l6 29q30 121 55 180h136q-24 -50 -56 -180l-8 -37h105l-9 -33h-104l-25 -92q-6 -26 -1 -42t21.5 -22t26.5 -7t31 -1z" />
    <glyph glyph-name="onehalf" unicode="&#xbd;" horiz-adv-x="1306"
d="M131 -63h-63l1429 1607h66zM1210 109l-43 -172h-426l11 45q103 56 178 110.5t118 104.5t65.5 91.5t33.5 86.5q17 67 -8.5 106t-81.5 39q-33 0 -75 -28t-77 -86h-39q25 59 70.5 102t88.5 60.5t79 17.5q104 0 150 -56.5t24 -146.5q-25 -101 -121 -185t-264 -167l-2 -6h176
q79 0 102 57l13 27h28zM682 909h-322l9 33q20 0 31.5 1.5t29.5 7.5t30.5 22t18.5 41l88 354q-92 -42 -151 -45l10 37q171 56 303 203h23l-138 -549q-3 -13 -3.5 -24t3 -18.5t6.5 -13t11.5 -8.5t13 -5t15.5 -2.5t15 -0.5h15z" />
    <glyph glyph-name="threequarters" unicode="&#xbe;" horiz-adv-x="1290"
d="M588 1196h-21l8 35h13q62 0 98 35t49 82q11 44 -12.5 73t-73.5 29q-34 0 -76 -22.5t-75 -77.5h-43q27 59 76.5 98.5t88 52t66.5 12.5q103 0 148 -43.5t30 -103.5q-14 -55 -60.5 -96t-111.5 -53q74 -6 108 -52t19 -112q-8 -31 -29 -63t-55.5 -62.5t-89 -50t-119.5 -19.5
q-22 0 -48 9t-52.5 28t-42.5 54.5t-14 80.5h43q5 -54 36.5 -77t65.5 -23q65 0 110.5 40t57.5 89q15 60 -14 98.5t-80 38.5zM172 -63h-63l1429 1607h66zM1108 -63h-322l9 32q20 0 31.5 1.5t29.5 7.5t29.5 22t17.5 41l25 92h-297l8 33q201 197 276 491h136
q-26 -103 -124 -232.5t-247 -258.5h256l2 8l6 29q30 121 55 180h136q-24 -50 -56 -180l-8 -37h105l-9 -33h-104l-25 -92q-6 -26 -1 -42t21.5 -22t26.5 -7t31 -1z" />
    <glyph glyph-name="questiondown" unicode="&#xbf;" horiz-adv-x="772"
d="M662 764q-44 0 -68 32t-12 78q10 44 50.5 75.5t84.5 31.5q45 0 69 -31t13 -76q-12 -46 -51.5 -78t-85.5 -32zM680 2h45q-46 -185 -163.5 -304.5t-278.5 -119.5q-62 0 -114.5 16t-96 50t-60.5 97t0 148q15 61 63 125.5t108.5 118.5t130.5 114.5t130.5 113t108.5 114.5
t63 119h50q-19 -78 -70 -155.5t-112.5 -141.5t-122.5 -126.5t-110.5 -134t-66.5 -140.5q-14 -65 -7.5 -109t34 -71t60.5 -38.5t73 -11.5q105 0 201 88.5t135 247.5z" />
    <glyph glyph-name="Agrave" unicode="&#xc0;" horiz-adv-x="1345"
d="M1319 0h-442l-3 45q55 0 79.5 15.5t27 48t-3.5 84.5l-35 278q-4 33 -19 41t-57 8h-313q-30 0 -43.5 -8t-30.5 -35l-174 -278q-20 -33 -30.5 -54t-12.5 -42t11 -32.5t42.5 -18.5t79.5 -7l2 -45h-374l-3 45q40 0 71.5 7t51.5 16.5t41 32t32 38.5t34 51l725 1172h47
l139 -1169q9 -82 41.5 -115t114.5 -33zM922 610l-52 414q-2 17 -3.5 25.5t-5 14.5t-8.5 2.5t-13.5 -14t-20.5 -30.5l-258 -412q-19 -29 -17.5 -37t27.5 -8h316q26 0 32 8t3 37zM1169 1446l-28 -12l-183 313q-7 10 -1 28.5t22 24.5l127 53q20 8 30.5 -6t12.5 -37z" />
    <glyph glyph-name="Aacute" unicode="&#xc1;" horiz-adv-x="1345"
d="M1319 0h-442l-3 45q55 0 79.5 15.5t27 48t-3.5 84.5l-35 278q-4 33 -19 41t-57 8h-313q-30 0 -43.5 -8t-30.5 -35l-174 -278q-20 -33 -30.5 -54t-12.5 -42t11 -32.5t42.5 -18.5t79.5 -7l2 -45h-374l-3 45q40 0 71.5 7t51.5 16.5t41 32t32 38.5t34 51l725 1172h47
l139 -1169q9 -82 41.5 -115t114.5 -33zM922 610l-52 414q-2 17 -3.5 25.5t-5 14.5t-8.5 2.5t-13.5 -14t-20.5 -30.5l-258 -412q-19 -29 -17.5 -37t27.5 -8h316q26 0 32 8t3 37zM891 1434l-21 12l201 364q12 22 31 36.5t33 6.5l102 -53q12 -7 8.5 -24.5t-16.5 -28.5z" />
    <glyph glyph-name="Acircumflex" unicode="&#xc2;" horiz-adv-x="1345"
d="M1319 0h-442l-3 45q55 0 79.5 15.5t27 48t-3.5 84.5l-35 278q-4 33 -19 41t-57 8h-313q-30 0 -43.5 -8t-30.5 -35l-174 -278q-20 -33 -30.5 -54t-12.5 -42t11 -32.5t42.5 -18.5t79.5 -7l2 -45h-374l-3 45q40 0 71.5 7t51.5 16.5t41 32t32 38.5t34 51l725 1172h47
l139 -1169q9 -82 41.5 -115t114.5 -33zM922 610l-52 414q-2 17 -3.5 25.5t-5 14.5t-8.5 2.5t-13.5 -14t-20.5 -30.5l-258 -412q-19 -29 -17.5 -37t27.5 -8h316q26 0 32 8t3 37zM1313 1405h-47l-205 213l-307 -213h-47l372 377h45z" />
    <glyph glyph-name="Atilde" unicode="&#xc3;" horiz-adv-x="1345"
d="M1319 0h-442l-3 45q55 0 79.5 15.5t27 48t-3.5 84.5l-35 278q-4 33 -19 41t-57 8h-313q-30 0 -43.5 -8t-30.5 -35l-174 -278q-20 -33 -30.5 -54t-12.5 -42t11 -32.5t42.5 -18.5t79.5 -7l2 -45h-374l-3 45q40 0 71.5 7t51.5 16.5t41 32t32 38.5t34 51l725 1172h47
l139 -1169q9 -82 41.5 -115t114.5 -33zM922 610l-52 414q-2 17 -3.5 25.5t-5 14.5t-8.5 2.5t-13.5 -14t-20.5 -30.5l-258 -412q-19 -29 -17.5 -37t27.5 -8h316q26 0 32 8t3 37zM1368 1704h70q-40 -113 -108.5 -177.5t-164.5 -64.5q-51 0 -94.5 17.5t-81.5 41.5t-63 31
q-29 11 -52 11q-73 -4 -137 -101h-65q37 102 107.5 172t168.5 70q44 0 96.5 -24.5t99.5 -49t79 -24.5q95 0 145 98z" />
    <glyph glyph-name="Adieresis" unicode="&#xc4;" horiz-adv-x="1345"
d="M1319 0h-442l-3 45q55 0 79.5 15.5t27 48t-3.5 84.5l-35 278q-4 33 -19 41t-57 8h-313q-30 0 -43.5 -8t-30.5 -35l-174 -278q-20 -33 -30.5 -54t-12.5 -42t11 -32.5t42.5 -18.5t79.5 -7l2 -45h-374l-3 45q40 0 71.5 7t51.5 16.5t41 32t32 38.5t34 51l725 1172h47
l139 -1169q9 -82 41.5 -115t114.5 -33zM922 610l-52 414q-2 17 -3.5 25.5t-5 14.5t-8.5 2.5t-13.5 -14t-20.5 -30.5l-258 -412q-19 -29 -17.5 -37t27.5 -8h316q26 0 32 8t3 37zM1233 1425q-45 0 -70 33t-14 78q12 45 53 78t86 33q44 0 68 -33.5t12 -77.5q-11 -44 -51 -77.5
t-84 -33.5zM932 1536q-11 -45 -51.5 -78t-85.5 -33q-44 0 -68.5 33.5t-13.5 77.5q12 45 52.5 78t84.5 33q46 0 70 -33.5t12 -77.5z" />
    <glyph glyph-name="Aring" unicode="&#xc5;" horiz-adv-x="1345"
d="M1319 0h-442l-3 45q55 0 79.5 15.5t27 48t-3.5 84.5l-35 278q-4 33 -19 41t-57 8h-313q-30 0 -43.5 -8t-30.5 -35l-174 -278q-20 -33 -30.5 -54t-12.5 -42t11 -32.5t42.5 -18.5t79.5 -7l2 -45h-374l-3 45q40 0 71.5 7t51.5 16.5t41 32t32 38.5t34 51l725 1172h47
l139 -1169q9 -82 41.5 -115t114.5 -33zM922 610l-52 414q-2 17 -3.5 25.5t-5 14.5t-8.5 2.5t-13.5 -14t-20.5 -30.5l-258 -412q-19 -29 -17.5 -37t27.5 -8h316q26 0 32 8t3 37zM1237 1669q-17 -66 -76.5 -113t-126.5 -47q-66 0 -102 47t-19 113q17 67 77 115.5t126 48.5
q67 0 102.5 -48t18.5 -116zM1188 1669q11 48 -13 81.5t-71 33.5q-46 0 -88.5 -34t-52.5 -81q-12 -45 13 -77.5t71 -32.5q47 0 88 32t53 78z" />
    <glyph glyph-name="AE" unicode="&#xc6;" horiz-adv-x="2320"
d="M469 477q101 0 176 57t111 138q2 4 5 12q6 15 9 20.5t7 10t9 4.5q20 0 13 -37q-5 -21 -22 -51t-47.5 -64.5t-68 -64t-88.5 -49t-104 -19.5h-23q-24 -44 -74 -136t-69 -126q-51 -93 -92 -145t-76 -52q-59 0 -76 97t19 245q9 31 22 31q17 0 11 -31q-15 -88 -6 -159.5
t40 -71.5q26 0 84.5 86.5t161.5 269.5q-77 19 -113 73t-22 112q28 113 132.5 182t260.5 80q91 143 183.5 263t180 201t138.5 81q38 0 44 -35.5t-19 -138.5l-105 -410l-31 -121q119 -165 58 -442q-30 -125 -81 -216t-102 -91q-40 0 -65 29t-32.5 80.5t-6.5 111.5t12 133
t23 133t28 123l33 129l15 61q-95 69 -232 72q-151 -246 -221 -375zM770 973q-40 -60 -53 -82q123 -3 217 -64q79 292 153 510q-76 -5 -317 -364zM418 492q155 275 207 356q-116 -12 -190.5 -68t-96.5 -143q-11 -43 7.5 -87t72.5 -58zM1057 293q24 99 16 193t-47 171
q-32 -146 -53.5 -274.5t-26.5 -209t12 -83.5q23 0 49.5 54t49.5 149zM1706 1051q-14 -72 -8 -122.5t35 -86.5t60 -55t67 -29q-143 -9 -251.5 -107t-146.5 -254q-46 -185 55.5 -301t294.5 -116q162 0 292 93t212 238q31 54 37 82q10 37 -8 37q-10 0 -28 -26.5t-41 -66.5
t-31 -52q-62 -93 -168 -164.5t-215 -71.5q-139 0 -219 98t-44 246q41 162 168.5 246t307.5 84q44 0 49 18q6 23 -82 23q-53 0 -95.5 16t-73 50.5t-38 88t9.5 128.5q34 136 125 230.5t178 94.5q107 0 142 -56t12 -142q-13 -58 -49.5 -115.5t-77.5 -89.5q-18 -19 -9.5 -33
t34.5 -14q38 0 99 84.5t87 187.5q7 26 7 52.5t-6.5 54t-24 51t-44 42.5t-69 29.5t-95.5 10.5q-141 0 -274.5 -114t-173.5 -269z" />
    <glyph glyph-name="Ccedilla" unicode="&#xc7;" horiz-adv-x="1191"
d="M1196 283l31 -17q-99 -131 -234.5 -208.5t-294.5 -77.5q-128 0 -233.5 46t-175.5 134.5t-92 217t18 292.5q25 100 73.5 198.5t124 192t168 164.5t213 114t250.5 43q117 0 220.5 -32t169.5 -76l-70 -277h-45l4 15q5 20 5 45.5t-6 57.5t-18 63.5t-35 61.5t-54 52.5
t-78 36.5t-103 14q-93 0 -182 -43t-158.5 -112.5t-128 -159t-97 -180t-60.5 -178.5q-36 -136 -25.5 -238.5t45.5 -172.5t92.5 -113.5t115 -63t114.5 -19.5q118 0 227 48.5t219 171.5zM377 -453l-10 23q99 53 118 121q5 22 -9 46t-27 51t-5 56q2 11 10.5 25t26.5 34t29 31.5
t37.5 37.5t32.5 32h41l-48 -57q-22 -24 -15.5 -56t24 -57t31 -60t5.5 -65q-17 -51 -80 -93.5t-161 -68.5z" />
    <glyph glyph-name="Egrave" unicode="&#xc8;" horiz-adv-x="974"
d="M954 0h-911l-2 45q82 0 113.5 29t54.5 116l244 979q24 85 5.5 116.5t-100.5 31.5l11 45h891l-74 -301h-45l2 14q30 117 -11 179.5t-182 62.5h-149q-56 0 -87 -14.5t-46 -43.5t-31 -90l-98 -389q-5 -26 -0.5 -32.5t26.5 -6.5h236q82 0 123.5 40t64.5 128h45l-94 -381h-45
q22 87 -1.5 127.5t-105.5 40.5h-235q-24 0 -30.5 -4.5t-12.5 -29.5l-117 -469q-25 -85 -8.5 -116.5t98.5 -31.5h170q142 0 213 60.5t101 181.5l4 14h45zM956 1446l-28 -12l-183 313q-7 10 -1 28.5t22 24.5l127 53q20 8 30.5 -6t12.5 -37z" />
    <glyph glyph-name="Eacute" unicode="&#xc9;" horiz-adv-x="974"
d="M954 0h-911l-2 45q82 0 113.5 29t54.5 116l244 979q24 85 5.5 116.5t-100.5 31.5l11 45h891l-74 -301h-45l2 14q30 117 -11 179.5t-182 62.5h-149q-56 0 -87 -14.5t-46 -43.5t-31 -90l-98 -389q-5 -26 -0.5 -32.5t26.5 -6.5h236q82 0 123.5 40t64.5 128h45l-94 -381h-45
q22 87 -1.5 127.5t-105.5 40.5h-235q-24 0 -30.5 -4.5t-12.5 -29.5l-117 -469q-25 -85 -8.5 -116.5t98.5 -31.5h170q142 0 213 60.5t101 181.5l4 14h45zM711 1434l-21 12l201 364q12 22 30.5 36.5t32.5 6.5l103 -53q12 -7 8.5 -24.5t-16.5 -28.5z" />
    <glyph glyph-name="Ecircumflex" unicode="&#xca;" horiz-adv-x="974"
d="M954 0h-911l-2 45q82 0 113.5 29t54.5 116l244 979q24 85 5.5 116.5t-100.5 31.5l11 45h891l-74 -301h-45l2 14q30 117 -11 179.5t-182 62.5h-149q-56 0 -87 -14.5t-46 -43.5t-31 -90l-98 -389q-5 -26 -0.5 -32.5t26.5 -6.5h236q82 0 123.5 40t64.5 128h45l-94 -381h-45
q22 87 -1.5 127.5t-105.5 40.5h-235q-24 0 -30.5 -4.5t-12.5 -29.5l-117 -469q-25 -85 -8.5 -116.5t98.5 -31.5h170q142 0 213 60.5t101 181.5l4 14h45zM1108 1405h-47l-205 213l-307 -213h-47l372 377h46z" />
    <glyph glyph-name="Edieresis" unicode="&#xcb;" horiz-adv-x="974"
d="M954 0h-911l-2 45q82 0 113.5 29t54.5 116l244 979q24 85 5.5 116.5t-100.5 31.5l11 45h891l-74 -301h-45l2 14q30 117 -11 179.5t-182 62.5h-149q-56 0 -87 -14.5t-46 -43.5t-31 -90l-98 -389q-5 -26 -0.5 -32.5t26.5 -6.5h236q82 0 123.5 40t64.5 128h45l-94 -381h-45
q22 87 -1.5 127.5t-105.5 40.5h-235q-24 0 -30.5 -4.5t-12.5 -29.5l-117 -469q-25 -85 -8.5 -116.5t98.5 -31.5h170q142 0 213 60.5t101 181.5l4 14h45zM1049 1425q-45 0 -70 33t-14 78q12 45 53 78t86 33q44 0 68 -33.5t12 -77.5q-11 -44 -51 -77.5t-84 -33.5zM748 1536
q-11 -45 -52 -78t-86 -33q-44 0 -68.5 33.5t-13.5 77.5q12 45 53 78t85 33q46 0 70 -33.5t12 -77.5z" />
    <glyph glyph-name="Igrave" unicode="&#xcc;" horiz-adv-x="528"
d="M485 0h-442l-2 45q82 0 113.5 29t54.5 116l244 979q24 85 5.5 116.5t-100.5 31.5l11 45h442l-10 -45q-56 0 -87 -14.5t-46 -43.5t-31 -90l-244 -976q-25 -85 -8.5 -116.5t98.5 -31.5zM733 1446l-28 -12l-183 313q-7 10 -1 28.5t22 24.5l127 53q20 8 30.5 -6t12.5 -37z
" />
    <glyph glyph-name="Iacute" unicode="&#xcd;" horiz-adv-x="528"
d="M485 0h-442l-2 45q82 0 113.5 29t54.5 116l244 979q24 85 5.5 116.5t-100.5 31.5l11 45h442l-10 -45q-56 0 -87 -14.5t-46 -43.5t-31 -90l-244 -976q-25 -85 -8.5 -116.5t98.5 -31.5zM487 1434l-20 12l201 364q12 22 30.5 36.5t32.5 6.5l103 -53q12 -7 8 -24.5t-17 -28.5
z" />
    <glyph glyph-name="Icircumflex" unicode="&#xce;" horiz-adv-x="528"
d="M485 0h-442l-2 45q82 0 113.5 29t54.5 116l244 979q24 85 5.5 116.5t-100.5 31.5l11 45h442l-10 -45q-56 0 -87 -14.5t-46 -43.5t-31 -90l-244 -976q-25 -85 -8.5 -116.5t98.5 -31.5zM887 1405h-47l-205 213l-295 -213h-47l360 377h45z" />
    <glyph glyph-name="Idieresis" unicode="&#xcf;" horiz-adv-x="528"
d="M485 0h-442l-2 45q82 0 113.5 29t54.5 116l244 979q24 85 5.5 116.5t-100.5 31.5l11 45h442l-10 -45q-56 0 -87 -14.5t-46 -43.5t-31 -90l-244 -976q-25 -85 -8.5 -116.5t98.5 -31.5zM825 1425q-45 0 -70 33t-14 78q12 45 53.5 78t86.5 33q44 0 68 -33.5t12 -77.5
q-11 -44 -51.5 -77.5t-84.5 -33.5zM524 1536q-11 -45 -51.5 -78t-85.5 -33q-36 0 -58 34t-12 77q12 44 50.5 77.5t74.5 33.5q46 0 70 -33.5t12 -77.5z" />
    <glyph glyph-name="Eth" unicode="&#xd0;" horiz-adv-x="1304"
d="M481 0h-438l-2 45q82 0 113.5 29t54.5 116l119 482h-162l16 65h162l109 432q24 85 5.5 116.5t-100.5 31.5l11 45h460q158 0 281.5 -42t204 -125t105 -207.5t-14.5 -289.5q-44 -174 -139 -310t-220.5 -219.5t-269 -126t-295.5 -42.5zM483 45h68q120 9 228 66t188.5 147.5
t139 202.5t89.5 237q25 102 28.5 192t-16.5 166.5t-62.5 132.5t-113 89.5t-164.5 38.5h-67q-56 0 -87 -14.5t-46 -43.5t-31 -90l-109 -432h236l-16 -65h-236l-119 -479q-25 -85 -8.5 -116.5t98.5 -31.5z" />
    <glyph glyph-name="Ntilde" unicode="&#xd1;" horiz-adv-x="1198"
d="M1024 0h-45l-426 1063q-25 71 -41.5 70.5t-38.5 -89.5q-36 -140 -99.5 -394.5t-99.5 -395.5q-9 -34 -12 -60t1.5 -55.5t20 -48.5t49 -32t83.5 -13l2 -45h-375l-2 45q76 0 112 33.5t56 111.5l244 979q24 85 5.5 116.5t-100.5 31.5l11 45h286l346 -936q26 -66 32 -71
q8 -6 17 16q7 17 19 65l166 672q9 34 12 60t-1 55.5t-19 48.5t-48 32t-83 13l10 45h375l-11 -45q-76 0 -111.5 -34t-55.5 -112zM1294 1704h70q-40 -113 -108 -177.5t-164 -64.5q-51 0 -94.5 17.5t-82 41.5t-63.5 31q-29 11 -51 11q-73 -4 -137 -101h-66q37 102 107.5 172
t168.5 70q44 0 96.5 -24.5t99.5 -49t79 -24.5q95 0 145 98z" />
    <glyph glyph-name="Ograve" unicode="&#xd2;" horiz-adv-x="1294"
d="M639 18q99 0 191 57t161.5 153t121.5 211t83 241q32 126 37.5 241t-16.5 211t-85.5 153.5t-162.5 57.5t-191 -57.5t-162 -153.5t-122 -211t-84 -241q-25 -100 -34 -193.5t1 -179.5t39 -149.5t86 -101.5t137 -38zM629 -20q-129 0 -226 53t-148.5 146.5t-64.5 222t27 278.5
q37 149 112.5 278.5t174.5 223t222.5 147t252.5 53.5t226 -53.5t148 -147.5t63.5 -222.5t-27.5 -278.5q-37 -149 -112 -278.5t-174 -222.5t-222 -146t-252 -53zM1116 1446l-29 -12l-182 313q-7 10 -1 28.5t22 24.5l127 53q20 8 30.5 -6t12.5 -37z" />
    <glyph glyph-name="Oacute" unicode="&#xd3;" horiz-adv-x="1294"
d="M639 18q99 0 191 57t161.5 153t121.5 211t83 241q32 126 37.5 241t-16.5 211t-85.5 153.5t-162.5 57.5t-191 -57.5t-162 -153.5t-122 -211t-84 -241q-25 -100 -34 -193.5t1 -179.5t39 -149.5t86 -101.5t137 -38zM629 -20q-129 0 -226 53t-148.5 146.5t-64.5 222t27 278.5
q37 149 112.5 278.5t174.5 223t222.5 147t252.5 53.5t226 -53.5t148 -147.5t63.5 -222.5t-27.5 -278.5q-37 -149 -112 -278.5t-174 -222.5t-222 -146t-252 -53zM870 1434l-20 12l201 364q12 22 30.5 36.5t32.5 6.5l103 -53q12 -7 8 -24.5t-17 -28.5z" />
    <glyph glyph-name="Ocircumflex" unicode="&#xd4;" horiz-adv-x="1294"
d="M639 18q99 0 191 57t161.5 153t121.5 211t83 241q32 126 37.5 241t-16.5 211t-85.5 153.5t-162.5 57.5t-191 -57.5t-162 -153.5t-122 -211t-84 -241q-25 -100 -34 -193.5t1 -179.5t39 -149.5t86 -101.5t137 -38zM629 -20q-129 0 -226 53t-148.5 146.5t-64.5 222t27 278.5
q37 149 112.5 278.5t174.5 223t222.5 147t252.5 53.5t226 -53.5t148 -147.5t63.5 -222.5t-27.5 -278.5q-37 -149 -112 -278.5t-174 -222.5t-222 -146t-252 -53zM1268 1405h-47l-205 213l-307 -213h-47l372 377h45z" />
    <glyph glyph-name="Otilde" unicode="&#xd5;" horiz-adv-x="1294"
d="M639 18q99 0 191 57t161.5 153t121.5 211t83 241q32 126 37.5 241t-16.5 211t-85.5 153.5t-162.5 57.5t-191 -57.5t-162 -153.5t-122 -211t-84 -241q-25 -100 -34 -193.5t1 -179.5t39 -149.5t86 -101.5t137 -38zM629 -20q-129 0 -226 53t-148.5 146.5t-64.5 222t27 278.5
q37 149 112.5 278.5t174.5 223t222.5 147t252.5 53.5t226 -53.5t148 -147.5t63.5 -222.5t-27.5 -278.5q-37 -149 -112 -278.5t-174 -222.5t-222 -146t-252 -53zM1341 1704h70q-40 -113 -108 -177.5t-164 -64.5q-51 0 -94.5 17.5t-82 41.5t-63.5 31q-29 11 -51 11
q-73 -4 -137 -101h-66q37 101 108 171.5t169 70.5q44 0 96 -24.5t99 -49t79 -24.5q95 0 145 98z" />
    <glyph glyph-name="Odieresis" unicode="&#xd6;" horiz-adv-x="1294"
d="M639 18q99 0 191 57t161.5 153t121.5 211t83 241q32 126 37.5 241t-16.5 211t-85.5 153.5t-162.5 57.5t-191 -57.5t-162 -153.5t-122 -211t-84 -241q-25 -100 -34 -193.5t1 -179.5t39 -149.5t86 -101.5t137 -38zM629 -20q-129 0 -226 53t-148.5 146.5t-64.5 222t27 278.5
q37 149 112.5 278.5t174.5 223t222.5 147t252.5 53.5t226 -53.5t148 -147.5t63.5 -222.5t-27.5 -278.5q-37 -149 -112 -278.5t-174 -222.5t-222 -146t-252 -53zM1208 1425q-45 0 -70 33t-14 78q12 45 53.5 78t86.5 33q44 0 67.5 -33.5t11.5 -77.5q-11 -44 -51 -77.5
t-84 -33.5zM907 1536q-11 -45 -51.5 -78t-85.5 -33q-44 0 -68.5 33.5t-13.5 77.5q12 45 52.5 78t84.5 33q46 0 70 -33.5t12 -77.5z" />
    <glyph glyph-name="multiply" unicode="&#xd7;" horiz-adv-x="905"
d="M788 111l-245 333l-402 -319l-35 47l398 317l-238 314l70 57l235 -317l394 315l39 -43l-400 -319l252 -330z" />
    <glyph glyph-name="Oslash" unicode="&#xd8;" horiz-adv-x="1294"
d="M147 -104h-63l203 233q-75 94 -93.5 236.5t23.5 314.5q37 149 112.5 278.5t174.5 223t222.5 147t252.5 53.5q193 0 309 -116l166 188h66l-201 -225q75 -96 93.5 -237t-23.5 -312q-37 -149 -112 -278.5t-174 -222.5t-222 -146t-252 -53q-192 0 -307 112zM387 242l817 929
q-62 172 -235 172q-99 0 -191 -57.5t-162 -153.5t-122 -211t-84 -241q-65 -260 -23 -438zM1219 1114l-818 -928q64 -168 238 -168q99 0 191 57t161.5 153t121.5 211t83 241q63 250 23 434z" />
    <glyph glyph-name="Ugrave" unicode="&#xd9;" horiz-adv-x="1282"
d="M1110 1446l-29 -12l-182 313q-7 10 -1 28.5t22 24.5l127 53q20 8 30.5 -6t12.5 -37zM1092 1188l-115 -459q46 85 99 222t85 263q8 33 13 59.5t5.5 43t-1.5 27.5t-5.5 15.5t-9.5 4.5q-26 0 -71 -176zM604 1296l-221 -886q-26 -105 -37.5 -170.5t-8 -102t17.5 -49t42 -12.5
q17 0 39.5 7.5t60 33t78 66t95 113.5t110.5 169l197 790q21 85 61 132t88 47q131 0 82 -215q-14 -53 -37 -126t-88 -227t-139 -274l-117 -465q-9 -37 7 -37q36 0 85.5 71.5t77.5 160.5q9 30 23 30q17 0 10 -24q-37 -142 -131 -245t-170 -103q-69 0 -35 137l58 229
q-61 -103 -123.5 -178t-116 -114t-96.5 -56.5t-80 -17.5q-45 0 -73.5 19.5t-43 66t-7 130t37.5 205.5l221 885q9 37 -6 37q-36 0 -86 -71t-78 -160q-9 -31 -22 -31q-16 0 -9 24q35 141 129 245t170 104q69 0 35 -138z" />
    <glyph glyph-name="Uacute" unicode="&#xda;" horiz-adv-x="1282"
d="M864 1434l-20 12l200 364q12 22 31 36.5t33 6.5l102 -53q12 -7 8.5 -24.5t-16.5 -28.5zM1092 1188l-115 -459q46 85 99 222t85 263q8 33 13 59.5t5.5 43t-1.5 27.5t-5.5 15.5t-9.5 4.5q-26 0 -71 -176zM604 1296l-221 -886q-26 -105 -37.5 -170.5t-8 -102t17.5 -49
t42 -12.5q17 0 39.5 7.5t60 33t78 66t95 113.5t110.5 169l197 790q21 85 61 132t88 47q131 0 82 -215q-14 -53 -37 -126t-88 -227t-139 -274l-117 -465q-9 -37 7 -37q36 0 85.5 71.5t77.5 160.5q9 30 23 30q17 0 10 -24q-37 -142 -131 -245t-170 -103q-69 0 -35 137l58 229
q-61 -103 -123.5 -178t-116 -114t-96.5 -56.5t-80 -17.5q-45 0 -73.5 19.5t-43 66t-7 130t37.5 205.5l221 885q9 37 -6 37q-36 0 -86 -71t-78 -160q-9 -31 -22 -31q-16 0 -9 24q35 141 129 245t170 104q69 0 35 -138z" />
    <glyph glyph-name="Ucircumflex" unicode="&#xdb;" horiz-adv-x="1282"
d="M1262 1405h-48l-204 213l-308 -213h-47l373 377h45zM1092 1188l-115 -459q46 85 99 222t85 263q8 33 13 59.5t5.5 43t-1.5 27.5t-5.5 15.5t-9.5 4.5q-26 0 -71 -176zM604 1296l-221 -886q-26 -105 -37.5 -170.5t-8 -102t17.5 -49t42 -12.5q17 0 39.5 7.5t60 33t78 66
t95 113.5t110.5 169l197 790q21 85 61 132t88 47q131 0 82 -215q-14 -53 -37 -126t-88 -227t-139 -274l-117 -465q-9 -37 7 -37q36 0 85.5 71.5t77.5 160.5q9 30 23 30q17 0 10 -24q-37 -142 -131 -245t-170 -103q-69 0 -35 137l58 229q-61 -103 -123.5 -178t-116 -114
t-96.5 -56.5t-80 -17.5q-45 0 -73.5 19.5t-43 66t-7 130t37.5 205.5l221 885q9 37 -6 37q-36 0 -86 -71t-78 -160q-9 -31 -22 -31q-16 0 -9 24q35 141 129 245t170 104q69 0 35 -138z" />
    <glyph glyph-name="Udieresis" unicode="&#xdc;" horiz-adv-x="1282"
d="M1202 1425q-45 0 -70 33t-14 78q12 45 53 78t86 33q44 0 68 -33.5t12 -77.5q-11 -44 -51 -77.5t-84 -33.5zM901 1536q-11 -45 -51.5 -78t-85.5 -33q-44 0 -68.5 33.5t-13.5 77.5q12 45 52.5 78t84.5 33q46 0 70 -33.5t12 -77.5zM1092 1188l-115 -459q46 85 99 222t85 263
q8 33 13 59.5t5.5 43t-1.5 27.5t-5.5 15.5t-9.5 4.5q-26 0 -71 -176zM604 1296l-221 -886q-26 -105 -37.5 -170.5t-8 -102t17.5 -49t42 -12.5q17 0 39.5 7.5t60 33t78 66t95 113.5t110.5 169l197 790q21 85 61 132t88 47q131 0 82 -215q-14 -53 -37 -126t-88 -227t-139 -274
l-117 -465q-9 -37 7 -37q36 0 85.5 71.5t77.5 160.5q9 30 23 30q17 0 10 -24q-37 -142 -131 -245t-170 -103q-69 0 -35 137l58 229q-61 -103 -123.5 -178t-116 -114t-96.5 -56.5t-80 -17.5q-45 0 -73.5 19.5t-43 66t-7 130t37.5 205.5l221 885q9 37 -6 37q-36 0 -86 -71
t-78 -160q-9 -31 -22 -31q-16 0 -9 24q35 141 129 245t170 104q69 0 35 -138z" />
    <glyph glyph-name="Yacute" unicode="&#xdd;" horiz-adv-x="1243"
d="M887 0h-484l-2 45q89 0 128 30.5t61 114.5l57 230q1 3 5 21t5.5 28t4 30.5t2 37.5t-4 40t-10.5 46l-172 551q-9 38 -16.5 58.5t-23.5 43t-42.5 32t-66.5 9.5l10 45h440l-10 -45q-79 0 -91.5 -26.5t11.5 -100.5l127 -434q18 -62 38 -63.5t71 61.5l325 434q21 31 31 48.5
t13.5 35t-9 26.5t-39.5 14t-74 5l11 45h377l-11 -45q-82 0 -133 -29t-100 -98l-379 -510q-15 -21 -27 -39.5t-20.5 -36.5t-14 -29t-11 -29t-7.5 -24t-6.5 -25.5t-5.5 -23.5l-70 -280q-22 -86 0.5 -117t110.5 -31zM844 1434l-21 12l201 364q12 22 30.5 36.5t32.5 6.5l103 -53
q12 -7 8.5 -24.5t-16.5 -28.5z" />
    <glyph glyph-name="Thorn" unicode="&#xde;" horiz-adv-x="1001"
d="M610 1067l-178 -719q409 0 498 359q86 360 -320 360zM489 0h-446l-2 45q82 0 113.5 29t54.5 116l244 981q24 83 5.5 114.5t-100.5 31.5l11 45h446l-10 -45q-82 0 -113.5 -29.5t-54.5 -116.5l-16 -63q129 0 230 -24t171 -71.5t96.5 -125.5t1.5 -180q-34 -135 -138 -227
t-245 -132.5t-315 -40.5l-29 -117q-24 -83 -6 -114t100 -31z" />
    <glyph glyph-name="germandbls" unicode="&#xdf;" horiz-adv-x="1198"
d="M594 0l-2 47q17 -12 61 -12q124 0 215.5 86.5t130.5 247.5q19 67 15.5 119.5t-17 91.5t-40.5 67t-54 45.5t-59.5 28t-56 14.5t-42.5 4q-30 0 -34.5 17t28.5 37q162 89 242 177.5t106 188.5q29 117 -10.5 172t-124.5 55q-111 0 -211 -100.5t-153 -310.5l-195 -785
q-25 -85 -8.5 -115t98.5 -30l2 -45h-442l-2 45q82 0 114 29t54 116l125 500q27 109 64 207.5t94.5 197.5t126 170t162 115.5t198.5 44.5q171 0 242.5 -80t42.5 -202q-53 -212 -459 -355q-10 -5 -13.5 -9t-0.5 -7t12 -4q83 -7 149 -26t109 -44t73 -58t45 -66.5t20 -71.5
t2.5 -71t-11.5 -66q-17 -68 -52.5 -131.5t-93.5 -123.5t-148.5 -96.5t-199.5 -36.5q-17 0 -53.5 6.5t-48.5 16.5z" />
    <glyph glyph-name="agrave" unicode="&#xe0;" horiz-adv-x="835"
d="M879 737q-29 0 -58 -119l-51 -202q84 135 109 235q19 86 0 86zM754 348l-56 -221q-9 -37 7 -37q38 0 92 76t77 168q3 12 19 12q14 0 8 -18q-35 -142 -127 -245t-168 -103q-66 0 -24 170q-58 -76 -125 -123t-131 -47q-83 0 -135.5 54t-63 142t13.5 199q42 171 150 287
t233 116q77 0 122 -50t22 -140q-5 -21 -23 -21q-14 0 -8 17q13 58 -7 99.5t-77 41.5q-85 0 -165.5 -101t-117.5 -249q-39 -146 -13 -244t110 -98q51 0 121.5 57.5t111.5 132.5l72 287q37 150 82.5 209t103.5 59q37 0 52.5 -32.5t0.5 -90.5q-14 -64 -59 -149.5t-98 -157.5z
M588 1223l141 -322q11 -24 1 -32.5t-34 14.5l-241 245q-10 13 -10.5 29t16.5 31l76 49q34 26 51 -14z" />
    <glyph glyph-name="aacute" unicode="&#xe1;" horiz-adv-x="835"
d="M879 737q-29 0 -58 -119l-51 -202q84 135 109 235q19 86 0 86zM754 348l-56 -221q-9 -37 7 -37q38 0 92 76t77 168q3 12 19 12q14 0 8 -18q-35 -142 -127 -245t-168 -103q-66 0 -24 170q-58 -76 -125 -123t-131 -47q-83 0 -135.5 54t-63 142t13.5 199q42 171 150 287
t233 116q77 0 122 -50t22 -140q-5 -21 -23 -21q-14 0 -8 17q13 58 -7 99.5t-77 41.5q-85 0 -165.5 -101t-117.5 -249q-39 -146 -13 -244t110 -98q51 0 121.5 57.5t111.5 132.5l72 287q37 150 82.5 209t103.5 59q37 0 52.5 -32.5t0.5 -90.5q-14 -64 -59 -149.5t-98 -157.5z
M588 905l121 355q10 30 32 30q9 0 21 -6l69 -39q38 -18 3 -59l-213 -295q-10 -14 -18 -21.5t-13.5 -7.5t-8 4.5t-1 14.5t7.5 24z" />
    <glyph glyph-name="acircumflex" unicode="&#xe2;" horiz-adv-x="839"
d="M879 737q-29 0 -58 -119l-51 -202q84 135 109 235q19 86 0 86zM754 348l-56 -221q-9 -37 7 -37q38 0 92 76t77 168q3 12 19 12q14 0 8 -18q-35 -142 -127 -245t-168 -103q-66 0 -24 170q-58 -76 -125 -123t-131 -47q-83 0 -135.5 54t-63 142t13.5 199q42 171 150 287
t233 116q77 0 122 -50t22 -140q-5 -21 -23 -21q-14 0 -8 17q13 58 -7 99.5t-77 41.5q-85 0 -165.5 -101t-117.5 -249q-39 -146 -13 -244t110 -98q51 0 121.5 57.5t111.5 132.5l72 287q37 150 82.5 209t103.5 59q37 0 52.5 -32.5t0.5 -90.5q-14 -64 -59 -149.5t-98 -157.5z
M866 901l-204 139l-275 -139q-55 -26 -61 -20q-1 2 -1.5 3.5t2 5t4 5.5t5.5 5.5t6.5 5.5t6.5 5t5 4l273 211q43 37 65 37q17 0 43 -30l172 -218q1 -1 4.5 -5.5t6 -7.5t4.5 -7.5t1.5 -8t-3.5 -5.5q-10 -6 -54 20z" />
    <glyph glyph-name="atilde" unicode="&#xe3;" horiz-adv-x="845"
d="M879 737q-29 0 -58 -119l-51 -202q84 135 109 235q19 86 0 86zM754 348l-56 -221q-9 -37 7 -37q38 0 92 76t77 168q3 12 19 12q14 0 8 -18q-35 -142 -127 -245t-168 -103q-66 0 -24 170q-58 -76 -125 -123t-131 -47q-83 0 -135.5 54t-63 142t13.5 199q42 171 150 287
t233 116q77 0 122 -50t22 -140q-5 -21 -23 -21q-14 0 -8 17q13 58 -7 99.5t-77 41.5q-85 0 -165.5 -101t-117.5 -249q-39 -146 -13 -244t110 -98q51 0 121.5 57.5t111.5 132.5l72 287q37 150 82.5 209t103.5 59q37 0 52.5 -32.5t0.5 -90.5q-14 -64 -59 -149.5t-98 -157.5z
M729 1047q42 -33 70.5 -45t62.5 -1q17 6 41.5 22t40 24.5t19.5 1.5q9 -11 -62 -70q-144 -113 -268 -21q-20 15 -29 21.5t-24.5 15.5t-26.5 12t-25.5 3.5t-29.5 -4.5q-17 -6 -40.5 -21t-39 -24t-21.5 -5q-11 14 66 72q67 53 135.5 58.5t130.5 -39.5z" />
    <glyph glyph-name="adieresis" unicode="&#xe4;" horiz-adv-x="835"
d="M879 737q-29 0 -58 -119l-51 -202q84 135 109 235q19 86 0 86zM754 348l-56 -221q-9 -37 7 -37q38 0 92 76t77 168q3 12 19 12q14 0 8 -18q-35 -142 -127 -245t-168 -103q-66 0 -24 170q-58 -76 -125 -123t-131 -47q-83 0 -135.5 54t-63 142t13.5 199q42 171 150 287
t233 116q77 0 122 -50t22 -140q-5 -21 -23 -21q-14 0 -8 17q13 58 -7 99.5t-77 41.5q-85 0 -165.5 -101t-117.5 -249q-39 -146 -13 -244t110 -98q51 0 121.5 57.5t111.5 132.5l72 287q37 150 82.5 209t103.5 59q37 0 52.5 -32.5t0.5 -90.5q-14 -64 -59 -149.5t-98 -157.5z
M416 985q11 43 38 72.5t56 29.5t41.5 -29.5t1.5 -72.5t-38 -72.5t-56 -29.5t-41.5 29.5t-1.5 72.5zM662 983q11 43 38 72.5t56 29.5t41.5 -29.5t1.5 -72.5t-38 -72.5t-56 -29.5t-41.5 29.5t-1.5 72.5z" />
    <glyph glyph-name="aring" unicode="&#xe5;" horiz-adv-x="849"
d="M795 1030q-17 -66 -76.5 -113t-126.5 -47q-66 0 -102 47t-19 113q17 67 77 115.5t126 48.5q67 0 102.5 -48t18.5 -116zM754 1030q12 53 -13 88t-77 35q-51 0 -95.5 -35.5t-56.5 -87.5q-12 -51 13.5 -85t76.5 -34q53 0 96.5 34t55.5 85zM879 737q-29 0 -58 -119l-51 -202
q84 135 109 235q19 86 0 86zM754 348l-56 -221q-9 -37 7 -37q38 0 92 76t77 168q3 12 19 12q14 0 8 -18q-35 -142 -127 -245t-168 -103q-66 0 -24 170q-58 -76 -125 -123t-131 -47q-83 0 -135.5 54t-63 142t13.5 199q42 171 150 287t233 116q77 0 122 -50t22 -140
q-5 -21 -23 -21q-14 0 -8 17q13 58 -7 99.5t-77 41.5q-85 0 -165.5 -101t-117.5 -249q-39 -146 -13 -244t110 -98q51 0 121.5 57.5t111.5 132.5l72 287q37 150 82.5 209t103.5 59q37 0 52.5 -32.5t0.5 -90.5q-14 -64 -59 -149.5t-98 -157.5z" />
    <glyph glyph-name="ae" unicode="&#xe6;" horiz-adv-x="1503"
d="M1432 170l32 -27q-70 -66 -171 -114.5t-220 -48.5q-140 0 -230 59t-110 168q-113 -135 -211.5 -182t-206.5 -45q-120 3 -172.5 74t-17.5 214q16 63 61.5 123.5t114.5 110.5t167 81t206 31h53q19 0 25 5t10 26l18 72q29 117 -14.5 177t-126.5 60q-25 0 -48 -4.5t-41 -10.5
t-36.5 -18.5t-31.5 -22.5t-28.5 -29t-25 -31t-24 -36.5t-21.5 -37t-21.5 -40.5t-21.5 -40h-41l66 266q171 43 282 43q116 0 190 -40.5t99 -116.5q170 157 358 157q75 0 133.5 -16.5t93.5 -42.5t57.5 -62t31.5 -70t10.5 -70.5t-1 -60.5t-7.5 -44q-9 -33 -20 -43.5t-36 -10.5
h-589q-33 0 -43.5 -9t-18.5 -40q-23 -93 -23 -175.5t22.5 -150t77.5 -108.5t138 -43q71 0 160.5 35.5t151.5 87.5zM682 322l57 233q3 12 0.5 15t-16.5 3h-18q-142 0 -256 -93.5t-146 -219.5q-28 -122 -5.5 -167.5t101.5 -45.5q48 0 111.5 40.5t118.5 115.5q29 40 53 119z
M987 614h367q32 0 44.5 2t22 11t15.5 30q35 144 -10.5 220.5t-139.5 76.5q-102 0 -193.5 -81.5t-142.5 -217.5q-8 -28 -2 -34.5t39 -6.5z" />
    <glyph glyph-name="ccedilla" unicode="&#xe7;" horiz-adv-x="956"
d="M895 170l33 -27q-70 -66 -171 -114.5t-220 -48.5q-76 0 -139.5 19.5t-107 54.5t-74 83t-43.5 104.5t-11.5 119.5t18.5 128q24 96 81.5 186.5t138.5 161.5t188 113.5t221 42.5q145 0 293 -43l-66 -266h-41q-7 115 -16 151q-25 92 -113 112q-29 7 -65 7
q-134 0 -262.5 -133.5t-178.5 -331.5q-50 -197 15 -319.5t209 -122.5q71 0 160 35.5t151 87.5zM258 -453l-10 23q100 53 119 121q5 22 -9 46t-27 51t-5 56q2 8 7 18t14.5 22t18 22.5t23 25t23.5 24t25.5 25.5t23.5 23h41l-47 -57q-22 -24 -15.5 -56t24 -57t31 -60t5.5 -65
q-17 -51 -80.5 -93.5t-161.5 -68.5z" />
    <glyph glyph-name="egrave" unicode="&#xe8;" horiz-adv-x="724"
d="M455 35q-33 0 -62 8.5t-57.5 29t-45.5 54t-24 83t6 116.5q187 15 323 93.5t165 192.5q18 67 -28.5 116.5t-141.5 49.5q-77 0 -151 -34t-129.5 -89t-96 -122.5t-57.5 -135.5q-9 -31 -9 -43q-26 0 -38 2q-21 0 -25 -14q0 -13 2 -14q36 -4 55 -4q-11 -83 5.5 -150
t53.5 -108.5t88.5 -63.5t112.5 -22q99 0 196.5 71t117.5 148q4 16 -10 16q-13 0 -21 -25q-25 -58 -94.5 -106.5t-134.5 -48.5zM680 629q-9 -46 -37.5 -88.5t-76.5 -81t-122 -65.5t-165 -36l4 15q40 162 127.5 263t171.5 101q48 0 78 -27.5t20 -80.5zM526 1223l142 -322
q11 -24 1 -32.5t-34 14.5l-242 245q-10 13 -10.5 29t16.5 31l76 49q34 26 51 -14z" />
    <glyph glyph-name="eacute" unicode="&#xe9;" horiz-adv-x="731"
d="M455 35q-33 0 -62 8.5t-57.5 29t-45.5 54t-24 83t6 116.5q187 15 323 93.5t165 192.5q18 67 -28.5 116.5t-141.5 49.5q-77 0 -151 -34t-129.5 -89t-96 -122.5t-57.5 -135.5q-9 -31 -9 -43q-26 0 -38 2q-21 0 -25 -14q0 -13 2 -14q36 -4 55 -4q-11 -83 5.5 -150
t53.5 -108.5t88.5 -63.5t112.5 -22q99 0 196.5 71t117.5 148q4 16 -10 16q-13 0 -21 -25q-25 -58 -94.5 -106.5t-134.5 -48.5zM680 629q-9 -46 -37.5 -88.5t-76.5 -81t-122 -65.5t-165 -36l4 15q40 162 127.5 263t171.5 101q48 0 78 -27.5t20 -80.5zM588 905l121 355
q10 30 32 30q9 0 21 -6l69 -39q38 -18 3 -59l-213 -295q-10 -14 -18 -21.5t-13.5 -7.5t-8 4.5t-1 14.5t7.5 24z" />
    <glyph glyph-name="ecircumflex" unicode="&#xea;" horiz-adv-x="731"
d="M455 35q65 0 134.5 48.5t94.5 106.5q8 25 21 25q14 0 10 -16q-20 -77 -117.5 -148t-196.5 -71q-61 0 -112.5 22t-88.5 63.5t-53.5 108.5t-5.5 150q-19 0 -55 4q-2 1 -2 14q4 14 25 14q12 -2 38 -2q0 12 9 43q17 68 57.5 135.5t96 122.5t129.5 89t151 34q95 0 141.5 -49.5
t28.5 -116.5q-29 -114 -165 -192.5t-323 -93.5q-13 -67 -6 -116.5t24 -83t45.5 -54t57.5 -29t62 -8.5zM680 629q10 53 -20 80.5t-78 27.5q-84 0 -171.5 -101t-127.5 -263l-4 -15q91 9 165 36t122 65.5t76.5 81t37.5 88.5zM846 901l-205 139l-274 -139q-55 -27 -62 -20
q-5 5 8 17t21 17l272 211q43 37 66 37q17 0 43 -30l172 -218q1 -1 5 -5.5t5.5 -7.5t4 -7.5t1.5 -8t-4 -5.5q-10 -6 -53 20z" />
    <glyph glyph-name="edieresis" unicode="&#xeb;" horiz-adv-x="714"
d="M455 35q-33 0 -62 8.5t-57.5 29t-45.5 54t-24 83t6 116.5q187 15 323 93.5t165 192.5q18 67 -28.5 116.5t-141.5 49.5q-77 0 -151 -34t-129.5 -89t-96 -122.5t-57.5 -135.5q-9 -31 -9 -43q-26 0 -38 2q-21 0 -25 -14q0 -13 2 -14q36 -4 55 -4q-11 -83 5.5 -150
t53.5 -108.5t88.5 -63.5t112.5 -22q99 0 196.5 71t117.5 148q4 16 -10 16q-13 0 -21 -25q-25 -58 -94.5 -106.5t-134.5 -48.5zM680 629q-9 -46 -37.5 -88.5t-76.5 -81t-122 -65.5t-165 -36l4 15q40 162 127.5 263t171.5 101q48 0 78 -27.5t20 -80.5zM436 985q11 43 38 72.5
t56 29.5t41.5 -29.5t1.5 -72.5t-38 -72.5t-56 -29.5t-41.5 29.5t-1.5 72.5zM682 983q11 43 38 72.5t56 29.5t41.5 -29.5t1.5 -72.5t-38 -72.5t-56 -29.5t-41.5 29.5t-1.5 72.5z" />
    <glyph glyph-name="igrave" unicode="&#xec;" horiz-adv-x="520"
d="M424 641l-129 -514q-9 -37 6 -37q38 0 92.5 76t77.5 168q3 12 18 12q5 0 8.5 -5t0.5 -13q-35 -142 -127 -245t-168 -103q-67 0 -33 137l127 514q9 37 -6 37q-38 0 -92 -75.5t-78 -168.5q-3 -12 -17 -12q-1 0 -1.5 2t0.5 6t3 10q36 143 122 245.5t161 102.5q37 0 44 -38.5
t-9 -98.5zM465 1223l141 -322q11 -24 1 -32.5t-34 14.5l-241 245q-10 13 -10.5 29t16.5 31l76 49q34 26 51 -14z" />
    <glyph glyph-name="iacute" unicode="&#xed;" horiz-adv-x="520"
d="M424 641l-129 -514q-9 -37 6 -37q38 0 92.5 76t77.5 168q3 12 18 12q5 0 8.5 -5t0.5 -13q-35 -142 -127 -245t-168 -103q-67 0 -33 137l127 514q9 37 -6 37q-38 0 -92 -75.5t-78 -168.5q-3 -12 -17 -12q-1 0 -1.5 2t0.5 6t3 10q36 143 122 245.5t161 102.5q37 0 44 -38.5
t-9 -98.5zM383 905l121 355q10 30 33 30q8 0 20 -6l70 -39q37 -18 2 -59l-213 -295q-10 -14 -18 -21.5t-13.5 -7.5t-8 4.5t-1 14.5t7.5 24z" />
    <glyph glyph-name="icircumflex" unicode="&#xee;" horiz-adv-x="520"
d="M424 641l-129 -514q-9 -37 6 -37q38 0 92.5 76t77.5 168q3 12 18 12q5 0 8.5 -5t0.5 -13q-35 -142 -127 -245t-168 -103q-67 0 -33 137l127 514q9 37 -6 37q-38 0 -92 -75.5t-78 -168.5q-3 -12 -17 -12q-1 0 -1.5 2t0.5 6t3 10q36 143 122 245.5t161 102.5q37 0 44 -38.5
t-9 -98.5zM682 901l-205 139l-262 -139q-55 -26 -61 -20q-1 2 -1.5 3.5t2 5t4 5.5t5.5 5.5t6.5 5.5t6.5 5t5 4l260 211q43 37 66 37q17 0 43 -30l172 -218q1 -1 5 -5.5t5.5 -7.5t4 -7.5t1.5 -8t-4 -5.5q-10 -6 -53 20z" />
    <glyph glyph-name="idieresis" unicode="&#xef;" horiz-adv-x="477"
d="M424 641l-129 -514q-9 -37 6 -37q38 0 92.5 76t77.5 168q3 12 18 12q5 0 8.5 -5t0.5 -13q-35 -142 -127 -245t-168 -103q-67 0 -33 137l127 514q9 37 -6 37q-38 0 -92 -75.5t-78 -168.5q-3 -12 -17 -12q-1 0 -1.5 2t0.5 6t3 10q36 143 122 245.5t161 102.5q37 0 44 -38.5
t-9 -98.5zM252 985q11 43 38 72.5t56 29.5t41.5 -29.5t1.5 -72.5t-38 -72.5t-56 -29.5t-41.5 29.5t-1.5 72.5zM498 983q11 43 38 72.5t56 29.5t41.5 -29.5t1.5 -72.5t-38 -72.5t-56 -29.5t-41.5 29.5t-1.5 72.5z" />
    <glyph glyph-name="eth" unicode="&#xf0;" horiz-adv-x="1075"
d="M883 1325l-174 -96q182 -154 295 -307q69 -95 94 -211.5t-4 -249.5q-52 -204 -220 -344t-374 -140q-86 0 -155 25t-111.5 68t-68.5 102.5t-26 128t17 143.5q30 122 123.5 230.5t229 177.5t279.5 76q-84 130 -176 252l-180 -101l-16 35l172 94l-152 191l39 24
q58 -43 197 -170l194 107zM811 895q-157 -12 -293 -141t-184 -326q-26 -117 -21 -207.5t55.5 -145.5t139.5 -55q137 0 239.5 113t149.5 303q29 139 4 258t-90 201z" />
    <glyph glyph-name="ntilde" unicode="&#xf1;" horiz-adv-x="808"
d="M424 641l-25 -94q148 231 269 231q148 0 90 -243l-103 -408q-9 -37 7 -37q38 0 92 76t77 168q3 12 19 12q14 0 8 -18q-35 -142 -127 -245t-168 -103q-67 0 -33 137l97 389q10 39 14 67t2 52.5t-16 36.5t-39 12q-31 0 -84 -46t-121 -145l-57 -235q-67 -268 -195 -268
q-75 0 -45 122q17 66 61 152.5t95 155.5l55 221q9 37 -6 37q-38 0 -92 -75.5t-78 -168.5q-3 -12 -17 -12q-1 0 -1.5 2t0.5 6t3 10q36 143 122 245.5t161 102.5q37 0 44 -38.5t-9 -98.5zM117 20q28 0 57 119l51 203q-78 -120 -108 -236q-19 -86 0 -86zM668 1047
q42 -33 70.5 -45t62.5 -1q17 6 41.5 22t39.5 24.5t19 1.5q9 -12 -61 -70q-145 -113 -269 -21q-20 15 -29 21.5t-24.5 15.5t-26.5 12t-25.5 3.5t-29.5 -4.5q-17 -6 -40.5 -21t-38.5 -24t-21 -5q-6 7 13.5 27.5t51.5 44.5q67 53 136 58.5t131 -39.5z" />
    <glyph glyph-name="ograve" unicode="&#xf2;" horiz-adv-x="780"
d="M545 778q-96 0 -181.5 -59t-140.5 -146.5t-80 -187.5q-46 -189 15 -297t223 -108q145 0 258.5 105t161.5 300q40 160 -8.5 266.5t-165.5 106.5q-77 0 -146.5 -50.5t-91.5 -140.5q-7 -20 12 -20q14 0 17 16q15 58 55.5 100t97.5 42q87 0 110 -97t-17 -243
q-15 -58 -37.5 -113.5t-56 -110t-81.5 -88t-102 -33.5q-56 0 -89 32t-41 88.5t-2 122t26 143.5q38 153 114 247.5t156 94.5q17 0 20 10q2 8 -5 14t-21 6zM526 1223l142 -322q11 -24 1 -32.5t-34 14.5l-242 245q-10 13 -10.5 29t16.5 31l76 49q34 26 51 -14z" />
    <glyph glyph-name="oacute" unicode="&#xf3;" horiz-adv-x="780"
d="M545 778q-96 0 -181.5 -59t-140.5 -146.5t-80 -187.5q-46 -189 15 -297t223 -108q145 0 258.5 105t161.5 300q40 160 -8.5 266.5t-165.5 106.5q-77 0 -146.5 -50.5t-91.5 -140.5q-7 -20 12 -20q14 0 17 16q15 58 55.5 100t97.5 42q87 0 110 -97t-17 -243
q-15 -58 -37.5 -113.5t-56 -110t-81.5 -88t-102 -33.5q-56 0 -89 32t-41 88.5t-2 122t26 143.5q38 153 114 247.5t156 94.5q17 0 20 10q2 8 -5 14t-21 6zM526 905l121 355q10 30 33 30q8 0 20 -6l70 -39q37 -18 2 -59l-213 -295q-10 -14 -18 -21.5t-13.5 -7.5t-8 4.5
t-1 14.5t7.5 24z" />
    <glyph glyph-name="ocircumflex" unicode="&#xf4;" horiz-adv-x="778"
d="M543 778q14 0 21 -6t5 -14q-3 -10 -20 -10q-80 0 -156 -94.5t-114 -247.5q-20 -78 -26 -143.5t2 -122t41 -88.5t89 -32q54 0 102 33.5t81.5 88t56 110t37.5 113.5q40 146 17 243t-110 97q-57 0 -97.5 -42t-55.5 -100q-3 -16 -17 -16q-19 0 -12 20q22 90 91.5 140.5
t146.5 50.5q117 0 165.5 -106.5t8.5 -266.5q-48 -195 -161.5 -300t-258.5 -105q-162 0 -223 108t-15 297q25 100 80 187.5t140.5 146.5t181.5 59zM846 901l-205 139l-274 -139q-55 -27 -62 -20q-5 5 8 17t21 17l272 211q43 37 66 37q17 0 43 -30l172 -218q1 -1 5 -5.5
t5.5 -7.5t4 -7.5t1.5 -8t-4 -5.5q-10 -6 -53 20z" />
    <glyph glyph-name="otilde" unicode="&#xf5;" horiz-adv-x="780"
d="M545 778q-96 0 -181.5 -59t-140.5 -146.5t-80 -187.5q-46 -189 15 -297t223 -108q145 0 258.5 105t161.5 300q40 160 -8.5 266.5t-165.5 106.5q-77 0 -146.5 -50.5t-91.5 -140.5q-7 -20 12 -20q14 0 17 16q15 58 55.5 100t97.5 42q87 0 110 -97t-17 -243
q-15 -58 -37.5 -113.5t-56 -110t-81.5 -88t-102 -33.5q-56 0 -89 32t-41 88.5t-2 122t26 143.5q38 153 114 247.5t156 94.5q17 0 20 10q2 8 -5 14t-21 6zM668 1047q42 -33 70.5 -45t62.5 -1q17 6 41.5 22t39.5 24.5t19 1.5q9 -12 -61 -70q-145 -113 -269 -21
q-20 15 -29 21.5t-24.5 15.5t-26.5 12t-25.5 3.5t-29.5 -4.5q-17 -6 -40.5 -21t-38.5 -24t-21 -5q-6 7 13.5 27.5t51.5 44.5q67 53 136 58.5t131 -39.5z" />
    <glyph glyph-name="odieresis" unicode="&#xf6;" horiz-adv-x="780"
d="M545 778q-96 0 -181.5 -59t-140.5 -146.5t-80 -187.5q-46 -189 15 -297t223 -108q145 0 258.5 105t161.5 300q40 160 -8.5 266.5t-165.5 106.5q-77 0 -146.5 -50.5t-91.5 -140.5q-7 -20 12 -20q14 0 17 16q15 58 55.5 100t97.5 42q87 0 110 -97t-17 -243
q-15 -58 -37.5 -113.5t-56 -110t-81.5 -88t-102 -33.5q-56 0 -89 32t-41 88.5t-2 122t26 143.5q38 153 114 247.5t156 94.5q17 0 20 10q2 8 -5 14t-21 6zM436 985q11 43 38 72.5t56 29.5t41.5 -29.5t1.5 -72.5t-38 -72.5t-56 -29.5t-41.5 29.5t-1.5 72.5zM682 983
q11 43 38 72.5t56 29.5t41.5 -29.5t1.5 -72.5t-38 -72.5t-56 -29.5t-41.5 29.5t-1.5 72.5z" />
    <glyph glyph-name="divide" unicode="&#xf7;" horiz-adv-x="854"
d="M553 88q-10 -46 -51.5 -79.5t-87.5 -33.5q-45 0 -70 33.5t-14 79.5q12 46 52.5 78.5t86.5 32.5t71 -32.5t13 -78.5zM748 864q-12 -45 -54 -77.5t-88 -32.5t-70 32t-12 78q11 46 51.5 79.5t86.5 33.5t71.5 -33.5t14.5 -79.5zM911 461h-766l17 65h766z" />
    <glyph glyph-name="oslash" unicode="&#xf8;" horiz-adv-x="1028"
d="M16 -106h-41l234 233q-41 68 -48.5 162t17.5 194q26 101 79 192t125.5 162.5t168 113.5t197.5 42q182 0 272 -131l199 180h65l-240 -219q34 -69 39 -157.5t-20 -182.5q-25 -100 -77.5 -190.5t-125 -160.5t-167.5 -111t-197 -41q-177 0 -263 110zM330 238l579 522
q-12 92 -55 143t-115 51q-120 0 -224.5 -132.5t-156.5 -338.5q-31 -126 -28 -245zM911 705l-573 -521q14 -78 57 -122t111 -44q121 0 223.5 130t153.5 335q31 127 28 222z" />
    <glyph glyph-name="ugrave" unicode="&#xf9;" horiz-adv-x="798"
d="M530 117l23 94q-148 -231 -268 -231q-150 0 -88 243l100 408q9 37 -6 37q-38 0 -92 -75.5t-78 -168.5q-3 -12 -17 -12q-1 0 -1.5 2t0.5 6t3 10q36 143 122 245.5t161 102.5q37 0 44 -38.5t-9 -98.5l-98 -389q-10 -39 -14 -67.5t-1 -52t17 -36t39 -12.5q31 0 82.5 45
t119.5 145l60 236q37 149 85 208.5t107 59.5q76 0 45 -123q-15 -64 -58.5 -150t-96.5 -157l-56 -221q-9 -37 7 -37q38 0 92 76t77 168q3 12 19 12q14 0 8 -18q-35 -142 -127 -245t-168 -103q-67 0 -33 137zM836 737q-29 0 -58 -119l-51 -202q80 123 109 235q19 86 0 86z
M526 1223l142 -322q11 -24 1 -32.5t-34 14.5l-242 245q-10 13 -10.5 29t16.5 31l76 49q34 26 51 -14z" />
    <glyph glyph-name="uacute" unicode="&#xfa;" horiz-adv-x="802"
d="M530 117l23 94q-148 -231 -268 -231q-150 0 -88 243l100 408q9 37 -6 37q-38 0 -92 -75.5t-78 -168.5q-3 -12 -17 -12q-1 0 -1.5 2t0.5 6t3 10q36 143 122 245.5t161 102.5q37 0 44 -38.5t-9 -98.5l-98 -389q-10 -39 -14 -67.5t-1 -52t17 -36t39 -12.5q31 0 82.5 45
t119.5 145l60 236q37 149 85 208.5t107 59.5q76 0 45 -123q-15 -64 -58.5 -150t-96.5 -157l-56 -221q-9 -37 7 -37q38 0 92 76t77 168q3 12 19 12q14 0 8 -18q-35 -142 -127 -245t-168 -103q-67 0 -33 137zM836 737q-29 0 -58 -119l-51 -202q80 123 109 235q19 86 0 86z
M526 905l121 355q10 30 33 30q8 0 20 -6l70 -39q37 -18 2 -59l-213 -295q-10 -14 -18 -21.5t-13.5 -7.5t-8 4.5t-1 14.5t7.5 24z" />
    <glyph glyph-name="ucircumflex" unicode="&#xfb;" horiz-adv-x="798"
d="M530 117l23 94q-148 -231 -268 -231q-150 0 -88 243l100 408q9 37 -6 37q-38 0 -92 -75.5t-78 -168.5q-3 -12 -17 -12q-1 0 -1.5 2t0.5 6t3 10q36 143 122 245.5t161 102.5q37 0 44 -38.5t-9 -98.5l-98 -389q-10 -39 -14 -67.5t-1 -52t17 -36t39 -12.5q31 0 82.5 45
t119.5 145l60 236q37 149 85 208.5t107 59.5q76 0 45 -123q-15 -64 -58.5 -150t-96.5 -157l-56 -221q-9 -37 7 -37q38 0 92 76t77 168q3 12 19 12q14 0 8 -18q-35 -142 -127 -245t-168 -103q-67 0 -33 137zM836 737q-29 0 -58 -119l-51 -202q80 123 109 235q19 86 0 86z
M846 901l-205 139l-274 -139q-55 -27 -62 -20q-5 5 8 17t21 17l272 211q43 37 66 37q17 0 43 -30l172 -218q1 -1 5 -5.5t5.5 -7.5t4 -7.5t1.5 -8t-4 -5.5q-10 -6 -53 20z" />
    <glyph glyph-name="udieresis" unicode="&#xfc;"
d="M530 117l23 94q-148 -231 -268 -231q-150 0 -88 243l100 408q9 37 -6 37q-38 0 -92 -75.5t-78 -168.5q-3 -12 -17 -12q-1 0 -1.5 2t0.5 6t3 10q36 143 122 245.5t161 102.5q37 0 44 -38.5t-9 -98.5l-98 -389q-10 -39 -14 -67.5t-1 -52t17 -36t39 -12.5q31 0 82.5 45
t119.5 145l60 236q37 149 85 208.5t107 59.5q76 0 45 -123q-15 -64 -58.5 -150t-96.5 -157l-56 -221q-9 -37 7 -37q38 0 92 76t77 168q3 12 19 12q14 0 8 -18q-35 -142 -127 -245t-168 -103q-67 0 -33 137zM836 737q-29 0 -58 -119l-51 -202q80 123 109 235q19 86 0 86z
M436 985q11 43 38 72.5t56 29.5t41.5 -29.5t1.5 -72.5t-38 -72.5t-56 -29.5t-41.5 29.5t-1.5 72.5zM682 983q11 43 38 72.5t56 29.5t41.5 -29.5t1.5 -72.5t-38 -72.5t-56 -29.5t-41.5 29.5t-1.5 72.5z" />
    <glyph glyph-name="yacute" unicode="&#xfd;"
d="M831 737q-29 0 -55 -119l-51 -202q80 134 106 235q19 86 0 86zM709 348l-62 -246q64 67 170 168q16 14 24 4q6 -7 -3 -16q-152 -152 -203 -207l-70 -274q-34 -149 -91 -229t-134 -80q-98 0 -68 118q40 160 222 391l51 209q-61 -86 -130 -146t-132 -60q-150 0 -88 243
l100 408q9 37 -6 37q-38 0 -92 -75.5t-78 -168.5q-3 -12 -17 -12q0 6 4 18q36 144 121.5 246t159.5 102q37 0 44 -38.5t-9 -98.5l-98 -389q-10 -39 -14 -67.5t-1 -52t17 -36t39 -12.5q84 0 196 164l66 262q37 148 85 208t105 60q80 0 47 -123q-15 -62 -59.5 -150t-95.5 -157
zM412 -352l65 264q-78 -123 -116.5 -198t-51.5 -132q-21 -74 21 -74q45 0 82 140zM526 905l121 355q10 30 33 30q8 0 20 -6l70 -39q37 -18 2 -59l-213 -295q-10 -14 -18 -21.5t-13.5 -7.5t-8 4.5t-1 14.5t7.5 24z" />
    <glyph glyph-name="thorn" unicode="&#xfe;" horiz-adv-x="985"
d="M606 938l-227 -911q168 14 294.5 133.5t176.5 318.5q49 197 -18.5 320.5t-225.5 138.5zM420 -512h-500l12 45q39 0 57 1t45 6.5t40.5 17.5t28 34t22.5 56l422 1691q7 29 9 48.5t-5.5 32.5t-15 20t-30 10t-39 3.5t-52.5 0.5l10 41h321l-129 -512q230 -2 346.5 -143
t61.5 -361q-37 -145 -132.5 -258.5t-232.5 -176.5t-292 -64l-82 -332q-6 -24 -6.5 -42.5t2.5 -30.5t15 -20.5t21 -12.5t32 -6t37.5 -2.5t45.5 -0.5z" />
    <glyph glyph-name="ydieresis" unicode="&#xff;" horiz-adv-x="800"
d="M831 737q-29 0 -55 -119l-51 -202q80 134 106 235q19 86 0 86zM709 348l-62 -246q64 67 170 168q16 14 24 4q6 -7 -3 -16q-152 -152 -203 -207l-70 -274q-34 -149 -91 -229t-134 -80q-98 0 -68 118q40 160 222 391l51 209q-61 -86 -130 -146t-132 -60q-150 0 -88 243
l100 408q9 37 -6 37q-38 0 -92 -75.5t-78 -168.5q-3 -12 -17 -12q0 6 4 18q36 144 121.5 246t159.5 102q37 0 44 -38.5t-9 -98.5l-98 -389q-10 -39 -14 -67.5t-1 -52t17 -36t39 -12.5q84 0 196 164l66 262q37 148 85 208t105 60q80 0 47 -123q-15 -62 -59.5 -150t-95.5 -157
zM412 -352l65 264q-78 -123 -116.5 -198t-51.5 -132q-21 -74 21 -74q45 0 82 140zM436 985q11 43 38 72.5t56 29.5t41.5 -29.5t1.5 -72.5t-38 -72.5t-56 -29.5t-41.5 29.5t-1.5 72.5zM682 983q11 43 38 72.5t56 29.5t41.5 -29.5t1.5 -72.5t-38 -72.5t-56 -29.5t-41.5 29.5
t-1.5 72.5z" />
    <glyph glyph-name="dotlessi" unicode="&#x131;" horiz-adv-x="520"
d="M469 0h-418l-4 41q80 0 109.5 30.5t52.5 121.5l147 589q25 83 9.5 116.5t-95.5 33.5l11 41h294l-194 -780q-26 -85 -11 -118.5t95 -33.5z" />
    <glyph glyph-name="Lslash" unicode="&#x141;" horiz-adv-x="974"
d="M954 0h-911l-2 45q82 0 113.5 29t54.5 116l86 351l-182 -84l10 43l184 84l146 585q24 85 5.5 116.5t-100.5 31.5l11 45h442l-10 -45q-56 0 -87 -14.5t-46 -43.5t-31 -90l-123 -495l258 112l-10 -43l-260 -112l-109 -438q-25 -85 -8.5 -116.5t98.5 -31.5h170
q142 0 213 60.5t101 181.5l4 14h45z" />
    <glyph glyph-name="lslash" unicode="&#x142;" horiz-adv-x="520"
d="M469 0h-418l-4 41q80 0 109.5 30.5t52.5 121.5l92 368l-182 -82l10 43l182 82l172 690q26 83 10.5 116.5t-96.5 33.5l11 41h294l-198 -799l194 82l-10 -43l-194 -82l-113 -450q-26 -85 -11 -118.5t95 -33.5z" />
    <glyph glyph-name="OE" unicode="&#x152;" horiz-adv-x="1679"
d="M1645 0h-865q-113 0 -205 22.5t-155 61.5t-108 92.5t-68.5 113.5t-33 128t-4.5 132.5t21 129.5q16 64 42.5 128t68.5 132t94 128.5t123 115t152 93.5t183.5 62t215.5 23h844l-74 -301h-45l2 14q30 117 -11 179.5t-182 62.5h-149q-56 0 -87 -14.5t-46 -43.5t-31 -90
l-98 -389q-5 -26 -0.5 -32.5t26.5 -6.5h236q82 0 123.5 40t64.5 128h45l-94 -381h-45q24 85 0 126.5t-106 41.5h-236q-24 0 -30.5 -4.5t-12.5 -29.5l-117 -469q-25 -85 -8 -116.5t99 -31.5h169q142 0 213 60.5t101 181.5l4 14h45zM899 190l244 979q24 85 6 116.5t-100 31.5
q-90 0 -187 -47t-183 -129t-155.5 -202.5t-103.5 -258.5q-44 -192 -15 -333t116.5 -221.5t209.5 -80.5q82 0 113.5 29t54.5 116z" />
    <glyph glyph-name="oe" unicode="&#x153;" horiz-adv-x="1685"
d="M1599 170l33 -27q-70 -66 -171 -114.5t-220 -48.5q-129 0 -214.5 52.5t-125.5 145.5q-79 -93 -183 -145.5t-222 -52.5q-82 0 -147 27t-105 73.5t-63.5 110.5t-22 137.5t19.5 154.5q26 101 79 192t125.5 162.5t168 113.5t197.5 42q117 0 194.5 -53.5t112.5 -148.5
q85 93 190.5 147.5t216.5 54.5q75 0 133.5 -16.5t93.5 -42.5t57.5 -62t31.5 -70t10.5 -70.5t-1 -60.5t-7.5 -44q-9 -33 -20 -43.5t-36 -10.5h-589q-33 0 -43.5 -9t-18.5 -40q-23 -93 -23 -175.5t22.5 -150t77.5 -108.5t138 -43q71 0 160 35.5t151 87.5zM506 18
q121 0 223.5 130t153.5 335q53 203 15 337t-159 134q-120 0 -224.5 -132.5t-156.5 -338.5q-52 -201 -12.5 -333t160.5 -132zM1155 614h367q32 0 44.5 2t22 11t15.5 30q35 144 -10.5 220.5t-139.5 76.5q-102 0 -193.5 -81.5t-142.5 -217.5q-8 -28 -2 -34.5t39 -6.5z" />
    <glyph glyph-name="Scaron" unicode="&#x160;" horiz-adv-x="1038"
d="M70 90l67 268h45l-4 -18q-10 -61 4.5 -118t50.5 -103t99.5 -73.5t144.5 -27.5q114 0 215 64.5t137 187.5q14 45 15 84.5t-6.5 69.5t-28 57.5t-41 46.5t-55.5 40.5t-61 34.5t-67 33q-36 17 -54 26t-51 27.5t-50 31t-42.5 34t-37.5 41t-25.5 46.5t-17 55t-2 63.5t11.5 75.5
q9 38 32.5 81t68 91.5t101.5 87t142 63.5t181 25q199 0 348 -110l-68 -268h-45l4 18q6 49 6.5 95t-16 87.5t-44.5 72.5t-78.5 49t-117.5 18q-103 0 -202.5 -70.5t-128.5 -185.5q-13 -53 -4 -97t35 -74.5t64.5 -58t84.5 -48.5t94 -45.5t93 -48.5t81.5 -58.5t60.5 -75.5
t29.5 -98.5t-12.5 -127.5q-29 -121 -114.5 -208t-197.5 -128.5t-239 -41.5q-120 0 -233 33t-172 77zM879 1405h-45l-189 377h47l203 -213l309 213h47z" />
    <glyph glyph-name="scaron" unicode="&#x161;" horiz-adv-x="720"
d="M303 -20q-70 0 -112 25t-54 61q-19 61 17.5 86.5t93.5 -7.5q9 -5 37 -24.5t59 -38.5t59 -31q57 53 84 166q40 160 -36 377q-91 -100 -179 -160q-18 -13 -28 -5q-3 2 -2 7q0 7 21.5 26.5t51.5 43.5t67.5 65t63.5 84q0 123 58 123q11 0 14.5 -7t2.5 -14t-5 -22
q-12 -48 6 -112.5t45 -121t42 -134t-3 -152.5q-12 -51 -43.5 -99t-77.5 -81q118 0 224 106q19 19 24 19q7 -3 4 -12t-8 -17q-45 -66 -114 -101t-138 -30q-25 0 -49 4q-63 -24 -125 -24zM287 8q37 0 71 15q-23 9 -46 21.5t-52 31t-43 26.5q-23 13 -35.5 -2t-3.5 -32
q11 -23 42.5 -41.5t66.5 -18.5zM549 997l274 140q55 27 62 20t-29 -35l-278 -217q-44 -31 -60 -31q-18 0 -49 37l-166 211q-19 26 -12 35q10 6 53 -20z" />
    <glyph glyph-name="Ydieresis" unicode="&#x178;" horiz-adv-x="1243"
d="M1366 1425q-45 0 -70 33t-14 78q12 45 53 78t86 33q44 0 68 -33.5t12 -77.5q-11 -44 -51 -77.5t-84 -33.5zM737 1536q-11 -45 -51.5 -78t-85.5 -33q-44 0 -68.5 33.5t-13.5 77.5q12 45 52.5 78t84.5 33q46 0 70 -33.5t12 -77.5zM887 0h-484l-2 45q89 0 128 30.5t61 114.5
l57 230q1 3 5 21t5.5 28t4 30.5t2 37.5t-4 40t-10.5 46l-172 551q-9 38 -16.5 58.5t-23.5 43t-42.5 32t-66.5 9.5l10 45h440l-10 -45q-79 0 -91.5 -26.5t11.5 -100.5l127 -434q18 -62 38 -63.5t71 61.5l325 434q21 31 31 48.5t13.5 35t-9 26.5t-39.5 14t-74 5l11 45h377
l-11 -45q-82 0 -133 -29t-100 -98l-379 -510q-15 -21 -27 -39.5t-20.5 -36.5t-14 -29t-11 -29t-7.5 -24t-6.5 -25.5t-5.5 -23.5l-70 -280q-22 -86 0.5 -117t110.5 -31z" />
    <glyph glyph-name="Zcaron" unicode="&#x17d;" horiz-adv-x="1101"
d="M932 1538h-80l-180 379h80l180 -215l287 215h77zM1061 0h-1022l-21 47l1102 1243h-487q-83 0 -136 -50.5t-98 -166.5l-32 -72h-62l113 365h946l8 -31l-1118 -1259h580q86 0 138.5 58t102.5 185l29 68h61z" />
    <glyph glyph-name="zcaron" unicode="&#x17e;" horiz-adv-x="708"
d="M188 125q55 18 109 18t135.5 -20.5t110.5 -20.5q44 0 75.5 31.5t53.5 110.5q9 30 24 30q8 0 11 -7t0 -17q-13 -51 -24 -85t-30.5 -72t-43 -60t-59.5 -36.5t-83 -14.5q-29 0 -110.5 20.5t-135.5 20.5q-34 0 -78 -10.5t-75.5 -20.5t-32.5 -10q-26 0 -23 24q7 26 37 53
q178 145 317 269t336 319q-74 -24 -129 -24q-54 0 -125 20.5t-100 20.5q-43 0 -75 -34t-56 -114q-6 -31 -22 -31q-8 0 -11 7.5t0 17.5q13 52 23.5 85t30 71.5t42.5 60.5t59 36.5t83 14.5q29 0 100 -20.5t125 -20.5q34 0 78.5 10.5t76 20.5t32.5 10q29 0 22 -24
q-7 -30 -35 -54q-116 -103 -209 -187.5t-216 -197.5t-208 -190zM610 997l275 140q55 26 61 20q7 -7 -28 -35l-279 -217q-44 -31 -59 -31q-19 0 -50 37l-165 211q-1 1 -5 6t-6 8t-4.5 7.5t-1.5 8t4 5.5q10 6 54 -20z" />
    <glyph glyph-name="florin" unicode="&#x192;" horiz-adv-x="843"
d="M-365 -512l19 41q62 0 115 21t90.5 52.5t71.5 81t55.5 95t44.5 106.5q20 44 67 177.5t78 201.5l291 631q12 22 9.5 29.5t-27.5 7.5h-138l19 41h137q25 0 34 7t19 30q113 239 264 367t314 128q112 0 202 -41l-106 -227h-41q22 58 24 108.5t-22.5 85.5t-77.5 35
q-84 0 -162 -72t-141 -206l-82 -178q-10 -22 -7 -29.5t28 -7.5h286l-18 -41h-287q-25 0 -34.5 -7t-20.5 -30l-381 -825q-55 -119 -101.5 -202.5t-104 -159.5t-117.5 -121.5t-135.5 -72t-164.5 -26.5z" />
    <glyph glyph-name="circumflex" unicode="&#x2c6;" horiz-adv-x="856"
d="M846 901l-205 139l-274 -139q-55 -27 -62 -20q-5 5 8 17t21 17l272 211q43 37 66 37q17 0 43 -30l172 -218q1 -1 5 -5.5t5.5 -7.5t4 -7.5t1.5 -8t-4 -5.5q-10 -6 -53 20z" />
    <glyph glyph-name="caron" unicode="&#x2c7;" horiz-adv-x="831"
d="M678 1012h-45l-187 377h48l202 -213l310 213h47z" />
    <glyph glyph-name="breve" unicode="&#x2d8;" horiz-adv-x="1363"
d="M1325 1389h47q-23 -89 -66 -157t-89 -105t-102.5 -60t-100 -30t-88.5 -7q-31 0 -60 3.5t-63 13.5t-61 26t-51 43.5t-36 64t-12 90t16 118.5h48q-8 -50 8 -89.5t45 -62.5t68 -38t71.5 -20t61.5 -5q38 0 85 9.5t103.5 31t105 67t70.5 107.5z" />
    <glyph glyph-name="dotaccent" unicode="&#x2d9;" horiz-adv-x="1705"
 />
    <glyph glyph-name="ring" unicode="&#x2da;" horiz-adv-x="479"
d="M700 1276q-17 -66 -76 -113t-126 -47q-66 0 -102 47t-19 113q17 67 77 115.5t126 48.5q67 0 102 -48t18 -116zM651 1276q12 47 -12.5 81t-71.5 34q-46 0 -87.5 -34t-53.5 -81q-12 -46 13 -78.5t71 -32.5q47 0 88 32.5t53 78.5z" />
    <glyph glyph-name="ogonek" unicode="&#x2db;" horiz-adv-x="944"
d="M578 -260l4 -19q-56 -29 -106.5 -46.5t-89 -22t-71 -0.5t-53 17.5t-34.5 32t-15 43.5t4 52q9 37 38.5 77t56 65t73.5 65h41l-47 -57q-57 -69 -55.5 -134.5t64 -89.5t190.5 17z" />
    <glyph glyph-name="tilde" unicode="&#x2dc;" horiz-adv-x="714"
d="M668 1047q42 -33 70.5 -45t62.5 -1q17 6 41.5 22t39.5 24.5t19 1.5q9 -12 -61 -70q-145 -113 -269 -21q-20 15 -29 21.5t-24.5 15.5t-26.5 12t-25.5 3.5t-29.5 -4.5q-17 -6 -40.5 -21t-38.5 -24t-21 -5q-6 7 13.5 27.5t51.5 44.5q67 53 136 58.5t131 -39.5z" />
    <glyph glyph-name="hungarumlaut" unicode="&#x2dd;" horiz-adv-x="1595"
d="M743 1040l-20 13l201 364q12 22 30.5 36.5t32.5 6.5l103 -53q12 -7 8 -24t-17 -29zM1098 1040l-21 13l201 364q12 22 30.5 36.5t32.5 6.5l103 -53q12 -7 8.5 -24.5t-16.5 -28.5z" />
    <glyph glyph-name="tonos" unicode="&#x384;" horiz-adv-x="831"
d="M958 1012h-47l-202 213l-310 -213h-47l375 377h45z" />
    <glyph glyph-name="dieresistonos" unicode="&#x385;" horiz-adv-x="761"
d="M1038 1214q-11 -45 -51.5 -77.5t-85.5 -32.5t-70 32.5t-14 77.5q12 47 52.5 80t86.5 33t70 -33t12 -80zM522 1214q-11 -44 -52 -77t-87 -33q-44 0 -68.5 33t-13.5 77q12 47 52.5 80t84.5 33q46 0 71 -33t13 -80zM569 1077l-37 13l203 426q23 44 53 34l99 -32
q12 -4 14.5 -13t-0.5 -18.5t-10 -18.5z" />
    <glyph glyph-name="uni0531" unicode="&#x531;" horiz-adv-x="1316"
d="M1092 1188l-115 -459q121 243 182 485q14 55 18.5 89.5t1 47.5t-13.5 13q-14 0 -35 -54t-38 -122zM250 401l221 885q9 37 -6 37q-38 0 -92.5 -76t-77.5 -168q-3 -12 -19 -12q-12 0 -6 18q35 141 129 245t170 104q69 0 35 -138l-221 -886q-26 -105 -37.5 -170.5t-8 -102
t17.5 -49t42 -12.5q17 0 39.5 7.5t60 33t78 66t95 113.5t110.5 169l197 790q21 85 61 132t88 47q61 0 85.5 -45t-1.5 -158q-9 -40 -36 -125.5t-91.5 -239.5t-138.5 -274l-22 -84q96 97 180.5 154t126.5 57q50 0 73.5 -27.5t2.5 -109.5l-115 -463q-9 -37 6 -37q38 0 92.5 76
t77.5 168q3 12 18 12q5 0 8.5 -5.5t0.5 -13.5q-35 -141 -130 -244.5t-171 -103.5q-70 0 -35 138l108 436q8 31 -1 45t-38 14q-14 0 -37 -10t-72 -46t-108 -95l-73 -289q-24 -95 -67.5 -142t-96.5 -47q-14 0 -8 23l88 348q-61 -103 -123.5 -178t-116 -114t-96.5 -56.5
t-80 -17.5q-45 0 -73.5 19.5t-43 66t-7 130t37.5 205.5z" />
    <glyph glyph-name="uni0532" unicode="&#x532;" horiz-adv-x="950"
d="M207 229l115 455q-47 -87 -100.5 -221.5t-84.5 -259.5q-38 -150 0 -150q14 0 34.5 55t35.5 121zM354 821l117 465q9 37 -6 37q-38 0 -92.5 -76t-77.5 -168q-3 -12 -19 -12q-12 0 -6 18q35 141 129 245t170 104q69 0 35 -138l-57 -229q50 83 101 148.5t94 106t85 66.5
t74.5 36t61.5 10q45 0 73.5 -19.5t43 -66.5t7 -130.5t-37.5 -205.5l-103 -406q-3 -13 -6 -17.5t-10 -4.5q-120 0 -74 188l59 232q26 106 37.5 171t8 101t-17.5 48.5t-42 12.5q-17 0 -39.5 -7.5t-60 -33t-78 -66t-95 -113.5t-110.5 -169l-129 -514q41 4 180.5 8t210.5 4
q104 0 170 -8.5t60 -27.5q-4 -17 -21 -17q-3 0 -87 6.5t-157 6.5q-252 0 -366 -13l-57 -231q-21 -85 -60.5 -131.5t-87.5 -46.5q-131 0 -82 215q9 39 35 121t89.5 231t137.5 270z" />
    <glyph glyph-name="uni0533" unicode="&#x533;" horiz-adv-x="1034"
d="M629 160l73 293q-38 -57 -73 -135.5t-51 -139.5q-32 -129 4 -129q21 0 47 111zM727 557l25 96q-44 -62 -112 -105.5t-128 -43.5q-42 0 -82 16.5t-77.5 51t-59 89.5t-25.5 131.5t21 176.5q52 206 173 335.5t255 129.5q77 0 129.5 -64t32.5 -145q-7 -25 -19 -25
q-14 0 -14 31q0 30 -9.5 60t-38 55.5t-71.5 25.5q-93 0 -174.5 -98t-134.5 -305q-25 -112 -25 -189t25.5 -125t61 -69t81.5 -21q49 0 113.5 56.5t101.5 130.5l123 493q48 189 158 189q20 0 14 -23l-194 -780q119 33 231 33q36 0 54.5 -3.5t22 -9t1.5 -14.5q-3 -13 -52 -15.5
t-129.5 -10t-140.5 -29.5l-104 -424q-22 -89 -57.5 -133.5t-77.5 -44.5q-73 0 -97.5 53t-1.5 141q21 87 74 189.5t127 193.5z" />
    <glyph glyph-name="uni0534" unicode="&#x534;" horiz-adv-x="1091"
d="M721 225l67 269q-37 -55 -77.5 -153t-57.5 -163q-32 -129 4 -129q14 0 28 42t32 116q3 12 4 18zM371 883l100 403q9 37 -6 37q-38 0 -92.5 -76t-77.5 -168q-3 -12 -19 -12q-12 0 -6 18q35 141 129 245t170 104q69 0 35 -138l-57 -229q50 83 101 148.5t94 106t85 66.5
t74.5 36t61.5 10q45 0 73.5 -19.5t43 -66.5t7 -130.5t-37.5 -205.5l-97 -381q119 33 232 33q36 0 54.5 -3.5t22 -9t1.5 -14.5q-3 -13 -52 -16.5t-130.5 -11t-139.5 -27.5l-104 -424q-22 -89 -58 -133.5t-78 -44.5q-73 0 -97 53t-1 141q22 92 80.5 214t130.5 210l102 406
q26 106 37.5 171t8 101t-17.5 48.5t-42 12.5q-17 0 -39.5 -7.5t-60 -33t-78 -66t-95 -113.5t-110.5 -169l-94 -377q-21 -85 -61.5 -131.5t-88.5 -46.5q-49 0 -71.5 40.5t-5.5 113.5q14 52 55.5 140.5t118.5 195.5zM309 639l35 137q-75 -125 -100 -225q-24 -88 4 -88
q20 0 61 176z" />
    <glyph glyph-name="uni0535" unicode="&#x535;" horiz-adv-x="954"
d="M952 631l-18 -76q68 97 88 170q11 44 10 63t-16 19q-18 0 -58 -154q-4 -15 -6 -22zM250 401l221 885q9 37 -6 37q-38 0 -92.5 -76t-77.5 -168q-3 -12 -19 -12q-12 0 -6 18q35 141 129 245t170 104q69 0 35 -138l-86 -346q215 47 449 47h54.5t51 -1t47.5 -3t35.5 -5
t25 -7.5t5.5 -11.5q-4 -17 -43 -17q-24 0 -98 1.5t-115 0.5q-232 -7 -424 -53l-123 -491q-26 -105 -37.5 -170.5t-8 -102t17.5 -49t42 -12.5q25 0 57 12t80 43.5t108.5 101.5t123.5 170l74 295q20 85 59.5 132t87.5 47q49 0 73.5 -38.5t6.5 -109.5q-20 -91 -160 -280
l-80 -322q-9 -37 7 -37q36 0 85.5 71.5t77.5 160.5q9 30 23 30q17 0 10 -24q-37 -142 -131 -245t-170 -103q-69 0 -35 137l41 168q-71 -107 -150 -178.5t-139.5 -99t-109.5 -27.5q-45 0 -73.5 19.5t-43 66t-7 130t37.5 205.5z" />
    <glyph glyph-name="uni0536" unicode="&#x536;" horiz-adv-x="888"
d="M272 88l90 25q98 93 212.5 252t195.5 301q-112 -105 -248 -105q-141 0 -209 113t-22 301q20 80 60.5 158t99 147t140.5 111.5t173 42.5q161 0 235 -111.5t23 -314.5q-38 -152 -132 -318.5t-206.5 -304t-239.5 -254.5l209 53q74 19 117 19q93 0 119 -66t5 -132t-42 -66
q-11 1 -6 18.5t7 44t1.5 50.5t-21.5 39t-63 9q-15 -2 -25 -4t-21.5 -5t-23.5 -5l-403 -100q-83 -15 -117 -15q-84 0 -109 70.5t-7 141.5t40 71q13 -1 8.5 -21t-7 -50t-3.5 -58t18.5 -45.5t59.5 -11.5q29 4 92 20zM432 975q-38 -163 -4.5 -266t123.5 -103q60 0 111.5 28
t85.5 68t62.5 99t44 106t30.5 105q17 70 22 133t-5 121t-47 92.5t-99 34.5q-220 0 -324 -418z" />
    <glyph glyph-name="uni0537" unicode="&#x537;" horiz-adv-x="819"
d="M158 27l313 1259q9 37 -6 37q-38 0 -92.5 -76t-77.5 -168q-3 -12 -19 -12q-12 0 -6 18q35 141 129 245t170 104q69 0 35 -138l-82 -331q194 32 363 32h54.5t51 -1t47.5 -3t35.5 -5t25 -7.5t5.5 -11.5q-4 -17 -43 -17q-24 0 -98 1.5t-115 0.5q-202 -7 -338 -39l-207 -831
q154 49 315 49q79 0 127 -29.5t37 -72.5q-21 -88 -159.5 -146.5t-303.5 -58.5q-9 0 -13.5 5t-2.5 11q5 19 29 19q60 0 122.5 12t118.5 43t68 76q8 37 -15 59.5t-83 22.5q-70 0 -160 -18t-152 -36t-65 -18q-8 0 -10 9t2 16z" />
    <glyph glyph-name="uni0538" unicode="&#x538;" horiz-adv-x="933"
d="M227 307l244 979q9 37 -6 37q-38 0 -92.5 -76t-77.5 -168q-3 -12 -19 -12q-12 0 -6 18q35 141 129 245t170 104q69 0 35 -138l-57 -229q50 83 101 148.5t94 106t85 66.5t74.5 36t61.5 10q60 0 87 -36t22.5 -129t-44.5 -257l-63 -250q-9 -37 8 -37q36 0 86 71t76 160
q9 31 24 31q13 0 10 -24q-37 -141 -132 -245t-171 -104q-70 0 -35 138l64 252q26 106 37.5 171t8 101t-17.5 48.5t-42 12.5q-17 0 -37.5 -7.5t-54.5 -33t-72 -66t-90.5 -113.5t-108.5 -169l-178 -717q90 -73 153 -107t128 -34q101 0 189 77.5t136 235.5q3 14 9.5 22.5
t13.5 8.5q17 0 10 -24q-26 -106 -78 -201.5t-131 -162t-164 -66.5q-42 0 -86 21.5t-68.5 42.5t-68 65t-55.5 55q-26 -90 -67.5 -137t-88.5 -47q-45 0 -74.5 36.5t-34 91t10.5 119.5q12 48 39.5 73.5t54.5 25.5q25 0 59 -19zM197 176l18 76q-26 22 -49 22q-45 0 -62 -71
q-14 -60 -5 -108t32 -48q38 0 66 129z" />
    <glyph glyph-name="uni0539" unicode="&#x539;" horiz-adv-x="1013"
d="M682 170q47 0 95.5 71t88.5 230l62 248q-37 -13 -62.5 -23.5t-63 -32.5t-63.5 -48.5t-51.5 -69t-38.5 -94.5q-69 -281 33 -281zM207 229l115 455q-49 -90 -100.5 -224t-76.5 -257q-38 -150 0 -150q21 0 62 176zM354 821l117 465q9 37 -6 37q-38 0 -92.5 -76t-77.5 -168
q-3 -12 -19 -12q-12 0 -6 18q35 141 129 245t170 104q69 0 35 -138l-57 -229q139 193 268 280t229 87q90 0 122 -71t-3 -228l-86 -340q120 28 211 28q25 0 37.5 -1t17.5 -4t5 -7t-2 -10q-3 -13 -33.5 -16t-102.5 -11t-145 -29l-49 -198q-48 -194 -135 -306t-209 -112
q-107 0 -153.5 82t-10.5 229q17 67 59 121.5t105 93t124 64t142 49.5l72 285q27 111 27.5 175.5t-18 86.5t-56.5 22q-18 0 -46 -8t-75.5 -34t-96.5 -66t-110.5 -113.5t-116.5 -167.5l-196 -786q-21 -85 -60 -131.5t-84 -46.5q-36 0 -58.5 19.5t-31 67.5t11.5 128
q10 45 33 122.5t85 228.5t136 271z" />
    <glyph glyph-name="uni053A" unicode="&#x53a;" horiz-adv-x="974"
d="M801 811l119 475q9 37 -7 37q-38 0 -92.5 -76t-77.5 -168q-3 -12 -18 -12q-14 0 -8 18q35 141 130 245t171 104q70 0 35 -138l-119 -481q200 10 211 10q37 0 55 -3t21.5 -7.5t1.5 -13.5q-4 -14 -98 -26t-205 -17l-56 -219q-36 -144 -74.5 -241.5t-95.5 -172.5t-135 -110
t-184 -35q-64 0 -113.5 22.5t-78.5 60.5t-44 88.5t-14.5 105.5t14.5 112q20 78 53.5 141.5t73.5 107.5t93.5 77.5t103.5 53.5t112.5 33.5t113 19.5t112.5 9zM385 20q55 0 102 27.5t81 70.5t65 110t51.5 131.5t42.5 150.5l59 244q-73 -4 -130 -14t-121 -35.5t-111.5 -65
t-88 -107t-63.5 -157.5q-40 -170 -7.5 -262.5t120.5 -92.5z" />
    <glyph glyph-name="uni053B" unicode="&#x53b;" horiz-adv-x="935"
d="M268 469l203 817q9 37 -6 37q-38 0 -92.5 -76t-77.5 -168q-3 -12 -19 -12q-12 0 -6 18q35 141 129 245t170 104q69 0 35 -138l-143 -577q119 193 240 300t192 107q88 0 104 -82t-36 -299l-62 -249q-9 -37 6 -37q36 0 86 71t78 160q9 31 23 31q17 0 10 -25
q-37 -142 -131 -245t-170 -103q-69 0 -35 137l74 299q35 146 26.5 196t-61.5 50q-20 0 -52.5 -21t-78.5 -67t-109.5 -134.5t-132.5 -207.5l-110 -442q-21 -85 -61.5 -131.5t-88.5 -46.5q-50 0 -73 40.5t-5 112.5q10 47 53.5 137t120.5 199zM207 225l35 137
q-32 -51 -62.5 -116.5t-40.5 -108.5q-11 -44 -10.5 -66t14.5 -22q19 0 61 164z" />
    <glyph glyph-name="uni053C" unicode="&#x53c;" horiz-adv-x="886"
d="M227 307l244 979q9 37 -6 37q-38 0 -92.5 -76t-77.5 -168q-3 -12 -19 -12q-12 0 -6 18q35 141 129 245t170 104q69 0 35 -138l-264 -1065q91 -74 152 -107.5t126 -33.5q101 0 189.5 77.5t136.5 235.5q3 14 9.5 22.5t13.5 8.5q17 0 10 -24q-26 -106 -78 -201.5t-131 -162
t-164 -66.5q-42 0 -86 21.5t-68.5 42.5t-68 65t-55.5 55q-26 -90 -67.5 -137t-88.5 -47q-45 0 -74.5 36.5t-34 91t10.5 119.5q12 48 39.5 73.5t54.5 25.5t61 -19zM184 176l19 76q-26 22 -49 22q-45 0 -62 -71q-14 -60 -5 -108t32 -48q21 0 36 31.5t29 97.5z" />
    <glyph glyph-name="uni053D" unicode="&#x53d;" horiz-adv-x="1304"
d="M207 225l35 137q-32 -50 -61 -115.5t-40 -109.5t-10.5 -66t14.5 -22q3 0 6.5 3t7 10t7 15t7 20t6.5 22t7.5 26t7 26t7 27.5t6.5 26.5zM268 469l203 817q9 37 -6 37q-36 0 -86 -71t-78 -160q-9 -31 -22 -31q-16 0 -9 24q35 141 129 245t170 104q69 0 35 -138l-143 -577
q103 196 195.5 301.5t150.5 105.5q65 0 91 -38t19 -127.5t-49 -255.5l-12 -52q-18 -74 -26 -126.5t-8 -82.5t9 -46.5t20.5 -21.5t29.5 -5q17 0 38.5 7t58.5 28t86.5 72.5t100.5 127.5l86 342q21 85 61.5 131.5t88.5 46.5q51 0 73.5 -40t4.5 -113q-28 -105 -162 -291
l-66 -260q-9 -37 6 -37q36 0 85 70.5t77 160.5q9 31 23 31q17 0 10 -24q-37 -142 -130 -245.5t-169 -103.5q-69 0 -35 138l27 110q-83 -117 -174 -182.5t-152 -65.5q-190 0 -94 381l10 41q27 108 39.5 171.5t13 100.5t-9.5 49.5t-33 12.5q-38 0 -108 -94.5t-205 -335.5
l-110 -442q-21 -85 -61 -131.5t-87 -46.5q-50 0 -73 40.5t-5 112.5q10 47 53 137t119 199zM1366 881l-31 -117q28 45 58.5 107t38.5 98q24 88 -5 88q-20 0 -61 -176z" />
    <glyph glyph-name="uni053E" unicode="&#x53e;" horiz-adv-x="937"
d="M623 1391l415 -95q62 -12 99 -12q38 0 61 23.5t29.5 51.5t14.5 51.5t20 23.5q6 0 9 -8.5t1.5 -22.5t-4 -28.5t-6.5 -28.5q-40 -160 -197 -160q-56 0 -121 14l-416 98q-73 15 -112 15q-31 0 -51 -24t-26.5 -53t-15 -53t-18.5 -24q-6 0 -7 13t1.5 32.5t6.5 40t9 37.5
q28 127 158 127q63 0 150 -18zM731 1231q16 0 24 -5.5t5 -15.5q-2 -10 -23 -10q-251 0 -383 -528q-28 -115 -39 -221.5t-2.5 -198t49 -146.5t109.5 -55q55 0 106 37.5t90.5 95.5t74.5 138t59 154.5t43 154.5q44 177 41.5 293.5t-37.5 173.5t-94 57q-54 0 -95.5 -42.5
t-54.5 -98.5q-6 -17 -16 -17q-20 0 -15 21q22 86 92.5 138t145.5 52q76 0 131.5 -66t73 -191.5t-26.5 -307.5q-78 -312 -213.5 -477.5t-300.5 -165.5q-74 0 -136.5 38.5t-108 118t-52 202.5t32.5 292q28 113 76 214t113 183t151 131.5t180 51.5z" />
    <glyph glyph-name="uni053F" unicode="&#x53f;" horiz-adv-x="899"
d="M340 758l131 528q9 37 -6 37q-36 0 -86 -71t-78 -160q-9 -31 -22 -31q-16 0 -9 24q35 141 129 245t170 104q69 0 35 -138l-131 -530q-31 -124 -38.5 -198t7 -105t50.5 -31q126 0 317 275l74 299q21 85 61 131.5t88 46.5q49 0 72 -41t6 -113q-34 -129 -170 -319l-145 -584
q-9 -37 6 -37q32 0 78.5 70t74.5 162q9 30 23 30q17 0 10 -24q-37 -143 -126.5 -245.5t-164.5 -102.5q-68 0 -34 137l120 483q-95 -125 -189 -194.5t-163 -69.5q-66 0 -98.5 36.5t-32 131t40.5 254.5zM997 938l-30 -121q77 127 96 209q24 88 -4 88q-19 0 -62 -176z" />
    <glyph glyph-name="uni0540" unicode="&#x540;" horiz-adv-x="931"
d="M209 229l35 138q-31 -52 -61 -118t-40 -108q-24 -88 4 -88q21 0 62 176zM266 453l191 770q-36 33 -54.5 48.5t-50.5 31.5t-61 16q-33 0 -55.5 -6.5t-48.5 -28.5t-49 -69.5t-46 -122.5q-6 -31 -22 -31q-18 0 -7 53q44 179 97.5 249.5t132.5 70.5q21 0 42.5 -12t45 -38
t38 -45t40.5 -55q7 -9 10 -14q3 6 12.5 27.5t15 32t16.5 30t20.5 30t22.5 22t28 17t32 5.5q66 0 88 -64.5t-4 -155.5q-13 -54 -36 -80t-50 -26q-28 0 -47 31l-125 -502q57 89 114 151.5t105 94.5t86.5 45.5t73.5 13.5q61 0 89 -29.5t26.5 -114.5t-39.5 -237l-109 -434
q-4 -17 6 -27t21 -10q36 0 86 71.5t78 160.5q9 30 22 30q8 0 11 -7t0 -17q-37 -142 -131 -245t-170 -103q-40 0 -55.5 38.5t-0.5 98.5l99 395q29 115 41 172.5t14 98.5t-10 52t-39 11q-141 0 -346 -328l-90 -356q-22 -86 -60 -132t-86 -46q-50 0 -74.5 40.5t-7.5 112.5
q33 124 170 316zM592 1237l-14 -55q21 -35 43 -35q26 0 47 84q12 43 11.5 80t-8 56t-18.5 19q-26 0 -61 -149z" />
    <glyph glyph-name="uni0541" unicode="&#x541;" horiz-adv-x="882"
d="M760 625q-112 -105 -248 -105q-140 0 -206.5 122t-18.5 312q19 80 60 161.5t100.5 154t142.5 118.5t174 46q159 0 232 -121t22 -326q-55 -217 -179.5 -452.5t-265.5 -366.5q21 -35 33.5 -53.5t32 -42.5t39.5 -34.5t43 -10.5q37 0 77.5 22.5t68 45t32.5 22.5
q6 0 10.5 -4.5t3.5 -12.5q-4 -17 -37 -45t-85 -51.5t-97 -23.5q-21 0 -39.5 3t-36 12t-27.5 14t-26.5 21.5t-21 20.5t-22.5 26t-19 23q-78 -61 -141 -90.5t-136 -29.5q-84 0 -135.5 74t-28.5 163q22 90 89.5 152.5t144.5 62.5q39 0 73 -13t57 -30.5t47 -50t37 -54.5t34 -61
q123 145 217 402zM463 145q-51 81 -97.5 123.5t-109.5 42.5q-50 0 -87 -32.5t-48 -77.5q-19 -70 17 -122t104 -52q103 0 221 118zM428 954q-25 -111 -20.5 -197.5t40 -139t93.5 -52.5q234 0 338 426q14 55 21 108t4.5 107.5t-17 95t-48 66t-83.5 25.5q-44 0 -87 -22
t-86.5 -70t-84 -136.5t-70.5 -210.5z" />
    <glyph glyph-name="uni0542" unicode="&#x542;" horiz-adv-x="1132"
d="M666 176l8 35q-23 20 -51 20q-25 0 -46 -18.5t-28 -50.5q-14 -54 5 -84.5t46 -30.5q32 0 59 103q1 2 3.5 11t3.5 15zM340 762l31 121q-78 -130 -97 -209q-24 -88 5 -88q20 0 61 176zM397 989l74 297q9 37 -6 37q-36 0 -86 -71t-78 -160q-9 -31 -22 -31q-16 0 -9 24
q35 141 129 245t170 104q69 0 35 -138l-39 -155q103 136 194 214.5t156 78.5q66 0 99 -36.5t33 -131t-39 -254.5l-205 -822q48 -56 93.5 -84t100.5 -28q49 0 101 49t96 154q9 30 25 30q14 0 6 -28q-7 -27 -21 -62.5t-38.5 -78.5t-53 -78.5t-67.5 -59.5t-80 -24
q-19 0 -38 7.5t-33 17t-32 28t-27 29t-26.5 33t-22.5 28.5q-40 -143 -145 -143q-72 0 -109 58t-14 144q11 47 43.5 77t73.5 30q27 0 57 -15l182 730q42 169 37 251t-57 82q-110 0 -315 -303l-84 -340q-21 -85 -61.5 -131.5t-88.5 -46.5t-72 41t-6 113q29 123 170 319z" />
    <glyph glyph-name="uni0543" unicode="&#x543;" horiz-adv-x="948"
d="M805 328q42 168 -31.5 308.5t-232.5 207.5l-174 -701q22 -37 78.5 -66.5t95.5 -29.5q86 0 158 73.5t106 207.5zM166 227q-21 1 -33.5 -13.5t-17.5 -37.5q-10 -37 4.5 -71.5t50.5 -34.5q23 0 42 27.5t26 58.5l8 30q-48 41 -80 41zM432 932l88 354q9 37 -6 37
q-36 0 -86 -71t-78 -160q-9 -31 -22 -31q-8 0 -11 7t0 17q37 142 131 245.5t170 103.5q70 0 35 -138l-98 -399q148 -60 244.5 -161t128.5 -221.5t0 -244.5q-34 -137 -126.5 -213.5t-209.5 -76.5q-70 0 -142.5 38t-103.5 76q-57 -114 -135 -114q-73 0 -109.5 70t-17.5 140
q8 34 30 56t54 22q28 0 90 -35l162 650q-48 14 -121 21t-116 11t-40 15q3 14 18.5 19t76.5 5q90 0 194 -22z" />
    <glyph glyph-name="uni0544" unicode="&#x544;" horiz-adv-x="1251"
d="M1423 1296l-98 -395q-9 -37 8 -37q34 0 82 58t64 112q12 29 24 29q11 0 4 -23q-22 -88 -119 -187t-159 -99q-71 0 -37 137l94 375q5 25 -6 39t-27 14q-36 0 -116.5 -58.5t-132.5 -123.5l-242 -969q-24 -94 -68 -141t-98 -47q-12 0 -6 22l86 344q-62 -104 -119.5 -178.5
t-104 -113.5t-83 -56.5t-68.5 -17.5q-40 0 -64.5 15.5t-36 45.5t-9.5 82t14 118t35 160l36 148q9 37 -6 37q-36 0 -85 -71.5t-76 -160.5q-12 -30 -25 -30q-9 0 -2 24q35 142 126 245t167 103q68 0 37 -137l-39 -149q-52 -215 -53 -270q-1 -64 42 -64q23 0 50 14.5t67.5 53
t98 120t127.5 201.5l194 780q24 94 68 141.5t98 47.5q12 0 6 -23l-49 -203q81 88 183.5 157t156.5 69q43 0 61 -34t0 -104z" />
    <glyph glyph-name="uni0545" unicode="&#x545;" horiz-adv-x="942"
d="M424 -16q-89 0 -161.5 35.5t-112.5 88.5t-56.5 112.5t-3.5 109.5q5 26 19 26q43 0 71.5 -36.5t30.5 -92.5q2 -85 66 -143.5t157 -58.5q126 0 240 115.5t155 285.5q15 70 14.5 123t-22 92t-51 65t-72.5 41.5t-86 22t-92 6.5h-260q-22 0 -33 4.5t-8 14.5q5 22 92 22h240
q43 0 96 18.5t109 54.5t103 102t67 149q31 124 -7.5 188t-127.5 64q-75 0 -161.5 -69t-115.5 -175q-3 -16 -10.5 -32t-23.5 -38.5t-48 -39.5t-76 -23q-10 -1 -12.5 3.5t0.5 16.5q17 68 57.5 137.5t98 128t136.5 95.5t163 37q152 0 227 -77.5t39 -219.5q-17 -68 -57.5 -126.5
t-93.5 -97.5t-108.5 -65t-109.5 -37q151 -25 232 -126.5t43 -254.5q-31 -122 -91 -212t-136.5 -139t-156 -72t-163.5 -23z" />
    <glyph glyph-name="uni0546" unicode="&#x546;" horiz-adv-x="974"
d="M969 651l-31 -121q75 124 98 209q21 88 -6 88q-19 0 -57 -155zM649 1190l-256 -780q-34 -141 -39 -201q-9 -133 60 -133q22 0 53.5 12.5t77 42.5t105.5 94.5t120 153.5l84 340q21 85 61.5 131.5t88.5 46.5q49 0 71.5 -40.5t5.5 -113.5q-26 -117 -170 -319l-73 -297
q-9 -37 6 -37q36 0 86 71.5t78 160.5q9 30 22 30q17 0 10 -24q-37 -142 -131 -245t-170 -103q-68 0 -34 137l38 155q-96 -127 -208.5 -209.5t-182.5 -82.5q-47 0 -78.5 17.5t-45 49.5t-18 69t2 83t16 85t23.5 81l256 780h-168q-102 0 -140.5 36.5t-25.5 84.5
q18 73 126 120.5t241 47.5q6 0 15 -3t16 -7.5t6 -8.5q-4 -12 -19 -12q-83 0 -155 -33.5t-85 -85.5q-12 -47 24 -70.5t118 -23.5h188z" />
    <glyph glyph-name="uni0547" unicode="&#x547;" horiz-adv-x="917"
d="M711 1337l247 -233q47 -39 93 -57q14 -5 28 -7.5t25.5 -1.5t22 3t18 4t13 3.5t8 0.5t1.5 -5q-8 -23 -46.5 -49t-106.5 -26q-130 0 -230 96l-92 84q-40 -26 -85 -72.5t-100.5 -123t-108 -195t-87.5 -258.5q-27 -109 -35 -195t3 -151t48 -99.5t99 -34.5q108 0 202 105
t165 324q5 15 7.5 21.5t15 27t26.5 31.5t41 21.5t59 10.5q21 0 14 -20q-25 -78 -60.5 -152.5t-86 -150t-108 -131.5t-131.5 -91.5t-152 -35.5q-101 0 -169.5 57.5t-93.5 174t19 292.5q28 114 80.5 220.5t107 180t116 136t104 95t73.5 50.5l-118 110q-42 40 -91 60
q-44 17 -98 -1q-10 -4 -11 0q0 1 1 3q2 9 9.5 20t23 24.5t44.5 22.5t66 9q133 0 230 -97z" />
    <glyph glyph-name="uni0548" unicode="&#x548;" horiz-adv-x="952"
d="M354 821l117 465q9 37 -6 37q-38 0 -92.5 -76t-77.5 -168q-3 -12 -19 -12q-12 0 -6 18q35 141 129 245t170 104q69 0 35 -138l-57 -229q50 83 101 148.5t94 106t85 66.5t74.5 36t61.5 10q45 0 73.5 -19.5t43 -66.5t7 -130.5t-37.5 -205.5l-222 -885q-9 -37 7 -37
q36 0 85.5 71.5t77.5 160.5q9 30 23 30q17 0 10 -24q-37 -142 -131 -245t-170 -103q-69 0 -35 137l221 887q26 106 37.5 171t8 101t-17.5 48.5t-42 12.5q-17 0 -39.5 -7.5t-60 -33t-78 -66t-95 -113.5t-110.5 -169l-196 -786q-21 -85 -60.5 -131.5t-87.5 -46.5
q-131 0 -82 215q9 39 35 121t89.5 231t137.5 270zM207 229l115 455q-47 -87 -100.5 -221.5t-84.5 -259.5q-38 -150 0 -150q14 0 34.5 55t35.5 121z" />
    <glyph glyph-name="uni0549" unicode="&#x549;" horiz-adv-x="919"
d="M287 309q-1 1 -9 7.5t-9 7.5t-7.5 6t-8.5 6t-7.5 5t-8.5 5.5t-8.5 5t-10 5.5t-10.5 4.5t-13 5.5q-14 5 -27.5 7.5t-24 1.5t-19.5 -3t-15.5 -4.5t-11 -4t-6.5 -0.5t-1 5q3 9 10.5 19.5t22.5 24t43.5 22.5t64.5 9q130 0 230 -96l92 -84q40 26 85 72.5t100.5 123t108 195
t87.5 258.5q27 109 35 195t-3 151t-48 99.5t-99 34.5q-108 0 -201.5 -104.5t-164.5 -323.5q-5 -14 -8 -21.5t-15.5 -27.5t-26.5 -31.5t-41 -22t-59 -10.5q-21 0 -14 20q25 78 60.5 152.5t86 150t108 132t131.5 92t152 35.5q101 0 169.5 -58t93.5 -174.5t-19 -292.5
q-28 -114 -80.5 -220.5t-107 -180t-116 -136t-104 -95t-73.5 -50.5l119 -110q43 -40 90 -60q43 -16 105 1q14 4 14 -1v-2q-3 -12 -17.5 -28t-51.5 -31.5t-85 -15.5q-133 0 -229 96z" />
    <glyph glyph-name="uni054A" unicode="&#x54a;" horiz-adv-x="1300"
d="M707 598l34 137q-62 -103 -92 -225q-8 -29 -11 -49t-0.5 -29.5t9.5 -9.5q19 0 60 176zM328 709l32 137q-62 -103 -92 -225q-11 -45 -11.5 -66.5t9.5 -22.5q17 0 62 177zM604 1296l-35 -139q218 277 330 277q44 0 67 -18t28 -64t-4.5 -111t-33.5 -172q56 99 114 173
t106 114t86.5 59t68.5 19q65 0 91 -38t20 -128.5t-47 -255.5l-221 -885q-9 -37 6 -37q36 0 85.5 71.5t77.5 160.5q9 30 23 30q17 0 10 -24q-37 -142 -131 -245t-170 -103q-69 0 -35 137l222 887q27 107 39.5 171t12 100.5t-10.5 49t-33 12.5q-116 0 -344 -389l-105 -416
q-21 -85 -61 -132.5t-88 -47.5q-41 0 -62.5 41.5t-3.5 112.5q35 144 160 328l43 170q18 70 28.5 122t15.5 89t4.5 60.5t-6.5 37.5t-15.5 19t-24.5 5q-18 0 -42.5 -15.5t-81 -76.5t-136.5 -168l-111 -444q-20 -78 -60 -124t-87 -46q-42 0 -63.5 41t-2.5 112q36 149 158 328
l86 342q9 37 -6 37q-38 0 -92.5 -76t-77.5 -168q-3 -12 -19 -12q-12 0 -6 18q35 141 129 245t170 104q69 0 35 -138z" />
    <glyph glyph-name="uni054B" unicode="&#x54b;" horiz-adv-x="901"
d="M596 287q15 42 8 81t-31 69.5t-57 62.5t-70 60.5t-70.5 64t-58 72.5t-32.5 86.5t6 105.5q29 120 117 247.5t200 212.5t203 85q67 0 117.5 -38.5t76.5 -103.5t32.5 -150.5t-15.5 -180.5q-47 -213 -185.5 -443t-265.5 -354q29 -46 46 -70t45.5 -45.5t58.5 -21.5
q37 0 77.5 22.5t68 45t32.5 22.5q6 0 10.5 -4.5t3.5 -12.5q-4 -17 -37 -45t-85 -51.5t-97 -23.5q-25 0 -47 6t-36 11.5t-32.5 21.5t-25.5 23t-26 29t-23 27q-76 -60 -140.5 -89t-138.5 -29q-94 0 -141 72.5t-23 164.5q22 90 89.5 152.5t144.5 62.5q39 0 73 -13t57 -30.5
t47 -50t37 -54.5t34 -61q45 51 53 64zM463 145q-51 81 -97.5 123.5t-109.5 42.5q-50 0 -87 -32.5t-48 -77.5q-19 -70 17 -122t104 -52q103 0 221 118zM664 381q48 72 108.5 216.5t89.5 260.5q27 125 24.5 232.5t-47.5 179t-124 71.5q-72 0 -149 -91.5t-115 -239.5
q-15 -62 -15.5 -114t11 -88t31 -68.5t43.5 -55t48.5 -48t46 -48t36 -54t19 -67t-6.5 -86.5z" />
    <glyph glyph-name="uni054C" unicode="&#x54c;" horiz-adv-x="1030"
d="M205 229l114 455q-46 -86 -99.5 -221t-84.5 -260q-38 -150 0 -150q14 0 34.5 55t35.5 121zM352 821l117 465q9 37 -6 37q-38 0 -92.5 -76t-77.5 -168q-3 -12 -19 -12q-12 0 -6 18q35 141 129 245t170 104q69 0 35 -138l-57 -229q50 83 101 148.5t94 106t85 66.5t74.5 36
t61.5 10q45 0 73.5 -19.5t43 -66.5t7 -130.5t-37.5 -205.5l-86 -342v-2q104 32 213 32q49 0 71 -3.5t24.5 -8t0.5 -14.5q-4 -14 -53 -17t-130 -10t-139 -29l-114 -454q-24 -95 -67.5 -142t-96.5 -47q-14 0 -8 23l251 1006q26 106 37.5 171t8 101t-17.5 48.5t-42 12.5
q-17 0 -39.5 -7.5t-60 -33t-78 -66t-95 -113.5t-110.5 -169l-197 -786q-22 -85 -60.5 -131.5t-86.5 -46.5q-131 0 -82 215q9 39 35 121t89.5 231t137.5 270z" />
    <glyph glyph-name="uni054D" unicode="&#x54d;" horiz-adv-x="952"
d="M250 401l221 885q9 37 -6 37q-38 0 -92.5 -76t-77.5 -168q-3 -12 -19 -12q-12 0 -6 18q35 141 129 245t170 104q69 0 35 -138l-221 -886q-26 -105 -37.5 -170.5t-8 -102t17.5 -49t42 -12.5q17 0 39.5 7.5t60 33t78 66t95 113.5t110.5 169l197 790q21 85 61 132t88 47
q131 0 82 -215q-14 -53 -37 -126t-88 -227t-139 -274l-117 -465q-9 -37 7 -37q36 0 85.5 71.5t77.5 160.5q9 30 23 30q17 0 10 -24q-37 -142 -131 -245t-170 -103q-69 0 -35 137l58 229q-61 -103 -123.5 -178t-116 -114t-96.5 -56.5t-80 -17.5q-45 0 -73.5 19.5t-43 66
t-7 130t37.5 205.5zM1092 1188l-115 -459q46 85 99 222t85 263q8 33 13 59.5t5.5 43t-1.5 27.5t-5.5 15.5t-9.5 4.5q-26 0 -71 -176z" />
    <glyph glyph-name="uni054E" unicode="&#x54e;" horiz-adv-x="1099"
d="M1040 1188l-49 -199q98 209 117 287q11 44 10.5 66t-14.5 22q-19 0 -64 -176zM311 688l54 209q9 37 -9 37q-38 0 -91.5 -75.5t-76.5 -168.5q-3 -12 -18 -12q-11 0 -8 18q35 141 130 244.5t171 103.5q69 0 35 -137l-64 -258q-24 -94 -28 -150t7 -76t36 -20q20 0 37 3.5
t51 23t69 54t87 103.5t108 165l125 503q21 85 61 132t88 47q50 0 73.5 -41t4.5 -113q-37 -154 -188 -397l-172 -693q38 -43 56 -61.5t49.5 -34.5t68.5 -16q33 0 68 15.5t75 58t68 106.5q4 14 11.5 22.5t14.5 8.5q12 0 4 -29q-8 -33 -32.5 -78t-60 -91.5t-84.5 -78.5t-97 -32
q-27 0 -52 16t-39.5 34t-35.5 49.5t-31 43.5q-40 -143 -145 -143q-72 0 -109 58t-14 144q11 47 43.5 77t73.5 30q27 0 57 -15l90 359q-201 -326 -391 -326q-88 0 -105 82t35 299zM664 211q-23 20 -52 20q-25 0 -45.5 -18.5t-27.5 -50.5q-14 -54 5 -84.5t46 -30.5
q32 0 59 103q13 52 15 61z" />
    <glyph glyph-name="uni054F" unicode="&#x54f;" horiz-adv-x="1343"
d="M248 401l221 885q9 37 -6 37q-38 0 -92.5 -76t-77.5 -168q-3 -12 -19 -12q-12 0 -6 18q35 141 129 245t170 104q69 0 35 -138l-221 -886q-27 -107 -39.5 -171t-12 -101t10.5 -49.5t33 -12.5q116 0 344 389l194 780q24 94 68 141.5t98 47.5q12 0 6 -23l-86 -344
q119 192 216.5 279.5t160.5 87.5q65 0 91 -38t20 -128.5t-47 -255.5l-221 -885q-9 -37 6 -37q36 0 85.5 71.5t77.5 160.5q9 30 23 30q17 0 10 -24q-37 -142 -131 -245t-170 -103q-69 0 -35 137l222 887q27 107 39.5 171t12 100.5t-10.5 49t-33 12.5q-116 0 -344 -389
l-195 -780q-24 -94 -68 -141t-98 -47q-12 0 -6 22l86 344q-119 -191 -216.5 -278.5t-160.5 -87.5q-65 0 -91 38t-19.5 127.5t47.5 255.5z" />
    <glyph glyph-name="uni0550" unicode="&#x550;" horiz-adv-x="952"
d="M205 229l114 455q-46 -86 -99.5 -221t-84.5 -260q-38 -150 0 -150q14 0 34.5 55t35.5 121zM352 821l117 465q9 37 -6 37q-38 0 -92.5 -76t-77.5 -168q-3 -12 -19 -12q-12 0 -6 18q35 141 129 245t170 104q69 0 35 -138l-57 -229q61 103 127 178.5t123 114.5t103 56.5
t83 17.5q60 0 87 -35.5t23 -129t-44 -257.5l-74 -291q-9 -37 8 -37q36 0 86 71t76 160q9 31 24 31q14 0 11 -24q-37 -141 -132.5 -245t-171.5 -104q-68 0 -34 138l73 293q26 106 37.5 171t8 101t-17.5 48.5t-42 12.5q-17 0 -39.5 -7.5t-60 -33t-78 -66t-95 -113.5
t-110.5 -169l-197 -786q-22 -85 -60.5 -131.5t-86.5 -46.5q-131 0 -82 215q9 39 35 121t89.5 231t137.5 270z" />
    <glyph glyph-name="uni0551" unicode="&#x551;" horiz-adv-x="937"
d="M973 434q-29 -120 -112.5 -223t-201 -165t-239.5 -62q-89 0 -161.5 35.5t-112.5 88.5t-56.5 112.5t-3.5 109.5q5 26 18 26q43 0 72.5 -37t30.5 -92q2 -85 66 -143.5t157 -58.5q71 0 140.5 39t121 99.5t88.5 130t54 136.5q23 83 20.5 160t-23 136t-70.5 94.5t-122 35.5
q-92 0 -177.5 -48.5t-133.5 -125.5q-39 -61 -74 -89t-84 -28q-5 0 -7.5 1t-3.5 3.5t-1.5 4t0 4.5t0.5 4q27 103 139 190.5t260 110.5q-28 8 -56 28t-52 52.5t-32 74.5t3 95q32 125 128.5 213t217.5 88q14 0 21.5 -6.5t5.5 -14.5q-3 -10 -23 -10q-70 0 -130 -67t-95 -208
q-26 -102 4 -165.5t98 -63.5q71 0 125.5 63.5t81.5 170.5q24 87 17 137t-26.5 69t-51.5 19q-31 0 -61.5 -29.5t-41.5 -79.5q-5 -16 -16 -16q-19 0 -15 20q18 68 66.5 109t99.5 41q93 0 140.5 -71t15.5 -199q-23 -95 -91.5 -163.5t-144.5 -88.5q83 -15 145 -75t87 -155
t-4 -217z" />
    <glyph glyph-name="uni0552" unicode="&#x552;" horiz-adv-x="825"
d="M371 883l100 403q9 37 -6 37q-38 0 -92.5 -76t-77.5 -168q-3 -12 -19 -12q-12 0 -6 18q35 141 129 245t170 104q69 0 35 -138l-86 -344q66 20 117.5 22t84.5 -12t55 -41.5t31.5 -62.5t10.5 -78.5t-4.5 -86t-17.5 -87.5q-25 -94 -8 -152.5t77 -58.5q25 0 35.5 -4t7.5 -14
q-3 -15 -39 -15q-134 0 -184 62t-16 192q28 116 22.5 194t-49.5 109t-133 -12l-186 -745q-21 -85 -60.5 -131.5t-87.5 -46.5q-38 0 -61.5 19.5t-33 67.5t12.5 128q10 45 42.5 151.5t101 273t135.5 259.5zM207 229l137 551q-43 -74 -107.5 -256t-99.5 -321q-38 -150 0 -150
q14 0 34.5 55t35.5 121z" />
    <glyph glyph-name="uni0553" unicode="&#x553;" horiz-adv-x="1222"
d="M969 1188l-49 -199q25 51 61.5 147.5t46.5 139.5q6 26 9 39.5t4 26t-1.5 17.5t-9.5 5q-17 0 -55 -156zM350 805l25 92q9 37 -8 37q-38 0 -91.5 -75.5t-76.5 -168.5q-3 -12 -19 -12q-11 0 -8 18q35 141 130 244.5t171 103.5q69 0 35 -137l-37 -147q-51 -204 -51 -244
q8 -34 35 -37q24 0 42.5 7t51 33.5t79.5 93t109 173.5l117 469q21 85 61.5 132t88.5 47q104 0 71 -144q-16 -58 -65.5 -178t-118.5 -229l-35 -144q180 305 320 305q24 0 41 -6t28.5 -20.5t17.5 -33.5t6.5 -49t-3 -63.5t-12.5 -80.5t-20.5 -95.5t-27.5 -113.5l-12 -52
q-9 -36 8 -36q36 0 86 71t76 160q9 31 25 31q14 0 10 -25q-37 -141 -132 -244.5t-171 -103.5q-69 0 -35 137l26 107q55 224 57 270q1 50 -30 51q-19 0 -32.5 -3t-39 -19.5t-52 -47t-68 -91t-91.5 -146.5l-120 -483q-21 -85 -61.5 -131.5t-88.5 -46.5q-49 0 -69 35.5
t-3 107.5q15 57 65.5 177.5t119.5 229.5l39 158q-180 -305 -320 -305q-32 0 -53 8t-32.5 29.5t-14 51t4 80t19 108.5t33.5 145zM596 225l49 199q-25 -51 -61.5 -147.5t-46.5 -139.5q-6 -26 -9 -39.5t-4 -26t1.5 -17.5t9.5 -5q17 0 55 156z" />
    <glyph glyph-name="uni0554" unicode="&#x554;" horiz-adv-x="886"
d="M154 326h65l270 1085q6 23 27 23q53 0 70 -45.5t-6 -143.5l-158 -635q-3 -74 43.5 -125t99.5 -51q96 0 188 114.5t154 358.5q116 465 -90 465q-61 0 -111.5 -44.5t-80.5 -96.5q-15 -31 -27 -31t-6 25q20 81 103.5 145t160.5 64q148 0 194.5 -145.5t-14.5 -381.5
q-32 -126 -87.5 -230t-119.5 -167.5t-128.5 -98t-120.5 -34.5t-108 38t-77 93l-45 -182h518q86 0 80 -23q-3 -18 -49 -18h-559l-31 -125q-24 -94 -65.5 -139.5t-93.5 -45.5q-17 0 -11 23l70 287h-107q-20 0 -25 3.5t-3 14.5q6 23 80 23z" />
    <glyph glyph-name="uni0555" unicode="&#x555;" horiz-adv-x="1001"
d="M809 1434q14 0 21.5 -6.5t5.5 -14.5q-3 -10 -23 -10q-118 0 -237 -162t-195 -467q-21 -83 -35.5 -161.5t-24.5 -166t-5.5 -159t21 -131t55.5 -92.5t97 -33q59 0 118.5 47.5t106 120t89 166.5t71 180.5t48.5 167.5q45 180 52 326.5t-28.5 233.5t-109.5 87q-58 0 -99.5 -42
t-54.5 -99q-6 -17 -16 -17q-20 0 -15 21q23 90 93 140t147 50q97 0 155 -83t66 -234t-43 -363q-95 -377 -253.5 -565t-334.5 -188q-129 0 -205 100.5t-85 272.5t45 401q24 94 61 187t91 183t117 158t142 110t162 42z" />
    <glyph glyph-name="uni0556" unicode="&#x556;" horiz-adv-x="935"
d="M440 -20q-72 0 -127 19t-88.5 50t-54 75.5t-28 89.5t-6.5 98.5t7.5 97.5t16.5 90q7 20 20 20q112 -17 77 -149q-1 -3 -1 -4q-22 -84 -19 -144.5t16 -100t38 -62t45.5 -31.5t38.5 -9l200 803q-88 13 -145.5 39t-83 61.5t-31.5 81t9 97.5q20 80 67 148.5t104.5 111.5
t118 67.5t111.5 24.5q14 0 20.5 -6t4.5 -14q-4 -11 -21 -11q-82 0 -159.5 -86t-114.5 -235q-31 -117 -3 -170t134 -68l112 455q9 37 -6 37q-24 0 -57 -34t-51 -83q-4 -15 -11.5 -25t-13.5 -10q-17 0 -10 25q26 91 104.5 148t134.5 57q70 0 35 -138l-112 -454
q160 -23 230.5 -128.5t33.5 -254.5q-24 -98 -70 -183t-112 -152t-157 -105.5t-196 -38.5zM850 479q17 66 18.5 119t-10.5 87t-29.5 57.5t-42 35.5t-45 17t-41.5 6l-194 -781q84 14 154.5 83t115.5 163.5t74 212.5z" />
    <glyph glyph-name="uni0559" unicode="&#x559;" horiz-adv-x="497"
d="M248 1454q6 -37 -24 -110.5t-23 -114.5q5 -28 32 -50.5t68 -31.5q17 -3 14 -14q-3 -9 -12 -9q-50 0 -106.5 50t-79.5 137q-25 100 0 152.5t69 52.5q25 0 42 -17t20 -45z" />
    <glyph glyph-name="uni055A" unicode="&#x55a;" horiz-adv-x="401"
d="M150 1454q3 28 19.5 45t41.5 17q44 0 69.5 -52.5t0.5 -152.5q-23 -87 -80 -137t-107 -50q-9 0 -12 9q-2 5 2 9t12 5q41 9 68.5 31.5t32.5 50.5q7 41 -23 114.5t-24 110.5z" />
    <glyph glyph-name="uni055B" unicode="&#x55b;" horiz-adv-x="382"
d="M96 1069l33 354q3 31 25 31q10 0 22 -6l80 -39q40 -18 16 -59l-139 -295q-15 -35 -29 -28.5t-8 42.5z" />
    <glyph glyph-name="uni055C" unicode="&#x55c;" horiz-adv-x="587"
d="M276 1284q61 14 91.5 28.5t44.5 45.5q6 15 8 40t5 40.5t13 15.5q19 0 19 -82q0 -77 -43 -130t-125 -73q-62 -15 -91.5 -28.5t-43.5 -44.5q-6 -15 -9.5 -39.5t-6.5 -40t-11 -17.5q-18 0 -18 82q0 78 42.5 130.5t124.5 72.5z" />
    <glyph glyph-name="uni055D" unicode="&#x55d;" horiz-adv-x="479"
d="M162 1427l221 -321q19 -27 7 -34q-10 -6 -36 15l-303 246q-13 13 -17 29.5t9 30.5l63 49q14 13 28.5 8t27.5 -23z" />
    <glyph glyph-name="uni055E" unicode="&#x55e;" horiz-adv-x="579"
d="M289 1356q-68 0 -119 -68t-51 -162q0 -18 -15 -18q-14 0 -14 18q0 166 64.5 257.5t158.5 91.5q63 0 107.5 -41.5t44.5 -104.5q0 -64 -46.5 -109.5t-119.5 -45.5q-18 0 -18 12q0 10 14 10q38 2 66 23t28 57q0 33 -28.5 56.5t-71.5 23.5z" />
    <glyph glyph-name="uni055F" unicode="&#x55f;" horiz-adv-x="796"
d="M393 1532q-84 0 -141 -45.5t-57 -118.5q0 -95 64 -132.5t198 -37.5h266q29 0 29 -16q0 -17 -29 -17h-326q-94 0 -159.5 13.5t-101 39.5t-50 57t-14.5 73q0 22 7.5 47t30 55t56.5 53.5t93 41t134 20.5q29 0 29 -17q0 -16 -29 -16z" />
    <glyph glyph-name="uni0561" unicode="&#x561;" horiz-adv-x="1150"
d="M846 737q-29 0 -58 -119l-51 -202q80 123 109 235q19 86 0 86zM207 223l100 408q9 37 -6 37q-38 0 -92 -75.5t-78 -168.5q-3 -12 -16 -12q-5 0 -8.5 5t-0.5 13q35 142 126 245t167 103q37 0 44 -38.5t-9 -98.5l-98 -389q-10 -39 -14 -67.5t-1 -52t17 -36t39 -12.5
q31 0 83 45.5t120 144.5l59 236q37 149 85 208.5t107 59.5q77 0 46 -123q-15 -64 -59 -149.5t-97 -157.5l-25 -96q-10 -39 -14 -67.5t-1 -52t17 -36t39 -12.5q31 0 83 45.5t120 144.5l59 236q37 149 85.5 208.5t107.5 59.5q76 0 45 -123q-15 -64 -59 -149.5t-97 -157.5
l-55 -221q-9 -37 6 -37q38 0 92.5 76t77.5 168q3 12 19 12q14 0 8 -18q-35 -142 -127 -245t-168 -103q-67 0 -33 137l23 94q-148 -231 -269 -231q-54 0 -80.5 33t-25.5 84.5t14 113.5q-148 -231 -268 -231q-150 0 -88 243zM1206 737q-28 0 -57 -119l-51 -202q79 120 108 235
q19 86 0 86z" />
    <glyph glyph-name="uni0562" unicode="&#x562;"
d="M6 -492q22 0 51 119l76 305q-48 -86 -88 -191.5t-45 -146.5q-7 -26 -7.5 -46.5t3.5 -30t10 -9.5zM158 29l149 602q9 37 -6 37q-38 0 -92 -75.5t-78 -168.5q-3 -12 -16 -12q-5 0 -8.5 5t-0.5 13q35 142 126 245t167 103q37 0 44 -38.5t-9 -98.5l-24 -94q148 231 268 231
q148 0 90 -243l-86 -338q-3 -14 -6 -18.5t-10 -4.5q-55 0 -71.5 40.5t7.5 147.5l35 144q10 39 14 67t2 52.5t-16 36.5t-39 12q-31 0 -84 -46t-121 -145l-110 -442q118 12 229 12q103 0 169 -9t60 -28v-6t0.5 -5t-1.5 -3.5t-7 -1.5q-3 0 -93 6t-163 6q-105 0 -190 -12
l-80 -264q-37 -149 -85.5 -208.5t-107.5 -59.5q-30 0 -43.5 32.5t0.5 89.5q17 76 68 201t119 238z" />
    <glyph glyph-name="uni0563" unicode="&#x563;" horiz-adv-x="835"
d="M854 754l-162 -652q64 67 170 168q16 14 24 4q6 -7 -3 -16q-152 -152 -203 -207l-70 -274q-74 -309 -225 -309q-98 0 -68 118q40 160 222 391l39 162q-47 -71 -124 -115t-130 -44q-125 0 -175 112.5t-8 282.5q42 171 150 287t233 116q77 0 122 -50t22 -140
q-5 -21 -23 -21q-14 0 -8 17q13 58 -7 99.5t-77 41.5q-85 0 -165.5 -101t-117.5 -249q-39 -146 -13 -244t110 -98q71 0 148 83t101 177l78 307q15 66 62 122t92 56q12 0 6 -24zM457 -352l65 264q-78 -123 -116.5 -198t-51.5 -132q-21 -74 21 -74q45 0 82 140z" />
    <glyph glyph-name="uni0564" unicode="&#x564;" horiz-adv-x="788"
d="M127 20q28 0 57 119l52 203q-80 -122 -109 -236q-19 -86 0 -86zM424 -352l65 264q-142 -224 -167 -330q-21 -74 20 -74q45 0 82 140zM434 641l-24 -94q55 86 130.5 158.5t137.5 72.5q148 0 90 -243l-109 -433q64 67 170 168q16 14 24 4q6 -7 -3 -16q-152 -152 -203 -207
l-69 -274q-74 -309 -226 -309q-97 0 -67 118q41 162 221 391l131 529q10 39 14 67t2 52.5t-16 36.5t-39 12q-31 0 -84 -46t-121 -145l-57 -235q-67 -268 -195 -268q-75 0 -45 122q17 66 61 152.5t95 155.5l55 221q9 37 -6 37q-38 0 -92 -75.5t-78 -168.5q-3 -12 -16 -12
q-5 0 -8.5 5t-0.5 13q35 142 126 245t167 103q37 0 44 -38.5t-9 -98.5z" />
    <glyph glyph-name="uni0565" unicode="&#x565;" horiz-adv-x="794"
d="M825 655q-28 0 -57 -118l-41 -162q75 100 100 200q17 80 -2 80zM596 1296l-139 -563q225 94 512 94q51 0 73.5 -4t18.5 -18q-4 -17 -23 -17h-55q-284 0 -537 -96l-110 -440q-10 -39 -14 -67.5t-1 -52t17 -36t39 -12.5q31 0 83 45.5t120 144.5l38 154q37 149 85.5 208.5
t107.5 59.5q76 0 47 -116q-16 -63 -57 -136.5t-88 -130.5l-47 -186q-9 -37 6 -37q38 0 92.5 76t77.5 168q3 12 18 12q14 0 8 -18q-35 -142 -127 -245t-168 -103q-37 0 -43.5 38.5t11.5 98.5l22 94q-148 -231 -268 -231q-150 0 -88 243l264 1063q9 37 -6 37q-38 0 -92.5 -76
t-77.5 -168q-3 -12 -19 -12q-12 0 -6 18q35 142 126 245.5t167 103.5q67 0 33 -138z" />
    <glyph glyph-name="uni0566" unicode="&#x566;"
d="M207 223l100 408q9 37 -6 37q-38 0 -92 -75.5t-78 -168.5q-3 -12 -16 -12q-5 0 -8.5 5t-0.5 13q35 142 126 245t167 103q37 0 44 -38.5t-9 -98.5l-98 -389q-10 -39 -14 -67.5t-1 -52t17 -36t39 -12.5q31 0 83 45.5t120 144.5l59 236q37 149 85 208.5t107 59.5
q77 0 46 -123q-15 -64 -59 -149.5t-97 -157.5l-182 -733q-9 -37 6 -37q38 0 92 75.5t78 168.5q3 12 16 12q5 0 9 -5t1 -13q-35 -142 -127 -245t-168 -103q-37 0 -43.5 38.5t9.5 98.5l151 606q-148 -231 -268 -231q-150 0 -88 243zM846 737q-29 0 -58 -119l-51 -202
q80 123 109 235q19 86 0 86z" />
    <glyph glyph-name="uni0567" unicode="&#x567;" horiz-adv-x="729"
d="M156 23l315 1263q9 37 -6 37q-38 0 -92.5 -76t-77.5 -168q-3 -12 -19 -12q-12 0 -6 18q35 142 126 245.5t167 103.5q67 0 33 -138l-139 -563q82 26 210.5 45t217.5 19q96 0 90 -23q-5 -18 -57 -18q-222 0 -472 -64l-153 -616q66 16 147 16q71 0 116 -25.5t34 -72.5
q-18 -74 -119.5 -121t-232.5 -47q-12 0 -17 16q7 15 19 15q82 0 140 28.5t71 81.5q7 33 -15.5 55.5t-62.5 22.5q-52 0 -99.5 -10.5t-75.5 -21.5t-32 -11q-14 0 -10 21z" />
    <glyph glyph-name="uni0568" unicode="&#x568;" horiz-adv-x="815"
d="M88 -252l219 883q9 37 -6 37q-38 0 -92 -75.5t-78 -168.5q-3 -12 -16 -12q-5 0 -8.5 5t-0.5 13q35 142 126 245t167 103q37 0 44 -38.5t-9 -98.5l-24 -94q148 231 268 231q148 0 90 -243l-102 -408q-9 -37 6 -37q38 0 92.5 76t77.5 168q3 12 18 12q14 0 8 -18
q-35 -142 -127 -245t-168 -103q-37 0 -43.5 38.5t11.5 98.5l96 389q10 39 14 67t2 52.5t-16 36.5t-39 12q-31 0 -84 -46t-121 -145l-174 -704q-30 -110 -19.5 -155.5t72.5 -45.5q73 0 166.5 73t165.5 191q6 13 19 13t10 -19q-10 -40 -60 -102.5t-116 -121.5t-144.5 -101.5
t-138.5 -42.5q-77 0 -99 71t13 209z" />
    <glyph glyph-name="uni0569" unicode="&#x569;" horiz-adv-x="880"
d="M244 375l63 256q9 37 -6 37q-38 0 -92 -75.5t-78 -168.5q-3 -12 -16 -12q-5 0 -8.5 5t-0.5 13q35 142 126 245t167 103q37 0 44 -38.5t-9 -98.5l-22 -90q65 89 163.5 158t172.5 69q92 0 119.5 -68.5t2.5 -174.5l-34 -136q12 0 34.5 -0.5t37 -1t30.5 -1.5t23 -4.5t6 -8.5
q-3 -14 -25 -14h-115l-26 -109q-8 -32 -17.5 -60.5t-31 -71.5t-47.5 -73t-68.5 -52.5t-93.5 -22.5q-85 0 -119.5 59.5t-13.5 142.5q23 90 110.5 151.5t194.5 69.5l24 103q15 57 16.5 90.5t-19 55.5t-68.5 22q-52 0 -130 -46t-143 -136l-188 -756q-21 -84 -43.5 -139
t-46.5 -82t-46.5 -37t-50.5 -10q-34 0 -47.5 31t0.5 91q24 104 108.5 364t162.5 421zM553 20q29 0 51.5 29t35 67.5t28.5 104.5l37 148q-39 -4 -71.5 -26.5t-53.5 -55.5t-33.5 -62.5t-20.5 -60.5q-16 -72 -7.5 -108t34.5 -36zM8 -492q20 0 49 119l150 598
q-39 -88 -119.5 -340t-85.5 -291q-8 -86 6 -86z" />
    <glyph glyph-name="uni056A" unicode="&#x56a;" horiz-adv-x="872"
d="M674 737q-58 -5 -109.5 -24t-89 -45t-70 -60t-54 -66.5t-38.5 -68.5t-26 -62t-15 -49q-38 -166 -16 -243.5t96 -77.5q94 0 159 117t118 331l61 248h-16zM952 1296l-127 -514h58q82 0 139 -7t53 -21q-2 -8 -9 -15.5t-15 -7.5q-102 10 -168 10h-68l-55 -223
q-18 -72 -33 -124t-36.5 -109.5t-43 -97t-51.5 -77.5t-64 -60.5t-78.5 -36t-97.5 -13.5q-79 0 -138 42.5t-83 122t2 191.5q93 375 527 422q2 0 14.5 1t21.5 1l127 506q9 37 -6 37q-38 0 -92.5 -76t-77.5 -168q-3 -12 -18 -12q-14 0 -8 18q35 142 127 245.5t168 103.5
q37 0 43.5 -39t-11.5 -99z" />
    <glyph glyph-name="uni056B" unicode="&#x56b;"
d="M6 -492q22 0 51 119l150 598q-39 -88 -120.5 -340t-86.5 -291q-8 -86 6 -86zM596 1296l-180 -725q61 86 130 146.5t132 60.5q148 0 90 -243l-102 -408q-9 -37 6 -37q38 0 92.5 76t77.5 168q3 12 18 12q14 0 8 -18q-35 -142 -127 -245t-168 -103q-37 0 -43.5 38.5
t11.5 98.5l96 389q10 39 14 67t2 52.5t-16 36.5t-39 12q-87 0 -197 -164l-194 -774q-21 -84 -43.5 -139t-47 -82t-47 -37t-51.5 -10q-34 0 -47.5 31t0.5 91q23 102 109 363t164 422l227 911q9 37 -6 37q-38 0 -92.5 -76t-77.5 -168q-3 -12 -19 -12q-12 0 -6 18
q35 142 126 245.5t167 103.5q67 0 33 -138z" />
    <glyph glyph-name="uni056C" unicode="&#x56c;" horiz-adv-x="430"
d="M424 641l-256 -1026q-9 -37 6 -37q38 0 92 75.5t78 168.5q3 12 16 12q6 0 10 -5t1 -13q-35 -142 -127 -245t-168 -103q-37 0 -44 38.5t9 98.5l256 1026q9 37 -6 37q-38 0 -92 -75.5t-78 -168.5q-3 -12 -17 -12q-4 0 -7.5 5t-0.5 13q35 142 126 245t167 103q37 0 44 -38.5
t-9 -98.5z" />
    <glyph glyph-name="uni056D" unicode="&#x56d;" horiz-adv-x="1150"
d="M1206 737q-28 0 -57 -119l-49 -196q80 125 106 229q19 86 0 86zM6 -492q22 0 51 119l150 598q-39 -88 -120.5 -340t-86.5 -291q-8 -86 6 -86zM596 1296l-180 -725q61 86 130 146.5t132 60.5q148 0 90 -243l-72 -283q-10 -39 -14 -67.5t-1 -52t17 -36t39 -12.5
q31 0 83 45.5t120 144.5l59 236q37 149 85.5 208.5t107.5 59.5q76 0 45 -123q-14 -64 -57.5 -146.5t-96.5 -154.5l-57 -227q-9 -37 6 -37q38 0 92.5 76t77.5 168q3 12 19 12q14 0 8 -18q-35 -142 -127 -245t-168 -103q-67 0 -33 137l23 94q-55 -86 -131 -158.5t-138 -72.5
q-150 0 -88 243l70 283q10 39 14 67t2 52.5t-16 36.5t-39 12q-87 0 -197 -164l-194 -774q-21 -84 -43.5 -139t-47 -82t-47 -37t-51.5 -10q-34 0 -47.5 31t0.5 91q23 102 109 363t164 422l227 911q9 37 -6 37q-38 0 -92.5 -76t-77.5 -168q-3 -12 -19 -12q-12 0 -6 18
q35 142 126 245.5t167 103.5q67 0 33 -138z" />
    <glyph glyph-name="uni056E" unicode="&#x56e;" horiz-adv-x="802"
d="M733 778h139q81 0 140 -9.5t55 -25.5q-3 -10 -25 -10q-98 10 -168 10h-133q52 -196 2 -393q-41 -167 -142 -268.5t-245 -101.5q-60 0 -105.5 23.5t-72 63t-39.5 91.5t-11.5 109t15.5 116q40 157 161 265t306 130q-55 210 -53 303q-102 -61 -192 -94q-29 -11 -35 -2
q-4 13 16 23q174 92 219 118l2 9q27 110 127.5 204.5t202.5 94.5q26 0 36.5 -14.5t6.5 -30.5q-7 -29 -86 -95.5t-184 -138.5q-4 -60 5 -122.5t31 -147t27 -107.5zM272 406q-44 -188 -18 -287t108 -99q44 0 82 24.5t63.5 58.5t48.5 86.5t35 92.5t25 91q22 88 23 196.5
t-18 169.5q-89 -12 -165 -67t-120.5 -124t-63.5 -142zM903 1391q1 7 -3.5 9.5t-10.5 2.5q-57 0 -123.5 -57t-83.5 -125l-4 -19q84 58 152.5 114t72.5 75z" />
    <glyph glyph-name="uni056F" unicode="&#x56f;"
d="M846 737q-29 0 -58 -119l-51 -202q80 123 109 235q19 86 0 86zM207 223l264 1063q9 37 -6 37q-38 0 -92.5 -76t-77.5 -168q-3 -12 -19 -12q-12 0 -6 18q35 142 126 245.5t167 103.5q67 0 33 -138l-260 -1044q-10 -39 -14 -67.5t-1 -52t17 -36t39 -12.5q31 0 83 45.5
t120 144.5l59 236q37 149 85 208.5t107 59.5q77 0 46 -123q-15 -64 -59 -149.5t-97 -157.5l-172 -692q-27 -103 -65.5 -145.5t-92.5 -42.5q-13 0 -8 22l180 721q-148 -231 -268 -231q-150 0 -88 243z" />
    </font>
</defs>
</svg>
